<svg xmlns="http://www.w3.org/2000/svg" viewBox="0 0 36 36">
  <g fill="none" fill-rule="evenodd" stroke="#3381FF" stroke-linejoin="round" stroke-width="1.5">
    <path d="m24.123 18.733-1.449.388a3 3 0 0 0-2.121 3.675"/>
    <path d="m26.42 26.222 3.831-11.323a1.294 1.294 0 0 0-.578-1.535 1.223 1.223 0 0 0-1.574.304l-3.976 5.065-3.106-11.591a1.5 1.5 0 1 0-2.897.776l1.94 7.245-1.448.388L15.894 5.41a1.5 1.5 0 0 0-2.898.776l2.718 10.143-1.449.388-2.33-8.694a1.5 1.5 0 1 0-2.897.777l2.33 8.693-1.45.388-1.552-5.795a1.5 1.5 0 1 0-2.898.776l3.882 14.49a6 6 0 0 0 7.349 4.242l5.591-1.498a6 6 0 0 0 4.13-3.873Z"/>
  </g>
</svg>
