<?xml version="1.0" encoding="UTF-8"?>
<svg width="180px" height="42px" viewBox="0 0 180 42" version="1.1" xmlns="http://www.w3.org/2000/svg" xmlns:xlink="http://www.w3.org/1999/xlink">
    <title>编组</title>
    <g id="2.1" stroke="none" stroke-width="1" fill="none" fill-rule="evenodd">
        <g id="首页-我的-关于我们" transform="translate(-671.000000, -334.000000)">
            <g id="编组" transform="translate(671.000000, 334.000000)">
                <path d="M55.9855081,38.5072459 L55.9855081,24.5 L55.9855081,24.5 L65.7910663,24.5 C68.4757834,24.5 70.6521766,22.3236068 70.6521766,19.6388897 L70.6521766,17.5 L70.6521766,17.5 L55.9855081,17.5 L55.9855081,7.02916667 L69.2693276,7.02916667 C71.9540447,7.02916667 74.1304379,4.85277345 74.1304379,2.16805635 L74.1304379,0 L74.1304379,0 L53.8611103,0 C51.1763932,4.93174529e-16 49,2.17639322 49,4.86111031 L49,38.5072459 C49,40.4362407 50.5637593,42 52.4927541,42 C54.4217489,42 55.9855081,40.4362407 55.9855081,38.5072459 Z M105.347828,42 L105.347828,40.2694436 C105.347828,37.5847266 103.171435,35.4083333 100.486718,35.4083333 L86.9130433,35.4083333 L86.9130433,35.4083333 L86.9130433,4.86111031 C86.9130433,2.17639322 84.73665,-3.15770979e-15 82.051933,0 L79.9275351,0 L79.9275351,0 L79.9275351,37.1388897 C79.9275351,39.8236068 82.1039284,42 84.7886455,42 L105.347828,42 L105.347828,42 Z M115.637104,38.6008144 L117.434781,32.9 L117.434781,32.9 L133.84058,32.9 L135.660688,38.6142273 C136.302997,40.6307547 138.176158,42 140.29251,42 L143.927538,42 L143.927538,42 L132.297719,4.88192439 C131.387578,1.97709425 128.696249,-5.59187523e-16 125.652173,0 C122.608098,5.59187523e-16 119.916769,1.97709425 119.006628,4.88192439 L107.376809,42 L107.376809,42 L111.001032,42 C113.122574,42 114.999074,40.6241436 115.637104,38.6008144 Z M131.782609,26.3375 L119.463767,26.3375 L125.57971,6.76666667 L131.782609,26.3375 Z M166.159419,38.5072459 L166.159419,6.59166667 L166.159419,6.59166667 L174.805552,6.59166667 C177.490269,6.59166667 179.666662,4.41527345 179.666662,1.73055635 L179.666662,0 L179.666662,0 L148.962496,0 C147.142257,3.34372386e-16 145.666662,1.47559485 145.666662,3.29583333 C145.666662,5.11607182 147.142257,6.59166667 148.962496,6.59166667 L159.17391,6.59166667 L159.17391,6.59166667 L159.17391,38.5072459 C159.17391,40.4362407 160.73767,42 162.666665,42 C164.595659,42 166.159419,40.4362407 166.159419,38.5072459 Z" id="FLAT" fill="#444E60" fill-rule="nonzero"></path>
                <g id="编组-2" fill="#3381FF">
                    <path d="M5.97333333,4.97379915e-14 L35.84,4.97379915e-14 L35.84,4.97379915e-14 L35.84,5.97333333 C35.84,9.27231424 33.1656476,11.9466667 29.8666667,11.9466667 L5.97333333,11.9466667 C2.67435243,11.9466667 -2.72282089e-14,9.27231424 -2.76322175e-14,5.97333333 C-2.80362261e-14,2.67435243 2.67435243,5.03440045e-14 5.97333333,4.97379915e-14 Z" id="矩形备份-71"></path>
                    <path d="M5.97333333,14.9333333 L23.8933333,14.9333333 L23.8933333,14.9333333 L23.8933333,20.9066667 C23.8933333,24.2056476 21.2189809,26.88 17.92,26.88 L5.97333333,26.88 C2.67435243,26.88 9.98799916e-14,24.2056476 9.9475983e-14,20.9066667 C9.90719744e-14,17.6076858 2.67435243,14.9333333 5.97333333,14.9333333 Z" id="矩形备份-72" opacity="0.600000024"></path>
                    <path d="M5.97333333,29.8666667 L11.9466667,29.8666667 L11.9466667,29.8666667 L11.9466667,35.84 C11.9466667,39.1389809 9.27231424,41.8133333 5.97333333,41.8133333 C2.67435243,41.8133333 -1.26704192e-13,39.1389809 -1.27108201e-13,35.84 C-1.27512209e-13,32.5410191 2.67435243,29.8666667 5.97333333,29.8666667 Z" id="矩形备份-73" opacity="0.200000003"></path>
                </g>
            </g>
        </g>
    </g>
</svg>