<?xml version="1.0" encoding="UTF-8"?>
<svg width="100px" height="24px" viewBox="0 0 100 24" version="1.1" xmlns="http://www.w3.org/2000/svg" xmlns:xlink="http://www.w3.org/1999/xlink">
    <title>编组</title>
    <g id="2.1" stroke="none" stroke-width="1" fill="none" fill-rule="evenodd">
        <g id="登录页" transform="translate(-670.000000, -161.000000)">
            <g id="编组-5" transform="translate(540.000000, 105.000000)">
                <g id="编组" transform="translate(130.000000, 56.000000)">
                    <path d="M31.1354929,21.4152219 L31.1354929,13.6253041 L31.1354929,13.6253041 L36.5887056,13.6253041 C38.0817704,13.6253041 39.2921386,12.414936 39.2921386,10.9218712 L39.2921386,9.7323601 L39.2921386,9.7323601 L31.1354929,9.7323601 L31.1354929,3.90916464 L38.523088,3.90916464 C40.0161528,3.90916464 41.2265209,2.69879649 41.2265209,1.20573172 L41.2265209,-5.32907052e-14 L41.2265209,-5.32907052e-14 L29.9540412,-5.32907052e-14 C28.4609764,-5.30164336e-14 27.2506083,1.21036814 27.2506083,2.70343292 L27.2506083,21.4152219 C27.2506083,22.4880032 28.1202693,23.3576642 29.1930506,23.3576642 C30.2658318,23.3576642 31.1354929,22.4880032 31.1354929,21.4152219 Z M58.5876,23.3576642 L58.5876,22.3952415 C58.5876,20.9021767 57.3772318,19.6918086 55.8841671,19.6918086 L48.3353734,19.6918086 L48.3353734,19.6918086 L48.3353734,2.70343292 C48.3353734,1.21036814 47.1250052,-5.44531552e-14 45.6319405,-5.32907052e-14 L44.4504888,-5.32907052e-14 L44.4504888,-5.32907052e-14 L44.4504888,20.6542313 C44.4504888,22.1472961 45.6608569,23.3576642 47.1539217,23.3576642 L58.5876,23.3576642 L58.5876,23.3576642 Z M64.309825,21.4672586 L65.3095759,18.296837 L65.3095759,18.296837 L74.4334128,18.296837 L75.4456381,21.474718 C75.8028483,22.5961792 76.8445788,23.3576642 78.0215556,23.3576642 L80.0431216,23.3576642 L80.0431216,23.3576642 L73.5753736,2.71500835 C73.0692129,1.09953104 71.5724705,-5.36016889e-14 69.8795543,-5.32907052e-14 C68.186638,-5.29797215e-14 66.6898956,1.09953104 66.1837349,2.71500835 L59.7159869,23.3576642 L59.7159869,23.3576642 L61.7315434,23.3576642 C62.9114074,23.3576642 63.9549941,22.5925025 64.309825,21.4672586 Z M73.2889032,14.6472019 L66.4379656,14.6472019 L69.8392546,3.76317924 L73.2889032,14.6472019 Z M92.4070454,21.4152219 L92.4070454,3.66585564 L92.4070454,3.66585564 L97.2154641,3.66585564 C98.7085289,3.66585564 99.918897,2.45548749 99.918897,0.962422719 L99.918897,-5.32907052e-14 L99.918897,-5.32907052e-14 L82.8432371,-5.32907052e-14 C81.830939,-5.3104749e-14 81.0103093,0.820629737 81.0103093,1.83292782 C81.0103093,2.8452259 81.830939,3.66585564 82.8432371,3.66585564 L88.5221608,3.66585564 L88.5221608,3.66585564 L88.5221608,21.4152219 C88.5221608,22.4880032 89.3918219,23.3576642 90.4646031,23.3576642 C91.5373844,23.3576642 92.4070454,22.4880032 92.4070454,21.4152219 Z" id="FLAT" fill="#444E60" fill-rule="nonzero"></path>
                    <g id="编组-2" fill="#3381FF">
                        <path d="M3.32197891,2.76610311e-14 L19.9318735,2.76610311e-14 L19.9318735,2.76610311e-14 L19.9318735,3.32197891 C19.9318735,5.15665721 18.4445729,6.64395783 16.6098946,6.64395783 L3.32197891,6.64395783 C1.48730062,6.64395783 -1.55866454e-14,5.15665721 -1.53672395e-14,3.32197891 C-1.64801012e-14,1.48730062 1.48730062,2.7998056e-14 3.32197891,2.76610311e-14 Z" id="矩形备份-71"></path>
                        <path d="M3.32197891,8.30494728 L13.2879157,8.30494728 L13.2879157,8.30494728 L13.2879157,11.6269262 C13.2879157,13.4616045 11.800615,14.9489051 9.96593674,14.9489051 L3.32197891,14.9489051 C1.48730062,14.9489051 5.51026562e-14,13.4616045 5.53220622e-14,11.6269262 C5.46532897e-14,9.7922479 1.48730062,8.30494728 3.32197891,8.30494728 Z" id="矩形备份-72" opacity="0.600000024"></path>
                        <path d="M3.32197891,16.6098946 L6.64395783,16.6098946 L6.64395783,16.6098946 L6.64395783,19.9318735 C6.64395783,21.7665518 5.15665721,23.2538524 3.32197891,23.2538524 C1.48730062,23.2538524 -7.04646183e-14,21.7665518 -7.06893016e-14,19.9318735 C-7.09139849e-14,18.0971952 1.48730062,16.6098946 3.32197891,16.6098946 Z" id="矩形备份-73" opacity="0.200000003"></path>
                    </g>
                </g>
            </g>
        </g>
    </g>
</svg>