<?xml version="1.0" encoding="UTF-8"?>
<svg width="64px" height="64px" viewBox="0 0 64 64" version="1.1" xmlns="http://www.w3.org/2000/svg" xmlns:xlink="http://www.w3.org/1999/xlink">
    <title>形状</title>
    <defs>
        <linearGradient x1="33.7982667%" y1="21.0273821%" x2="7.11994377%" y2="100%" id="linearGradient-1">
            <stop stop-color="#3381FF" offset="0%"></stop>
            <stop stop-color="#A9CAFF" offset="100%"></stop>
        </linearGradient>
    </defs>
    <g id="2.1" stroke="none" stroke-width="1" fill="none" fill-rule="evenodd">
        <g id="微信登录" transform="translate(-156.000000, -72.000000)" fill="url(#linearGradient-1)">
            <path d="M173.454545,118.545455 L173.454545,127.272727 C173.454545,132.092667 169.547212,136 164.727273,136 C159.907333,136 156,132.092667 156,127.272727 C156,122.452788 159.907333,118.545455 164.727273,118.545455 L173.454545,118.545455 Z M196.727273,95.2727273 L196.727273,104 C196.727273,108.81994 192.81994,112.727273 188,112.727273 L170.545455,112.727273 C165.725515,112.727273 161.818182,108.81994 161.818182,104 C161.818182,99.1800604 165.725515,95.2727273 170.545455,95.2727273 L196.727273,95.2727273 Z M220,72 L220,80.7272727 C220,85.5472124 216.092667,89.4545455 211.272727,89.4545455 L176.363636,89.4545455 C171.543697,89.4545455 167.636364,85.5472124 167.636364,80.7272727 C167.636364,75.9073331 171.543697,72 176.363636,72 L220,72 Z" id="形状"></path>
        </g>
    </g>
</svg>