<?xml version="1.0" encoding="UTF-8"?>
<svg width="22px" height="22px" viewBox="0 0 22 22" version="1.1" xmlns="http://www.w3.org/2000/svg" xmlns:xlink="http://www.w3.org/1999/xlink">
    <title>矩形备份 16</title>
    <g id="2.1" stroke="none" stroke-width="1" fill="none" fill-rule="evenodd" stroke-linecap="round" stroke-linejoin="round">
        <g id="组件规范" transform="translate(-1177.000000, -1477.000000)" stroke="#7A7B7C">
            <g id="编组-4备份-4" transform="translate(1064.000000, 1208.000000)">
                <g id="编组-18" transform="translate(0.000000, 260.000000)">
                    <g id="编组备份" transform="translate(109.000000, 8.000000)">
                        <g id="编组-4" transform="translate(4.000000, 1.000000)">
                            <g id="编组-20" transform="translate(5.000000, 5.000000)">
                                <path d="M5.26863767,0 C5.79124953,0 6.21491014,0.442216994 6.21491014,0.987719302 L6.21491014,1.65438597 C6.21491014,1.10888366 6.63857075,0.666666667 7.1611826,0.666666667 C7.68379446,0.666666667 8.10745507,1.10888366 8.10745507,1.65438597 L8.10745507,3.65438597 C8.10745507,3.10888366 8.53111568,2.66666667 9.05372753,2.66666667 C9.57633939,2.66666667 10,3.10888366 10,3.65438597 L10,5.95925784 C10,7.16000283 9.54668912,8.31238234 8.73830338,9.16666667 C8.68154285,9.22664995 8.62333059,9.28478959 8.56375205,9.34104832 L8.56294324,12 L2.81471621,12 L2.81436907,9.6893077 C2.42039973,9.40010564 2.07126037,9.03973369 1.78574874,8.61834746 L0.136646835,6.1844401 C-0.100655911,5.83420529 -0.0210203376,5.34948608 0.314517867,5.10178945 C0.373367915,5.05834593 0.437952954,5.02405796 0.506249119,5 C1.07201023,4.80070535 1.69654587,4.99959019 2.05937198,5.4945956 L2.42982028,6 L2.42982028,1.65438597 C2.42982028,1.10888366 2.85348089,0.666666667 3.37609274,0.666666667 C3.89870459,0.666666667 4.32236521,1.10888366 4.32236521,1.65438597 L4.32236521,0.987719302 C4.32236521,0.442216994 4.74602582,0 5.26863767,0 Z" id="形状结合"></path>
                                <line x1="12" y1="12" x2="0" y2="0" id="路径-3"></line>
                            </g>
                        </g>
                    </g>
                </g>
            </g>
        </g>
    </g>
</svg>