<?xml version="1.0" encoding="UTF-8"?>
<svg width="44px" height="44px" viewBox="0 0 44 44" version="1.1" xmlns="http://www.w3.org/2000/svg" xmlns:xlink="http://www.w3.org/1999/xlink">
    <title>Flat-登录注册</title>
    <g id="2.1" stroke="none" stroke-width="1" fill="none" fill-rule="evenodd">
        <g id="登录页" transform="translate(-626.000000, -298.000000)" fill-rule="nonzero">
            <g id="编组-5" transform="translate(540.000000, 105.000000)">
                <g id="编组-3" transform="translate(86.000000, 193.000000)">
                    <g id="微信" transform="translate(2.000000, 6.000000)">
                        <path d="M29.8135489,17.5003102 C29.8126475,16.615031 30.4416379,15.9716018 31.3133807,15.9661644 C32.1499289,15.9616751 32.8493085,16.6249577 32.8294552,17.4055556 C32.8068945,18.3323463 32.1418071,19.0208968 31.2826983,19.0037507 C30.5048077,18.9893119 29.8135489,18.2818105 29.8135489,17.5003102 L29.8135489,17.5003102 Z" id="路径" fill="#7F8383"></path>
                        <path d="M4.71168867,24.8343204 C4.71035455,24.7834303 4.69191622,24.7344734 4.659348,24.6953469 C4.674766,24.6453669 4.66081627,24.590963 4.62325098,24.5545685 C4.79832148,23.7712634 4.92556345,22.972617 5.16019404,22.2073604 C5.41197069,21.3879582 5.18997408,20.8537225 4.49059448,20.3637056 C2.88427751,19.2392837 1.70751494,17.7195996 0.939551047,15.9327975 C-0.540426396,12.4945573 -0.304893401,9.1853638 1.88439029,6.07289905 C5.35421545,1.1393401 10.2850671,-0.381246478 16.01637,0.0853073921 C19.7785809,0.390327126 23.0191901,1.90369432 25.6010288,4.69670051 C27.1947118,6.42033277 28.1828675,8.43905809 28.3687671,10.8106317 C27.6702899,10.8160463 26.9654958,10.7655104 26.2733356,10.8340948 C23.2231382,11.1418218 20.4400587,12.0677101 18.2706283,14.3833333 C16.1499289,16.6457135 15.0399458,19.2140158 15.7799346,22.36348 C15.8322753,22.5890863 15.8665674,22.8237169 15.9486881,23.0384941 C16.0813446,23.3859278 15.8403971,23.486097 15.6147907,23.6097293 L15.303454,23.6277778 L13.1259019,23.6277778 L12.8190773,23.5989002 C11.7668494,23.3958545 10.7182313,23.1729554 9.66239369,22.9987874 C9.23013198,22.9265933 8.79335815,23.0051043 8.42246136,23.2830513 C8.37514683,23.2765469 8.32771803,23.2941633 8.29612183,23.3299774 C8.07953975,23.3236605 7.92071291,23.4283418 7.79166612,23.5916808 C7.74344577,23.590244 7.69710698,23.6104345 7.66532655,23.6467287 L7.49476818,23.7550197 L7.35038014,23.8172871 L7.20779695,23.9174563 L7.19967513,23.9246757 C6.99731278,23.9397893 6.81320852,24.0473221 6.70063395,24.216159 C6.65126317,24.2163114 6.60443527,24.2380765 6.57248956,24.2757191 L6.41907728,24.3840102 L6.25664074,24.458009 L6.14383756,24.5482516 L6.11135025,24.5672025 L5.9308652,24.6890299 L5.79189172,24.7540045 L5.65562551,24.8550761 L5.64299153,24.8641004 L5.02212297,25.0400733 C4.98512248,25.0099094 4.93797776,24.9950556 4.89036888,24.9985618 L4.71168867,24.8343204 L4.71168867,24.8343204 Z" id="路径" fill="#85DA46"></path>
                        <path d="M15.6147907,23.6097293 C15.840397,23.486097 16.0813446,23.3859278 15.9486881,23.0384941 C15.8665674,22.8237168 15.8322753,22.5899887 15.7790321,22.36348 C15.0408483,19.2140158 16.1499289,16.6457135 18.2697259,14.3833333 C20.4400587,12.0677101 23.2231382,11.1418218 26.274238,10.8340948 C26.9654957,10.764608 27.6702899,10.8160463 28.3687671,10.8106317 C32.3385358,11.1012126 35.7127039,12.5613367 37.9804986,15.9616751 C40.3800474,19.5578398 39.8737868,23.7180203 36.9400023,26.8358996 C36.4445708,27.3611111 35.9563587,27.899859 35.3390998,28.3041455 C35.0467141,28.4954597 34.902326,28.7490412 35.0521286,29.1659616 C35.2705155,29.7687817 35.3851235,30.4104061 35.5331213,31.0375917 C35.5935838,31.2920756 35.6432171,31.5736323 35.403172,31.7595319 C35.1522978,31.9517484 34.859912,31.9066272 34.594599,31.7649464 C34.1614349,31.5330231 33.7075149,31.3245629 33.3131551,31.0366892 C32.3403407,30.3255781 31.3368438,30.2696277 30.157374,30.5006486 C26.0919481,31.2983925 22.3568099,30.4771855 19.0557383,27.906176 C17.7697823,26.9044839 16.7509442,25.690722 16.1345877,24.1692329 C16.0262967,23.9030175 15.7754224,23.8082628 15.6156932,23.6097293 L15.6147907,23.6097293 Z M29.8135489,17.5003102 C29.8135489,18.2827129 30.5048076,18.9893119 31.2826983,19.0037507 C32.1418071,19.0199944 32.8068945,18.3323463 32.8303576,17.406458 C32.8493085,16.6249577 32.1499289,15.9616751 31.3133807,15.9661644 C30.4416379,15.9716018 29.8126475,16.615031 29.8135489,17.5003102 Z M24.9729646,17.4885787 C24.9774529,16.6132262 24.3412431,15.9661872 23.4767197,15.9670887 C22.6446836,15.9679921 22.011181,16.5870558 21.994035,17.4181895 C21.975084,18.3115905 22.5959526,18.9866046 23.4406227,18.9911399 C24.2997315,18.9956289 24.9684286,18.3404681 24.9729646,17.4885787 Z" id="形状" fill="#EDEFF0"></path>
                        <path d="M24.9729646,17.4885787 C24.9684286,18.3404681 24.2997315,18.9956289 23.4406227,18.9911399 C22.5959526,18.9866046 21.975084,18.3106881 21.994035,17.4181895 C22.0120835,16.5879582 22.6437812,15.9679921 23.4767197,15.9670897 C24.3412431,15.9670897 24.9774529,16.6132262 24.9729646,17.4885787 Z" id="路径" fill="#7F8383"></path>
                        <path d="M16.3475601,9.39292161 C16.3475601,8.50764242 16.975648,7.8642132 17.8473909,7.85877575 C18.6839391,7.85428652 19.3833187,8.51756907 19.3634653,9.29816694 C19.3409047,10.2249577 18.6758173,10.9126057 17.8167084,10.8963621 C17.0388178,10.8819233 16.3475601,10.1744219 16.3475601,9.39292161 Z M11.5069748,9.38119007 C11.5024388,10.2321771 10.8346441,10.8882403 9.97463284,10.8828257 C9.12996279,10.8783136 8.50909419,10.2032995 8.52804511,9.30989848 C8.54609362,8.47966723 9.17869372,7.86060349 10.0107298,7.85970013 C10.8752532,7.85879867 11.511463,8.50493515 11.5069748,9.38119007 L11.5069748,9.38119007 Z" id="形状" fill="#116F20"></path>
                    </g>
                </g>
            </g>
        </g>
    </g>
</svg>