<?xml version="1.0" encoding="UTF-8"?>
<svg width="6px" height="10px" viewBox="0 0 6 10" version="1.1" xmlns="http://www.w3.org/2000/svg" xmlns:xlink="http://www.w3.org/1999/xlink">
    <title>形状结合</title>
    <g id="屏幕共享" stroke="none" stroke-width="1" fill="none" fill-rule="evenodd">
        <g id="桌面端-分享完成-老师视角" transform="translate(-568.000000, -51.000000)" fill="#FFFFFF">
            <g id="编组-11备份" transform="translate(560.000000, 32.000000)">
                <path d="M9,27 C9.55228475,27 10,27.4477153 10,28 C10,28.5522847 9.55228475,29 9,29 C8.44771525,29 8,28.5522847 8,28 C8,27.4477153 8.44771525,27 9,27 Z M13,27 C13.5522847,27 14,27.4477153 14,28 C14,28.5522847 13.5522847,29 13,29 C12.4477153,29 12,28.5522847 12,28 C12,27.4477153 12.4477153,27 13,27 Z M9,23 C9.55228475,23 10,23.4477153 10,24 C10,24.5522847 9.55228475,25 9,25 C8.44771525,25 8,24.5522847 8,24 C8,23.4477153 8.44771525,23 9,23 Z M13,23 C13.5522847,23 14,23.4477153 14,24 C14,24.5522847 13.5522847,25 13,25 C12.4477153,25 12,24.5522847 12,24 C12,23.4477153 12.4477153,23 13,23 Z M9,19 C9.55228475,19 10,19.4477153 10,20 C10,20.5522847 9.55228475,21 9,21 C8.44771525,21 8,20.5522847 8,20 C8,19.4477153 8.44771525,19 9,19 Z M13,19 C13.5522847,19 14,19.4477153 14,20 C14,20.5522847 13.5522847,21 13,21 C12.4477153,21 12,20.5522847 12,20 C12,19.4477153 12.4477153,19 13,19 Z" id="形状结合"></path>
            </g>
        </g>
    </g>
</svg>