<?xml version="1.0" encoding="UTF-8"?>
<svg width="124px" height="124px" viewBox="0 0 124 124" version="1.1" xmlns="http://www.w3.org/2000/svg" xmlns:xlink="http://www.w3.org/1999/xlink">
    <title>编组</title>
    <defs>
        <linearGradient x1="100%" y1="50%" x2="0%" y2="50%" id="linearGradient-1">
            <stop stop-color="#7A7B7C" stop-opacity="0" offset="0%"></stop>
            <stop stop-color="#7A7B7C" offset="100%"></stop>
        </linearGradient>
    </defs>
    <g id="Flat" stroke="none" stroke-width="1" fill="none" fill-rule="evenodd">
        <g id="首页-空数据" transform="translate(-672.000000, -312.000000)">
            <g id="编组" transform="translate(672.000000, 312.000000)">
                <rect id="矩形" fill="#FFFFFF" opacity="0.01" x="0" y="0" width="124" height="124"></rect>
                <polygon id="路径-101" stroke="#7A7B7C" points="25 101 21 106 27 107"></polygon>
                <line x1="97.1362967" y1="20.9647238" x2="104.863703" y2="23.0352762" id="路径-100" stroke="#7A7B7C"></line>
                <line x1="102.035276" y1="18.1362967" x2="99.9647238" y2="25.8637033" id="路径-100" stroke="#7A7B7C"></line>
                <path d="M22,62 C22,84.09139 39.90861,102 62,102 C84.09139,102 102,84.09139 102,62 C102,39.90861 84.09139,22 62,22 C46.2951946,22 32.7042873,31.0506738 26.1586434,44.2206562" id="路径" stroke="#7A7B7C" stroke-width="2"></path>
                <circle id="椭圆形" fill="url(#linearGradient-1)" opacity="0.100000001" cx="70" cy="72" r="33"></circle>
                <polyline id="路径-96" stroke="#7A7B7C" stroke-width="2" points="25 33 25 45 37 45"></polyline>
                <polyline id="路径-97" stroke="#7A7B7C" stroke-width="2" points="61 37 61 61 77 77"></polyline>
            </g>
        </g>
    </g>
</svg>