<svg width="124" height="124" xmlns="http://www.w3.org/2000/svg"><defs><linearGradient x1="50%" y1="100%" x2="50%" y2="0%" id="a"><stop stop-color="#7A7B7C" stop-opacity="0" offset="0%"/><stop stop-color="#7A7B7C" offset="100%"/></linearGradient></defs><g fill="none" fill-rule="evenodd"><path fill="#FFF" opacity=".01" d="M0 0h124v124H0z"/><path stroke="#7A7B7C" d="M24 21h8m-4-4v8"/><circle stroke="#7A7B7C" cx="104" cy="107" r="3.5"/><path fill="url(#a)" opacity=".1" d="M44 43v42h56V43L72 24z"/><path d="M62 68c5.523 0 10 4.477 10 10v14H52V78c0-5.523 4.477-10 10-10ZM46 92h32M22 51l40-27 40 27" stroke="#7A7B7C" stroke-width="2"/><path stroke="#7A7B7C" stroke-width="2" d="M29 54v46h66V54M83 38V28h12v19"/></g></svg>