<?xml version="1.0" encoding="UTF-8"?>
<svg width="124px" height="124px" viewBox="0 0 124 124" version="1.1" xmlns="http://www.w3.org/2000/svg" xmlns:xlink="http://www.w3.org/1999/xlink">
    <title>编组</title>
    <defs>
        <linearGradient x1="50%" y1="100%" x2="50%" y2="3.061617e-15%" id="linearGradient-1">
            <stop stop-color="#7A7B7C" stop-opacity="0" offset="0%"></stop>
            <stop stop-color="#7A7B7C" offset="100%"></stop>
        </linearGradient>
    </defs>
    <g id="Flat" stroke="none" stroke-width="1" fill="none" fill-rule="evenodd">
        <g id="首页-空数据" transform="translate(-236.000000, -312.000000)">
            <g id="编组" transform="translate(236.000000, 312.000000)">
                <rect id="矩形" fill="#FFFFFF" opacity="0.01" x="0" y="0" width="124" height="124"></rect>
                <line x1="24" y1="21" x2="32" y2="21" id="路径-100" stroke="#7A7B7C"></line>
                <line x1="28" y1="17" x2="28" y2="25" id="路径-100" stroke="#7A7B7C"></line>
                <circle id="椭圆形" stroke="#7A7B7C" cx="104" cy="107" r="3.5"></circle>
                <polygon id="路径-2" fill="url(#linearGradient-1)" opacity="0.100000001" points="44 43 44 85 100 85 100 43 72 24"></polygon>
                <path d="M62,68 C67.5228475,68 72,72.4771525 72,78 L72,92 L72,92 L52,92 L52,78 C52,72.4771525 56.4771525,68 62,68 Z" id="矩形" stroke="#7A7B7C" stroke-width="2"></path>
                <line x1="46" y1="92" x2="78" y2="92" id="路径-99" stroke="#7A7B7C" stroke-width="2"></line>
                <polyline id="路径-39" stroke="#7A7B7C" stroke-width="2" points="22 51 62 24 102 51"></polyline>
                <polyline id="路径-3" stroke="#7A7B7C" stroke-width="2" points="29 54 29 100 95 100 95 54"></polyline>
                <polyline id="路径-5" stroke="#7A7B7C" stroke-width="2" points="83 38 83 28 95 28 95 47"></polyline>
            </g>
        </g>
    </g>
</svg>