<svg width="44" height="44" xmlns="http://www.w3.org/2000/svg"><g fill="none"><path d="M12.662 22.109c0-1.047.176-2.05.488-2.99l-5.48-4.145A15.97 15.97 0 0 0 6 22.109c0 2.564.6 4.982 1.667 7.13l5.479-4.153a9.44 9.44 0 0 1-.484-2.977" fill="#FBBC05"/><path d="M22.289 12.592a9.48 9.48 0 0 1 5.996 2.122l4.738-4.685C30.136 7.54 26.434 6.002 22.29 6.002c-6.437 0-11.97 3.646-14.619 8.972l5.484 4.144c1.263-3.796 4.863-6.527 9.136-6.527" fill="#EA4335"/><path d="M22.358 31.414c-4.296 0-7.913-2.713-9.184-6.487l-5.508 4.12c2.662 5.293 8.222 8.915 14.692 8.915 3.992 0 7.803-1.388 10.664-3.99l-5.23-3.958c-1.474.91-3.332 1.4-5.435 1.4" fill="#34A853"/><path d="M37.982 21.957c0-.946-.15-1.965-.372-2.91H22.357v6.183h8.779c-.438 2.11-1.632 3.73-3.342 4.784l5.228 3.959c3.006-2.73 4.96-6.799 4.96-12.016" fill="#4285F4"/></g></svg>