<?xml version="1.0" encoding="UTF-8"?>
<svg width="44px" height="44px" viewBox="0 0 44 44" version="1.1" xmlns="http://www.w3.org/2000/svg" xmlns:xlink="http://www.w3.org/1999/xlink">
    <title>Flat-登录注册</title>
    <g id="2.1" stroke="none" stroke-width="1" fill="none" fill-rule="evenodd">
        <g id="登录页" transform="translate(-770.000000, -298.000000)" fill-rule="nonzero">
            <g id="编组-5" transform="translate(540.000000, 105.000000)">
                <g id="编组-4" transform="translate(230.000000, 193.000000)">
                    <g id="谷歌" transform="translate(6.000000, 6.000000)">
                        <path d="M6.662416,16.1088 C6.662416,15.0624 6.838416,14.0592 7.150416,13.1184 L1.670416,8.9736 C0.568094552,11.1903776 -0.00375851744,13.6330776 -2.56435133e-06,16.1088 C-2.56435133e-06,18.6728 0.600016,21.0912 1.667216,23.2384 L7.145616,19.0864 C6.825616,18.1264 6.663216,17.1208 6.662416,16.1088" id="路径" fill="#FBBC05"></path>
                        <path d="M16.288816,6.592 C18.472163,6.58762602 20.5900975,7.33702727 22.284816,8.7136 L27.023216,4.0288 C24.136016,1.5408 20.434416,0.0024 16.288816,0.0024 C9.852016,0.0024 4.319216,3.648 1.670416,8.9736 L7.154416,13.1184 C8.416816,9.3216 12.016816,6.5912 16.290416,6.5912" id="路径" fill="#EA4335"></path>
                        <path d="M16.358416,25.4136 C12.062416,25.4136 8.444816,22.7008 7.174416,18.9272 L1.666416,23.0472 C4.328016,28.34 9.888016,31.9616 16.358416,31.9616 C20.349616,31.9616 24.160816,30.5744 27.022416,27.9728 L21.792816,24.0144 C20.318416,24.924 18.460016,25.4144 16.356816,25.4144" id="路径" fill="#34A853"></path>
                        <path d="M31.982416,15.9568 C31.982416,15.0112 31.832816,13.992 31.610416,13.0464 L16.356816,13.0464 L16.356816,19.2304 L25.136016,19.2304 C24.698416,21.3392 23.504016,22.96 21.793616,24.0144 L27.022416,27.9728 C30.028016,25.2424 31.982416,21.1744 31.982416,15.9568" id="路径" fill="#4285F4"></path>
                    </g>
                </g>
            </g>
        </g>
    </g>
</svg>