<svg width="22" height="22" xmlns="http://www.w3.org/2000/svg"><path d="M11.333 3c.727 0 1.316.59 1.316 1.317v.889a1.317 1.317 0 0 1 2.634 0v2.667a1.317 1.317 0 0 1 2.634 0v3.073a6.086 6.086 0 0 1-1.999 4.509V19h-8l-.001-3.08a5.933 5.933 0 0 1-1.432-1.429L4.19 11.246a1.036 1.036 0 0 1 .515-1.58 1.94 1.94 0 0 1 2.161.66l.516.674V5.206a1.317 1.317 0 1 1 2.634 0v-.889c0-.727.59-1.317 1.317-1.317Zm-1.317 1.778v5.333m2.633-5.333v5.333m2.634-2.667v2.667" stroke="#3381FF" fill="none" stroke-linecap="round" stroke-linejoin="round"/></svg>