<?xml version="1.0" encoding="UTF-8"?>
<svg width="22px" height="22px" viewBox="0 0 22 22" version="1.1" xmlns="http://www.w3.org/2000/svg" xmlns:xlink="http://www.w3.org/1999/xlink">
    <title>矩形备份 24</title>
    <defs>
        <rect id="path-1" x="0" y="0" width="164" height="190" rx="8"></rect>
        <filter x="-24.4%" y="-16.8%" width="148.8%" height="142.1%" filterUnits="objectBoundingBox" id="filter-2">
            <feOffset dx="0" dy="8" in="SourceAlpha" result="shadowOffsetOuter1"></feOffset>
            <feGaussianBlur stdDeviation="12" in="shadowOffsetOuter1" result="shadowBlurOuter1"></feGaussianBlur>
            <feColorMatrix values="0 0 0 0 0   0 0 0 0 0   0 0 0 0 0  0 0 0 0.08 0" type="matrix" in="shadowBlurOuter1"></feColorMatrix>
        </filter>
    </defs>
    <g id="Flat-单窗口" stroke="none" stroke-width="1" fill="none" fill-rule="evenodd">
        <g id="首页（单窗口）" transform="translate(-36.000000, -239.000000)">
            <rect fill="#F3F6F9" x="0" y="0" width="960" height="640"></rect>
            <g id="编组" fill="#1A1E21">
                <rect id="矩形" x="0" y="0" width="72" height="640"></rect>
            </g>
            <g id="编组-4" transform="translate(20.000000, 88.000000)">
                <g id="矩形">
                    <use fill="black" fill-opacity="1" filter="url(#filter-2)" xlink:href="#path-1"></use>
                    <use fill="#FFFFFF" fill-rule="evenodd" xlink:href="#path-1"></use>
                </g>
                <g id="编组-11备份" transform="translate(0.000000, 142.000000)">
                    <rect id="矩形备份-2" fill="#FFFFFF" opacity="0" x="0" y="0" width="164" height="40"></rect>
                    <g id="编组-4备份" transform="translate(16.000000, 9.000000)" stroke="#F45454" stroke-linecap="round" stroke-linejoin="round">
                        <path d="M13,7 L13,6 C13,5.44771525 12.5522847,5 12,5 L6,5 C5.44771525,5 5,5.44771525 5,6 L5,16 C5,16.5522847 5.44771525,17 6,17 L12,17 C12.5522847,17 13,16.5522847 13,16 L13,15 L13,15" id="路径-2"></path>
                        <line x1="8" y1="11" x2="17" y2="11" id="路径-3"></line>
                        <polyline id="路径-5" points="15 13 17 11 15 9"></polyline>
                    </g>
                </g>
            </g>
        </g>
    </g>
</svg>