<svg width="180" height="42" xmlns="http://www.w3.org/2000/svg"><g fill="none" fill-rule="evenodd"><path d="M55.986 38.507V24.5h9.805a4.861 4.861 0 0 0 4.861-4.861V17.5H55.986V7.03h13.283a4.861 4.861 0 0 0 4.861-4.862V0H53.861A4.861 4.861 0 0 0 49 4.861v33.646a3.493 3.493 0 0 0 6.986 0ZM105.348 42v-1.73a4.861 4.861 0 0 0-4.861-4.862H86.913V4.861A4.861 4.861 0 0 0 82.052 0h-2.124v37.139A4.861 4.861 0 0 0 84.788 42h20.56Zm10.29-3.4 1.797-5.7h16.406l1.82 5.714A4.861 4.861 0 0 0 140.293 42h3.635l-11.63-37.118a6.964 6.964 0 0 0-13.291 0L107.377 42H111a4.861 4.861 0 0 0 4.636-3.4Zm16.145-12.263h-12.32l6.117-19.57 6.203 19.57Zm34.376 12.17V6.592h8.647a4.861 4.861 0 0 0 4.86-4.861V0h-30.704a3.296 3.296 0 1 0 0 6.592h10.212v31.915a3.493 3.493 0 0 0 6.985 0Z" fill="#444E60" fill-rule="nonzero"/><g fill="#3381FF"><path d="M5.973 0H35.84v5.973a5.973 5.973 0 0 1-5.973 5.974H5.973A5.973 5.973 0 0 1 5.973 0Z"/><path d="M5.973 14.933h17.92v5.974a5.973 5.973 0 0 1-5.973 5.973H5.973a5.973 5.973 0 1 1 0-11.947Z" opacity=".6"/><path d="M5.973 29.867h5.974v5.973a5.973 5.973 0 1 1-5.974-5.973Z" opacity=".2"/></g></g></svg>