<svg width="22" height="22" xmlns="http://www.w3.org/2000/svg"><path d="M15 10.5a.5.5 0 0 1 .5.5 4.5 4.5 0 0 1-4 4.472V16.5H13a.5.5 0 0 1 .09.992L13 17.5H9a.5.5 0 0 1-.09-.992L9 16.5h1.5v-1.027a4.477 4.477 0 0 1-2.192-.867l.717-.716A3.5 3.5 0 0 0 14.5 11a.5.5 0 0 1 .5-.5Zm-4-6a2.5 2.5 0 0 1 2.47 2.116l1.773-1.773a.5.5 0 0 1 .765.638l-.058.07-6.23 6.23L9 12.5l-.712.712v.001l-.71.71-.001-.001L6.05 15.45a.5.5 0 0 1-.765-.638l.058-.07 1.665-1.664A4.48 4.48 0 0 1 6.5 11a.5.5 0 1 1 1 0c0 .47.092.917.26 1.326l.796-.798a2.5 2.5 0 0 1-.05-.364L8.5 11V7A2.5 2.5 0 0 1 11 4.5Zm2.5 4.913V11a2.5 2.5 0 0 1-3.75 2.165l.75-.75a1.5 1.5 0 0 0 1.993-1.27L12.5 11v-.587l1-1ZM11 5.5a1.5 1.5 0 0 0-1.493 1.356L9.5 7v3.585l3-3V7A1.5 1.5 0 0 0 11 5.5Z" fill="#FFF"/></svg>