<svg width="88" height="19" xmlns="http://www.w3.org/2000/svg"><path d="M8.305 9.668c0-.557-.162-.961-.485-1.213-.306-.27-.728-.405-1.268-.405-.36 0-.719.045-1.078.135-.342.09-.638.225-.89.405v9.356c-.18.054-.467.108-.863.162a8.37 8.37 0 0 1-1.186.081c-.396 0-.755-.027-1.079-.08a1.804 1.804 0 0 1-.782-.324 1.677 1.677 0 0 1-.512-.647C.054 16.85 0 16.48 0 16.032v-8.09c0-.485.099-.88.297-1.186.215-.306.503-.584.862-.836.612-.431 1.376-.782 2.292-1.051.935-.27 1.969-.405 3.101-.405 2.032 0 3.596.45 4.692 1.348 1.097.881 1.645 2.113 1.645 3.694v8.44c-.18.054-.467.108-.863.162a8.37 8.37 0 0 1-1.186.081c-.396 0-.755-.027-1.079-.08a1.804 1.804 0 0 1-.782-.324 1.677 1.677 0 0 1-.512-.647c-.108-.288-.162-.657-.162-1.106V9.668Zm14.372 8.737a9.86 9.86 0 0 1-2.966-.432 7.027 7.027 0 0 1-2.373-1.348c-.665-.593-1.196-1.34-1.591-2.238-.377-.899-.566-1.95-.566-3.155 0-1.186.189-2.202.566-3.047.395-.863.908-1.564 1.537-2.103a5.827 5.827 0 0 1 2.157-1.213 7.796 7.796 0 0 1 2.48-.405c.954 0 1.817.144 2.59.432.79.287 1.465.683 2.022 1.186a5.057 5.057 0 0 1 1.321 1.807c.324.7.486 1.465.486 2.292 0 .61-.171 1.078-.513 1.402-.341.323-.818.53-1.429.62l-6.66.998c.198.593.602 1.042 1.213 1.348.611.288 1.313.431 2.103.431.738 0 1.43-.09 2.077-.27.665-.197 1.204-.422 1.618-.673.287.18.53.431.728.755.197.323.296.665.296 1.024 0 .81-.377 1.411-1.132 1.807a6.004 6.004 0 0 1-1.942.62c-.719.108-1.393.162-2.022.162Zm-.755-10.597c-.431 0-.809.072-1.133.215a2.197 2.197 0 0 0-.755.567 2.3 2.3 0 0 0-.458.755c-.09.27-.144.548-.162.836l4.611-.755c-.054-.36-.251-.72-.593-1.079-.342-.36-.845-.54-1.51-.54ZM35.13 13.47c0 .468.144.8.431.998.306.198.729.297 1.268.297.27 0 .548-.018.836-.054.287-.054.539-.117.755-.19.162.199.296.423.404.675.126.234.189.521.189.863 0 .683-.26 1.24-.782 1.672-.503.431-1.402.647-2.696.647-1.582 0-2.805-.36-3.668-1.079-.845-.719-1.267-1.887-1.267-3.505V2.253c.198-.054.476-.108.836-.162a6.331 6.331 0 0 1 1.186-.108c.791 0 1.403.144 1.834.432.45.27.674.854.674 1.752v1.726h3.532c.108.198.207.45.297.755.108.288.162.611.162.971 0 .63-.144 1.088-.432 1.375-.27.27-.638.405-1.105.405H35.13v4.071Zm10.877 4.476c-.197.036-.494.081-.89.135a6.183 6.183 0 0 1-1.159.108c-.395 0-.755-.027-1.079-.08a1.804 1.804 0 0 1-.781-.324 1.677 1.677 0 0 1-.513-.647c-.108-.288-.162-.657-.162-1.106V.392c.198-.036.486-.08.863-.134A6.62 6.62 0 0 1 43.473.15c.395 0 .746.027 1.051.08.324.055.594.162.81.324.215.162.377.387.485.674.125.27.188.63.188 1.079v15.64Zm9.797.459a9.86 9.86 0 0 1-2.967-.432 7.027 7.027 0 0 1-2.372-1.348c-.666-.593-1.196-1.34-1.591-2.238-.378-.899-.567-1.95-.567-3.155 0-1.186.19-2.202.567-3.047.395-.863.907-1.564 1.537-2.103a5.827 5.827 0 0 1 2.157-1.213 7.796 7.796 0 0 1 2.48-.405c.953 0 1.816.144 2.59.432.79.287 1.464.683 2.022 1.186a5.057 5.057 0 0 1 1.32 1.807c.324.7.486 1.465.486 2.292 0 .61-.17 1.078-.512 1.402-.342.323-.818.53-1.43.62l-6.66.998c.198.593.603 1.042 1.214 1.348.611.288 1.312.431 2.103.431.737 0 1.43-.09 2.076-.27.666-.197 1.205-.422 1.618-.673.288.18.53.431.728.755.198.323.297.665.297 1.024 0 .81-.378 1.411-1.133 1.807a6.004 6.004 0 0 1-1.941.62c-.72.108-1.393.162-2.022.162Zm-.755-10.597c-.432 0-.81.072-1.133.215a2.197 2.197 0 0 0-.755.567 2.3 2.3 0 0 0-.458.755c-.09.27-.144.548-.162.836l4.61-.755c-.053-.36-.25-.72-.592-1.079-.342-.36-.845-.54-1.51-.54Zm19.679 6.256c0 1.366-.512 2.435-1.537 3.208-1.024.773-2.534 1.16-4.53 1.16-.755 0-1.456-.054-2.103-.162-.647-.108-1.204-.27-1.672-.485a3.268 3.268 0 0 1-1.078-.863c-.252-.342-.378-.746-.378-1.214 0-.431.09-.79.27-1.078a2.66 2.66 0 0 1 .647-.755 11.79 11.79 0 0 0 1.78.782c.683.215 1.465.323 2.345.323.558 0 .98-.08 1.268-.242.305-.162.458-.378.458-.647a.677.677 0 0 0-.323-.594c-.216-.144-.576-.26-1.079-.35l-.809-.162c-1.564-.306-2.732-.782-3.505-1.43-.755-.664-1.133-1.608-1.133-2.83 0-.666.144-1.268.432-1.807a3.77 3.77 0 0 1 1.213-1.348c.521-.36 1.141-.639 1.86-.836a9.35 9.35 0 0 1 2.427-.297 10.1 10.1 0 0 1 1.861.162c.593.09 1.106.234 1.537.431a2.7 2.7 0 0 1 1.025.782c.251.306.377.674.377 1.106 0 .413-.08.773-.243 1.078-.143.288-.332.53-.566.729-.144-.09-.36-.18-.647-.27a6.505 6.505 0 0 0-.944-.27 9.9 9.9 0 0 0-1.051-.216 6.084 6.084 0 0 0-.944-.08c-.593 0-1.052.072-1.375.215-.324.126-.486.333-.486.62 0 .198.09.36.27.486.18.126.521.243 1.025.35l.836.19c1.725.395 2.948.943 3.667 1.644.737.683 1.105 1.573 1.105 2.67Zm13.272 0c0 1.366-.512 2.435-1.537 3.208-1.025.773-2.535 1.16-4.53 1.16-.755 0-1.456-.054-2.103-.162-.647-.108-1.205-.27-1.672-.485a3.268 3.268 0 0 1-1.079-.863c-.251-.342-.377-.746-.377-1.214 0-.431.09-.79.27-1.078a2.66 2.66 0 0 1 .647-.755c.52.287 1.114.548 1.78.782.682.215 1.464.323 2.345.323.557 0 .98-.08 1.268-.242.305-.162.458-.378.458-.647a.677.677 0 0 0-.324-.594c-.215-.144-.575-.26-1.078-.35l-.81-.162c-1.563-.306-2.732-.782-3.505-1.43-.755-.664-1.132-1.608-1.132-2.83 0-.666.144-1.268.431-1.807.288-.54.692-.989 1.214-1.348.521-.36 1.141-.639 1.86-.836a9.35 9.35 0 0 1 2.427-.297 10.1 10.1 0 0 1 1.86.162c.594.09 1.106.234 1.538.431.431.198.773.459 1.024.782.252.306.378.674.378 1.106 0 .413-.081.773-.243 1.078-.144.288-.332.53-.566.729-.144-.09-.36-.18-.647-.27a6.505 6.505 0 0 0-.944-.27 9.9 9.9 0 0 0-1.052-.216 6.084 6.084 0 0 0-.943-.08c-.594 0-1.052.072-1.376.215-.323.126-.485.333-.485.62 0 .198.09.36.27.486.18.126.521.243 1.024.35l.836.19c1.726.395 2.948.943 3.667 1.644.737.683 1.106 1.573 1.106 2.67Z"/></svg>