<svg width="110" height="110" xmlns="http://www.w3.org/2000/svg"><path d="M78.636 35.935A27.372 27.372 0 0 1 82.5 50c0 14.345-10.983 26.124-25 27.388V82.5H65a2.5 2.5 0 0 1 .45 4.96l-.45.04H45a2.5 2.5 0 0 1-.45-4.96l.45-.04h7.5v-5.112a27.33 27.33 0 0 1-11.565-3.752l3.675-3.674A22.403 22.403 0 0 0 55 72.5c12.426 0 22.5-10.074 22.5-22.5a22.39 22.39 0 0 0-2.538-10.39l3.674-3.675ZM55 22.5a27.38 27.38 0 0 1 17.026 5.903l4.187-4.187a2.5 2.5 0 0 1 3.825 3.189l-.29.346-28.653 28.653L47.499 60l-7.11 7.111-3.545 3.544-6.593 6.594a2.5 2.5 0 0 1-3.825-3.19l.29-.346 6.687-6.687a27.377 27.377 0 0 1-5.9-16.571L27.5 50c0-15.188 12.312-27.5 27.5-27.5Zm0 5c-12.426 0-22.5 10.074-22.5 22.5a22.4 22.4 0 0 0 4.469 13.46l7.206-7.206A12.442 12.442 0 0 1 42.5 50c0-6.904 5.596-12.5 12.5-12.5 2.278 0 4.414.61 6.254 1.674l7.207-7.205A22.4 22.4 0 0 0 55 27.5Zm12.219 19.852c.184.853.281 1.74.281 2.648 0 6.904-5.596 12.5-12.5 12.5-.909 0-1.795-.097-2.648-.281l5.146-5.145a7.521 7.521 0 0 0 4.576-4.576l5.145-5.146ZM55 42.5a7.5 7.5 0 0 0-7.073 10.002l9.574-9.575A7.488 7.488 0 0 0 55 42.5Z" fill="#FFF" fill-opacity=".081"/></svg>