<svg width="22" height="22" xmlns="http://www.w3.org/2000/svg"><path d="M15.727 7.187a5.5 5.5 0 0 1-4.227 8.29V16.5H13a.5.5 0 0 1 .09.992L13 17.5H9a.5.5 0 0 1-.09-.992L9 16.5h1.5v-1.022a5.466 5.466 0 0 1-2.313-.75l.735-.736a4.5 4.5 0 0 0 6.07-6.07l.735-.735Zm-1.322-1.506.838-.838a.5.5 0 0 1 .765.638l-.058.07-5.731 5.73L9.5 12l-1.422 1.421-.709.71L6.05 15.45a.5.5 0 0 1-.765-.638l.058-.07 1.337-1.338a5.474 5.474 0 0 1-1.176-3.183L5.5 10a5.5 5.5 0 0 1 8.689-4.482l.216.163ZM11 5.5a4.5 4.5 0 0 0-3.607 7.191l1.442-1.44a2.5 2.5 0 0 1 3.417-3.415l1.44-1.443A4.48 4.48 0 0 0 11 5.5Zm2.444 3.97a2.5 2.5 0 0 1-2.973 2.973l1.03-1.029c.425-.15.763-.488.913-.913l1.03-1.03ZM11 8.5a1.5 1.5 0 0 0-1.415 2L11.5 8.585A1.498 1.498 0 0 0 11 8.5Z" fill="#FFF" fill-opacity=".24"/></svg>