<svg width="22" height="22" xmlns="http://www.w3.org/2000/svg"><path d="M10.269 5c.522 0 .946.442.946.988v.666c0-.545.424-.987.946-.987.523 0 .946.442.946.987v2c0-.545.424-.987.947-.987.522 0 .946.442.946.987v2.305a4.669 4.669 0 0 1-1.436 3.382L13.563 17H7.815v-2.31a4.36 4.36 0 0 1-1.03-1.072l-1.648-2.434a.799.799 0 0 1 .178-1.082.733.733 0 0 1 .191-.102c.566-.2 1.19 0 1.553.495l.37.505V6.654c0-.545.424-.987.947-.987.523 0 .946.442.946.987v-.666c0-.546.424-.988.947-.988ZM17 17 5 5" stroke="#7A7B7C" fill="none" stroke-linecap="round" stroke-linejoin="round"/></svg>