<?xml version="1.0" encoding="UTF-8"?>
<svg width="22px" height="22px" viewBox="0 0 22 22" version="1.1" xmlns="http://www.w3.org/2000/svg" xmlns:xlink="http://www.w3.org/1999/xlink">
    <title>矩形备份 24</title>
    <g id="白板" stroke="none" stroke-width="1" fill="none" fill-rule="evenodd" stroke-linecap="round" stroke-linejoin="round">
        <g id="Flat-规范" transform="translate(-1364.000000, -16.000000)" stroke="#7A7B7C">
            <g id="setting" transform="translate(1364.000000, 16.000000)">
                <path d="M12.5890139,5.21267225 C13.5952312,5.48831626 14.4958682,6.01935809 15.2168996,6.73177253 C14.9850321,7.28679254 15.0063537,7.93920823 15.330127,8.5 C15.6542429,9.06138517 16.2094214,9.40619391 16.8061757,9.48365338 C16.9328402,9.9677795 17,10.4760467 17,11 C17,11.5246705 16.9326562,12.033612 16.8061408,12.5186522 C16.2094214,12.5938061 15.6542429,12.9386148 15.330127,13.5 C15.0064889,14.0605576 14.9850499,14.7126722 15.2152613,15.2676649 C14.496108,15.9804049 13.5958304,16.5113304 12.5900181,16.7870526 C12.2241133,16.3082227 11.6480513,16 11,16 C10.3519487,16 9.77588666,16.3082227 9.4104121,16.7860698 C8.40416962,16.5113304 7.50389197,15.9804049 6.78310037,15.2682275 C7.01495008,14.7126722 6.99351106,14.0605576 6.66987298,13.5 C6.3457571,12.9386148 5.79057857,12.5938061 5.19382428,12.5163466 C5.06734384,12.033612 5,11.5246705 5,11 C5,10.4760467 5.06715984,9.9677795 5.19334063,9.48333716 C5.79057857,9.40619391 6.3457571,9.06138517 6.66987298,8.5 C6.99364626,7.93920823 7.01496794,7.28679254 6.78445005,6.73163959 C7.50413182,6.01935809 8.4047688,5.48831626 9.41098608,5.21267225 C9.77588666,5.69177734 10.3519487,6 11,6 C11.6024925,6 12.1427617,5.73359093 12.5094337,5.3121469 L12.5890139,5.21267225 Z" id="路径"></path>
                <circle id="椭圆形" cx="11" cy="11" r="2"></circle>
            </g>
        </g>
    </g>
</svg>