<svg width="22" height="22" xmlns="http://www.w3.org/2000/svg"><g stroke="#7A7B7C" fill="none" fill-rule="evenodd" stroke-linecap="round" stroke-linejoin="round"><path d="M12.589 5.213a5.994 5.994 0 0 1 2.628 1.519 1.997 1.997 0 0 0 1.59 2.752 6.01 6.01 0 0 1 0 3.035 1.997 1.997 0 0 0-1.59 2.749 5.975 5.975 0 0 1-2.627 1.52 1.997 1.997 0 0 0-3.18-.001 5.981 5.981 0 0 1-2.627-1.519 1.997 1.997 0 0 0-1.59-2.752 6.01 6.01 0 0 1 0-3.033 1.997 1.997 0 0 0 1.591-2.752 5.983 5.983 0 0 1 2.627-1.518 1.996 1.996 0 0 0 3.099.099l.079-.1Z"/><circle cx="11" cy="11" r="2"/></g></svg>