<svg width="22" height="22" xmlns="http://www.w3.org/2000/svg"><path d="m12.326 13.364.343-.207c.135-.079.246-.138.357-.186.778-.345 1.464-.101 2.371.93.562.639.728 1.205.512 1.71-.162.376-.473.636-1.027.958-.036.02-.355.201-.436.25-1.29.773-4.244-.997-6.369-4.023-2.13-3.033-2.682-6.268-1.375-7.053l.172-.106.187-.118c.66-.415 1.083-.581 1.585-.498.5.083.926.443 1.286 1.1.76 1.386.592 2.045-.385 2.643-.07.044-.32.19-.343.205-.24.144.166 1.11 1.109 2.452.954 1.357 1.752 2.099 2.013 1.943h0Z" stroke="#7A7B7C" fill="none" stroke-linecap="round" stroke-linejoin="round"/></svg>