<svg width="22" height="22" xmlns="http://www.w3.org/2000/svg"><g fill="none" fill-rule="evenodd"><rect fill="#FF6C6C" width="22" height="22" rx="11"/><path d="M8.233 11.442c-.002.03-.017.349-.023.441a3.892 3.892 0 0 1-.047.439c-.158.92-.764 1.377-2.17 1.525-.87.09-1.45-.126-1.754-.645-.228-.388-.269-.834-.222-1.538.004-.045.035-.447.04-.553.09-1.653 3.315-3.158 7.129-3.11 3.823.048 6.901 1.64 6.812 3.317l-.01.223-.007.244c-.03.86-.133 1.345-.495 1.741-.361.396-.916.544-1.684.444-1.624-.215-2.089-.79-2.032-2.051.004-.091.024-.41.025-.439.016-.307-1.042-.567-2.734-.588-1.712-.02-2.808.215-2.827.55h-.001Z" fill="#FFF" fill-rule="nonzero"/></g></svg>