<svg width="546" height="346" xmlns="http://www.w3.org/2000/svg"><defs><linearGradient x1="50%" y1="0%" x2="50%" y2="100%" id="a"><stop stop-color="#F1F9FB" offset="0%"/><stop stop-color="#F1F9FB" stop-opacity="0" offset="100%"/></linearGradient><linearGradient x1="100%" y1="0%" x2="0%" y2="100%" id="b"><stop stop-color="#AAE3FE" offset="0%"/><stop stop-color="#71C3FC" offset="100%"/></linearGradient><linearGradient x1="16.951%" y1="100%" x2="87.66%" y2="0%" id="c"><stop stop-color="#C7DEEE" stop-opacity="0" offset="0%"/><stop stop-color="#C7DEEE" offset="100%"/></linearGradient><linearGradient x1="50%" y1="0%" x2="50%" y2="100%" id="d"><stop stop-color="#C7DEEE" stop-opacity="0" offset="0%"/><stop stop-color="#C7DEEE" offset="100%"/></linearGradient></defs><g fill="none" fill-rule="evenodd"><path fill-opacity=".01" fill="#FFF" d="M0 0h546v346H0z"/><path d="M0 346c90.267-68 180.933-102 272-102 91.067 0 182.4 34 274 102" fill="url(#a)"/><circle fill="url(#b)" opacity=".54" cx="156" cy="191" r="8"/><circle fill="url(#b)" opacity=".21" cx="249.5" cy="65.5" r="3.5"/><circle fill="url(#b)" opacity=".32" cx="390" cy="159" r="5"/><circle fill="#E3F3FE" cx="273" cy="173" r="95"/><circle fill="#C7DEEE" opacity=".42" cx="335" cy="141" r="13"/><circle fill="#C7DEEE" opacity=".36" cx="295.5" cy="243.5" r="11.5"/><circle fill="#C7DEEE" opacity=".56" cx="233" cy="145" r="9"/><path d="M198.5 199c14.083 0 25.5 11.417 25.5 25.5 0 9.037-4.7 16.976-11.79 21.505-13.148-10.958-23.289-25.402-29.005-41.91A25.388 25.388 0 0 1 198.5 199Z" fill="url(#c)" opacity=".766"/><path d="M273 78c10.854 0 21.284 1.82 31 5.173-.096 19.252-15.73 34.827-35 34.827-18.223 0-33.193-13.927-34.848-31.717C246.012 80.96 259.16 78 273 78Z" fill="url(#d)" opacity=".92"/><path d="m181.944 200.178-.313.276-1.47 1.312-1.438 1.305c-.475.433-.944.865-1.408 1.296l-.564.525-1.109 1.044-1.084 1.035-1.058 1.025-1.034 1.016-.507.504-.996 1.001-.97.991c-.798.822-1.57 1.633-2.315 2.433l-.88.955-.855.944-.418.468-.816.927-.399.46-.777.91-.379.45-.738.893a91.435 91.435 0 0 0-2.375 3.03l-.62.838c-5.958 8.176-8.056 14.506-5.933 18.184 2.124 3.678 8.655 5.026 18.715 3.954l1.035-.117a91.435 91.435 0 0 0 3.812-.543l1.142-.193.58-.102 1.177-.218c.396-.076.796-.154 1.2-.235l1.222-.252 1.245-.268.63-.14 1.279-.295c1.074-.252 2.171-.521 3.291-.808l1.354-.354 1.376-.37 1.396-.387 1.418-.404 1.437-.422 1.459-.438 1.647-.509c.305-.095.61-.19.916-.288l1.85-.594 1.87-.616.423-.142a95.094 95.094 0 0 0 3.148 3.177c-29.948 10.235-51.637 12-57.086 2.564-5.446-9.434 6.919-27.328 30.743-48.138.36 1.452.753 2.89 1.177 4.316ZM340.11 104.15c29.317-9.867 50.493-11.458 55.867-2.15 5.446 9.434-6.919 27.328-30.743 48.138a96.733 96.733 0 0 0-1.177-4.316l.313-.276 1.47-1.312 1.438-1.305c.475-.433.944-.865 1.408-1.296l.564-.525 1.109-1.044 1.084-1.035 1.058-1.025 1.034-1.016.507-.504.996-1.001.97-.991c.798-.822 1.57-1.633 2.315-2.433l.88-.955.855-.944.418-.468.816-.927.399-.46.777-.91.379-.45.738-.893a91.435 91.435 0 0 0 2.375-3.03l.62-.838c5.958-8.176 8.056-14.506 5.933-18.184-2.124-3.678-8.655-5.026-18.715-3.954l-1.035.117a91.435 91.435 0 0 0-3.812.543l-1.142.193-.58.102-1.177.218c-.396.076-.796.154-1.2.235l-1.222.252-1.245.268-.63.14-1.279.295c-1.074.252-2.171.521-3.291.808l-1.354.354-1.376.37-1.396.387-1.418.404-1.437.422-1.459.438-1.647.509c-.305.095-.61.19-.916.288l-1.85.594-1.87.616-.422.141a96.415 96.415 0 0 0-3.149-3.176Z" fill="#BDD5EE" fill-rule="nonzero"/><g opacity=".45" transform="rotate(-30 217.962 -324.973)"><path d="M0 7V4a4 4 0 0 1 4-4h6a4 4 0 0 1 4 4v5.5a3.5 3.5 0 0 1-3.5 3.5H9a2 2 0 0 0-2 2v4h0" stroke="#BDD5EE" stroke-width="4" stroke-linecap="round" stroke-linejoin="round"/><circle fill="#BDD5EE" cx="7" cy="27" r="2"/></g><g opacity=".78" transform="rotate(-30 232.347 -541.102)"><circle fill="#BDD5EE" cx="3" cy="37" r="3"/><path d="M0 20c11.046 0 20 8.954 20 20h0" stroke="#BDD5EE" stroke-width="4" stroke-linecap="round" stroke-linejoin="round"/><path d="M0 10c16.569 0 30 13.431 30 30h0" stroke="#BDD5EE" stroke-width="4" stroke-linecap="round" stroke-linejoin="round"/><path d="M0 0c22.091 0 40 17.909 40 40h0" stroke="#BDD5EE" stroke-width="4" stroke-linecap="round" stroke-linejoin="round"/></g><path d="M394.244 103c8.836 15.305-38.283 59.053-105.244 97.713S160.593 258.305 151.756 243" stroke="#BDD5EE" stroke-width="4"/></g></svg>