<svg width="44" height="44" xmlns="http://www.w3.org/2000/svg"><path d="M25.178 10.425a11.987 11.987 0 0 1 5.256 3.039A3.984 3.984 0 0 0 30.66 17a3.994 3.994 0 0 0 2.952 1.967c.254.969.388 1.985.388 3.033 0 1.05-.135 2.067-.388 3.037A3.975 3.975 0 0 0 30.66 27a3.994 3.994 0 0 0-.23 3.535 11.95 11.95 0 0 1-5.25 3.04A3.993 3.993 0 0 0 22 32a3.994 3.994 0 0 0-3.18 1.572 11.963 11.963 0 0 1-5.254-3.036A3.984 3.984 0 0 0 13.34 27a3.994 3.994 0 0 0-2.952-1.967A11.96 11.96 0 0 1 10 22c0-1.048.134-2.064.387-3.033A3.991 3.991 0 0 0 13.34 17a3.994 3.994 0 0 0 .229-3.537 11.965 11.965 0 0 1 5.253-3.038A3.985 3.985 0 0 0 22 12a3.99 3.99 0 0 0 3.019-1.376l.159-.199ZM22 18a4 4 0 1 0 0 8 4 4 0 0 0 0-8Z" fill="#FFF" fill-rule="evenodd"/></svg>