<svg xmlns="http://www.w3.org/2000/svg" fill="none" viewBox="0 0 40 40"><rect width="40" height="40" fill="#FFA800" rx="12"/><g fill="#fff"><path d="M27.375 14v12h1.25V14h-1.25ZM26 27.375H14v1.25h12v-1.25ZM12.625 26V14h-1.25v12h1.25ZM14 12.625h12v-1.25H14v1.25Zm0 14.75c-.76 0-1.375-.616-1.375-1.375h-1.25A2.625 2.625 0 0 0 14 28.625v-1.25ZM27.375 26c0 .76-.616 1.375-1.375 1.375v1.25A2.625 2.625 0 0 0 28.625 26h-1.25Zm1.25-12A2.625 2.625 0 0 0 26 11.375v1.25c.76 0 1.375.616 1.375 1.375h1.25Zm-16 0c0-.76.616-1.375 1.375-1.375v-1.25A2.625 2.625 0 0 0 11.375 14h1.25Z"/><path fill-rule="evenodd" d="M17.5 19a1.5 1.5 0 1 0 0-3 1.5 1.5 0 0 0 0 3Zm4.5-1 3 7H15l2-4 3 1 2-4Z" clip-rule="evenodd"/></g></svg>