<svg width="44" height="44" xmlns="http://www.w3.org/2000/svg"><g fill="none"><path d="M31.814 23.5c-.001-.885.628-1.528 1.5-1.534.836-.004 1.535.659 1.515 1.44-.022.926-.687 1.615-1.546 1.598-.778-.015-1.47-.722-1.47-1.504Z" fill="#7F8383"/><path d="M6.712 30.834a.227.227 0 0 0-.053-.139.139.139 0 0 0-.036-.14c.175-.784.303-1.582.537-2.348.252-.819.03-1.353-.67-1.843-1.606-1.125-2.782-2.644-3.55-4.431-1.48-3.438-1.245-6.748.944-9.86 3.47-4.934 8.401-6.454 14.132-5.988 3.763.305 7.003 1.819 9.585 4.612 1.594 1.723 2.582 3.742 2.768 6.114-.699.005-1.404-.045-2.096.023-3.05.308-5.833 1.234-8.002 3.55-2.121 2.262-3.231 4.83-2.491 7.98.052.225.087.46.169.674.132.348-.109.448-.334.572l-.312.018h-2.177l-.307-.03c-1.052-.202-2.1-.425-3.157-.6a1.586 1.586 0 0 0-1.24.285.143.143 0 0 0-.126.047c-.216-.006-.375.098-.504.262a.162.162 0 0 0-.127.055l-.17.108-.145.062-.142.1-.008.008a.659.659 0 0 0-.5.291.169.169 0 0 0-.128.06l-.153.108-.162.074-.113.09-.033.02-.18.121-.14.065-.135.101-.013.01-.62.175A.187.187 0 0 0 6.89 31l-.178-.165Z" fill="#85DA46"/><path d="M17.615 29.61c.225-.124.466-.224.334-.572-.082-.214-.117-.448-.17-.675-.738-3.149.37-5.717 2.49-7.98 2.171-2.315 4.954-3.241 8.005-3.549.691-.07 1.396-.018 2.095-.023 3.97.29 7.344 1.75 9.611 5.15 2.4 3.597 1.894 7.757-1.04 10.875-.495.525-.984 1.064-1.6 1.468-.293.191-.438.445-.288.862.219.603.333 1.244.481 1.872.06.254.11.536-.13.722-.25.192-.543.147-.808.005-.434-.232-.887-.44-1.282-.728-.973-.711-1.976-.767-3.156-.536-4.065.797-7.8-.024-11.101-2.595-1.286-1.002-2.305-2.215-2.921-3.737-.109-.266-.36-.36-.52-.56Zm14.199-6.11c0 .783.69 1.49 1.469 1.504.859.016 1.524-.672 1.547-1.598.02-.781-.68-1.444-1.517-1.44-.871.006-1.5.649-1.5 1.534Zm-4.841-.011c.004-.876-.632-1.523-1.496-1.522-.832.001-1.466.62-1.483 1.451-.019.894.602 1.569 1.447 1.573.859.005 1.527-.65 1.532-1.502Z" fill="#EDEFF0"/><path d="M26.973 23.489a1.496 1.496 0 0 1-1.532 1.502c-.845-.004-1.466-.68-1.447-1.573a1.45 1.45 0 0 1 1.483-1.45c.864 0 1.5.645 1.496 1.52Z" fill="#7F8383"/><path d="M18.348 15.393c0-.885.628-1.529 1.5-1.534.836-.005 1.535.659 1.515 1.44-.022.926-.687 1.614-1.546 1.597-.778-.014-1.47-.722-1.47-1.503Zm-4.841-.012a1.495 1.495 0 0 1-1.532 1.502c-.845-.005-1.466-.68-1.447-1.573a1.45 1.45 0 0 1 1.483-1.45c.864-.001 1.5.645 1.496 1.521Z" fill="#116F20"/></g></svg>