<svg class="icon" viewBox="0 0 1024 1024" xmlns="http://www.w3.org/2000/svg" width="200" height="200"><path d="M944 944H80c-26.4 0-48-18.4-48-40.8V656h960v247.2c0 22.4-21.6 40.8-48 40.8z" fill="#5ACC9B"/><path d="M80 80h864c26.4 0 48 18.4 48 40.8V368H32V120.8C32 98.4 53.6 80 80 80z" fill="#6CCBFF"/><path d="M32 368h960v288H32z" fill="#FFD766"/><path d="M352 80h320v864H352z" fill="#FF5562"/><path d="M444 128h64v48h-64zm64-48h64v48h-64zm0 96h64v48h-64zm-64 48h64v48h-64zm64 48h64v48h-64zm-64 48h64v48h-64zm64 48h64v48h-64zm-64 48h64v48h-64zm64 48h64v48h-64zm-64 48h64v48h-64zm64 48h64v48h-64zm-64 48h64v48h-64zm64 48h64v48h-64zm-64 48h64v48h-64zm64 48h64v48h-64zm-64 48h64v48h-64zm0 96h64v48h-64zm64-48h64v48h-64z" fill="#FFF"/></svg>