<?xml version="1.0" encoding="UTF-8"?>
<svg width="24px" height="24px" viewBox="0 0 24 24" version="1.1" xmlns="http://www.w3.org/2000/svg" xmlns:xlink="http://www.w3.org/1999/xlink">
    <title>矩形备份 24</title>
    <g id="Flat-单窗口" stroke="none" stroke-width="1" fill="none" fill-rule="evenodd">
        <g id="登录-状态" transform="translate(-124.000000, -347.000000)" fill-rule="nonzero">
            <g id="编组-2" transform="translate(48.000000, 337.000000)">
                <g id="编组-4备份-4" transform="translate(76.000000, 10.000000)">
                    <g id="google" transform="translate(3.000000, 3.000000)">
                        <path d="M3.76669956,9 C3.76669956,8.41549476 3.86646928,7.85476861 4.04298491,7.32932754 L0.943984203,5.01278446 C0.321343935,6.24966006 -0.00199343308,7.61539098 -3.27187584e-16,9 C-3.27187584e-16,10.4328816 0.339226269,11.7844541 0.94244929,12.9841473 L4.03991509,10.6637689 C3.85930685,10.1276247 3.76703336,9.56571762 3.76669956,9" id="路径" fill="#FBBC05"></path>
                        <path d="M9.20952102,3.68192278 C10.5065273,3.68192278 11.6784376,4.13142419 12.5993888,4.86780875 L15.2785893,2.24980823 C13.6462033,0.859115322 11.5533418,2.61616349e-15 9.20952102,2.61616349e-15 C5.57022895,2.61616349e-15 2.44206478,2.03656354 0.943984203,5.01278446 L4.04451984,7.32932754 C4.75825701,5.20761953 6.79355911,3.68192278 9.20952102,3.68192278" id="路径" fill="#EA4335"></path>
                        <path d="M9.20952102,14.3180772 C6.79279164,14.3180772 4.75748954,12.7923805 4.04298491,10.6706725 L0.943984203,12.9872155 C2.44129733,15.9634365 5.56946149,18 9.20952102,18 C11.455107,18 13.5993883,17.2198926 15.2095179,15.7570954 L12.2670789,13.5310662 C11.4374554,14.0427001 10.3921758,14.3180772 9.20875357,14.3180772" id="路径" fill="#34A853"></path>
                        <path d="M18,9 C18,8.4684224 17.9155795,7.89542317 17.7904836,7.36384556 L9.20875357,7.36384556 L9.20875357,10.8409614 L14.1481217,10.8409614 C13.9017673,12.0268474 13.2294729,12.9381232 12.2678464,13.5310662 L15.2095179,15.7570954 C16.9002308,14.2214267 18,11.9340322 18,9" id="路径" fill="#4285F4"></path>
                    </g>
                </g>
            </g>
        </g>
    </g>
</svg>