<svg width="24" height="24" xmlns="http://www.w3.org/2000/svg"><g fill="none"><path d="M6.767 12c0-.585.1-1.145.276-1.67L3.944 8.012A8.84 8.84 0 0 0 3 12c0 1.433.34 2.784.942 3.984l3.098-2.32A5.221 5.221 0 0 1 6.767 12" fill="#FBBC05"/><path d="M12.21 6.682c1.297 0 2.468.45 3.39 1.186l2.679-2.618C16.646 3.86 14.553 3 12.209 3 8.57 3 5.443 5.037 3.945 8.013l3.1 2.316c.714-2.121 2.75-3.647 5.166-3.647" fill="#EA4335"/><path d="M12.21 17.318c-2.417 0-4.453-1.526-5.167-3.647l-3.099 2.316C5.441 18.963 8.569 21 12.21 21c2.245 0 4.39-.78 6-2.243l-2.943-2.226c-.83.512-1.875.787-3.058.787" fill="#34A853"/><path d="M21 12c0-.532-.084-1.105-.21-1.636h-8.58v3.477h4.94a4.05 4.05 0 0 1-1.881 2.69l2.942 2.226C19.9 17.221 21 14.934 21 12" fill="#4285F4"/></g></svg>