<?xml version="1.0" encoding="UTF-8"?>
<svg width="24px" height="24px" viewBox="0 0 24 24" version="1.1" xmlns="http://www.w3.org/2000/svg" xmlns:xlink="http://www.w3.org/1999/xlink">
    <title>矩形备份 24</title>
    <g id="Flat-单窗口" stroke="none" stroke-width="1" fill="none" fill-rule="evenodd">
        <g id="登录" transform="translate(-674.000000, -347.000000)" fill="#FFFFFF" fill-rule="nonzero">
            <g id="编组-18" transform="translate(584.000000, 161.000000)">
                <g id="编组-16" transform="translate(0.000000, 176.000000)">
                    <g id="编组-4备份-5" transform="translate(90.000000, 10.000000)">
                        <path d="M15.5375,8.8398926 C15.7675,8.8398926 15.99375,8.8570771 16.22125,8.88162639 C15.60875,6.08055236 12.56,4 9.07875,4 C5.1875,4 2,6.60345224 2,9.91146912 C2,11.8201764 3.06,13.3876486 4.8325,14.6052934 L4.125,16.6956655 L6.6,15.4780207 C7.485,15.6486383 8.195,15.8253932 9.07875,15.8253932 C9.30125,15.8253932 9.52125,15.8155735 9.73875,15.7996164 C9.60125,15.3344074 9.52,14.8483314 9.52,14.3413886 C9.52125,11.3046414 12.17625,8.8398926 15.5375,8.8398926 L15.5375,8.8398926 Z M11.7325,6.95573456 C12.2675,6.95573456 12.61875,7.30065209 12.61875,7.82355198 C12.61875,8.34399693 12.2675,8.69259685 11.7325,8.69259685 C11.20375,8.69259685 10.67125,8.34399693 10.67125,7.82355198 C10.67125,7.29942463 11.2025,6.95573456 11.7325,6.95573456 Z M6.77875,8.69259685 C6.2475,8.69259685 5.7125,8.34399693 5.7125,7.82355198 C5.7125,7.30065209 6.2475,6.95573456 6.77875,6.95573456 C7.31,6.95573456 7.6625,7.29942463 7.6625,7.82355198 C7.6625,8.34399693 7.31,8.69259685 6.77875,8.69259685 Z M22,14.257921 C22,11.4789413 19.1675,9.21426928 15.98625,9.21426928 C12.6175,9.21426928 9.96625,11.4801688 9.96625,14.257921 C9.96625,17.0442654 12.61875,19.3015727 15.98625,19.3015727 C16.69125,19.3015727 17.4025,19.1285002 18.11,18.9542002 L20.05125,20 L19.51875,18.2619102 C20.94,17.2136555 22,15.8253932 22,14.257921 Z M14.03375,13.3876486 C13.6825,13.3876486 13.32625,13.0439586 13.32625,12.6929037 C13.32625,12.3467587 13.6825,11.9981588 14.03375,11.9981588 C14.57125,11.9981588 14.92,12.3467587 14.92,12.6929037 C14.92,13.0439586 14.57125,13.3876486 14.03375,13.3876486 Z M17.9275,13.3876486 C17.57875,13.3876486 17.22375,13.0439586 17.22375,12.6929037 C17.22375,12.3467587 17.5775,11.9981588 17.9275,11.9981588 C18.46,11.9981588 18.81375,12.3467587 18.81375,12.6929037 C18.81375,13.0439586 18.46,13.3876486 17.9275,13.3876486 Z" id="形状"></path>
                    </g>
                </g>
            </g>
        </g>
    </g>
</svg>