<svg xmlns="http://www.w3.org/2000/svg" xml:space="preserve" xmlns:xlink="http://www.w3.org/1999/xlink" width="276" height="276"><path fill="#fff" d="M0 0h276v276H0z"/><defs><path id="a" d="M0 0h12v12H0z"/></defs><use x="12" y="12" xlink:href="#a"/><use x="24" y="12" xlink:href="#a"/><use x="36" y="12" xlink:href="#a"/><use x="48" y="12" xlink:href="#a"/><use x="60" y="12" xlink:href="#a"/><use x="72" y="12" xlink:href="#a"/><use x="84" y="12" xlink:href="#a"/><use x="108" y="12" xlink:href="#a"/><use x="156" y="12" xlink:href="#a"/><use x="180" y="12" xlink:href="#a"/><use x="192" y="12" xlink:href="#a"/><use x="204" y="12" xlink:href="#a"/><use x="216" y="12" xlink:href="#a"/><use x="228" y="12" xlink:href="#a"/><use x="240" y="12" xlink:href="#a"/><use x="252" y="12" xlink:href="#a"/><use x="12" y="24" xlink:href="#a"/><use x="84" y="24" xlink:href="#a"/><use x="132" y="24" xlink:href="#a"/><use x="144" y="24" xlink:href="#a"/><use x="180" y="24" xlink:href="#a"/><use x="252" y="24" xlink:href="#a"/><use x="12" y="36" xlink:href="#a"/><use x="36" y="36" xlink:href="#a"/><use x="48" y="36" xlink:href="#a"/><use x="60" y="36" xlink:href="#a"/><use x="84" y="36" xlink:href="#a"/><use x="120" y="36" xlink:href="#a"/><use x="132" y="36" xlink:href="#a"/><use x="144" y="36" xlink:href="#a"/><use x="180" y="36" xlink:href="#a"/><use x="204" y="36" xlink:href="#a"/><use x="216" y="36" xlink:href="#a"/><use x="228" y="36" xlink:href="#a"/><use x="252" y="36" xlink:href="#a"/><use x="12" y="48" xlink:href="#a"/><use x="36" y="48" xlink:href="#a"/><use x="48" y="48" xlink:href="#a"/><use x="60" y="48" xlink:href="#a"/><use x="84" y="48" xlink:href="#a"/><use x="108" y="48" xlink:href="#a"/><use x="120" y="48" xlink:href="#a"/><use x="144" y="48" xlink:href="#a"/><use x="180" y="48" xlink:href="#a"/><use x="204" y="48" xlink:href="#a"/><use x="216" y="48" xlink:href="#a"/><use x="228" y="48" xlink:href="#a"/><use x="252" y="48" xlink:href="#a"/><use x="12" y="60" xlink:href="#a"/><use x="36" y="60" xlink:href="#a"/><use x="48" y="60" xlink:href="#a"/><use x="60" y="60" xlink:href="#a"/><use x="84" y="60" xlink:href="#a"/><use x="120" y="60" xlink:href="#a"/><use x="156" y="60" xlink:href="#a"/><use x="180" y="60" xlink:href="#a"/><use x="204" y="60" xlink:href="#a"/><use x="216" y="60" xlink:href="#a"/><use x="228" y="60" xlink:href="#a"/><use x="252" y="60" xlink:href="#a"/><use x="12" y="72" xlink:href="#a"/><use x="84" y="72" xlink:href="#a"/><use x="120" y="72" xlink:href="#a"/><use x="144" y="72" xlink:href="#a"/><use x="156" y="72" xlink:href="#a"/><use x="180" y="72" xlink:href="#a"/><use x="252" y="72" xlink:href="#a"/><use x="12" y="84" xlink:href="#a"/><use x="24" y="84" xlink:href="#a"/><use x="36" y="84" xlink:href="#a"/><use x="48" y="84" xlink:href="#a"/><use x="60" y="84" xlink:href="#a"/><use x="72" y="84" xlink:href="#a"/><use x="84" y="84" xlink:href="#a"/><use x="108" y="84" xlink:href="#a"/><use x="132" y="84" xlink:href="#a"/><use x="156" y="84" xlink:href="#a"/><use x="180" y="84" xlink:href="#a"/><use x="192" y="84" xlink:href="#a"/><use x="204" y="84" xlink:href="#a"/><use x="216" y="84" xlink:href="#a"/><use x="228" y="84" xlink:href="#a"/><use x="240" y="84" xlink:href="#a"/><use x="252" y="84" xlink:href="#a"/><use x="120" y="96" xlink:href="#a"/><use x="144" y="96" xlink:href="#a"/><use x="36" y="108" xlink:href="#a"/><use x="60" y="108" xlink:href="#a"/><use x="72" y="108" xlink:href="#a"/><use x="84" y="108" xlink:href="#a"/><use x="108" y="108" xlink:href="#a"/><use x="120" y="108" xlink:href="#a"/><use x="132" y="108" xlink:href="#a"/><use x="144" y="108" xlink:href="#a"/><use x="168" y="108" xlink:href="#a"/><use x="216" y="108" xlink:href="#a"/><use x="252" y="108" xlink:href="#a"/><use x="36" y="120" xlink:href="#a"/><use x="60" y="120" xlink:href="#a"/><use x="72" y="120" xlink:href="#a"/><use x="96" y="120" xlink:href="#a"/><use x="108" y="120" xlink:href="#a"/><use x="120" y="120" xlink:href="#a"/><use x="144" y="120" xlink:href="#a"/><use x="156" y="120" xlink:href="#a"/><use x="192" y="120" xlink:href="#a"/><use x="228" y="120" xlink:href="#a"/><use x="240" y="120" xlink:href="#a"/><use x="252" y="120" xlink:href="#a"/><use x="12" y="132" xlink:href="#a"/><use x="72" y="132" xlink:href="#a"/><use x="84" y="132" xlink:href="#a"/><use x="108" y="132" xlink:href="#a"/><use x="120" y="132" xlink:href="#a"/><use x="132" y="132" xlink:href="#a"/><use x="144" y="132" xlink:href="#a"/><use x="180" y="132" xlink:href="#a"/><use x="192" y="132" xlink:href="#a"/><use x="228" y="132" xlink:href="#a"/><use x="240" y="132" xlink:href="#a"/><use x="252" y="132" xlink:href="#a"/><use x="12" y="144" xlink:href="#a"/><use x="48" y="144" xlink:href="#a"/><use x="60" y="144" xlink:href="#a"/><use x="72" y="144" xlink:href="#a"/><use x="108" y="144" xlink:href="#a"/><use x="120" y="144" xlink:href="#a"/><use x="132" y="144" xlink:href="#a"/><use x="144" y="144" xlink:href="#a"/><use x="180" y="144" xlink:href="#a"/><use x="192" y="144" xlink:href="#a"/><use x="204" y="144" xlink:href="#a"/><use x="240" y="144" xlink:href="#a"/><use x="252" y="144" xlink:href="#a"/><use x="24" y="156" xlink:href="#a"/><use x="48" y="156" xlink:href="#a"/><use x="84" y="156" xlink:href="#a"/><use x="96" y="156" xlink:href="#a"/><use x="108" y="156" xlink:href="#a"/><use x="120" y="156" xlink:href="#a"/><use x="132" y="156" xlink:href="#a"/><use x="144" y="156" xlink:href="#a"/><use x="156" y="156" xlink:href="#a"/><use x="168" y="156" xlink:href="#a"/><use x="192" y="156" xlink:href="#a"/><use x="240" y="156" xlink:href="#a"/><use x="252" y="156" xlink:href="#a"/><use x="108" y="168" xlink:href="#a"/><use x="120" y="168" xlink:href="#a"/><use x="144" y="168" xlink:href="#a"/><use x="168" y="168" xlink:href="#a"/><use x="216" y="168" xlink:href="#a"/><use x="240" y="168" xlink:href="#a"/><use x="12" y="180" xlink:href="#a"/><use x="24" y="180" xlink:href="#a"/><use x="36" y="180" xlink:href="#a"/><use x="48" y="180" xlink:href="#a"/><use x="60" y="180" xlink:href="#a"/><use x="72" y="180" xlink:href="#a"/><use x="84" y="180" xlink:href="#a"/><use x="120" y="180" xlink:href="#a"/><use x="144" y="180" xlink:href="#a"/><use x="168" y="180" xlink:href="#a"/><use x="204" y="180" xlink:href="#a"/><use x="216" y="180" xlink:href="#a"/><use x="228" y="180" xlink:href="#a"/><use x="240" y="180" xlink:href="#a"/><use x="252" y="180" xlink:href="#a"/><use x="12" y="192" xlink:href="#a"/><use x="84" y="192" xlink:href="#a"/><use x="108" y="192" xlink:href="#a"/><use x="132" y="192" xlink:href="#a"/><use x="240" y="192" xlink:href="#a"/><use x="12" y="204" xlink:href="#a"/><use x="36" y="204" xlink:href="#a"/><use x="48" y="204" xlink:href="#a"/><use x="60" y="204" xlink:href="#a"/><use x="84" y="204" xlink:href="#a"/><use x="108" y="204" xlink:href="#a"/><use x="120" y="204" xlink:href="#a"/><use x="132" y="204" xlink:href="#a"/><use x="156" y="204" xlink:href="#a"/><use x="180" y="204" xlink:href="#a"/><use x="204" y="204" xlink:href="#a"/><use x="216" y="204" xlink:href="#a"/><use x="240" y="204" xlink:href="#a"/><use x="252" y="204" xlink:href="#a"/><use x="12" y="216" xlink:href="#a"/><use x="36" y="216" xlink:href="#a"/><use x="48" y="216" xlink:href="#a"/><use x="60" y="216" xlink:href="#a"/><use x="84" y="216" xlink:href="#a"/><use x="120" y="216" xlink:href="#a"/><use x="132" y="216" xlink:href="#a"/><use x="144" y="216" xlink:href="#a"/><use x="180" y="216" xlink:href="#a"/><use x="192" y="216" xlink:href="#a"/><use x="240" y="216" xlink:href="#a"/><use x="12" y="228" xlink:href="#a"/><use x="36" y="228" xlink:href="#a"/><use x="48" y="228" xlink:href="#a"/><use x="60" y="228" xlink:href="#a"/><use x="84" y="228" xlink:href="#a"/><use x="108" y="228" xlink:href="#a"/><use x="120" y="228" xlink:href="#a"/><use x="132" y="228" xlink:href="#a"/><use x="156" y="228" xlink:href="#a"/><use x="192" y="228" xlink:href="#a"/><use x="228" y="228" xlink:href="#a"/><use x="252" y="228" xlink:href="#a"/><use x="12" y="240" xlink:href="#a"/><use x="84" y="240" xlink:href="#a"/><use x="132" y="240" xlink:href="#a"/><use x="168" y="240" xlink:href="#a"/><use x="192" y="240" xlink:href="#a"/><use x="204" y="240" xlink:href="#a"/><use x="216" y="240" xlink:href="#a"/><use x="240" y="240" xlink:href="#a"/><use x="12" y="252" xlink:href="#a"/><use x="24" y="252" xlink:href="#a"/><use x="36" y="252" xlink:href="#a"/><use x="48" y="252" xlink:href="#a"/><use x="60" y="252" xlink:href="#a"/><use x="72" y="252" xlink:href="#a"/><use x="84" y="252" xlink:href="#a"/><use x="120" y="252" xlink:href="#a"/><use x="132" y="252" xlink:href="#a"/><use x="144" y="252" xlink:href="#a"/><use x="156" y="252" xlink:href="#a"/><use x="180" y="252" xlink:href="#a"/><use x="192" y="252" xlink:href="#a"/><use x="228" y="252" xlink:href="#a"/><use x="240" y="252" xlink:href="#a"/><use x="252" y="252" xlink:href="#a"/></svg>