<?xml version="1.0" encoding="UTF-8"?>
<svg width="240px" height="119px" viewBox="0 0 240 119" version="1.1" xmlns="http://www.w3.org/2000/svg" xmlns:xlink="http://www.w3.org/1999/xlink">
    <title>登录备份 2</title>
    <defs>
        <linearGradient x1="50%" y1="-3.36987128%" x2="50%" y2="84.814544%" id="linearGradient-1">
            <stop stop-color="#444E60" stop-opacity="0" offset="0%"></stop>
            <stop stop-color="#444E60" offset="100%"></stop>
        </linearGradient>
        <linearGradient x1="50%" y1="-3.36987128%" x2="50%" y2="84.814544%" id="linearGradient-2">
            <stop stop-color="#444E60" stop-opacity="0" offset="0%"></stop>
            <stop stop-color="#444E60" offset="100%"></stop>
        </linearGradient>
        <linearGradient x1="50%" y1="-3.36987128%" x2="50%" y2="84.814544%" id="linearGradient-3">
            <stop stop-color="#444E60" stop-opacity="0" offset="0%"></stop>
            <stop stop-color="#444E60" offset="100%"></stop>
        </linearGradient>
        <linearGradient x1="50%" y1="-3.36987128%" x2="50%" y2="84.814544%" id="linearGradient-4">
            <stop stop-color="#444E60" stop-opacity="0" offset="0%"></stop>
            <stop stop-color="#444E60" offset="100%"></stop>
        </linearGradient>
        <linearGradient x1="50%" y1="-3.36987128%" x2="50%" y2="84.814544%" id="linearGradient-5">
            <stop stop-color="#444E60" stop-opacity="0" offset="0%"></stop>
            <stop stop-color="#444E60" offset="100%"></stop>
        </linearGradient>
        <linearGradient x1="50%" y1="-3.36987128%" x2="50%" y2="84.814544%" id="linearGradient-6">
            <stop stop-color="#444E60" stop-opacity="0" offset="0%"></stop>
            <stop stop-color="#444E60" offset="100%"></stop>
        </linearGradient>
        <linearGradient x1="50%" y1="-3.36987128%" x2="50%" y2="84.814544%" id="linearGradient-7">
            <stop stop-color="#444E60" stop-opacity="0" offset="0%"></stop>
            <stop stop-color="#444E60" offset="100%"></stop>
        </linearGradient>
        <linearGradient x1="50%" y1="-3.36987128%" x2="50%" y2="84.814544%" id="linearGradient-8">
            <stop stop-color="#444E60" stop-opacity="0" offset="0%"></stop>
            <stop stop-color="#444E60" offset="100%"></stop>
        </linearGradient>
        <linearGradient x1="50%" y1="-3.36987128%" x2="50%" y2="84.814544%" id="linearGradient-9">
            <stop stop-color="#444E60" stop-opacity="0" offset="0%"></stop>
            <stop stop-color="#444E60" offset="100%"></stop>
        </linearGradient>
        <linearGradient x1="50%" y1="-3.36987128%" x2="50%" y2="84.814544%" id="linearGradient-10">
            <stop stop-color="#444E60" stop-opacity="0" offset="0%"></stop>
            <stop stop-color="#444E60" offset="100%"></stop>
        </linearGradient>
        <linearGradient x1="50%" y1="-3.36987128%" x2="50%" y2="84.814544%" id="linearGradient-11">
            <stop stop-color="#444E60" stop-opacity="0" offset="0%"></stop>
            <stop stop-color="#444E60" offset="100%"></stop>
        </linearGradient>
        <linearGradient x1="50%" y1="-3.36987128%" x2="50%" y2="84.814544%" id="linearGradient-12">
            <stop stop-color="#444E60" stop-opacity="0" offset="0%"></stop>
            <stop stop-color="#444E60" offset="100%"></stop>
        </linearGradient>
        <linearGradient x1="50%" y1="-3.36987128%" x2="50%" y2="84.814544%" id="linearGradient-13">
            <stop stop-color="#444E60" stop-opacity="0" offset="0%"></stop>
            <stop stop-color="#444E60" offset="100%"></stop>
        </linearGradient>
        <linearGradient x1="50%" y1="-3.36987128%" x2="50%" y2="84.814544%" id="linearGradient-14">
            <stop stop-color="#444E60" stop-opacity="0" offset="0%"></stop>
            <stop stop-color="#444E60" offset="100%"></stop>
        </linearGradient>
        <linearGradient x1="50%" y1="-3.36987128%" x2="50%" y2="84.814544%" id="linearGradient-15">
            <stop stop-color="#444E60" stop-opacity="0" offset="0%"></stop>
            <stop stop-color="#444E60" offset="100%"></stop>
        </linearGradient>
        <linearGradient x1="50%" y1="-3.36987128%" x2="50%" y2="84.814544%" id="linearGradient-16">
            <stop stop-color="#444E60" stop-opacity="0" offset="0%"></stop>
            <stop stop-color="#444E60" offset="100%"></stop>
        </linearGradient>
        <linearGradient x1="50%" y1="-3.36987128%" x2="50%" y2="84.814544%" id="linearGradient-17">
            <stop stop-color="#444E60" stop-opacity="0" offset="0%"></stop>
            <stop stop-color="#444E60" offset="100%"></stop>
        </linearGradient>
        <linearGradient x1="50%" y1="-3.36987128%" x2="50%" y2="84.814544%" id="linearGradient-18">
            <stop stop-color="#444E60" stop-opacity="0" offset="0%"></stop>
            <stop stop-color="#444E60" offset="100%"></stop>
        </linearGradient>
        <linearGradient x1="50%" y1="-3.36987128%" x2="50%" y2="84.814544%" id="linearGradient-19">
            <stop stop-color="#444E60" stop-opacity="0" offset="0%"></stop>
            <stop stop-color="#444E60" offset="100%"></stop>
        </linearGradient>
        <linearGradient x1="50%" y1="-3.36987128%" x2="50%" y2="84.814544%" id="linearGradient-20">
            <stop stop-color="#444E60" stop-opacity="0" offset="0%"></stop>
            <stop stop-color="#444E60" offset="100%"></stop>
        </linearGradient>
        <linearGradient x1="50%" y1="-3.36987128%" x2="50%" y2="84.814544%" id="linearGradient-21">
            <stop stop-color="#444E60" stop-opacity="0" offset="0%"></stop>
            <stop stop-color="#444E60" offset="100%"></stop>
        </linearGradient>
        <linearGradient x1="50%" y1="-3.36987128%" x2="50%" y2="84.814544%" id="linearGradient-22">
            <stop stop-color="#444E60" stop-opacity="0" offset="0%"></stop>
            <stop stop-color="#444E60" offset="100%"></stop>
        </linearGradient>
        <linearGradient x1="50%" y1="-3.36987128%" x2="50%" y2="84.814544%" id="linearGradient-23">
            <stop stop-color="#444E60" stop-opacity="0" offset="0%"></stop>
            <stop stop-color="#444E60" offset="100%"></stop>
        </linearGradient>
        <linearGradient x1="50%" y1="-3.36987128%" x2="50%" y2="84.814544%" id="linearGradient-24">
            <stop stop-color="#444E60" stop-opacity="0" offset="0%"></stop>
            <stop stop-color="#444E60" offset="100%"></stop>
        </linearGradient>
        <linearGradient x1="50%" y1="-3.36987128%" x2="50%" y2="84.814544%" id="linearGradient-25">
            <stop stop-color="#444E60" stop-opacity="0" offset="0%"></stop>
            <stop stop-color="#444E60" offset="100%"></stop>
        </linearGradient>
        <linearGradient x1="50%" y1="-3.36987128%" x2="50%" y2="84.814544%" id="linearGradient-26">
            <stop stop-color="#444E60" stop-opacity="0" offset="0%"></stop>
            <stop stop-color="#444E60" offset="100%"></stop>
        </linearGradient>
    </defs>
    <g id="Flat-单窗口" stroke="none" stroke-width="1" fill="none" fill-rule="evenodd" opacity="0.319999993">
        <g id="登录" transform="translate(-720.000000, -521.000000)">
            <g id="编组" transform="translate(-68.000000, -248.000000)">
                <g id="编组-17" transform="translate(0.000000, -0.000000)">
                    <g id="编组-4" transform="translate(104.000000, 773.000000)">
                        <path d="M0,234.5591 L102.231,132.3291 C178.03,56.5301 300.924,56.5301 376.723,132.3291 L478.641,234.2471 C554.44,310.0451 677.334,310.0451 753.133,234.2471 L753.133,234.2471 C828.932,158.4481 951.826,158.4481 1027.625,234.2471 L1152.053,358.6751 C1227.852,434.4741 1350.745,434.4741 1426.544,358.6751 L1602,183.2191" id="Stroke-1" stroke="url(#linearGradient-1)"></path>
                        <path d="M1.3521,238.9615 L109.8111,130.5025 C185.3331,54.9805 307.7791,54.9805 383.3021,130.5025 L481.1441,228.3445 C556.6661,303.8665 679.1121,303.8665 754.6351,228.3445 L756.0361,226.9435 C831.5591,151.4215 954.0041,151.4215 1029.5261,226.9435 L1154.5301,351.9465 C1230.0531,427.4695 1352.4991,427.4695 1428.0211,351.9465 L1601.6231,178.3455" id="Stroke-3" stroke="url(#linearGradient-2)"></path>
                        <path d="M2.7041,243.3638 L117.3901,128.6768 C192.6371,53.4308 314.6351,53.4308 389.8811,128.6768 L483.6461,222.4418 C558.8921,297.6878 680.8911,297.6878 756.1371,222.4418 L758.9381,219.6398 C834.1841,144.3938 956.1831,144.3938 1031.4291,219.6398 L1157.0081,345.2188 C1232.2541,420.4658 1354.2521,420.4658 1429.4981,345.2188 L1601.2471,173.4698" id="Stroke-5" stroke="url(#linearGradient-3)"></path>
                        <path d="M4.0557,247.7652 L124.9697,126.8512 C199.9397,51.8812 321.4907,51.8812 396.4597,126.8512 L486.1487,216.5392 C561.1187,291.5092 682.6687,291.5092 757.6387,216.5392 L761.8407,212.3372 C836.8107,137.3682 958.3617,137.3682 1033.3307,212.3372 L1159.4857,338.4922 C1234.4547,413.4612 1356.0047,413.4612 1430.9757,338.4922 L1600.8697,168.5962" id="Stroke-7" stroke="url(#linearGradient-4)"></path>
                        <path d="M5.4078,252.1675 L132.5498,125.0245 C207.2428,50.3315 328.3458,50.3315 403.0398,125.0245 L488.6508,210.6375 C563.3448,285.3305 684.4478,285.3305 759.1408,210.6375 L764.7438,205.0345 C839.4378,130.3405 960.5398,130.3405 1035.2338,205.0345 L1161.9628,331.7635 C1236.6568,406.4575 1357.7588,406.4575 1432.4518,331.7635 L1600.4938,163.7225" id="Stroke-9" stroke="url(#linearGradient-5)"></path>
                        <path d="M6.7598,256.5689 L140.1288,123.1999 C214.5468,48.7819 335.2008,48.7819 409.6188,123.1999 L491.1538,204.7349 C565.5708,279.1519 686.2258,279.1519 760.6428,204.7349 L767.6458,197.7309 C842.0638,123.3139 962.7178,123.3139 1037.1358,197.7309 L1164.4398,325.0359 C1238.8578,399.4529 1359.5118,399.4529 1433.9298,325.0359 L1600.1168,158.8469" id="Stroke-11" stroke="url(#linearGradient-6)"></path>
                        <path d="M8.1119,260.9712 L147.7089,121.3732 C221.8499,47.2322 342.0569,47.2322 416.1979,121.3732 L493.6559,198.8312 C567.7969,272.9732 688.0039,272.9732 762.1449,198.8312 L770.5489,190.4282 C844.6899,116.2862 964.8969,116.2862 1039.0379,190.4282 L1166.9169,318.3082 C1241.0589,392.4492 1361.2649,392.4492 1435.4059,318.3082 L1599.7409,153.9732" id="Stroke-13" stroke="url(#linearGradient-7)"></path>
                        <path d="M9.4634,265.3726 L155.2884,119.5486 C229.1534,45.6836 348.9124,45.6836 422.7764,119.5486 L496.1584,192.9296 C570.0234,266.7946 689.7814,266.7946 763.6474,192.9296 L773.4514,183.1256 C847.3164,109.2606 967.0754,109.2606 1040.9394,183.1256 L1169.3944,311.5796 C1243.2594,385.4446 1363.0184,385.4446 1436.8824,311.5796 L1599.3644,149.0996" id="Stroke-15" stroke="url(#linearGradient-8)"></path>
                        <path d="M10.8155,269.775 L162.8675,117.722 C236.4565,44.134 355.7675,44.134 429.3565,117.722 L498.6605,187.027 C572.2495,260.616 691.5605,260.616 765.1485,187.027 L776.3545,175.822 C849.9425,102.233 969.2525,102.233 1042.8415,175.822 L1171.8725,304.852 C1245.4615,378.441 1364.7715,378.441 1438.3605,304.852 L1598.9875,144.224" id="Stroke-17" stroke="url(#linearGradient-9)"></path>
                        <path d="M12.1675,274.1763 L170.4475,115.8963 C243.7595,42.5843 362.6225,42.5843 435.9355,115.8963 L501.1635,181.1243 C574.4755,254.4373 693.3385,254.4373 766.6505,181.1243 L779.2565,168.5193 C852.5695,95.2063 971.4315,95.2063 1044.7445,168.5193 L1174.3495,298.1243 C1247.6625,371.4373 1366.5245,371.4373 1439.8365,298.1243 L1598.6115,139.3503" id="Stroke-19" stroke="url(#linearGradient-10)"></path>
                        <path d="M13.5196,278.5787 L178.0266,114.0707 C251.0626,41.0347 369.4776,41.0347 442.5146,114.0707 L503.6656,175.2227 C576.7016,248.2587 695.1166,248.2587 768.1526,175.2227 L782.1596,161.2157 C855.1956,88.1797 973.6106,88.1797 1046.6466,161.2157 L1176.8276,291.3957 C1249.8636,364.4327 1368.2786,364.4327 1441.3146,291.3957 L1598.2346,134.4757" id="Stroke-21" stroke="url(#linearGradient-11)"></path>
                        <path d="M14.8716,282.98 L185.6066,112.245 C258.3666,39.485 376.3336,39.485 449.0936,112.245 L506.1676,169.32 C578.9276,242.08 696.8946,242.08 769.6546,169.32 L785.0616,153.913 C857.8216,81.153 975.7886,81.153 1048.5486,153.913 L1179.3046,284.668 C1252.0646,357.428 1370.0316,357.428 1442.7906,284.668 L1597.8586,129.602" id="Stroke-23" stroke="url(#linearGradient-12)"></path>
                        <path d="M16.2232,287.3824 L193.1862,110.4194 C265.6702,37.9354 383.1892,37.9354 455.6732,110.4194 L508.6702,163.4164 C581.1542,235.9014 698.6732,235.9014 771.1572,163.4164 L787.9642,146.6104 C860.4482,74.1264 977.9672,74.1264 1050.4512,146.6104 L1181.7822,277.9414 C1254.2652,350.4244 1371.7842,350.4244 1444.2682,277.9414 L1597.4812,124.7274" id="Stroke-25" stroke="url(#linearGradient-13)"></path>
                        <path d="M17.5753,291.7837 L200.7653,108.5937 C272.9733,36.3857 390.0443,36.3857 462.2523,108.5937 L511.1733,157.5137 C583.3803,229.7217 700.4513,229.7217 772.6583,157.5137 L790.8673,139.3057 C863.0743,67.0987 980.1453,67.0987 1052.3523,139.3057 L1184.2593,271.2127 C1256.4673,343.4207 1373.5383,343.4207 1445.7453,271.2127 L1597.1053,119.8527" id="Stroke-27" stroke="url(#linearGradient-14)"></path>
                        <path d="M18.9273,296.1861 L208.3453,106.7681 C280.2763,34.8361 396.9003,34.8361 468.8313,106.7681 L513.6753,151.6121 C585.6063,223.5431 702.2303,223.5431 774.1613,151.6121 L793.7693,132.0031 C865.7003,60.0721 982.3243,60.0721 1054.2553,132.0031 L1186.7363,264.4851 C1258.6683,336.4161 1375.2913,336.4161 1447.2223,264.4851 L1596.7283,114.9791" id="Stroke-29" stroke="url(#linearGradient-15)"></path>
                        <path d="M20.2794,300.5875 L215.9244,104.9415 C287.5804,33.2875 403.7554,33.2875 475.4104,104.9415 L516.1774,145.7095 C587.8324,217.3635 704.0084,217.3635 775.6634,145.7095 L796.6724,124.6995 C868.3274,53.0455 984.5024,53.0455 1056.1574,124.6995 L1189.2144,257.7575 C1260.8694,329.4115 1377.0444,329.4115 1448.6994,257.7575 L1596.3524,110.1045" id="Stroke-31" stroke="url(#linearGradient-16)"></path>
                        <path d="M21.6309,304.9898 L223.5049,103.1158 C294.8829,31.7378 410.6109,31.7378 481.9889,103.1158 L518.6799,139.8068 C590.0589,211.1848 705.7859,211.1848 777.1649,139.8068 L799.5749,117.3968 C870.9529,46.0188 986.6809,46.0188 1058.0599,117.3968 L1191.6919,251.0288 C1263.0699,322.4078 1378.7979,322.4078 1450.1759,251.0288 L1595.9759,105.2298" id="Stroke-33" stroke="url(#linearGradient-17)"></path>
                        <path d="M22.983,309.3912 L231.084,101.2902 C302.187,30.1882 417.466,30.1882 488.568,101.2902 L521.183,133.9052 C592.285,205.0062 707.565,205.0062 778.667,133.9052 L802.478,110.0942 C873.58,38.9922 988.859,38.9922 1059.962,110.0942 L1194.169,244.3012 C1265.272,315.4042 1380.551,315.4042 1451.653,244.3012 L1595.599,100.3552" id="Stroke-35" stroke="url(#linearGradient-18)"></path>
                        <path d="M24.335,313.7935 L238.664,99.4645 C309.49,28.6385 424.322,28.6385 495.147,99.4645 L523.685,128.0015 C594.511,198.8275 709.343,198.8275 780.169,128.0015 L805.38,102.7915 C876.206,31.9645 991.038,31.9645 1061.864,102.7915 L1196.647,237.5735 C1267.473,308.3995 1382.304,308.3995 1453.13,237.5735 L1595.223,95.4815" id="Stroke-37" stroke="url(#linearGradient-19)"></path>
                        <path d="M25.6871,318.1949 L246.2431,97.6389 C316.7931,27.0889 431.1771,27.0889 501.7271,97.6389 L526.1871,122.0989 C596.7371,192.6489 711.1211,192.6489 781.6711,122.0989 L808.2821,95.4879 C878.8321,24.9379 993.2161,24.9379 1063.7661,95.4879 L1199.1241,230.8449 C1269.6741,301.3949 1384.0581,301.3949 1454.6071,230.8449 L1594.8461,90.6069" id="Stroke-39" stroke="url(#linearGradient-20)"></path>
                        <path d="M27.0391,322.5972 L253.8231,95.8132 C324.0971,25.5392 438.0321,25.5392 508.3061,95.8132 L528.6901,116.1972 C598.9631,186.4702 712.8991,186.4702 783.1731,116.1972 L811.1851,88.1842 C881.4591,17.9112 995.3941,17.9112 1065.6681,88.1842 L1201.6021,224.1182 C1271.8751,294.3912 1385.8101,294.3912 1456.0841,224.1182 L1594.4701,85.7322" id="Stroke-41" stroke="url(#linearGradient-21)"></path>
                        <path d="M28.3907,326.9986 L261.4027,93.9876 C331.3997,23.9896 444.8877,23.9896 514.8857,93.9876 L531.1927,110.2946 C601.1897,180.2916 714.6777,180.2916 784.6747,110.2946 L814.0877,80.8816 C884.0847,10.8846 997.5737,10.8846 1067.5707,80.8816 L1204.0787,217.3906 C1274.0767,287.3876 1387.5637,287.3876 1457.5617,217.3906 L1594.0927,80.8586" id="Stroke-43" stroke="url(#linearGradient-22)"></path>
                        <path d="M29.7427,331.4009 L268.9817,92.1609 C338.7027,22.4409 451.7427,22.4409 521.4647,92.1609 L533.6947,104.3919 C603.4157,174.1129 716.4557,174.1129 786.1767,104.3919 L816.9907,73.5789 C886.7107,3.8579 999.7517,3.8579 1069.4727,73.5789 L1206.5557,210.6619 C1276.2777,280.3829 1389.3177,280.3829 1459.0377,210.6619 L1593.7167,75.9839" id="Stroke-45" stroke="url(#linearGradient-23)"></path>
                        <path d="M31.0948,335.8023 L276.5618,90.3353 C346.0068,20.8903 458.5988,20.8903 528.0438,90.3353 L536.1978,98.4893 C605.6418,167.9343 718.2348,167.9343 787.6788,98.4893 L819.8928,66.2753 C889.3378,-3.1697 1001.9298,-3.1697 1071.3748,66.2753 L1209.0328,203.9343 C1278.4788,273.3793 1391.0708,273.3793 1460.5158,203.9343 L1593.3398,71.1093" id="Stroke-47" stroke="url(#linearGradient-24)"></path>
                        <path d="M32.4468,340.2046 L284.1408,88.5096 C353.3098,19.3416 465.4538,19.3416 534.6228,88.5096 L538.6998,92.5866 C607.8678,161.7556 720.0128,161.7556 789.1808,92.5866 L822.7958,58.9726 C891.9638,-10.1964 1004.1088,-10.1964 1073.2768,58.9726 L1211.5108,197.2066 C1280.6798,266.3746 1392.8228,266.3746 1461.9918,197.2066 L1592.9628,66.2356" id="Stroke-49" stroke="url(#linearGradient-25)"></path>
                        <path d="M33.7989,344.606 L291.7209,86.684 C360.6129,17.792 472.3099,17.792 541.2019,86.684 L541.2019,86.684 C610.0939,155.577 721.7909,155.577 790.6829,86.684 L825.6979,51.669 C894.5909,-17.223 1006.2869,-17.223 1075.1789,51.669 L1213.9879,190.478 C1282.8809,259.371 1394.5769,259.371 1463.4689,190.478 L1592.5869,61.361" id="Stroke-51" stroke="url(#linearGradient-26)"></path>
                    </g>
                </g>
            </g>
        </g>
    </g>
</svg>