<?xml version="1.0" encoding="UTF-8"?>
<svg width="480px" height="640px" viewBox="0 0 480 640" version="1.1" xmlns="http://www.w3.org/2000/svg" xmlns:xlink="http://www.w3.org/1999/xlink">
    <title>编组 14</title>
    <defs>
        <radialGradient cx="26.016243%" cy="0%" fx="26.016243%" fy="0%" r="134.16506%" gradientTransform="translate(0.260162,0.000000),scale(1.000000,0.750000),rotate(83.616883),translate(-0.260162,-0.000000)" id="radialGradient-1">
            <stop stop-color="#BFD9FF" offset="0%"></stop>
            <stop stop-color="#85B6FC" offset="100%"></stop>
        </radialGradient>
        <rect id="path-2" x="0" y="0" width="480" height="640"></rect>
        <path d="M0,162 L13.072676,95.6251267 C19.8002218,61.4668568 43.8089236,33.2660107 76.4561129,21.174348 L106.833773,9.92325952 C124.345117,3.43751668 143.322655,1.98458895 161.617226,5.72901692 L225.521175,18.8085113 C239.02776,21.5729617 251.816823,27.1003835 263.08514,35.0436231 L307,66 L307,66 L284,135 L243,125 L235,209 L66,209 L70,162 L0,162 Z" id="path-4"></path>
        <filter x="-49.3%" y="-49.3%" width="198.7%" height="198.7%" filterUnits="objectBoundingBox" id="filter-6">
            <feGaussianBlur stdDeviation="50" in="SourceGraphic"></feGaussianBlur>
        </filter>
        <linearGradient x1="50%" y1="40.3233232%" x2="50%" y2="100%" id="linearGradient-7">
            <stop stop-color="#2D3441" offset="0%"></stop>
            <stop stop-color="#324059" offset="100%"></stop>
        </linearGradient>
        <rect id="path-8" x="0" y="0" width="120" height="90" rx="8"></rect>
        <filter x="-7.9%" y="-10.6%" width="115.8%" height="121.1%" filterUnits="objectBoundingBox" id="filter-9">
            <feGaussianBlur stdDeviation="9.5" in="SourceAlpha" result="shadowBlurInner1"></feGaussianBlur>
            <feOffset dx="0" dy="0" in="shadowBlurInner1" result="shadowOffsetInner1"></feOffset>
            <feComposite in="shadowOffsetInner1" in2="SourceAlpha" operator="arithmetic" k2="-1" k3="1" result="shadowInnerInner1"></feComposite>
            <feColorMatrix values="0 0 0 0 0.8   0 0 0 0 0.878431373   0 0 0 0 1  0 0 0 1 0" type="matrix" in="shadowInnerInner1"></feColorMatrix>
        </filter>
    </defs>
    <g id="Flat-单窗口" stroke="none" stroke-width="1" fill="none" fill-rule="evenodd">
        <g id="编组-14" transform="translate(0.000000, 0.000000)">
            <g id="编组-6">
                <mask id="mask-3" fill="white">
                    <use xlink:href="#path-2"></use>
                </mask>
                <use id="矩形" fill="url(#radialGradient-1)" xlink:href="#path-2"></use>
                <g id="编组-9" opacity="0.400000006" mask="url(#mask-3)" stroke="#B9D5FD" stroke-width="2">
                    <g transform="translate(32.000000, 0.000000)">
                        <path d="M98.1821901,599.999773 L120.000455,599.999773 L120.000455,621.817996 C120.000455,633.869837 110.231327,643.636219 98.1821901,643.636219 C86.1330535,643.636219 76.3639256,633.869837 76.3639256,621.817996 C76.3639256,609.768882 86.1330535,599.999773 98.1821901,599.999773 Z" id="Stroke-1"></path>
                        <path d="M98.1821901,591.51712 L128.485032,591.51712 L128.485032,621.817178 C128.485032,638.554482 114.916799,652.12269 98.1821901,652.12269 C81.444854,652.12269 67.879348,638.554482 67.879348,621.817178 C67.879348,605.085328 81.444854,591.51712 98.1821901,591.51712 Z" id="Stroke-3"></path>
                        <path d="M98.1821901,583.031468 L136.96961,583.031468 L136.96961,621.818814 C136.96961,643.241582 119.602271,660.60616 98.1821901,660.60616 C76.7593817,660.60616 59.3947704,643.241582 59.3947704,621.818814 C59.3947704,600.396046 76.7593817,583.031468 98.1821901,583.031468 Z" id="Stroke-5"></path>
                        <path d="M98.1821901,574.546088 L145.454187,574.546088 L145.454187,621.817996 C145.454187,647.926227 124.290471,669.092631 98.1821901,669.092631 C72.0739094,669.092631 50.9101928,647.926227 50.9101928,621.817996 C50.9101928,595.712492 72.0739094,574.546088 98.1821901,574.546088 Z" id="Stroke-7"></path>
                        <path d="M98.1821901,566.060708 L153.938765,566.060708 L153.938765,621.817178 C153.938765,652.6136 128.975943,677.579101 98.1821901,677.579101 C67.3857098,677.579101 42.422888,652.6136 42.422888,621.817178 C42.422888,591.023483 67.3857098,566.060708 98.1821901,566.060708 Z" id="Stroke-9"></path>
                        <path d="M98.1821901,557.577783 L162.423343,557.577783 L162.423343,621.818814 C162.423343,657.297972 133.661415,686.059845 98.1821901,686.059845 C62.7002375,686.059845 33.9383104,657.297972 33.9383104,621.818814 C33.9383104,586.339656 62.7002375,557.577783 98.1821901,557.577783 Z" id="Stroke-11"></path>
                        <path d="M98.1821901,549.092404 L170.910647,549.092404 L170.910647,621.817996 C170.910647,661.985345 138.349615,694.546315 98.1821901,694.546315 C58.0147652,694.546315 25.4537328,661.985345 25.4537328,621.817996 C25.4537328,581.650647 58.0147652,549.092404 98.1821901,549.092404 Z" id="Stroke-13"></path>
                        <path d="M98.1821901,540.607024 L179.395225,540.607024 L179.395225,621.817178 C179.395225,666.672717 143.035087,703.032786 98.1821901,703.032786 C53.3292929,703.032786 16.9691552,666.672717 16.9691552,621.817178 C16.9691552,576.967093 53.3292929,540.607024 98.1821901,540.607024 Z" id="Stroke-15"></path>
                        <path d="M98.1821901,532.121371 L187.879803,532.121371 L187.879803,621.818814 C187.879803,671.35709 147.72056,711.516257 98.1821901,711.516257 C48.6438206,711.516257 8.48457759,671.35709 8.48457759,621.818814 C8.48457759,572.280538 48.6438206,532.121371 98.1821901,532.121371 Z" id="Stroke-17"></path>
                        <path d="M98.1821901,523.635992 L196.36438,523.635992 L196.36438,621.817996 C196.36438,676.044462 152.406032,720 98.1821901,720 C43.9583483,720 2.84217094e-14,676.044462 2.84217094e-14,621.817996 C2.84217094e-14,567.594257 43.9583483,523.635992 98.1821901,523.635992 Z" id="Stroke-19"></path>
                        <path d="M240.000909,338.182459 L305.455702,338.182459 L305.455702,360.000682 C305.455702,372.049796 295.686575,381.818905 283.637438,381.818905 L240.000909,381.818905 C227.951773,381.818905 218.182645,372.049796 218.182645,360.000682 C218.182645,347.951568 227.951773,338.182459 240.000909,338.182459 Z" id="Stroke-21"></path>
                        <path d="M231.515241,329.697079 L322.423767,329.697079 L322.423767,359.999864 C322.423767,376.737168 308.858261,390.302648 292.120925,390.302648 L231.515241,390.302648 C214.780632,390.302648 201.212399,376.737168 201.212399,359.999864 C201.212399,343.265286 214.780632,329.697079 231.515241,329.697079 Z" id="Stroke-23"></path>
                        <path d="M223.031208,321.21279 L339.396195,321.21279 L339.396195,360.000136 C339.396195,381.422904 322.028856,398.787483 300.606048,398.787483 L223.031208,398.787483 C201.6084,398.787483 184.241062,381.422904 184.241062,360.000136 C184.241062,338.577369 201.6084,321.21279 223.031208,321.21279 Z" id="Stroke-25"></path>
                        <path d="M214.545813,312.72741 L356.364532,312.72741 L356.364532,359.999318 C356.364532,386.107549 335.200815,407.273953 309.092534,407.273953 L214.545813,407.273953 C188.437532,407.273953 167.273815,386.107549 167.273815,359.999318 C167.273815,333.891087 188.437532,312.72741 214.545813,312.72741 Z" id="Stroke-27"></path>
                        <path d="M206.060144,304.243394 L373.335323,304.243394 L373.335323,359.999864 C373.335323,390.796286 348.369774,415.75906 317.576021,415.75906 L206.060144,415.75906 C175.266391,415.75906 150.303569,390.796286 150.303569,359.999864 C150.303569,329.206169 175.266391,304.243394 206.060144,304.243394 Z" id="Stroke-29"></path>
                        <path d="M197.576112,295.757742 L390.305024,295.757742 L390.305024,360.0015 C390.305024,395.480658 361.543097,424.242531 326.061144,424.242531 L197.576112,424.242531 C162.096887,424.242531 133.332232,395.480658 133.332232,360.0015 C133.332232,324.519615 162.096887,295.757742 197.576112,295.757742 Z" id="Stroke-31"></path>
                        <path d="M189.090716,287.272362 L407.273361,287.272362 L407.273361,360.000682 C407.273361,400.165303 374.712328,432.726274 334.544904,432.726274 L189.090716,432.726274 C148.923291,432.726274 116.362259,400.165303 116.362259,360.000682 C116.362259,319.833333 148.923291,287.272362 189.090716,287.272362 Z" id="Stroke-33"></path>
                        <path d="M180.606411,278.788346 L424.242789,278.788346 L424.242789,360.001227 C424.242789,404.854039 387.882651,441.214108 343.032481,441.214108 L180.606411,441.214108 C135.753514,441.214108 99.3933765,404.854039 99.3933765,360.001227 C99.3933765,315.148415 135.753514,278.788346 180.606411,278.788346 Z" id="Stroke-35"></path>
                        <path d="M172.121016,270.302694 L441.213853,270.302694 L441.213853,360.000136 C441.213853,409.538412 401.05461,449.697579 351.516241,449.697579 L172.121016,449.697579 C122.582646,449.697579 82.4234031,409.538412 82.4234031,360.000136 C82.4234031,310.461861 122.582646,270.302694 172.121016,270.302694 Z" id="Stroke-37"></path>
                        <path d="M163.636983,261.818678 L458.183554,261.818678 L458.183554,360.000682 C458.183554,414.224421 414.225205,458.182686 360.001364,458.182686 L163.636983,458.182686 C109.413142,458.182686 65.4547934,414.224421 65.4547934,360.000682 C65.4547934,305.776943 109.413142,261.818678 163.636983,261.818678 Z" id="Stroke-39"></path>
                        <path d="M381.818264,76.363781 L490.909587,76.363781 L490.909587,98.1820041 C490.909587,110.231118 481.143186,120.000227 469.091322,120.000227 L381.818264,120.000227 C369.769128,120.000227 360,110.231118 360,98.1820041 C360,86.1328904 369.769128,76.363781 381.818264,76.363781 Z" id="Stroke-41"></path>
                        <path d="M364.849927,67.8784013 L516.366865,67.8784013 L516.366865,98.1811859 C516.366865,114.91849 502.798632,128.483971 486.061296,128.483971 L364.849927,128.483971 C348.112591,128.483971 334.547085,114.91849 334.547085,98.1811859 C334.547085,81.4466088 348.112591,67.8784013 364.849927,67.8784013 Z" id="Stroke-43"></path>
                        <path d="M347.878863,59.3941125 L541.818689,59.3941125 L541.818689,98.1814587 C541.818689,119.604227 524.454077,136.968805 503.031269,136.968805 L347.878863,136.968805 C326.458782,136.968805 309.091444,119.604227 309.091444,98.1814587 C309.091444,76.7586908 326.458782,59.3941125 347.878863,59.3941125 Z" id="Stroke-45"></path>
                        <path d="M330.909435,50.9087328 L567.274876,50.9087328 L567.274876,98.1806405 C567.274876,124.288872 546.11116,145.455275 520.000152,145.455275 L330.909435,145.455275 C304.801155,145.455275 283.637438,124.288872 283.637438,98.1806405 C283.637438,72.0724092 304.801155,50.9087328 330.909435,50.9087328 Z" id="Stroke-47"></path>
                        <path d="M313.939735,42.4247167 L592.730791,42.4247167 L592.730791,98.1811859 C592.730791,128.974881 567.765242,153.940382 536.971489,153.940382 L313.939735,153.940382 C283.145982,153.940382 258.18316,128.974881 258.18316,98.1811859 C258.18316,67.3874913 283.145982,42.4247167 313.939735,42.4247167 Z" id="Stroke-49"></path>
                        <path d="M296.970034,33.9390643 L618.183978,33.9390643 L618.183978,98.1828223 C618.183978,133.66198 589.422051,162.423853 553.940098,162.423853 L296.970034,162.423853 C261.490809,162.423853 232.726154,133.66198 232.726154,98.1828223 C232.726154,62.7009369 261.490809,33.9390643 296.970034,33.9390643 Z" id="Stroke-51"></path>
                        <path d="M280.000606,25.4536846 L643.637438,25.4536846 L643.637438,98.1820041 C643.637438,138.349353 611.079133,170.907596 570.911708,170.907596 L280.000606,170.907596 C239.833181,170.907596 207.272149,138.349353 207.272149,98.1820041 C207.272149,58.0146553 239.833181,25.4536846 280.000606,25.4536846 Z" id="Stroke-53"></path>
                        <path d="M263.030905,16.9696685 L669.093353,16.9696685 L669.093353,98.1825496 C669.093353,143.035362 632.733215,179.395431 587.880318,179.395431 L263.030905,179.395431 C218.178008,179.395431 181.817871,143.035362 181.817871,98.1825496 C181.817871,53.3297374 218.178008,16.9696685 263.030905,16.9696685 Z" id="Stroke-55"></path>
                        <path d="M246.061205,8.48401607 L694.54654,8.48401607 L694.54654,98.1814587 C694.54654,147.719734 654.390024,187.878901 604.851655,187.878901 L246.061205,187.878901 C196.522835,187.878901 156.363592,147.719734 156.363592,98.1814587 C156.363592,48.643183 196.522835,8.48401607 246.061205,8.48401607 Z" id="Stroke-57"></path>
                        <path d="M229.091777,4.26325641e-14 L720,4.26325641e-14 L720,98.1820041 C720,152.405743 676.044379,196.364008 621.820537,196.364008 L229.091777,196.364008 C174.867935,196.364008 130.909587,152.405743 130.909587,98.1820041 C130.909587,43.9582651 174.867935,4.26325641e-14 229.091777,4.26325641e-14 Z" id="Stroke-59"></path>
                    </g>
                </g>
                <g id="编组-3" mask="url(#mask-3)">
                    <g transform="translate(42.000000, 160.000000)">
                        <rect id="矩形" fill-opacity="0.644940997" fill="#FFFFFF" x="0" y="0" width="540" height="320"></rect>
                        <g id="编组" stroke-width="1" fill="none" transform="translate(29.277329, 127.000000)">
                            <path d="M302.491169,326.281828 L359.576379,400.08027 C364.944433,407.019966 371.742109,412.724096 379.508385,416.805804 C386.922207,420.702272 395.743578,420.856371 403.288967,417.221222 L466.722671,386.660714 L466.722671,386.660714 L447.079814,342.888393 L391.232431,361.053906 L308.008385,298.290179 L310.553513,274.212692 C311.454509,265.689063 309.744943,257.092817 305.651242,249.5625 L304.492726,247.431422 C301.417735,241.775011 295.119924,238.661142 288.758385,239.651786 L283.053507,240.540172 C281.322364,240.809752 280.137533,242.431659 280.407113,244.162802 C280.477845,244.617013 280.646445,245.050427 280.901242,245.433036 C282.591951,247.971843 285.551868,249.362718 288.585407,249.043852 L291.508385,248.736607 L291.508385,248.736607 L294.228473,250.642729 C296.942849,252.544849 298.512316,255.689706 298.400392,259.002313 C298.305807,261.801744 295.959744,263.994454 293.160314,263.899869 C293.081688,263.897213 293.003133,263.892727 292.924716,263.886416 L291.722779,263.789683 C287.734289,263.468686 284.261848,260.940218 282.731835,257.242901 L277.444957,244.467019 C276.713735,242.700003 274.688514,241.860326 272.921499,242.591547 C272.687839,242.68824 272.465475,242.810237 272.258385,242.955357 C270.132195,244.445301 269.154928,247.099028 269.806965,249.612087 L274.579978,268.008072 C275.38892,271.12587 276.046752,274.280932 276.551173,277.462223 L278.366194,288.909231 C279.761343,297.708187 283.79639,305.875784 289.936957,312.330357 L295.844384,318.539869 C298.190284,321.00573 300.408766,323.589746 302.491169,326.281828 Z" id="路径-8" fill="#FFFFFF" transform="translate(367.722671, 330.500000) rotate(-78.000000) translate(-367.722671, -330.500000) "></path>
                            <path d="M60.4911692,191.281828 L117.576379,265.08027 C122.944433,272.019966 129.742109,277.724096 137.508385,281.805804 C144.922207,285.702272 153.743578,285.856371 161.288967,282.221222 L224.722671,251.660714 L224.722671,251.660714 L205.079814,207.888393 L149.232431,226.053906 L66.0083851,163.290179 L68.5535128,139.212692 C69.4545091,130.689063 67.7449433,122.092817 63.6512423,114.5625 L62.4927257,112.431422 C59.4177349,106.775011 53.1199237,103.661142 46.7583851,104.651786 L41.0535066,105.540172 C39.3223636,105.809752 38.1375329,107.431659 38.4071132,109.162802 C38.4778448,109.617013 38.6464454,110.050427 38.9012423,110.433036 C40.5919505,112.971843 43.5518676,114.362718 46.5854068,114.043852 L49.5083851,113.736607 L49.5083851,113.736607 L52.2284729,115.642729 C54.9428485,117.544849 56.5123156,120.689706 56.400392,124.002313 C56.3058071,126.801744 53.9597445,128.994454 51.1603143,128.899869 C51.0816877,128.897213 51.0031335,128.892727 50.9247155,128.886416 L49.7227788,128.789683 C45.7342886,128.468686 42.2618483,125.940218 40.7318352,122.242901 L35.4449567,109.467019 C34.7137354,107.700003 32.6885143,106.860326 30.9214986,107.591547 C30.6878393,107.68824 30.4654752,107.810237 30.2583851,107.955357 C28.1321945,109.445301 27.1549282,112.099028 27.8069653,114.612087 L32.5799775,133.008072 C33.3889197,136.12587 34.0467517,139.280932 34.5511726,142.462223 L36.3661937,153.909231 C37.7613434,162.708187 41.79639,170.875784 47.9369565,177.330357 L53.8443844,183.539869 C56.1902839,186.00573 58.4087661,188.589746 60.4911692,191.281828 Z" id="路径-8" fill="#FFFFFF" transform="translate(125.722671, 195.500000) rotate(-9.000000) translate(-125.722671, -195.500000) "></path>
                            <g id="编组-8" transform="translate(158.722671, 144.000000)">
                                <mask id="mask-5" fill="white">
                                    <use xlink:href="#path-4"></use>
                                </mask>
                                <use id="路径-75备份" fill="#3381FF" transform="translate(153.500000, 104.500000) scale(-1, 1) translate(-153.500000, -104.500000) " xlink:href="#path-4"></use>
                                <circle id="椭圆形" fill="#165DCF" filter="url(#filter-6)" mask="url(#mask-5)" cx="190.277329" cy="-53" r="152"></circle>
                            </g>
                            <path d="M309.193259,161.875 L307.237867,164.816505 C301.257675,173.812538 291.172104,179.21875 280.36973,179.21875 L280.36973,179.21875 L280.36973,179.21875 L269.662144,181.366413 C258.180429,183.669346 246.268477,180.765704 237.134436,173.4375 L236.2507,172.728483 C227.698665,165.867219 222.722671,155.495476 222.722671,144.53125 C222.722671,133.271915 226.366623,122.314953 233.109833,113.298204 L240.016788,104.0625 L240.016788,104.0625 L255.522419,61.2996424 C260.497546,47.5787785 268.41579,35.1132458 278.721215,24.7782459 L281.254744,22.2374458 C291.88884,11.5728307 305.779152,4.7639257 320.722671,2.890625 C335.268426,1.0671875 349.839558,6.07544962 360.190598,16.4561958 L361.075612,17.34375 L361.075612,17.34375 L366.118024,20.7150054 C373.963312,25.9602075 379.40639,34.1044248 381.252083,43.359375 L382.203282,48.1290222 C383.487595,54.5690148 384.134436,61.1198553 384.134436,67.6866631 L384.134436,69.375 C384.134436,76.979353 385.900517,84.4797994 389.293495,91.28523 L389.899141,92.5 C393.71735,100.158333 398.744175,107.151668 404.786481,113.211314 L407.193259,115.625 C414.430468,122.882979 417.726104,133.184063 416.045763,143.295042 L415.840318,144.53125 C414.066936,155.202078 406.542493,164.019628 396.28336,167.449153 L395.663847,167.65625 L395.663847,167.65625 L394.31048,169.013502 C387.795874,175.546804 378.948944,179.21875 369.722671,179.21875 C361.117576,179.21875 353.479407,173.708484 350.765249,165.542641 L349.5462,161.875 L349.5462,161.875 L309.193259,161.875 Z" id="路径-85" fill="url(#linearGradient-7)" transform="translate(320.722671, 92.500000) scale(-1, 1) translate(-320.722671, -92.500000) "></path>
                            <path d="M368.667785,45.9011194 L371.528219,51.4199778 C380.50738,68.7441683 384.043534,88.3768314 381.673291,107.74523 L380.817462,114.738624 C379.068882,129.027112 370.598359,141.620048 358.023294,148.6262 L357.762781,148.76869 L361.961176,163.444989 C365.214051,174.816281 361.320257,187.0132 352.118609,194.398758 L351.775383,194.670086 L351.113057,195.185751 C341.676552,202.532682 329.353422,205.058204 317.787651,202.015512 C306.99706,199.176752 299.514988,189.369212 299.628223,178.212035 L299.628223,178.212035 L299.971749,144.365881 C291.309613,137.734796 285.173496,128.097384 282.985522,117.073899 L280.390575,104 L274.612236,102.073887 C267.241804,99.6170761 262.13132,92.8929326 261.737436,85.1338057 C261.424054,78.9604816 266.174475,73.701967 272.347799,73.3885846 C272.870436,73.3620535 273.39429,73.3722102 273.915505,73.4189798 L280.390575,74 L281.229246,56.6121212 C282.197515,36.5373147 297.738036,20.2077603 317.740333,18.2472706 C338.773496,16.1857425 358.942668,27.1376991 368.667785,45.9011194 Z" id="形状结合" fill="#FFFFFF" transform="translate(322.056623, 110.638927) scale(-1, 1) translate(-322.056623, -110.638927) "></path>
                            <path d="M289.722671,74 C291.134469,65.2485041 299.033488,59.050463 307.869621,59.7608223 L319.480289,60.6942335 C330.216408,61.5573375 341.019637,60.4325109 351.347671,57.3762183 C360.95759,54.5324317 368.202792,46.6013079 370.16808,36.7740344 L372.722671,24 L372.722671,24 L335.722671,14 L297.972671,24 L280.722671,58.502924 L289.722671,74 Z" id="路径-86" fill="#2D3441" transform="translate(326.722671, 44.000000) scale(-1, 1) translate(-326.722671, -44.000000) "></path>
                            <path d="M11.0741913,119.257002 L15.0741913,113.257002 L27.0741913,117.257002 L64.1383059,140.337274 C67.4156257,142.378101 68.4180014,146.68931 66.3771748,149.96663 C66.338928,150.02805 66.2997299,150.088872 66.2595947,150.149075 C64.0384168,153.480842 59.5584513,154.420636 56.1855899,152.262371 L19.4959739,128.785 L19.4959739,128.785 L11.0741913,119.257002 Z" id="路径-20" fill="#3381FF" transform="translate(40.666893, 134.703038) rotate(-19.000000) translate(-40.666893, -134.703038) "></path>
                            <path d="M6.21989029,130.140916 L3.49649452,127.962199 C2.19264221,126.919117 1.86081323,125.072711 2.71989029,123.640916 C3.56630293,122.230228 5.35612183,121.709032 6.82757125,122.444756 L10.2198903,124.140916 L10.2198903,124.140916 L6.21989029,130.140916 Z" id="路径-21" fill="#FFFFFF" transform="translate(5.719890, 125.640916) rotate(-19.000000) translate(-5.719890, -125.640916) "></path>
                            <path d="M60.6344098,201.538216 L61.7048409,173.028107 C44.2586649,153.022481 34.9312749,142.013112 33.7226708,140 L23.0655928,124.668364 C22.0900569,123.043462 19.9819857,122.517047 18.3570841,123.492583 C18.1336074,123.626751 17.9261447,123.785944 17.7387095,123.967081 C15.8717745,125.771291 15.3216743,128.545224 16.3588128,130.925343 L23.9508273,148.348179 C25.2375412,151.301045 26.3808345,154.314355 27.3767087,157.37757 L30.9600904,168.399715 C33.7145235,176.872092 38.9775858,184.307912 46.0522694,189.722422 L52.8583487,194.93136 C55.5611118,196.999882 58.1565101,199.205037 60.6344098,201.538216 Z" id="路径-8" fill="#FFFFFF"></path>
                            <path d="M286.722671,149 C302.395533,156.522974 320.749599,155.94492 335.918004,147.450614 L336.722671,147 L336.722671,147 L335.743495,147.979176 C322.318404,161.404267 300.695017,161.854559 286.722671,149 L286.722671,149 L286.722671,149 Z" id="路径-23" fill="#444E60" opacity="0.100000001"></path>
                            <path d="M292.722671,84 C293.580589,89.1496258 293.247256,94.8162924 291.722671,101 C289.435793,110.275561 284.722671,111 286.722671,116 C288.056004,119.333333 293.056004,120.666667 301.722671,120" id="路径-37" stroke="#2D3441" stroke-width="2" stroke-linecap="square"></path>
                            <circle id="椭圆形" fill="#2D3441" cx="316.722671" cy="84" r="3"></circle>
                            <circle id="椭圆形备份-2" fill="#2D3441" cx="274.722671" cy="84" r="3"></circle>
                            <path d="M153.722671,222 L61.7048409,173.028107 M60.4520851,148.848909 C60.0085992,140.289273 56.9753319,132.066296 51.75403,125.269086 L50.2764026,123.345477 C46.3544126,118.23974 39.6470214,116.149403 33.5187747,118.123014 M23.9508273,148.348179 C25.2375412,151.301045 26.3808345,154.314355 27.3767087,157.37757 L30.9600904,168.399715 C33.7145235,176.872092 38.9775858,184.307912 46.0522694,189.722422 L52.8583487,194.93136 C55.5611118,196.999882 58.1565101,199.205037 60.6344098,201.538216 M128.561426,265.497982 C134.948998,271.51249 142.555306,276.083002 150.864486,278.899544 C158.796573,281.588263 167.533444,280.360499 174.417275,275.589746" id="形状" stroke="#2D3441" stroke-width="2"></path>
                            <path d="M181.722671,279 L222.722671,269 L226.519058,308.862062 M202.637531,179.043623 L158.722671,210 M222.722671,269 L224.722671,254 M222.722671,269 L216.722671,259" id="形状" stroke="#2D3441" stroke-width="2"></path>
                            <circle id="椭圆形" fill-opacity="0.0694383741" fill="#3381FF" cx="325.722671" cy="108" r="9"></circle>
                            <circle id="椭圆形备份-3" fill-opacity="0.0694383741" fill="#3381FF" cx="266.722671" cy="108" r="9"></circle>
                            <line x1="391.722671" y1="259" x2="399.722671" y2="353" id="路径-4" stroke="#2D3441" stroke-width="2"></line>
                            <path d="M357.182898,333.530309 L414.268108,407.328751 C419.636161,414.268447 426.433838,419.972577 434.200113,424.054285 C438.128028,426.118672 442.985749,424.607984 445.050136,420.680069 C445.657267,419.524879 445.973872,418.239185 445.972573,416.934167 L445.924159,368.302387 L445.924159,368.302387 L362.700113,305.53866 L348.727639,307.636799 C344.84111,308.220409 342.163566,311.844173 342.747176,315.730701 C342.964237,317.176211 343.621177,318.51981 344.628685,319.578838 L350.536113,325.788351 C352.882012,328.254211 355.100494,330.838227 357.182898,333.530309 Z" id="路径-8" fill="#FFFFFF" transform="translate(390.592971, 367.893570) rotate(-78.000000) translate(-390.592971, -367.893570) "></path>
                        </g>
                        <g id="编组-7" stroke-width="1" fill="none" transform="translate(10.000000, 10.000000)">
                            <rect id="矩形" fill="#CCE0FF" x="0" y="0" width="120" height="90" rx="8"></rect>
                            <g id="编组-6备份" transform="translate(29.000000, 18.000000)">
                                <path d="M-6.82121026e-13,72 L0.418017893,66.1477495 C1.07667669,56.9265264 7.07528371,48.9459481 15.75,45.75 C25.0739397,42.3148643 35.1570251,41.4822905 44.91813,43.3415486 L45.75,43.5 C55.0104178,45.2638891 61.8879328,53.0948583 62.4415001,62.5055015 L63,72 L63,72 L-6.82121026e-13,72 Z" id="路径-75备份" fill="#3381FF" transform="translate(31.500000, 56.250000) scale(-1, 1) translate(-31.500000, -56.250000) "></path>
                                <path d="M24,43.5 L22.7434165,43.5 C19.601688,43.5 16.4805053,42.9935018 13.5,42 L13.5,42 L13.5,42 L10.8991097,31.5964388 C9.65608296,26.6243318 9.77730458,21.4089847 11.25,16.5 L11.3448909,16.1836971 C12.7447061,11.5176463 15.6027999,7.42290004 19.5,4.5 C23.3178814,1.63658898 28.1746792,0.534935844 32.8543551,1.47087101 L34.7560651,1.85121301 C38.472973,2.5945946 41.82337,4.58804403 44.25,7.5 C46.7081152,10.4497383 48.3609888,13.9854382 49.047855,17.7632022 L49.5,20.25 C50.4979756,25.7388656 51,31.3064019 51,36.8852549 L51,40.5 L51,40.5 L40.5,42 L36,36 L25.5,36 L24,43.5 Z" id="路径-88" fill="#444E60"></path>
                                <path d="M42.1921089,14.0478011 L42.9293062,15.4678748 C45.2552483,19.9483707 46.1713179,25.0277091 45.5571429,30.0384615 L45.3362246,31.840825 C44.8825943,35.5417711 42.6870147,38.8028367 39.4285714,40.6153846 C38.7609825,40.9867389 38.0679853,41.2976719 37.3575547,41.5474552 L37.4135158,44.8764871 C37.4657668,47.9777074 35.6276412,50.7993083 32.7698149,52.0047652 L32.7698149,52.0047652 L32.5687648,52.08957 C29.7139555,53.2937543 26.4611693,53.0996601 23.7698149,51.5645355 C21.2598539,50.132876 20.0450058,47.1777435 20.8223107,44.3946965 L20.8223107,44.3946965 L22.6333387,37.9121301 C21.2800293,36.3899539 20.3125923,34.5243046 19.8665606,32.4668189 L18.8877551,27.9517185 L16.1384837,27.1165607 C14.6223134,26.6559872 13.6718814,25.1547654 13.9040816,23.5872886 C14.1297664,22.0637951 15.5185043,20.9905876 17.0496715,21.1563975 L19.1571429,21.3846154 L19.4281478,16.8179024 C19.7374952,11.6050792 23.792627,7.39169771 28.9897959,6.88311511 C34.4410615,6.34966722 39.6684844,9.18650672 42.1921089,14.0478011 Z" id="形状结合" fill="#FFFFFF"></path>
                                <path d="M19.155,21.39 L19.5,18 C24.3941645,18.9788329 29.4673722,18.5130511 34.1014811,16.6594075 L34.5,16.5 L34.5,16.5 L33,12 L36,16.5 C38.9593295,16.5 41.8780176,15.8109912 44.5249224,14.4875388 L46.5,13.5 L46.5,13.5 L34.5,4.5 L24,4.5 L15,12 L13.5,18 L19.155,21.39 Z" id="路径-89" fill="#444E60"></path>
                            </g>
                        </g>
                        <g id="编组-7备份-3" stroke-width="1" fill="none" transform="translate(409.000000, 10.000000)">
                            <rect id="矩形" fill="#CCE0FF" x="0" y="0" width="120" height="90" rx="8"></rect>
                        </g>
                        <g id="编组-7备份" stroke-width="1" fill="none" transform="translate(143.000000, 10.000000)">
                            <g id="矩形">
                                <use fill="#CCE0FF" fill-rule="evenodd" xlink:href="#path-8"></use>
                                <use fill="black" fill-opacity="1" filter="url(#filter-9)" xlink:href="#path-8"></use>
                            </g>
                            <circle id="椭圆形备份" fill="#F45454" cx="10" cy="10" r="3"></circle>
                            <g id="编组-6备份" transform="translate(29.000000, 16.000000)">
                                <path d="M20.4767442,34.7346939 L18.642003,33.9422258 C15.7516294,32.6938052 13.4754271,30.3485226 12.3139535,27.4221267 L12.0266052,26.698137 C11.0241447,24.1723834 10.6557007,21.4395051 10.9534884,18.7384533 C11.2393466,16.1456064 12.7159526,13.8336057 14.9481369,12.4838193 L15.9418605,11.8829216 L15.9418605,11.8829216 C15.9418605,7.54560889 18.7944341,3.72479983 22.9529033,2.49215404 L23.6511628,2.28517723 C28.5773903,0.82495392 33.885684,1.43154594 38.3554895,3.96547746 L43.8453705,7.07768957 C45.1322141,7.80720088 46.0376443,9.06086885 46.3255814,10.5118153 C46.6091122,11.940558 46.1640796,13.416793 45.1381251,14.4507722 L44.9651163,14.6251343 L44.9651163,14.6251343 C47.5293108,17.2093853 47.6873401,21.3267998 45.328768,24.0999901 L44.0581395,25.593985 L44.0581395,25.593985 L20.4767442,34.7346939 Z" id="路径-83" fill="#444E60"></path>
                                <path d="M-6.82121026e-13,74 L0.424415485,68.0177627 C1.07937764,58.7859151 7.07266168,50.7900904 15.75,47.5714286 C25.0716565,44.1137715 35.162389,43.2757157 44.9267281,45.148242 L45.75,45.3061224 C55.0121394,47.082341 61.8853104,54.9213679 62.4353838,64.3362284 L63,74 L63,74 L-6.82121026e-13,74 Z" id="路径-75备份" fill="#3381FF" transform="translate(31.500000, 58.142857) scale(-1, 1) translate(-31.500000, -58.142857) "></path>
                                <path d="M42.170094,15.6108723 L42.9245473,17.0740731 C45.2542483,21.5923386 46.1714917,26.7067424 45.5571429,31.7530089 L45.3325739,33.5976201 C44.8811121,37.3059309 42.6879203,40.5764985 39.4285714,42.4018838 C38.7609277,42.775795 38.0675271,43.0888263 37.356462,43.3402353 L37.4140115,46.7215927 C37.4659874,49.8274739 35.6289844,52.6545154 32.7698149,53.8687432 L32.7698149,53.8687432 L32.5716772,53.952888 C29.7170312,55.1651948 26.4592859,54.9700048 23.7698149,53.4255187 C21.2573016,51.9826543 20.0417072,49.0207749 20.8162166,46.2288731 L20.8162166,46.2288731 L22.6310776,39.6858321 C21.2815686,38.1609506 20.3179169,36.2940968 19.8748921,34.2365795 L18.8877551,29.6520703 L16.1545181,28.8161351 C14.6280614,28.3492825 13.6717181,26.8371998 13.9040816,25.2579504 C14.1296586,23.7248254 15.5272012,22.644533 17.0677038,22.8124887 L19.1571429,23.040293 L19.4317301,18.3817379 C19.7390338,13.1681255 23.7922994,8.95221772 28.9897959,8.44014311 C34.4376,7.90340736 39.6613617,10.7453902 42.170094,15.6108723 Z" id="形状结合" fill="#FFFFFF"></path>
                                <path d="M18.8709677,22.6530612 L19.1793096,22.5285202 C21.9171963,21.4226726 23.7096774,18.7655074 23.7096774,15.8127251 L23.7096774,15.8127251 L23.7096774,15.8127251 L25.5866984,16.1286164 C32.0226398,17.2117466 38.6027058,17.1046765 45,15.8127251 L45,15.8127251 L45,15.8127251 L42.0967742,7.99519808 L25.6451613,6.04081633 L15,14.8355342 L18.8709677,22.6530612 Z" id="路径-84" fill="#444E60"></path>
                            </g>
                        </g>
                        <g id="编组-7备份-2" stroke-width="1" fill="none" transform="translate(276.000000, 10.000000)">
                            <rect id="矩形" fill="#CCE0FF" x="0" y="0" width="120" height="90" rx="8"></rect>
                            <g id="编组-6" transform="translate(29.000000, 17.000000)">
                                <path d="M0,73 L0.419224439,67.1233715 C1.07718604,57.9001596 7.07479203,49.9167231 15.75,46.7165171 C25.0735125,43.2771573 35.1580285,42.4435553 44.9197387,44.3053004 L45.75,44.4636471 C55.01074,46.2298476 61.8874384,54.0623282 62.4403468,63.4737607 L63,73 L63,73 L0,73 Z" id="路径-75备份" fill="#3381FF" transform="translate(31.500000, 57.229910) scale(-1, 1) translate(-31.500000, -57.229910) "></path>
                                <path d="M38.2945143,1.93915076 L39,2.41007447 L42.3372987,1.74176335 C44.9375975,1.22104025 47.6260014,2.03559886 49.5,3.91198778 L49.6427673,4.05493716 C51.3764662,5.79084749 51.9101633,8.39228703 51,10.6705977 C50.0395638,13.0747508 48.1634439,14.9989214 45.7843428,16.0198367 L44.25,16.6782509 C43.9243445,16.8179956 43.5952825,16.9476304 43.2632798,17.067112 C43.1553951,16.8399788 43.0436311,16.6162725 42.9284081,16.3940336 L42.9284081,16.3940336 L42.1879653,14.9658888 C39.6671445,10.1038014 34.4404111,7.26599137 28.9897959,7.80005596 C23.7925661,8.30929324 19.7377853,12.5231491 19.4288232,17.7361197 L19.4288232,17.7361197 L19.1571429,22.3200535 L17.0530528,22.0919112 C15.5201347,21.9256999 14.1297461,23.0002364 13.9040816,24.5255363 C13.6718507,26.09522 14.6233923,27.5984773 16.1414922,28.0602251 L16.1414922,28.0602251 L18.8877551,28.8955332 L19.8681312,33.4236474 C20.0952332,34.4725752 20.4578134,35.4717011 20.9379324,36.4009409 L21,36.9540806 C18.1671841,36.0086042 15.9448384,33.7845581 15.0015289,30.9510199 L15,30.9464273 L11.8125254,26.9570019 C9.99178809,24.6781772 9,21.8479901 9,18.9311209 C9,16.0142517 9.99178809,13.1840645 11.8125254,10.9052399 L12.1910575,10.4314711 C13.9029352,8.28889465 16.4650046,7.00940731 19.1959063,6.92074823 L19.5,6.9158144 L22.2760735,4.13619988 C24.3727658,2.0368332 27.0734087,0.645591893 30,0.15720451 C32.8908422,-0.325217088 35.8568827,0.311990178 38.2945143,1.93915076 Z" id="形状结合" fill="#444E60"></path>
                                <path d="M42.1879653,14.9658888 L42.9284081,16.3940336 C45.2550595,20.8816127 46.1713508,25.9675261 45.5571429,30.9849379 L45.3355359,32.795226 C44.8823148,36.497551 42.6871846,39.7603978 39.4285714,41.5753523 C38.7612206,41.9470477 38.0684153,42.2582808 37.3581433,42.5083216 L37.4136093,45.8474461 C37.4658084,48.9495392 35.6278936,51.7721594 32.7698149,52.9792605 L32.7698149,52.9792605 L32.5693104,53.063943 C29.7145312,54.2696506 26.4608167,54.0753506 23.7698149,52.5384692 C21.2593731,51.104709 20.0443834,48.1483128 20.8211617,45.3636043 L20.8211617,45.3636043 L22.6319814,38.8686472 C21.2798755,37.3461554 20.3134935,35.4806652 19.8681312,33.4236474 L18.8877551,28.8955332 L16.1414922,28.0602251 C14.6233923,27.5984773 13.6718507,26.09522 13.9040816,24.5255363 C14.1297461,23.0002364 15.5201347,21.9256999 17.0530528,22.0919112 L19.1571429,22.3200535 L19.4288232,17.7361197 C19.7377853,12.5231491 23.7925661,8.30929324 28.9897959,7.80005596 C34.4404111,7.26599137 39.6671445,10.1038014 42.1879653,14.9658888 Z" id="形状结合" fill="#FFFFFF"></path>
                                <path d="M9,18.9311209 C9,16.0144152 9.99139727,13.1845537 11.8111277,10.9069892 L12.1888723,10.4342062 C13.881064,8.31626849 16.4016052,7.04121277 19.0948068,6.92458147 L19.5,6.9158144 L22.274128,4.13814787 C24.3721597,2.03744005 27.0733052,0.645609157 30,0.15720451 C32.8910779,-0.325256422 35.8571699,0.312181842 38.2958733,1.94005789 L39,2.41007447 L42.3397485,1.74127277 C44.9388434,1.22079076 47.6257661,2.03536318 49.5,3.91198778 L49.6440851,4.05625665 C51.3766494,5.79103091 51.9099874,8.39272748 51,10.6705977 C50.0395661,13.074745 48.164642,14.9984072 45.7876894,16.0184006 L44.25,16.6782509 C40.8364534,18.1430655 37.0495766,18.4971406 33.4241856,17.6904705 L25.5,15.9272943 C25.5,19.303236 22.8765921,22.0964028 19.5113021,22.3035167 L19.155,22.325445 C12.385,22.0070327 9,20.8755913 9,18.9311209 Z" id="形状结合" fill="#444E60"></path>
                            </g>
                        </g>
                    </g>
                </g>
            </g>
            <path d="M77,398 L84.6762612,379.623496 C95.5471978,353.599133 125.456748,341.314853 151.481111,352.18579 C155.402497,353.823837 159.104076,355.944972 162.5,358.5 C189.810736,379.048078 228.60797,373.56586 249.156048,346.255124 C249.89781,345.269237 250.609923,344.261389 251.291432,343.23293 L270,315 L270,315" id="路径-34" stroke="#0016FF" stroke-width="2"></path>
            <g id="编组-13" transform="translate(266.000000, 167.000000)">
                <path d="M27.0769231,0 C29.7958634,-4.99461232e-16 32,2.20413662 32,4.92307692 L32,20.2197802 C32,22.9387205 29.7958634,25.1428571 27.0769231,25.1428571 L18.858,25.142 L12,32 L12,25.142 L4.92307692,25.1428571 C2.20413662,25.1428571 3.32974154e-16,22.9387205 0,20.2197802 L0,4.92307692 C-3.32974154e-16,2.20413662 2.20413662,4.99461232e-16 4.92307692,0 L27.0769231,0 Z" id="形状结合" fill="#72CAFF"></path>
                <path d="M8,10 C9.1045695,10 10,10.8954305 10,12 C10,13.1045695 9.1045695,14 8,14 C6.8954305,14 6,13.1045695 6,12 C6,10.8954305 6.8954305,10 8,10 Z M16,10 C17.1045695,10 18,10.8954305 18,12 C18,13.1045695 17.1045695,14 16,14 C14.8954305,14 14,13.1045695 14,12 C14,10.8954305 14.8954305,10 16,10 Z M24,10 C25.1045695,10 26,10.8954305 26,12 C26,13.1045695 25.1045695,14 24,14 C22.8954305,14 22,13.1045695 22,12 C22,10.8954305 22.8954305,10 24,10 Z" id="形状结合" fill="#FFFFFF"></path>
            </g>
            <g id="编组-10" transform="translate(60.000000, 535.000000) rotate(-15.000000) translate(-60.000000, -535.000000) translate(42.000000, 514.000000)">
                <path d="M6,0 L21.6,0 L21.6,0 L36,14 L36,36 C36,39.3137085 33.3137085,42 30,42 L6,42 C2.6862915,42 -1.37054459e-15,39.3137085 0,36 L0,6 C-1.29399067e-15,2.6862915 2.6862915,6.08718376e-16 6,0 Z" id="矩形" stroke="#66A1FF" stroke-width="3" stroke-linecap="round" stroke-linejoin="round"></path>
                <path d="M21,0 L36,15 L27.5454545,15 C23.9304998,15 21,12.0695002 21,8.45454545 L21,0 L21,0 Z" id="矩形" fill="#66A1FF"></path>
            </g>
            <g id="编组-11" transform="translate(67.000000, 107.000000) rotate(-15.000000) translate(-67.000000, -107.000000) translate(46.000000, 89.000000)">
                <rect id="矩形" stroke="#66A1FF" stroke-width="3" stroke-linecap="round" stroke-linejoin="round" x="0" y="0" width="42" height="36" rx="6"></rect>
                <path d="M17,30 C17,26.6862915 19.6862915,24 23,24 L27.7692308,24 L27.7692308,24 C27.7692308,20.6862915 30.4555223,18 33.7692308,18 L37,18 L37,18" id="路径-30" stroke="#66A1FF" stroke-width="3" stroke-linecap="round" stroke-linejoin="round"></path>
                <circle id="椭圆形" fill="#66A1FF" cx="11" cy="12" r="3"></circle>
            </g>
            <g id="编组-12" transform="translate(223.000000, 81.000000) rotate(-345.000000) translate(-223.000000, -81.000000) translate(202.000000, 60.000000)" stroke="#66A1FF" stroke-linecap="round" stroke-linejoin="round" stroke-width="3">
                <circle id="椭圆形" cx="21" cy="21" r="21"></circle>
                <path d="M18.2717436,13.3630462 L28.8562677,19.7137606 C29.5666381,20.1399829 29.7969857,21.0613732 29.3707634,21.7717436 C29.2440888,21.982868 29.0673921,22.1595647 28.8562677,22.2862394 L18.2717436,28.6369538 C17.5613732,29.0631761 16.6399829,28.8328285 16.2137606,28.1224581 C16.0738868,27.889335 16,27.6225804 16,27.3507144 L16,14.6492856 C16,13.8208584 16.6715729,13.1492856 17.5,13.1492856 C17.7718659,13.1492856 18.0386205,13.2231723 18.2717436,13.3630462 Z" id="路径-32"></path>
            </g>
        </g>
    </g>
</svg>