<svg xmlns="http://www.w3.org/2000/svg" fill="none" viewBox="0 0 89 22"><path fill="#fff" d="M15.987 8.576c.096-.048.144-.144.072-.288-.336-.312-.72-.384-1.104-.36-.624.048-1.152.192-1.728.36-.576.168-1.176.36-1.944.504a99.865 99.865 0 0 1 0-3.792c0-.12.048-.096.168-.048.216.048.384.168.6.168.144 0 .288-.072.216-.216-.264-.36-.672-.864-.984-1.224a.474.474 0 0 0-.48-.168.44.44 0 0 0-.312.408c0 1.032-.024 2.568-.024 4.128v4.488c0 .264.072.768.12 1.008l.048.072c0 .024 0 .048.024.072.024.072.072.144.192.144.096-.024.12-.072.144-.096l.048-.072c0-.024.024-.024.048-.072.12-.672.144-1.32.144-1.992 0-.648 0-1.296.048-1.944 1.416-.48 2.928-.888 4.488-1.008.072-.024.168-.024.216-.072Zm-9.36 5.064c.36-.888.672-1.8.816-2.784 0-.12-.048-.192-.144-.216-.072-.048-.192-.024-.24.096-.288.984-.624 1.944-1.104 2.856a9.135 9.135 0 0 1-1.176 1.656c-.024.024-.12-.048-.12-.048.264-.984.408-2.04.552-3.072 0-.24.024-.48.048-.72 0-.24-.048-.48-.192-.696-.264-.384-.648-.552-1.08-.648-.504-.096-1.032-.048-1.536 0 .312-.24.672-.6.888-.888.072-.096.072-.408-.168-.36-.744.768-1.584 1.128-2.472 1.536-.192.264-.192.624.24.768.336-.072.984-.216 1.392-.288.216 0 .456-.024.696-.024.24 0 .48-.024.696.024.288.048.528.168.672.432.024.384.024.768-.024 1.128l-.144 1.152c-.096.696-.312 1.32-.36 2.04l.168.264a.43.43 0 0 0 .24.216c.168.12.408.12.576.048.84-.696 1.392-1.56 1.776-2.472Zm11.856-2.616c.144-.072.288-.168.312-.384-.048-.096-.12-.144-.168-.144l-.192-.048c-1.104.384-2.112 1.008-3.048 1.656-1.032.72-2.784 1.968-3.768 2.688-.504.264-1.632.96-2.208 1.344-.168.096-.336.168-.504.24-.576.264-1.128.432-1.584.888-.024.144.024.384.216.456.096.072.24.048.36.024l.336-.096c1.2-.6 2.4-1.2 3.504-1.992 1.056-.744 3.192-2.28 4.224-3.072l2.52-1.56Zm-12.48-6.36c.144.096.288.216.528.264.096-.552-.216-.984-.552-1.248-.432-.336-.984-.528-1.44-.672-.192-.048-.36-.144-.552-.216a2.024 2.024 0 0 0-.576-.168c-.168.072-.36.24-.288.48.024.216.24.36.408.48.72.192 1.416.432 2.088.768.144.096.264.216.384.312ZM38.015 16.04a.356.356 0 0 0 .24-.312c-.048-.456-.504-.744-.816-.936a4.813 4.813 0 0 0-1.536-.624c-.6-.12-1.224-.192-1.824-.024l-.816.216c-.24.072-.456.192-.792.36-.96.504-1.824 1.008-2.952 1.032-.216.12-.504.024-.792 0-.192-.024-.408-.024-.6.072-.072.216-.024.384.096.504.48.24.984.288 1.488.24.504-.072.984-.24 1.416-.432.192.072.408.096.624.12.216.024.432.072.624.144.264.072.48.24.6.552.048.408-.168.768-.48 1.056-.648.648-2.208 1.44-3.048 1.68-.456.144-.96.216-1.488.216-.696-.168-.984-.648-1.152-1.2a3.039 3.039 0 0 1-.144-.672 7.253 7.253 0 0 1-.048-.72c-.048-.48-.072-.96-.216-1.368 1.872-1.656 3.912-3.36 5.928-4.8l.048.432c.168.336.6.24.696-.072.072-2.568-.024-5.328.096-7.824.024-.624-.024-1.248-.288-1.752-.168-.312-.48-.6-.84-.6-.312 0-.552.192-.456.384.528.264.72.816.792 1.392l-.072 4.176c-.264-.048-.624-.024-.96.048a7.182 7.182 0 0 0-.768.24c-.216.048-.432.12-.648.144.264-.384.576-.768.936-1.128l1.152-1.176a.616.616 0 0 0 .024-.576c-.168-.288-.432-.36-.72-.36-.384 0-1.104.144-1.488.312.024-.744.144-1.488.168-2.208-.072-.168-.264-.336-.504-.24-.288.264-.312.672-.408 1.032l-.096.336c-1.176 1.488-2.448 3.024-3.792 4.44 0-.84.024-3 .024-3.912.816-.216 1.728-.432 2.496-.672a.266.266 0 0 0 .192-.264.494.494 0 0 0-.408-.312c-.792.144-1.512.312-2.256.456l.12-1.272c.024-.24.048-.504-.168-.744-.168-.12-.408-.072-.48.144-.096.336-.192.696-.216 1.08l-.096 1.056c-.864.264-1.68.576-2.568.792-.168.096-.432 0-.624.024-.192 0-.36.24-.336.384.072.12.168.192.264.24.096.048.192.072.288.144.624.048 1.152-.096 1.68-.312l.672-.288.6-.168v1.224c-1.656 1.512-2.688 3.384-3.408 5.352 0 .096-.024.168-.024.24-.024.264 0 .552.264.696.168.12.384.048.576 0 .504-.312.96-.672 1.392-1.056.408-.336.816-.72 1.2-1.104.048 1.176.048 2.424-.24 3.456-.024.24.168.264.312.216.48-.6.648-1.344.696-2.088.072-.792 0-1.632.048-2.4a53.74 53.74 0 0 0 3.912-4.608c-.12 1.944-.216 4.872-.12 7.248.072.216.168.456.408.456.216-.048.288-.192.312-.336v-.288c0-.072 0-.144.024-.216l.912-.192c.288-.072.576-.072.84-.096-1.608 1.152-3.12 2.232-4.488 3.408-1.704 1.44-3.288 2.952-5.112 4.608-.144.144-.336.432-.024.552a.66.66 0 0 0 .48-.048c.12-.048.264-.144.408-.216l3.048-2.784c.024.336.024.72.024 1.056.024.408.024.816.12 1.2.12.576.408 1.128.984 1.512.648.456 1.392.456 2.112.312 1.2-.264 3.24-1.248 4.08-2.136.456-.456.72-1.008.648-1.776-.336-.768-1.104-.96-1.824-1.056.936-.504 1.584-.696 2.688-.864a3.44 3.44 0 0 1 1.344.216c.36.144.672.264 1.008.456l1.032.576ZM23.76 7.448c.192-.24.408-.504.624-.72.024.6.024 1.656-.024 2.232-.312.312-1.656 1.56-2.4 2.04a6.2 6.2 0 0 1 .456-1.272c.24-.48.48-.936.72-1.392.216-.264.432-.576.624-.888Zm8.52.888c.024.528.024 1.296.024 1.896a3.1 3.1 0 0 0-.816-.024c-.312.048-.768.12-1.2.216.648-.72 1.296-1.368 1.992-2.088Zm-1.536-.048c.288-.072.576-.12.888-.168l-.36.408-.624.624c-.36.36-.72.744-.912 1.008-.024-.48 0-1.272 0-1.632l1.008-.24Zm.552-2.976c-.504.624-1.056 1.176-1.536 1.8l.072-1.512c.36-.192 1.032-.288 1.464-.312v.024Zm25.928 12.12c.24.096.432.024.432-.216a14.368 14.368 0 0 1-1.368-4.2c-.024-.096-.12-.24-.264-.264-.048-.024-.168-.048-.336.144-.504.768-1.32 1.872-2.256 2.688-.768.648-1.608 1.152-2.592 1.152-.168-.144-.264-.312-.216-.528.408-.84.936-1.56 1.56-2.28.792-.888 1.68-1.68 2.544-2.496.072-.288.048-.576-.144-.72-1.176-.456-2.88-.072-4.056.192.96-.936 1.32-1.488 1.56-2.136.24-.624.384-1.32.408-2.208.528-.12.936-.12 1.344-.192.288-.072.552-.192.768-.48.048-.024.048-.12.048-.192 0-.072-.048-.144-.192-.168-.6.192-1.176.264-1.968.312V4.712c.024-.12.192-.24.408-.288.048-.024.12-.024.192-.048.048 0 .072-.024.096-.024a.287.287 0 0 0 .192-.216c0-.048-.024-.12-.096-.192-.432-.168-.816-.384-1.248-.504-.12.096-.168.168-.216.24-.048.12-.072.288-.096.408-.024.672-.048 1.152-.072 1.92-1.056.216-1.992.384-2.88.696-.24.072-.288.264-.24.408.072.168.264.36.624.336.768-.288 1.56-.48 2.544-.672-.048.768-.12 1.32-.288 1.8a3.722 3.722 0 0 1-1.392 1.896c-.768.576-1.776.936-2.688 1.128-.168.12-.168.264-.024.432.144.216.456.36.816.36 1.416-.456 2.808-.984 4.296-1.08.168-.024.36-.048.528-.072.168-.024.36-.024.984.024-1.032.864-1.848 1.632-2.568 2.448-.6.672-1.128 1.368-1.416 2.04-.216.48-.144.912.072 1.248.216.288.552.48 1.032.504.936-.048 1.752-.504 2.496-1.104.768-.624 1.416-1.368 2.208-2.376.288 1.272.576 2.184 1.104 2.976.12.144.192.288.36.432ZM44.55 6.824c.264.264.408.168.48.072.072-.072.12-.288-.072-.552-.36-.672-1.392-.984-2.184-.936-.504.024-1.032.168-1.44.504a.68.68 0 0 0 .048.84c.072.096.168.216.24.312.096.12.168.192.264.264.096.096.264.096.264 0-.072-.216-.096-.432-.168-.624-.12-.312.144-.552.672-.552.744-.024 1.416.192 1.896.672Zm1.128 5.208c.744-1.416 1.392-2.832 1.752-3.792.024-.072.024-.24-.072-.336-.072-.072-.144-.12-.312-.024-1.104 2.112-2.016 3.864-3.024 5.472-.48-.288-.96-.48-1.392-.648-.216-.072-.456-.144-.672-.24-.24-.096-.48-.168-.888-.408.672-.672 1.2-1.176 1.776-1.728.072-.12.096-.288.048-.384-.024-.072-.096-.144-.288-.096-.744.528-1.392.96-2.064 1.512-.216.312-.336.528-.336.696 0 .168.12.36.432.624.36.336.864.456 1.296.648.072.048.408.168.72.336.36.168.696.408.696.552.048.192-.096.432-.168.576-.216.432-.504.84-.624 1.32.144.216.336.288.576.264.72-1.056 1.704-2.712 2.544-4.344Zm26.563 4.632c.024-3.552.024-10.368.024-13.8 0-.312-.12-.672-.312-.96a1.595 1.595 0 0 0-1.224-.744 9.413 9.413 0 0 0-4.104.648c-.792.336-1.68.696-2.184 1.488-.144.216-.048.432.192.384.84-.504 1.704-.936 2.616-1.272a8.764 8.764 0 0 1 2.088-.456c.48-.048 1.104-.12 1.56.096.312.072.432.384.504.672a2663.9 2663.9 0 0 1 .024 14.064c0 .552-.216 1.584-.504 1.992-.408.576-.768.672-1.536.672-.912-.12-1.776-.528-2.496-1.128a6.16 6.16 0 0 1-1.464-1.68.306.306 0 0 0-.264-.192c-.12 0-.192.096-.168.216.168.888.816 1.656 1.488 2.304.744.528 1.68 1.128 2.616 1.248a2.464 2.464 0 0 0 1.656-.384c1.152-.744 1.464-1.896 1.488-3.168Zm-6.192-1.728c.576-.816 1.128-1.656 1.704-2.448.696-.984 1.416-1.92 2.256-2.808.168-.24-.144-.456-.336-.312-.384.216-.768.552-1.08.912-.288.288-.528.624-.792.888 0-.144-.024-.288-.024-.432-.192-.336-.456-.648-.792-.816-.48-.096-.888.024-1.272.288-.432.288-.768.744-1.08 1.176-.072-.792.192-1.752.624-2.616.432-.84 1.032-1.56 1.68-1.896.12-.024.552-.144.624-.192.216-.072.432-.144.576-.36-.048-.216-.216-.36-.528-.36-.36-.024-.72.048-1.056.144-.336.072-.672.192-1.008.264-.984.432-1.992.912-2.808 1.68-.168.168-.192.36-.144.48.048.144.192.264.36.144.456-.312 1.824-1.224 2.52-1.44a6.13 6.13 0 0 0-1.44 2.76c-.264 1.032-.288 2.112-.168 3.192.168.264.552.48.744.096.072-.648.36-1.152.648-1.704.216-.24.432-.504.696-.696.24-.168.504-.288.816-.216.168.12.24.336.288.504.024.432-.072.792-.24 1.152-.288.696-.816 1.272-1.272 1.896-.072.264.144.72.504.72Zm-4.488-7.992c.096-.168.168-.336.168-.576-.048-.096-.24-.168-.408-.144-.288.12-.456.432-.576.672a9.202 9.202 0 0 0-.96 2.832c-.216 1.2-.216 2.448-.12 3.744.048.672.192 1.32.744 1.8a.498.498 0 0 0 .456-.168c.216-.264.12-.432 0-.6a.73.73 0 0 1-.192-.192c-.048-.072-.072-.12-.072-.192a10.998 10.998 0 0 1-.12-3.192c.12-1.224.432-2.4.816-3.528.048-.168.168-.312.264-.456Zm27.273.24c.12-.12.144-.192.144-.336-.12-.12-.312-.24-.504-.24a25.51 25.51 0 0 0-4.08.768c-1.944.504-3.792 1.2-5.616 1.872.12-.216.24-.456.264-.72.12-1.248.12-2.616.048-3.84 0-.216 0-.456.024-.672.048-.216.096-.408.216-.576.12-.096.072-.048.24-.144.096-.072.168-.168.072-.36-.192-.144-.384-.144-.6-.144-.552.144-.696.72-.768 1.152 0 1.416.048 2.976-.024 4.392-.048.216-.072.432-.168.648-.096.192-.24.384-.504.552-.408.24-.912.384-1.344.624-.096.096-.144.312-.096.48.072.216.336.312.528.336 1.8-.768 3.552-1.56 5.4-2.16.144.312.216.672.24 1.056l.072 1.104c-1.488.6-2.832 1.464-4.104 2.4-.288.216-.624.384-.84.696.024.36.216.552.456.648.672.288 2.736.624 3.6.624.336 0 .648-.048.984-.144.288-.168.456-.48.576-.744.096-.504.12-1.032.12-1.56 0-.504 0-1.008.048-1.512.576-.216 1.224-.312 1.872-.456.504-.096 1.104-.096 1.464.288.216.288.144.744-.048 1.08-1.056 1.752-2.448 3.408-4.056 4.848-1.656 1.488-3.528 2.688-5.472 3.36-.144.048-.336.216-.24.384.312.144.624.096.936.048 1.896-.672 3.72-1.824 5.376-3.264 1.632-1.416 3-3.048 4.104-4.896.336-.552.576-1.176.24-1.8-.552-.744-1.296-.864-2.04-.792-.384.048-.792.144-1.176.24l-1.032.264c-.048-.36-.024-.72-.048-1.08 0-.36-.072-.696-.264-1.008 1.92-.624 3.888-1.176 6-1.416Zm-4.488-2.16c.672-.624 1.392-1.176 2.088-1.752.12-.144.168-.384-.048-.504a2.105 2.105 0 0 0-1.008-.264c-.12.12-.12.216-.072.288.048.048.024.024.144.168.072.12 0 .24-.096.312-.912.696-1.824 1.512-2.688 2.328-.048.048-.096.048-.096-.048-.048-.72-.024-1.392 0-2.064.024-.96.168-1.92.072-2.856-.072-.144-.192-.216-.36-.192-.312.144-.408.456-.432.768-.096 1.92-.168 3.744-.096 5.76a.502.502 0 0 0 .768.096c.504-.768 1.128-1.416 1.824-2.04Zm-5.76 9.096c1.152-1.008 2.424-1.776 3.768-2.4.048.864 0 1.752-.144 2.544-.264.408-.792.408-1.224.456-.816-.048-1.536-.216-2.4-.504-.024 0-.048-.072 0-.096Z"/></svg>