<svg xmlns="http://www.w3.org/2000/svg" fill="none" viewBox="0 0 89 23"><path fill="#fff" d="M10.06 9.408c.528-.168 1.056-.384 1.512-.672.072-.024.096-.36-.024-.36-.6.096-1.32.24-1.704.312C8.98 6.12 7.972 3.6 6.892 1.128L6.988.84A.542.542 0 0 0 6.94.456c-.144-.12-.504-.264-.648.024-1.536 3.24-2.688 6.696-3.768 10.128-.072.048-.168.072-.264.12l-.36.096c-.168.096-.312.288-.288.456.048.168.168.24.288.288.096.024.192.024.288.024a139.5 139.5 0 0 0-1.32 4.512c-.072.264 0 .528.216.744.144.024.312.048.432-.048.48-1.872.984-3.672 1.608-5.448 2.016-.624 4.056-1.248 6.12-1.704.216 1.032.6 2.064.792 3.12.144.792.192 1.608-.048 2.4-.048.168.216.336.36.24a.73.73 0 0 0 .312-.288c.072-.096.096-.216.168-.312.144-.72.144-1.392.048-2.04-.192-1.152-.624-2.256-.816-3.36Zm-3.6-7.2c.984 2.16 1.8 4.392 2.52 6.672-1.896.408-3.696.936-5.544 1.464.912-2.76 1.848-5.52 3.024-8.136ZM17.806 15.24c.192-.168.384-.336.528-.528.096-.144.048-.432-.096-.432-.168.096-.336.192-.504.312-.144.072-.288.168-.408.216 0-1.272.072-2.472.192-3.696-.048-.288.096-.6.024-.888a.611.611 0 0 0-.48-.384c-.12 0-.24.048-.36.096.12-.576.264-1.272 0-1.848-.168-.336-.504-.576-.792-.72-.408-.096-.888-.048-1.224.168-.528.36-.936.84-1.272 1.296-.6.84-.96 1.8-1.056 2.832 0 .672.288 1.344.96 1.632.624.144 1.152-.024 1.608-.36.384-.288.72-.696 1.056-1.128l.768-1.032c-.072 1.512-.24 3.048-.216 4.56-1.104.864-2.232 1.8-3.024 3-.504.768-1.056 1.632-.888 2.688.168.48.552.888 1.032 1.104.504.216 1.224.096 1.68-.168.768-.408 1.248-.96 1.536-1.656.264-.672.36-1.44.408-2.256.024-.768.024-1.584.024-2.376.144-.144.336-.288.504-.432Zm-3.672 3.576c.648-.96 1.44-1.776 2.352-2.544.024.552.048 1.152.024 1.728-.024.6-.12 1.2-.312 1.728a2.785 2.785 0 0 1-1.56 1.704c-.336.072-.672 0-.912-.192s-.288-.48-.312-.792c.096-.6.384-1.128.72-1.632Zm1.848-10.464c.144.312.192.648.12 1.008-.024.264-.12.528-.216.792-.096.288-.216.552-.312.816-.24.432-.504.912-.888 1.272-.24.24-.552.36-.936.336-.192-.072-.408-.216-.456-.408a2.798 2.798 0 0 1 .144-1.608c.24-.696.888-1.872 1.536-2.304.288-.192.672-.24 1.008.096Zm8.78 7.152a6.316 6.316 0 0 0 1.511-3.048c.216-1.176.096-2.376-.408-3.456a3.047 3.047 0 0 0-.96-1.2 2.033 2.033 0 0 0-.84-.36c-.072-.168-.312-.24-.456-.216-.72.168-1.344.648-1.896 1.176a7.35 7.35 0 0 0-1.968 3.168c-.336 1.152-.36 2.376.072 3.6.264.72 1.008 1.344 1.752 1.488 1.272.216 2.352-.264 3.192-1.152Zm-.577-7.32c.648.48 1.152 1.104 1.272 1.848.144.84.144 1.728-.048 2.544-.216 1.032-.72 1.968-1.56 2.688-.552.48-1.32.744-2.112.552-.552-.12-1.104-.552-1.248-1.128-.24-1.08-.192-2.16.12-3.12.408-1.2 1.08-2.328 2.208-3.048l.336-.216c.12-.072.24-.144.36-.24.192-.12.432-.12.672.12Zm10.082-.072a.287.287 0 0 0 .264-.384c-.312-.144-.696-.096-.96-.048-.624.12-.912.24-1.512.456-.552.216-1.416.72-1.848 1.104-.504.456-1.104 1.032-1.536 1.728-.024-.96.072-1.848.384-2.544 0-.096.048-.144.096-.24.144-.24.384-.432.384-.768-.144-.192-.336-.216-.504-.216-.312.12-.48.312-.6.552-.12.216-.216.48-.336.696a7.891 7.891 0 0 0-.24 3.072c.168 1.632.744 3.192 1.296 4.752l.288.312c.144.144.384.072.456-.144-.192-.696-.432-1.344-.624-2.016-.192-.648-.36-1.32-.432-2.04.312-.864.864-1.608 1.512-2.232.648-.624 1.248-1.152 1.944-1.44.72-.312 1.248-.456 1.968-.6Zm8.203 8.232c.216.048.6.096.576-.216-.984-.96-1.224-1.944-1.632-3.216-.24-.792-.432-1.56-.528-2.424a2.688 2.688 0 0 0-.216-.528c-.048-.408-.048-.912-.288-1.248-.216-.576-.624-1.08-1.2-1.344a.942.942 0 0 0-.72-.048 3.993 3.993 0 0 0-.648.312 9.399 9.399 0 0 0-3.048 4.824c-.192.696-.336 1.632-.24 2.448.096.648.36 1.224.96 1.584.528.336 1.272.192 1.752-.192 1.512-1.2 2.376-2.88 3.024-4.512.12.528.24 1.056.408 1.56.408 1.152.744 2.232 1.8 3Zm-2.736-7.368c.144.264.312.696.384.936-.168.24-.192.528-.24.792-.624 1.872-1.608 3.696-3.312 5.016-.288.096-.672.048-.888-.168-.192-.264-.288-.576-.312-.936-.024-.36.024-.744.048-1.104.216-1.08.576-2.112 1.104-3.072.432-.744 1.104-1.656 1.848-2.16.192-.12.384-.192.624-.12.312.168.552.48.744.816Zm13.064.6c2.04-.744 4.104-2.064 6.144-2.88.168-.24-.096-.408-.336-.432-.192 0-.384.048-.552.12-.168.072-.312.12-.48.192-1.584.576-3.168 1.608-4.776 2.136.024-1.44.048-2.88.144-4.32.024-.192 0-.384.024-.576a.483.483 0 0 1 .264-.384 2.42 2.42 0 0 1 .6-.12l.624-.072c.312-.072.624-.216.936-.576-.6 0-1.104-.048-1.608-.072-.384 0-.768.024-1.104.192-.192.072-.288.216-.36.384-.072.144-.12.336-.168.504l-.12 2.592c-.048 1.032 0 7.008-.024 10.584 0 .12.096.144.168.144.072-.024.144-.048.168-.12.192-.36.288-.816.312-1.152.144-1.776.12-4.536.144-6.144Zm4.632-7.104c.456-.12.864-.36 1.248-.672.144-.264 0-.456-.144-.672-.264-.192-.576-.312-.888-.408-.864-.12-1.92-.096-2.76 0-1.128.144-2.472.456-3.48.816-.24.096-.504.144-.624.12-.192-.024-.288.216-.264.336.168.288.48.312.768.336 1.104-.24 2.4-.624 3.528-.816.48-.024 1.032-.096 1.584-.12.528 0 1.032.024 1.464.216-.024.096-.12.192-.216.288-.12.12-.264.192-.384.288-.096.144.072.288.168.288Zm9.88 13.584c.576-.432 1.032-1.08 1.32-1.728.024-.096.072-.192.072-.288.024-.12.024-.24-.12-.384-.168 0-.264.192-.312.336-.288.528-.864 1.248-1.344 1.56-.528.312-.96.456-1.608.312-.624-.216-1.104-.648-1.44-1.176-.48-.72-.72-1.608-.864-2.448 1.272-1.944 2.352-3.984 2.808-6.264.168-.888.264-1.776.24-2.736-.024-.816-.096-1.752-.6-2.472-.264-.24-.792-.216-1.032.072-1.008 1.224-1.656 2.64-2.016 4.152-.504 2.208-.456 4.632-.24 6.96a8.967 8.967 0 0 1-1.272 1.44l-1.44 1.32c-.12.144-.096.384.048.48a.51.51 0 0 0 .552 0c.84-.576 1.632-1.344 2.304-2.136.144.456.264.84.432 1.224.168.408.384.792.72 1.2.528.624 1.272 1.152 2.088 1.176.696.024 1.2-.24 1.704-.6ZM64.766 1.368c.096-.12.336-.072.384.144.264 1.464.216 2.88-.072 4.224-.408 1.824-1.2 3.528-2.184 5.064-.096-1.8-.096-3.648.264-5.376.288-1.464.768-2.856 1.608-4.056Zm12.462 14.976c.216.048.6.096.576-.216-.984-.96-1.224-1.944-1.632-3.216-.24-.792-.432-1.56-.528-2.424a2.688 2.688 0 0 0-.216-.528c-.048-.408-.048-.912-.288-1.248-.216-.576-.624-1.08-1.2-1.344a.942.942 0 0 0-.72-.048 3.993 3.993 0 0 0-.648.312 9.399 9.399 0 0 0-3.048 4.824c-.192.696-.336 1.632-.24 2.448.096.648.36 1.224.96 1.584.528.336 1.272.192 1.752-.192 1.512-1.2 2.376-2.88 3.024-4.512.12.528.24 1.056.408 1.56.408 1.152.744 2.232 1.8 3Zm-2.736-7.368c.144.264.312.696.384.936-.168.24-.192.528-.24.792-.624 1.872-1.608 3.696-3.312 5.016-.288.096-.672.048-.888-.168-.192-.264-.288-.576-.312-.936-.024-.36.024-.744.048-1.104.216-1.08.576-2.112 1.104-3.072.432-.744 1.104-1.656 1.848-2.16.192-.12.384-.192.624-.12.312.168.552.48.744.816Zm13.776 3.792c.096-.24.192-.48.192-.744 0-.072-.072-.144-.12-.168-.048-.024-.168-.072-.216.048-.12.264-.264.504-.408.768-.168.264-.312.504-.48.768-.84 1.368-2.256 2.472-4.152 2.352-.552-.024-1.176-.576-1.272-1.176-.336-1.92-.312-4.2-.144-6.144.504-.168 1.128-.264 1.728-.336a27.83 27.83 0 0 1 1.728-.144c.144-.072.288-.36.096-.504-.6-.192-1.176-.192-1.752-.144-.576.072-1.176.192-1.728.24.072-.48.192-1.248.24-1.968l.072-.888c.048-.192.072-.336.12-.408a.567.567 0 0 1 .216.144c.312.24.48.48.936.528a2.546 2.546 0 0 0-.288-.576c-.096-.168-.216-.312-.336-.456l-.12-.144c-.144-.168-.264-.36-.456-.456-.192-.144-.48-.168-.648.12-.096.168-.144.408-.168.6L80.9 7.8c-.528.168-1.608.504-2.136.648-.12.072-.336.072-.504.048-.24-.024-.36.192-.336.36.144.312.456.456.768.456.744-.216 1.44-.48 2.16-.648-.144 2.232-.192 4.464.288 6.552.384.792 1.152 1.392 1.992 1.392 2.232.024 3.816-1.488 4.752-3.168.12-.192.264-.432.384-.672Z"/></svg>