<svg width="232" height="151" fill="none" xmlns="http://www.w3.org/2000/svg"><path opacity=".25" d="M190.648 51.87c1.33-51.9-68.74-73.57-92.58-23.76-7.04-6.77-16.66-10.63-27-9.78-13.81 1.12-25.13 10.28-30.08 22.68-48.53-6.38-60.41 66.96-.1 66.96h.97v14.92h-7.95l15.96 27.63 15.96-27.63h-7.96v-14.92h131V90.3h-7.96l15.96-27.63 15.96 27.63h-7.96v17.67h1.56c36.65 0 35.85-62.72-15.78-56.1Z" fill="url(#a)"/><path d="M160.245 120 176 62H70.248L68 120h92.245Z" fill="#4951EC"/><path d="M82.33 41 82 107.982 161.045 115 167 43.786 82.33 41Z" fill="#AECDFF"/><path d="M56 52.289 67.979 120H160l-5.981-61.268h-49.392L100.142 51 56 52.289Z" fill="#3381FF"/><path d="M54.187 87.203c.218-.322.27-.733.137-1.103a1.216 1.216 0 0 0-.797-.766l-12.944-4.03a1.238 1.238 0 0 0-1.396.489l-8.28 12.363a3.81 3.81 0 0 0-.994-.982 3.828 3.828 0 0 0-5.309 1.048 3.828 3.828 0 0 0 1.048 5.309c1.66 1.113 3.867.737 5.095-.79l.044.032 6.318-9.433 10.481 3.264-3.658 5.46a3.808 3.808 0 0 0-.978-.964 3.827 3.827 0 1 0 1.048 5.308c.011-.016.017-.035.028-.052l10.157-15.153Zm-5.158 3.257-10.481-3.265 2.183-3.26 10.48 3.272-2.182 3.253Z" fill="#4951EC"/><path d="M38.777 75.067a.547.547 0 0 0-.294-.829l-5.72-1.78a.537.537 0 0 0-.613.217l-3.66 5.466a1.796 1.796 0 0 0-.438-.438 1.688 1.688 0 0 0-2.345.463c-.52.774-.312 1.83.464 2.345a1.69 1.69 0 0 0 2.252-.35l.023.013 2.79-4.175 4.635 1.442-1.615 2.413a1.701 1.701 0 0 0-.43-.422 1.688 1.688 0 0 0-2.345.463c-.52.774-.312 1.83.464 2.345.774.52 1.83.312 2.344-.464.002-.006.006-.018.014-.022l4.474-6.688Zm-2.279 1.438-4.634-1.442.963-1.437 4.635 1.442-.964 1.437Z" fill="#407BFF"/><path d="m60.06 21.226-29.5 6.064 4.721 22.97 29.501-6.063-4.721-22.97Z" fill="#7C9AF2"/><path d="M61.888 29.15c-1.777-1.585-3.179-1.826-4.58.174-2.14 3.055-2.814 9.504-4.534 9.391-1.719-.112-2.231-2.615-4.068-4.087-1.843-1.468-3.622 2.593-7.376 7.512-2.29 3-4.96 4.714-6.696 5.59l.566 2.747 29.812-6.127-3.124-15.2Z" fill="#3381FF"/><path d="M42.26 30.957a3.848 3.848 0 0 1-2.992 4.542 3.848 3.848 0 0 1-4.541-2.992 3.845 3.845 0 0 1 7.532-1.55Z" fill="#fff" style="mix-blend-mode:soft-light"/><path d="M149.097 5.985a.212.212 0 0 0-.058-.026c-.013-.006-.032-.02-.045-.026-5.846-2.44-12.169.078-14.564 5.538a10.86 10.86 0 0 0-.895 5.19 62.364 62.364 0 0 1-.348 5.845c-.264 2.53-.876 4.926-1.024 5.267-.012.032-.032.064-.045.103a.82.82 0 0 0 .406 1.101l.051.026 4.482 1.97.051.026 1.211.534.051.013 4.481 1.97.052.026a.82.82 0 0 0 1.088-.444c.013-.039.032-.071.045-.103.148-.335 1.5-2.408 3.187-4.32a62.315 62.315 0 0 1 4.069-4.211 10.851 10.851 0 0 0 3.213-4.166c2.395-5.46-.025-11.815-5.408-14.313Z" fill="#fff" style="mix-blend-mode:overlay"/><path d="m143.142 33.57-10.8-4.742-1.101 2.505 10.8 4.743 1.101-2.505Zm-2.37 5.394 1.004-2.292-10.797-4.746-.979 2.228 10.772 4.81Z" fill="#2867CC"/><path d="m142.039 36.077-10.8-4.743-.261.595 10.8 4.743.261-.595Z" fill="#fff"/><path d="m130 34.154 1.378 3.206 6.059 2.64 3.335-1.037L130 34.153Z" fill="#2867CC"/><path d="M144.436 28.848c1.004-1.52 2.408-3.27 4.217-4.706 4.127-3.265 6.999-6.445 4.636-12.317m-15.827 17.12s1.236-7.925.386-10.134c-.856-2.208-1.538 4.34 1.649 3.432 3.187-.908 1.539-4.784 1.081-3.026-.457 1.751.734 4.03 2.634 2.936 1.906-1.095 1.989-2.75.869-2.016-1.127.728.225 3.921 2.06 3.168 1.835-.753 1.443-1.809.084-1.217-1.359.593-4.365 6.471-5.267 8.66" stroke="#C1D5FF" stroke-miterlimit="10" stroke-linecap="round" stroke-linejoin="round"/><path d="m208.953 31.918-11.005-1.449-2.535 19.258 11.004 1.449a.682.682 0 0 0 .771-.592l2.353-17.87c.051-.392-.195-.744-.588-.796Z" fill="#5B9AFF"/><path d="m195.547 43.453 9.642 1.27-.18 1.362-9.642-1.27.18-1.362Zm-.363 2.752 9.642 1.269-.182 1.389-9.642-1.27.182-1.389Zm5.768-11.822a4.185 4.185 0 0 0-4.685 3.594 4.185 4.185 0 0 0 3.595 4.685 4.184 4.184 0 0 0 4.685-3.595l-4.14-.545.545-4.14Z" fill="#fff" style="mix-blend-mode:soft-light"/><path d="m202.497 33.174-.545 4.14 4.14.544a4.184 4.184 0 0 0-3.595-4.684Z" fill="#fff" style="mix-blend-mode:soft-light"/><path d="m196.436 52.687-14.074-4.652 2.539-19.284 14.798-.85-3.263 24.786Z" fill="#3381FF"/><path d="m191.693 34.657-3.249-.428-1.241 9.432 2.017.266.428-3.25 1.048.139c1.126.148 2.055-.023 2.79-.54.73-.49 1.175-1.23 1.299-2.174.262-1.991-.786-3.142-3.092-3.445Zm-.967 4.51-.864-.114.386-2.934.865.114c1.1.145 1.588.689 1.461 1.658-.135 1.022-.747 1.421-1.848 1.276Z" fill="#fff" style="mix-blend-mode:soft-light"/><defs><linearGradient id="a" x1="115.968" y1="0" x2="115.968" y2="150.52" gradientUnits="userSpaceOnUse"><stop stop-color="#69A0FF"/><stop offset="1" stop-color="#D6E5FF"/></linearGradient></defs></svg>