<?xml version="1.0" encoding="UTF-8"?>
<svg width="124px" height="124px" viewBox="0 0 124 124" version="1.1" xmlns="http://www.w3.org/2000/svg" xmlns:xlink="http://www.w3.org/1999/xlink">
    <title>编组 2</title>
    <defs>
        <linearGradient x1="100%" y1="50%" x2="0%" y2="50%" id="linearGradient-1">
            <stop stop-color="#7A7B7C" stop-opacity="0" offset="0%"></stop>
            <stop stop-color="#7A7B7C" offset="100%"></stop>
        </linearGradient>
    </defs>
    <g id="Flat" stroke="none" stroke-width="1" fill="none" fill-rule="evenodd">
        <g id="云盘-空数据" transform="translate(-454.000000, -312.000000)">
            <g id="编组-2" transform="translate(454.000000, 312.000000)">
                <rect id="矩形" fill="#FFFFFF" opacity="0.01" x="0" y="0" width="124" height="124"></rect>
                <polygon id="星形" stroke="#7A7B7C" transform="translate(32.464102, 108.464102) rotate(-330.000000) translate(-32.464102, -108.464102) " points="32.4641016 110.464102 29.6356745 111.292529 30.4641016 108.464102 29.6356745 105.635674 32.4641016 106.464102 35.2925287 105.635674 34.4641016 108.464102 35.2925287 111.292529"></polygon>
                <line x1="92" y1="21" x2="100" y2="21" id="路径-100" stroke="#7A7B7C"></line>
                <line x1="96" y1="17" x2="96" y2="25" id="路径-100" stroke="#7A7B7C"></line>
                <polygon id="路径-3备份" fill="url(#linearGradient-1)" opacity="0.100000001" points="32 80 32 22 57.9428571 22 64 30 94 29.9090909 94 48.3636364 94 80"></polygon>
                <polyline id="路径" stroke="#7A7B7C" stroke-width="2" points="92 95 22 95 22 29 50 29 57 38 92 38 92 45"></polyline>
                <polyline id="路径" stroke="#7A7B7C" stroke-width="2" points="26.3213835 75.1216357 28.5735397 64.7617172 32 49 102 49 92 95 22 95"></polyline>
            </g>
        </g>
    </g>
</svg>