<svg width="124" height="124" xmlns="http://www.w3.org/2000/svg"><defs><linearGradient x1="100%" y1="50%" x2="0%" y2="50%" id="a"><stop stop-color="#7A7B7C" stop-opacity="0" offset="0%"/><stop stop-color="#7A7B7C" offset="100%"/></linearGradient></defs><g fill="none" fill-rule="evenodd"><path fill="#FFF" opacity=".01" d="M0 0h124v124H0z"/><path stroke="#7A7B7C" d="M31.464 110.196 28.6 109.5l2.132-2.035.697-2.864 2.035 2.132 2.864.697-2.132 2.035-.697 2.864zM92 21h8m-4-4v8"/><path fill="url(#a)" opacity=".1" d="M32 80V22h25.943L64 30l30-.09V80z"/><path stroke="#7A7B7C" stroke-width="2" d="M92 95H22V29h28l7 9h35v7"/><path stroke="#7A7B7C" stroke-width="2" d="m26.321 75.122 2.253-10.36L32 49h70L92 95H22"/></g></svg>