<?xml version="1.0" encoding="utf-8"?>
<svg width="22px" height="22px" viewBox="0 0 22 22" version="1.1" xmlns="http://www.w3.org/2000/svg">
  <title>矩形备份 41</title>
  <g id="Flat" stroke="none" stroke-width="1" fill="none" fill-rule="evenodd" style="" transform="matrix(1.271988, 0, 0, 1.271988, -3.012219, -2.779445)">
    <g id="云盘-收起" transform="translate(-552.000000, -264.000000)" fill="#444E60" fill-rule="nonzero">
      <g id="编组-2" transform="translate(72.000000, 126.000000)">
        <g id="编组-3备份" transform="translate(480.000000, 138.000000)">
          <path d="M6.34,11.666 C6.578,11.666 6.788,11.582 6.956,11.428 C7.11,11.274 7.194,11.078 7.194,10.826 C7.194,10.588 7.11,10.392 6.956,10.238 C6.788,10.07 6.592,10 6.34,10 C6.102,10 5.906,10.07 5.752,10.238 C5.584,10.392 5.5,10.588 5.5,10.826 C5.5,11.064 5.584,11.26 5.752,11.428 C5.906,11.582 6.102,11.666 6.34,11.666 Z M11.016,11.666 C11.254,11.666 11.464,11.582 11.632,11.428 C11.786,11.274 11.87,11.078 11.87,10.826 C11.87,10.588 11.786,10.392 11.632,10.238 C11.464,10.07 11.254,10 11.016,10 C10.778,10 10.582,10.07 10.414,10.238 C10.246,10.392 10.176,10.588 10.176,10.826 C10.176,11.064 10.246,11.26 10.414,11.428 C10.582,11.582 10.778,11.666 11.016,11.666 Z M15.678,11.666 C15.916,11.666 16.112,11.582 16.28,11.428 C16.448,11.274 16.532,11.078 16.532,10.826 C16.532,10.588 16.448,10.392 16.28,10.238 C16.112,10.07 15.916,10 15.678,10 C15.44,10 15.244,10.07 15.076,10.238 C14.908,10.392 14.838,10.588 14.838,10.826 C14.838,11.064 14.908,11.26 15.076,11.428 C15.244,11.582 15.44,11.666 15.678,11.666 Z" id="…"/>
        </g>
      </g>
    </g>
  </g>
</svg>