<svg width="22" height="22" xmlns="http://www.w3.org/2000/svg"><path d="M5.052 12.059a1.135 1.135 0 0 0 .784-.303 1.033 1.033 0 0 0 .303-.765 1.02 1.02 0 0 0-.303-.748c-.214-.214-.463-.303-.784-.303-.302 0-.552.089-.748.303a.97.97 0 0 0-.32.748c0 .302.107.552.32.765.196.196.446.303.748.303Zm5.948 0a1.135 1.135 0 0 0 .784-.303 1.033 1.033 0 0 0 .303-.765 1.02 1.02 0 0 0-.303-.748A1.06 1.06 0 0 0 11 9.94a1.02 1.02 0 0 0-.765.303c-.214.196-.303.445-.303.748s.089.552.303.765a1.091 1.091 0 0 0 .765.303Zm5.93 0a1.091 1.091 0 0 0 .766-.303.982.982 0 0 0 .32-.765.97.97 0 0 0-.32-.748 1.02 1.02 0 0 0-.766-.303 1.02 1.02 0 0 0-.765.303c-.214.196-.303.445-.303.748s.089.552.303.765a1.091 1.091 0 0 0 .765.303Z" fill="#444E60"/></svg>