<svg width="120" height="120" xmlns="http://www.w3.org/2000/svg"><path d="M86.562 93.048a2.5 2.5 0 1 1-3.124 3.904c-13.703-10.962-33.173-10.962-46.876 0a2.5 2.5 0 1 1-3.124-3.904c15.53-12.423 37.595-12.423 53.124 0Zm5.206-64.816a2.5 2.5 0 0 1 .289 3.19l-.29.346-6.765 6.764-3.83 3.832-.001-.001-8.717 8.719-11.371 11.372-.002-.001-8.717 8.718h.001l-3.832 3.832-.001-.001-16.764 16.766a2.5 2.5 0 0 1-3.825-3.19l.29-.346 60-60a2.5 2.5 0 0 1 3.535 0ZM86.8 43.807c.458 1.99.7 4.063.7 6.193 0 15.188-12.312 27.5-27.5 27.5-2.13 0-4.202-.242-6.193-.7l4.373-4.373c.6.048 1.207.073 1.82.073 12.426 0 22.5-10.074 22.5-22.5 0-.613-.025-1.22-.073-1.82l4.373-4.373ZM60 22.5a27.41 27.41 0 0 1 19.14 7.753l-3.536 3.537A22.425 22.425 0 0 0 60 27.5c-12.426 0-22.5 10.074-22.5 22.5 0 6.06 2.395 11.559 6.29 15.604l-3.537 3.536A27.41 27.41 0 0 1 32.5 50c0-15.188 12.312-27.5 27.5-27.5Zm0 15c3.298 0 6.297 1.277 8.53 3.363l-3.539 3.539a7.5 7.5 0 0 0-10.59 10.59l-3.538 3.539A12.456 12.456 0 0 1 47.5 50c0-6.904 5.596-12.5 12.5-12.5Z" fill="#7A7B7C"/></svg>