<?xml version="1.0" encoding="UTF-8"?>
<svg width="32px" height="32px" viewBox="0 0 32 32" version="1.1" xmlns="http://www.w3.org/2000/svg" xmlns:xlink="http://www.w3.org/1999/xlink">
    <title>follow-pressed</title>
    <g id="白板" stroke="none" stroke-width="1" fill="none" fill-rule="evenodd">
        <g id="Whiteboard-Guidelines" transform="translate(-318.000000, -980.000000)">
            <g id="follow-pressed" transform="translate(318.000000, 980.000000)">
                <rect id="矩形备份-25" fill="#FFFFFF" opacity="0.01" x="0" y="0" width="32" height="32"></rect>
                <rect id="矩形" stroke="#3381FF" stroke-linecap="round" stroke-linejoin="round" x="10" y="10" width="12" height="10" rx="2"></rect>
                <path d="M15.5144958,12.9086975 L17.5708451,14.1425071 C18.0444254,14.4266552 18.1979905,15.0409155 17.9138423,15.5144958 C17.8293925,15.6552454 17.7115947,15.7730432 17.5708451,15.8574929 L15.5144958,17.0913025 C15.0409155,17.3754507 14.4266552,17.2218856 14.1425071,16.7483054 C14.0492578,16.59289 14,16.4150536 14,16.2338096 L14,13.7661904 C14,13.2139056 14.4477153,12.7661904 15,12.7661904 C15.1812439,12.7661904 15.3590804,12.8154482 15.5144958,12.9086975 Z" id="矩形" stroke="#3381FF" stroke-linecap="round" stroke-linejoin="round"></path>
                <line x1="10" y1="22" x2="22" y2="22" id="路径-47" stroke="#3381FF" stroke-linecap="round" stroke-linejoin="round"></line>
            </g>
        </g>
    </g>
</svg>
