<?xml version="1.0" encoding="UTF-8"?>
<svg width="96px" height="20px" viewBox="0 0 96 20" version="1.1" xmlns="http://www.w3.org/2000/svg" xmlns:xlink="http://www.w3.org/1999/xlink">
    <!-- Generator: Sketch 60.1 (88133) - https://sketch.com -->
    <title>logo</title>
    <desc>Created with Sketch.</desc>
    <g id="页面-4" stroke="none" stroke-width="1" fill="none" fill-rule="evenodd">
        <g id="Whiteboard-Guidelines" transform="translate(-591.000000, -923.000000)" fill="#212324" fill-rule="nonzero">
            <path d="M666.57969,927.690265 C667.305288,927.690265 667.981859,927.749263 668.609403,927.867257 C669.256558,927.965585 669.815464,928.122911 670.286122,928.339233 C670.75678,928.555556 671.129385,928.840708 671.403935,929.19469 C671.678486,929.529007 671.815761,929.932153 671.815761,930.40413 C671.815761,930.856441 671.727513,931.249754 671.551016,931.584071 C671.39413,931.898722 671.188217,932.164208 670.933277,932.380531 C670.776391,932.282203 670.541062,932.183874 670.22729,932.085546 C669.913518,931.967552 669.57033,931.869223 669.197725,931.79056 C668.825121,931.692232 668.442711,931.613569 668.050496,931.554572 C667.677892,931.495575 667.334704,931.466077 667.020932,931.466077 C666.373777,931.466077 665.873703,931.544739 665.520709,931.702065 C665.167716,931.839725 664.991219,932.06588 664.991219,932.380531 C664.991219,932.596854 665.089273,932.773845 665.28538,932.911504 C665.481488,933.049164 665.854092,933.176991 666.403193,933.294985 L667.315093,933.501475 C669.197725,933.93412 670.531257,934.533923 671.315687,935.300885 C672.119728,936.048181 672.521748,937.021632 672.521748,938.221239 C672.521748,939.715831 671.962842,940.885939 670.845029,941.731563 C669.727216,942.577188 668.079912,943 665.903119,943 C665.079467,943 664.314648,942.941003 663.608661,942.823009 C662.902673,942.705015 662.29474,942.528024 661.78486,942.292035 C661.294592,942.036382 660.902377,941.721731 660.608215,941.348083 C660.333665,940.974435 660.196389,940.531957 660.196389,940.020649 C660.196389,939.548673 660.294443,939.155359 660.490551,938.840708 C660.686658,938.506391 660.921987,938.231072 661.196538,938.014749 C661.76525,938.3294 662.412405,938.614553 663.138003,938.870206 C663.883211,939.106195 664.736279,939.224189 665.697206,939.224189 C666.305139,939.224189 666.765992,939.135693 667.079764,938.958702 C667.413147,938.781711 667.579838,938.545723 667.579838,938.250737 C667.579838,937.975418 667.462174,937.759095 667.226845,937.60177 C666.991516,937.444444 666.599301,937.316618 666.050199,937.218289 L665.167716,937.041298 C663.46158,936.706981 662.186881,936.185841 661.343619,935.477876 C660.519967,934.750246 660.108141,933.717797 660.108141,932.380531 C660.108141,931.652901 660.265027,930.9941 660.578799,930.40413 C660.892571,929.814159 661.333813,929.322517 661.902525,928.929204 C662.471237,928.53589 663.147808,928.231072 663.932238,928.014749 C664.736279,927.798427 665.618763,927.690265 666.57969,927.690265 Z M681.057942,927.690265 C681.783539,927.690265 682.46011,927.749263 683.087655,927.867257 C683.734809,927.965585 684.293716,928.122911 684.764374,928.339233 C685.235032,928.555556 685.607637,928.840708 685.882187,929.19469 C686.156738,929.529007 686.294013,929.932153 686.294013,930.40413 C686.294013,930.856441 686.205765,931.249754 686.029268,931.584071 C685.872382,931.898722 685.666469,932.164208 685.411529,932.380531 C685.254643,932.282203 685.019314,932.183874 684.705542,932.085546 C684.39177,931.967552 684.048582,931.869223 683.675977,931.79056 C683.303373,931.692232 682.920963,931.613569 682.528748,931.554572 C682.156144,931.495575 681.812956,931.466077 681.499184,931.466077 C680.852029,931.466077 680.351955,931.544739 679.998961,931.702065 C679.645967,931.839725 679.469471,932.06588 679.469471,932.380531 C679.469471,932.596854 679.567524,932.773845 679.763632,932.911504 C679.959739,933.049164 680.332344,933.176991 680.881445,933.294985 L681.793345,933.501475 C683.675977,933.93412 685.009509,934.533923 685.793939,935.300885 C686.59798,936.048181 687,937.021632 687,938.221239 C687,939.715831 686.441094,940.885939 685.323281,941.731563 C684.205468,942.577188 682.558164,943 680.381371,943 C679.557719,943 678.7929,942.941003 678.086912,942.823009 C677.380925,942.705015 676.772992,942.528024 676.263112,942.292035 C675.772843,942.036382 675.380628,941.721731 675.086467,941.348083 C674.811917,940.974435 674.674641,940.531957 674.674641,940.020649 C674.674641,939.548673 674.772695,939.155359 674.968803,938.840708 C675.16491,938.506391 675.400239,938.231072 675.67479,938.014749 C676.243502,938.3294 676.890656,938.614553 677.616254,938.870206 C678.361463,939.106195 679.214531,939.224189 680.175458,939.224189 C680.783391,939.224189 681.244244,939.135693 681.558016,938.958702 C681.891399,938.781711 682.05809,938.545723 682.05809,938.250737 C682.05809,937.975418 681.940425,937.759095 681.705096,937.60177 C681.469767,937.444444 681.077552,937.316618 680.528451,937.218289 L679.645967,937.041298 C677.939832,936.706981 676.665133,936.185841 675.82187,935.477876 C674.998219,934.750246 674.586393,933.717797 674.586393,932.380531 C674.586393,931.652901 674.743279,930.9941 675.057051,930.40413 C675.370823,929.814159 675.812065,929.322517 676.380777,928.929204 C676.949489,928.53589 677.62606,928.231072 678.41049,928.014749 C679.214531,927.798427 680.097015,927.690265 681.057942,927.690265 Z M614.914853,927.719764 C615.954223,927.719764 616.895539,927.877089 617.738801,928.19174 C618.601674,928.506391 619.337078,928.939036 619.945011,929.489676 C620.572555,930.040315 621.053019,930.699115 621.386401,931.466077 C621.739395,932.233038 621.915892,933.06883 621.915892,933.973451 C621.915892,934.642085 621.72959,935.153392 621.356985,935.507375 C620.984381,935.861357 620.464696,936.087512 619.79793,936.185841 L612.532146,937.277286 C612.747864,937.926254 613.189106,938.417896 613.855872,938.752212 C614.522637,939.066863 615.287457,939.224189 616.15033,939.224189 C616.954371,939.224189 617.709385,939.12586 618.415372,938.929204 C619.14097,938.712881 619.729293,938.46706 620.18034,938.19174 C620.494112,938.388397 620.758857,938.663717 620.974575,939.017699 C621.190294,939.371681 621.298153,939.745329 621.298153,940.138643 C621.298153,941.023599 620.886327,941.682399 620.062675,942.115044 C619.435131,942.449361 618.729144,942.675516 617.944714,942.79351 C617.160284,942.911504 616.424881,942.970501 615.738504,942.970501 C614.58147,942.970501 613.502878,942.813176 612.50273,942.498525 C611.522192,942.164209 610.659319,941.672566 609.91411,941.023599 C609.188512,940.374631 608.609995,939.558505 608.178559,938.575221 C607.766733,937.591937 607.56082,936.441495 607.56082,935.123894 C607.56082,933.825959 607.766733,932.714848 608.178559,931.79056 C608.609995,930.846608 609.168902,930.079646 609.855278,929.489676 C610.541655,928.880039 611.326085,928.437561 612.208569,928.162242 C613.091052,927.867257 613.993147,927.719764 614.914853,927.719764 Z M651.053031,927.719764 C652.092401,927.719764 653.033717,927.877089 653.876979,928.19174 C654.739852,928.506391 655.475256,928.939036 656.083189,929.489676 C656.710733,930.040315 657.191197,930.699115 657.524579,931.466077 C657.877573,932.233038 658.05407,933.06883 658.05407,933.973451 C658.05407,934.642085 657.867768,935.153392 657.495163,935.507375 C657.122559,935.861357 656.602874,936.087512 655.936108,936.185841 L648.670324,937.277286 C648.886042,937.926254 649.327284,938.417896 649.99405,938.752212 C650.660816,939.066863 651.425635,939.224189 652.288508,939.224189 C653.092549,939.224189 653.847563,939.12586 654.55355,938.929204 C655.279148,938.712881 655.867471,938.46706 656.318518,938.19174 C656.63229,938.388397 656.897035,938.663717 657.112754,939.017699 C657.328472,939.371681 657.436331,939.745329 657.436331,940.138643 C657.436331,941.023599 657.024505,941.682399 656.200854,942.115044 C655.57331,942.449361 654.867322,942.675516 654.082892,942.79351 C653.298462,942.911504 652.563059,942.970501 651.876682,942.970501 C650.719648,942.970501 649.641057,942.813176 648.640908,942.498525 C647.66037,942.164209 646.797497,941.672566 646.052289,941.023599 C645.326691,940.374631 644.748173,939.558505 644.316737,938.575221 C643.904911,937.591937 643.698998,936.441495 643.698998,935.123894 C643.698998,933.825959 643.904911,932.714848 644.316737,931.79056 C644.748173,930.846608 645.30708,930.079646 645.993456,929.489676 C646.679833,928.880039 647.464263,928.437561 648.346747,928.162242 C649.229231,927.867257 650.131325,927.719764 651.053031,927.719764 Z M626.588003,925.0059 C627.450876,925.0059 628.117641,925.163225 628.588299,925.477876 C629.078568,925.772861 629.323703,926.411996 629.323703,927.39528 L629.323703,929.283186 L633.177216,929.283186 C633.29488,929.499508 633.40274,929.774828 633.500793,930.109145 C633.618458,930.423795 633.67729,930.777778 633.67729,931.171091 C633.67729,931.85939 633.520404,932.360865 633.206632,932.675516 C632.912471,932.970501 632.51045,933.117994 632.000571,933.117994 L629.323703,933.117994 L629.323703,937.572271 C629.323703,938.083579 629.480589,938.447394 629.794361,938.663717 C630.127744,938.880039 630.588596,938.988201 631.176919,938.988201 C631.47108,938.988201 631.775047,938.968535 632.088819,938.929204 C632.402591,938.870206 632.677142,938.801377 632.912471,938.722714 C633.088967,938.939036 633.236048,939.184857 633.353713,939.460177 C633.490988,939.715831 633.559626,940.030482 633.559626,940.40413 C633.559626,941.151426 633.27527,941.761062 632.706558,942.233038 C632.157457,942.705015 631.176919,942.941003 629.764945,942.941003 C628.039198,942.941003 626.705667,942.547689 625.764351,941.761062 C624.842645,940.974435 624.381793,939.696165 624.381793,937.926254 L624.381793,925.300885 C624.597511,925.241888 624.901478,925.182891 625.293693,925.123894 C625.705519,925.045231 626.136955,925.0059 626.588003,925.0059 Z M598.14812,927.719764 C600.364135,927.719764 602.070271,928.211406 603.266526,929.19469 C604.462782,930.158309 605.06091,931.505408 605.06091,933.235988 L605.06091,942.469027 C604.864803,942.528024 604.551031,942.587021 604.119594,942.646018 C603.707768,942.705015 603.276332,942.734513 602.825284,942.734513 C602.393848,942.734513 602.001633,942.705015 601.648639,942.646018 C601.315256,942.587021 601.030901,942.469027 600.795572,942.292035 C600.560242,942.115044 600.37394,941.879056 600.236665,941.584071 C600.119001,941.26942 600.060168,940.866273 600.060168,940.374631 L600.060168,933.412979 C600.060168,932.803343 599.883671,932.360865 599.530678,932.085546 C599.197295,931.79056 598.736442,931.643068 598.14812,931.643068 C597.755905,931.643068 597.36369,931.692232 596.971475,931.79056 C596.59887,931.888889 596.275293,932.036382 596.000742,932.233038 L596.000742,942.469027 C595.804635,942.528024 595.490863,942.587021 595.059426,942.646018 C594.6476,942.705015 594.216164,942.734513 593.765116,942.734513 C593.33368,942.734513 592.941465,942.705015 592.588471,942.646018 C592.255088,942.587021 591.970732,942.469027 591.735403,942.292035 C591.500074,942.115044 591.313772,941.879056 591.176497,941.584071 C591.058832,941.26942 591,940.866273 591,940.374631 L591,931.525074 C591,930.9941 591.107859,930.561455 591.323577,930.227139 C591.558906,929.892822 591.872679,929.588004 592.264894,929.312684 C592.931659,928.840708 593.765116,928.457227 594.765265,928.162242 C595.785024,927.867257 596.912642,927.719764 598.14812,927.719764 Z M638.424776,923 C638.856212,923 639.238622,923.029499 639.572005,923.088496 C639.924998,923.147493 640.21916,923.265487 640.454489,923.442478 C640.689818,923.619469 640.866315,923.86529 640.983979,924.179941 C641.121254,924.474926 641.189892,924.86824 641.189892,925.359882 L641.189892,942.469027 C640.974174,942.508358 640.650596,942.557522 640.21916,942.616519 C639.807334,942.695182 639.385703,942.734513 638.954266,942.734513 C638.522829,942.734513 638.130614,942.705015 637.777621,942.646018 C637.444238,942.587021 637.159882,942.469027 636.924553,942.292035 C636.689224,942.115044 636.502922,941.879056 636.365647,941.584071 C636.247982,941.26942 636.18915,940.866273 636.18915,940.374631 L636.18915,923.265487 C636.404868,923.226155 636.71864,923.176991 637.130466,923.117994 C637.561903,923.039331 637.993339,923 638.424776,923 Z M614.914853,931.377581 C614.444194,931.377581 614.032369,931.456244 613.679375,931.613569 C613.345992,931.770895 613.071442,931.977384 612.855723,932.233038 C612.640005,932.469027 612.473314,932.744346 612.355649,933.058997 C612.257595,933.353982 612.198763,933.6588 612.179152,933.973451 L617.209311,933.147493 C617.150478,932.754179 616.93476,932.360865 616.562156,931.967552 C616.189552,931.574238 615.64045,931.377581 614.914853,931.377581 Z M651.053031,931.377581 C650.582373,931.377581 650.170547,931.456244 649.817553,931.613569 C649.48417,931.770895 649.20962,931.977384 648.993902,932.233038 C648.778183,932.469027 648.611492,932.744346 648.493827,933.058997 C648.395774,933.353982 648.336941,933.6588 648.317331,933.973451 L653.347489,933.147493 C653.288657,932.754179 653.072938,932.360865 652.700334,931.967552 C652.32773,931.574238 651.778629,931.377581 651.053031,931.377581 Z" id="logo"></path>
        </g>
    </g>
</svg>