<?xml version="1.0" encoding="UTF-8"?>
<svg width="20px" height="24px" viewBox="0 0 20 24" version="1.1" xmlns="http://www.w3.org/2000/svg" xmlns:xlink="http://www.w3.org/1999/xlink">
    <!-- Generator: Sketch 49 (51002) - http://www.bohemiancoding.com/sketch -->
    <title>播放器播放 (1)</title>
    <desc>Created with Sketch.</desc>
    <defs></defs>
    <g id="Page-1" stroke="none" stroke-width="1" fill="none" fill-rule="evenodd">
        <g id="播放器播放-(1)" fill="#ffffff" fill-rule="nonzero">
            <path d="M19.4999513,11.99994 C19.4999513,12.8249359 19.0229536,13.5449323 18.3134572,13.9364303 L3.6720304,23.6713816 C3.66603042,23.6758816 3.65853047,23.6788816 3.65253049,23.6818816 L3.64353054,23.6878816 C3.28353234,23.8858806 2.86353443,23.99988 2.41503668,23.99988 C1.08154334,23.99988 4.875e-05,22.991885 4.875e-05,21.7498912 L4.875e-05,2.24998875 C4.875e-05,1.00799496 1.08154334,0 2.41503668,0 C2.86353443,0 3.28353234,0.113999437 3.64353054,0.31349843 L3.65253049,0.317998406 C3.65853047,0.322498383 3.66453042,0.325498359 3.6720304,0.328498359 L18.3134572,10.0634497 C19.0229536,10.4549477 19.4999513,11.1749441 19.4999513,11.99994 Z" id="Shape"></path>
        </g>
    </g>
</svg>
