<?xml version="1.0" encoding="UTF-8"?>
<svg width="18px" height="24px" viewBox="0 0 18 24" version="1.1" xmlns="http://www.w3.org/2000/svg" xmlns:xlink="http://www.w3.org/1999/xlink">
    <!-- Generator: Sketch 49 (51002) - http://www.bohemiancoding.com/sketch -->
    <title>暂停</title>
    <desc>Created with Sketch.</desc>
    <defs></defs>
    <g id="Page-1" stroke="none" stroke-width="1" fill="none" fill-rule="evenodd">
        <g id="暂停" fill="#ffffff" fill-rule="nonzero">
            <path d="M15.1473214,0.0133928571 C13.7544643,0.01875 12.6267857,1.14375 12.6241071,2.53660714 L12.6241071,21.4633929 C12.6241071,22.85625 13.7544643,23.9866071 15.1473214,23.9866071 C16.5401786,23.9866071 17.6705357,22.85625 17.6705357,21.4633929 L17.6705357,2.53660714 C17.6678571,1.14375 16.5401786,0.01875 15.1473214,0.0133928571 Z M2.53125,0.0133928571 C1.13839286,0.01875 0.0107142857,1.14375 0.00803571429,2.53660714 L0.00803571429,21.4633929 C0.00803571429,22.85625 1.13839286,23.9866071 2.53125,23.9866071 C3.92410714,23.9866071 5.05446429,22.85625 5.05446429,21.4633929 L5.05446429,2.53660714 C5.04910714,1.14375 3.92142857,0.01875 2.53125,0.0133928571 Z" id="Shape"></path>
        </g>
    </g>
</svg>
