<svg xmlns="http://www.w3.org/2000/svg" xmlns:xlink="http://www.w3.org/1999/xlink" viewBox="0 0 24 24">
  <defs>
    <rect id="a" width="24" height="17.143" x="0" y="0" rx="2"/>
  </defs>
  <g fill="none" fill-rule="evenodd">
    <path fill="#FFF" fill-opacity=".01" d="M0 0h24v24H0z"/>
    <g transform="translate(0 3.429)">
      <mask id="b" fill="#fff">
        <use xlink:href="#a"/>
      </mask>
      <use fill="#FFF" xlink:href="#a"/>
      <path fill="#F1361D" d="M0 0h24v17.143H0z" mask="url(#b)"/>
      <path fill="#FFDC42" d="M10.25 8.705l.01.842.463.704-.842.01-.703.462-.01-.842-.463-.703.842-.01.704-.463zm.523-2.213l.755.374.837-.093-.374.755.093.837-.755-.374-.837.093.374-.755-.093-.837zM12 3.582l-.02.842.438.719-.842-.02-.719.438.02-.842L10.439 4l.842.02.719-.438zM9.342 1.205l.623.567.83.142-.567.622-.142.83-.622-.567-.83-.141.567-.623.141-.83zM5.714 7.051L3.699 8.488l.744-2.361-1.989-1.472 2.474-.022.786-2.347.786 2.347 2.475.022-1.989 1.472.744 2.361z" mask="url(#b)"/>
    </g>
  </g>
</svg>
