<svg xmlns="http://www.w3.org/2000/svg" xmlns:xlink="http://www.w3.org/1999/xlink" viewBox="0 0 24 24">
  <defs>
    <linearGradient id="e" x1="50%" x2="50%" y1="0%" y2="100%">
      <stop offset="0%" stop-color="#FFF"/>
      <stop offset="100%" stop-color="#F0F0F0"/>
    </linearGradient>
    <filter id="c" width="112.5%" height="135%" x="-6.3%" y="-8.8%" filterUnits="objectBoundingBox">
      <feOffset dy="1" in="SourceAlpha" result="shadowOffsetOuter1"/>
      <feColorMatrix in="shadowOffsetOuter1" values="0 0 0 0 0 0 0 0 0 0 0 0 0 0 0 0 0 0 0.06 0"/>
    </filter>
    <rect id="a" width="24" height="17.143" x="0" y="0" rx="2"/>
    <path id="d" d="M8.571 5.714a.571.571 0 110 1.143.571.571 0 010-1.143zm-2.285 0a.571.571 0 110 1.143.571.571 0 010-1.143zM4 5.714a.571.571 0 110 1.143.571.571 0 010-1.143zm-2.286 0a.571.571 0 110 1.143.571.571 0 010-1.143zm1.143-1.143a.571.571 0 110 1.143.571.571 0 010-1.143zm2.286 0a.571.571 0 110 1.143.571.571 0 010-1.143zm2.286 0a.571.571 0 110 1.143.571.571 0 010-1.143zM8.57 3.43a.571.571 0 110 1.142.571.571 0 010-1.142zm-2.285 0a.571.571 0 110 1.142.571.571 0 010-1.142zM4 3.429A.571.571 0 114 4.57.571.571 0 014 3.43zm-2.286 0a.571.571 0 110 1.142.571.571 0 010-1.142zm1.143-1.143a.571.571 0 110 1.143.571.571 0 010-1.143zm2.286 0a.571.571 0 110 1.143.571.571 0 010-1.143zm2.286 0a.571.571 0 110 1.143.571.571 0 010-1.143zM1.714 1.143a.571.571 0 110 1.143.571.571 0 010-1.143zm2.286 0a.571.571 0 110 1.143.571.571 0 010-1.143zm2.286 0a.571.571 0 110 1.143.571.571 0 010-1.143zm2.285 0a.571.571 0 110 1.143.571.571 0 010-1.143z"/>
  </defs>
  <g fill="none" fill-rule="evenodd">
    <path fill="#FFF" fill-opacity=".01" d="M0 0h24v24H0z"/>
    <g transform="translate(0 3.429)">
      <mask id="b" fill="#fff">
        <use xlink:href="#a"/>
      </mask>
      <use fill="#FFF" xlink:href="#a"/>
      <path fill="#D02F44" d="M24 16v1.143H0V16h24zm0-2.286v1.143H0v-1.143h24zm0-2.285v1.142H0V11.43h24zm0-2.286v1.143H0V9.143h24zm0-2.286V8H0V6.857h24zm0-2.286v1.143H0V4.571h24zm0-2.285v1.143H0V2.286h24zM24 0v1.143H0V0h24z" mask="url(#b)"/>
      <path fill="#46467F" d="M0 0h10.286v8H0z" mask="url(#b)"/>
      <g mask="url(#b)">
        <use fill="#000" filter="url(#c)" xlink:href="#d"/>
        <use fill="url(#e)" xlink:href="#d"/>
      </g>
    </g>
  </g>
</svg>
