<?xml version="1.0" encoding="UTF-8"?>
<svg width="22px" height="22px" viewBox="0 0 22 22" version="1.1" xmlns="http://www.w3.org/2000/svg" xmlns:xlink="http://www.w3.org/1999/xlink">
    <title>编组</title>
    <g id="Flat" stroke="none" stroke-width="1" fill="none" fill-rule="evenodd" stroke-linecap="round" stroke-linejoin="round">
        <g id="规范（持续更新）" transform="translate(-1416.000000, -197.000000)" stroke="#7A7B7C">
            <g id="编组-23" transform="translate(1086.000000, 129.000000)">
                <g id="编组-18" transform="translate(16.000000, 68.000000)">
                    <g id="编组-9" transform="translate(279.000000, 0.000000)">
                        <path d="M50,9 L50,15 C50,16.1045695 49.1045695,17 48,17 L44,17 C42.8954305,17 42,16.1045695 42,15 L42,9 L42,9" id="矩形"></path>
                        <path d="M43,7 C43,5.8954305 43.8954305,5 45,5 L47,5 C48.1045695,5 49,5.8954305 49,7 L49,7 L49,7" id="路径-28"></path>
                        <line x1="41" y1="7" x2="51" y2="7" id="路径-27"></line>
                        <line x1="47.5" y1="10" x2="47.5" y2="14" id="路径-29备份"></line>
                        <line x1="44.5" y1="10" x2="44.5" y2="14" id="路径-29"></line>
                    </g>
                </g>
            </g>
        </g>
    </g>
</svg>