<svg width="48" height="48" viewBox="0 0 48 48" fill="none" xmlns="http://www.w3.org/2000/svg">
<path fill-rule="evenodd" clip-rule="evenodd" d="M36.5401 12.4227C32.9766 8.85912 27.1989 8.85912 23.6354 12.4227C20.9903 15.0677 20.3073 18.9342 21.5916 22.2107C21.7185 22.5345 21.6416 22.9028 21.3956 23.1487L9.75 34.7944V39.2138H14.1694L15.8471 37.5361L16.5023 34.2603C16.5715 33.914 16.8423 33.6432 17.1887 33.5739L20.4644 32.9188L22.3984 30.9848L25.8155 27.5677C26.0614 27.3218 26.4296 27.2449 26.7534 27.3717C30.0296 28.6552 33.8954 27.9721 36.5401 25.3273C40.1036 21.7638 40.1036 15.9862 36.5401 12.4227ZM22.398 11.1852C26.6449 6.93826 33.5306 6.93826 37.7775 11.1852C42.0245 15.4322 42.0245 22.3178 37.7775 26.5648C34.7692 29.5731 30.4383 30.4493 26.6601 29.198L23.6359 32.2222L21.5145 34.3436C21.3924 34.4657 21.2368 34.549 21.0674 34.5828L18.1039 35.1755L17.5112 38.1391C17.4773 38.3085 17.394 38.464 17.2719 38.5862L15.1506 40.7075C14.9865 40.8716 14.7639 40.9638 14.5319 40.9638H8.875C8.39175 40.9638 8 40.572 8 40.0888V34.4319C8 34.1999 8.09219 33.9773 8.25628 33.8132L19.7653 22.3042C18.5132 18.5257 19.3893 14.1939 22.398 11.1852ZM30.8832 18.0802C30.4439 17.6409 29.7316 17.6409 29.2923 18.0802C28.8529 18.5196 28.8529 19.2319 29.2923 19.6712C29.7316 20.1106 30.4439 20.1106 30.8832 19.6712C31.3226 19.2319 31.3226 18.5196 30.8832 18.0802ZM28.0548 16.8428C29.1776 15.7201 30.9979 15.7201 32.1207 16.8428C33.2434 17.9656 33.2434 19.7859 32.1207 20.9087C30.9979 22.0314 29.1776 22.0314 28.0548 20.9087C26.9321 19.7859 26.9321 17.9656 28.0548 16.8428ZM23.8128 23.913L16.7417 30.984L17.9791 32.2215L25.0502 25.1504L23.8128 23.913Z" fill="#5D6066"/>
</svg>
