<svg width="108" height="108" fill="none" xmlns="http://www.w3.org/2000/svg"><g filter="url(#a)"><path d="M10 41.68c0-11.089 0-16.634 2.158-20.869a19.8 19.8 0 0 1 8.653-8.653C25.046 10 30.591 10 41.68 10h24.64c11.089 0 16.634 0 20.869 2.158a19.8 19.8 0 0 1 8.653 8.653C98 25.046 98 30.591 98 41.68v24.64c0 11.089 0 16.634-2.158 20.869a19.8 19.8 0 0 1-8.653 8.653C82.954 98 77.409 98 66.32 98H41.68c-11.089 0-16.634 0-20.869-2.158a19.8 19.8 0 0 1-8.653-8.653C10 82.954 10 77.409 10 66.32V41.68Z" fill="url(#b)"/></g><path fill-rule="evenodd" clip-rule="evenodd" d="M34.875 32a4.5 4.5 0 0 0-4.5 4.5h9V32h-4.5Zm2.25 5.625h-6.75V41h-2.25v4.5h2.25v15.75h6.75V45.5h2.25V41h-2.25v-3.375ZM43.875 32h-2.25v29.25h6.75V36.5a4.5 4.5 0 0 0-4.5-4.5ZM54 41h9a4.5 4.5 0 0 1 4.5 4.5v15.75H55.125a4.5 4.5 0 0 1-4.5-4.5v-4.5a4.5 4.5 0 0 1 4.5-4.5h4.5v4.5h-2.25v4.5h3.375V45.5H54V41Zm15.75 20.25h6.75V45.5h2.25V41H76.5v-4.5A4.5 4.5 0 0 0 72 32h-2.25v29.25ZM36 67h-4.885l-3.934 2.25H45l9 2.25 9-2.25h17.82L76.884 67H63l-9 2.25L45 67h-9Zm-12.754 4.5H45l9 2.25 9-2.25h21.754l3.934 2.25H63L54 76l-9-2.25H19.311l3.935-2.25Z" fill="#3381FF"/><defs><linearGradient id="b" x1="54" y1="10" x2="54" y2="98" gradientUnits="userSpaceOnUse"><stop stop-color="#fff"/><stop offset="1" stop-color="#EBF2FF"/></linearGradient><filter id="a" x="7" y="9" width="94" height="94" filterUnits="userSpaceOnUse" color-interpolation-filters="sRGB"><feFlood flood-opacity="0" result="BackgroundImageFix"/><feColorMatrix in="SourceAlpha" values="0 0 0 0 0 0 0 0 0 0 0 0 0 0 0 0 0 0 127 0" result="hardAlpha"/><feOffset dy="2"/><feGaussianBlur stdDeviation="1.5"/><feComposite in2="hardAlpha" operator="out"/><feColorMatrix values="0 0 0 0 0 0 0 0 0 0 0 0 0 0 0 0 0 0 0.25 0"/><feBlend in2="BackgroundImageFix" result="effect1_dropShadow_5289_13860"/><feBlend in="SourceGraphic" in2="effect1_dropShadow_5289_13860" result="shape"/></filter></defs></svg>