<svg width="80" height="80" xmlns="http://www.w3.org/2000/svg" fill="none" viewBox="0 0 94 94"><g filter="url(#a)"><rect width="88" height="88" x="3" y="1" fill="url(#b)" rx="22"/><path fill="#fff" fill-rule="evenodd" d="M26 29a4 4 0 0 1 4-4h4v4h-8Zm0 1h6v3h2v4h-2v14h-6V37h-2v-4h2v-3Zm10-5h2a4 4 0 0 1 4 4v22h-6V25Zm17 8h-6v4h6v10h-3v-4h2v-4h-4a4 4 0 0 0-4 4v4a4 4 0 0 0 4 4h11V37a4 4 0 0 0-4-4h-2Zm14 18h-6V25h2a4 4 0 0 1 4 4v4h2v4h-2v14Zm-44 6h16l8 2 8-2h16v2H55l-8 2-8-2H23v-2Zm8 4h8l8 2 8-2h24v2H55l-8 2-8-2H15v-2h16Z" clip-rule="evenodd"/></g><defs><linearGradient id="b" x1="47" x2="47" y1="1" y2="89" gradientUnits="userSpaceOnUse"><stop stop-color="#3381FF"/><stop offset="1" stop-color="#3733FF"/></linearGradient><filter id="a" width="94" height="94" x="0" y="0" color-interpolation-filters="sRGB" filterUnits="userSpaceOnUse"><feFlood flood-opacity="0" result="BackgroundImageFix"/><feColorMatrix in="SourceAlpha" result="hardAlpha" values="0 0 0 0 0 0 0 0 0 0 0 0 0 0 0 0 0 0 127 0"/><feOffset dy="2"/><feGaussianBlur stdDeviation="1.5"/><feComposite in2="hardAlpha" operator="out"/><feColorMatrix values="0 0 0 0 0 0 0 0 0 0 0 0 0 0 0 0 0 0 0.25 0"/><feBlend in2="BackgroundImageFix" result="effect1_dropShadow_135_191"/><feBlend in="SourceGraphic" in2="effect1_dropShadow_135_191" result="shape"/></filter></defs></svg>