<svg width="100" height="40" viewBox="0 0 250 100" fill="none" xmlns="http://www.w3.org/2000/svg"><path fill-rule="evenodd" clip-rule="evenodd" d="M68 32a8 8 0 0 1 8-8h24v8a8 8 0 0 1-8 8H68v-8ZM52 50a8 8 0 0 1 8-8h24v8a8 8 0 0 1-8 8H52v-8Zm0 10a8 8 0 1 0 8 8v-8h-8Zm76-36a8 8 0 0 0-8 8h16v-8h-8Zm4 10h-12v6h-4v8h4v28h12V48h4v-8h-4v-6Zm12-10h-4v52h12V32a8 8 0 0 0-8-8Zm18 16h16a8 8 0 0 1 8 8v28h-22a8 8 0 0 1-8-8v-8a8 8 0 0 1 8-8h8v8h-4v8h6V48h-12v-8Zm28 36h12V48h4v-8h-4v-8a8 8 0 0 0-8-8h-4v52Z" fill="#3381FF"/></svg>