<svg xmlns="http://www.w3.org/2000/svg" viewBox="0 0 176 124"><g fill="none" fill-rule="evenodd" transform="translate(0 3)"><path fill="#FFF" fill-rule="nonzero" d="m96.067 71 .002 2H96v-2h.067Zm3.96-.112.111 1.997-1.012.05-1.013.035-.057-2a71.943 71.943 0 0 0 1.97-.082Zm3.945-.33.222 1.987-1.008.106-1.01.091-.167-1.993c.656-.055 1.31-.119 1.963-.192Zm3.918-.549.332 1.972-1 .162-1.004.147-.277-1.98a70.86 70.86 0 0 0 1.949-.301Zm3.876-.765.442 1.95-.99.217-.994.204-.387-1.962a70.584 70.584 0 0 0 1.929-.41Zm3.832-.983.551 1.923-.976.272-.981.259-.497-1.937a70.451 70.451 0 0 0 1.903-.517Zm3.769-1.195.658 1.888-.96.327-.965.314-.605-1.907a70.434 70.434 0 0 0 1.872-.622Zm3.69-1.404.763 1.85-.94.38-.945.366-.71-1.87a70.508 70.508 0 0 0 1.833-.726Zm3.612-1.609.865 1.803-.918.433-.923.42-.815-1.828a70.64 70.64 0 0 0 1.791-.828Zm3.423-1.758.962 1.753-.892.482-.9.469-.912-1.78c.585-.3 1.166-.608 1.742-.924Zm3.424-2.005 1.059 1.697-.865.531-.872.519-1.01-1.726c.567-.332 1.13-.673 1.688-1.02Zm3.304-2.19 1.151 1.635-.833.578-.841.567-1.106-1.667a75.434 75.434 0 0 0 1.629-1.113Zm3.175-2.37 1.24 1.569-.8.623-.808.613-1.196-1.603a71.299 71.299 0 0 0 1.564-1.202Zm3.036-2.54 1.325 1.498-.763.667-.773.655-1.283-1.534c.504-.421 1.002-.85 1.494-1.285Zm2.892-2.706 1.406 1.423-.726.708-.736.698-1.366-1.46c.48-.45.954-.906 1.422-1.369Zm2.734-2.857 1.483 1.342-.686.747-.695.737-1.446-1.382a71.44 71.44 0 0 0 1.344-1.444Zm2.57-3.002 1.554 1.258-.643.784-.654.774-1.52-1.3c.428-.5.849-1.005 1.262-1.516Zm2.37-3.1 1.62 1.172-.599.818-.61.81-1.589-1.216c.4-.522.792-1.05 1.178-1.583Zm2.232-3.28 1.684 1.08-.552.85-.565.841-1.653-1.125c.37-.543.732-1.092 1.086-1.645Zm2.042-3.391 1.742.983-.506.88-.517.874-1.714-1.032c.34-.563.671-1.132.995-1.705Zm1.847-3.496 1.793.885-.454.906-.467.899-1.769-.934a70.66 70.66 0 0 0 .897-1.756Zm1.638-3.568 1.84.783-.404.93-.416.924-1.818-.834c.274-.597.54-1.198.798-1.803Zm1.449-3.688 1.881.679-.35.95-.364.945-1.861-.731c.24-.611.471-1.226.694-1.843Zm1.237-3.757 1.917.573-.297.968-.31.965-1.9-.626c.206-.623.402-1.25.59-1.88Zm1.024-3.815 1.945.464-.242.986-.256.982-1.932-.518c.17-.635.332-1.273.485-1.914ZM168 0l5.732 14.565-6.078-.54-.2.994-1.958-.41.153-.763-5.862-.521L168 0Z"/><rect width="32" height="32" x="56" y="56" fill="#FFF" rx="6"/><path fill="#5D5D5D" fill-rule="nonzero" d="M72 60c-6.627 0-12 5.373-12 12s5.373 12 12 12 12-5.373 12-12-5.373-12-12-12Zm1.025.85s.752-.436 1.013-.174c.262.261 1.177-.044 3.531 1.351 0 0-.518.553-.631.52.066.12.27.487.413.713.175.274.218.293.218.293l-.174.262.174.043c-.174-.043-.261.48-.514.567-.252.087.078.567-.009.654-.087.087.044.872 0 1.334-.043.462-.218.061-.436 0-.218-.06-.566-.2-.596-.331-.03-.131-.101-.523-.014-.741.087-.218-.262-.436-.436-.596-.174-.16-.872.029-1.003 0-.13-.03-.218-.407-.218-.756 0-.349.61.044.954 0s.398-.913.398-.913l-.02-.739c-.14-.056-.164-.129.063-.223 0 0-.74-.174-.915.218-.175.393-.262.355-.305.744-.044.39-.727.047-.887 0-.16-.046-.596-.57-.596-.57.131-.304.218-.522.218-.522l-.228-.524v-.61Zm-6.878 4.055c.074-.099.567-.96 1.177-.698.61.262 1.003-.305 1.003-.305s.896-.916.95-.785l.053.131c-.054-.13.74-.349.828.087.087.436.61.655.61.655s-.305.522-.218.915c.088.392.393.48.218.828-.174.349-.523.48-.61.654-.087.174-.804-.567-.882-.828-.077-.262-.46-.524-.792-.436-.331.087-1.203.305-1.378.218-.174-.088-1.163-.164-.959-.436Zm11.684 12.817c-.349.916-1.177 2.485-1.613 2.921-.436.436-.96 1.264-1.352 1.57-.392.305-.392.871-.871.828-.48-.044-1.047-1.395-.916-1.744.13-.349-2.398-.96-2.398-.96s-1.09-.13-1.308-2.223a37.723 37.723 0 0 1-.078-.82c-.328-.145-1.613-.676-2.407-.487-.915.218-1.133-.291-1.918-.407l-1.351-1.25s-2.224-2.572-1.962-3.008c.261-.436.261-1.613.305-1.875.043-.262-.348-1.918-.327-2.136.022-.218-.327-1.047-.327-1.047s.828-1.743.959-1.743c.13 0 .61 1.482 1.09 1.525.48.044 1.787-.043 1.984-.261.196-.218.37-.48.588-.48.218 0 .218-.13.61.044.393.174.829.436 1.003.697.175.262-.13.785.785.785s.915-.218 1.046.393c.131.61.286 1.961-.097 2.049-.382.087-1.516 1.414-1.429 1.84.088.427.088 1.08-.087 1.473-.174.392-.305.523-.959.48-.654-.044-1.207-.393-1.388.13-.181.523-.528 1.702.08 1.583 0 0 .96-.292 1.308 0 .349.292 2.572 1.251 2.572 1.251s2.006-2.18 5.145-.785l.523.35.872-.19s1.133-.334 1.526-.247l.392.087v-.174s.349.916 0 1.831Zm5.1-4.97s-.26-.392-.26-.805c0-.413-.306-.372-.306-.895s-.392-.349-.654-.698c-.261-.349-.392.131-.61.175-.218.043-.175.392-.393.806-.218.414-.784.676-.959.598-.174-.077-.828-.663-.872-.794-.043-.13-.915-.872-.891-1.046.024-.175-.242-1.09-.417-1.526-.174-.436 0-2.154 0-2.154-.261-.148 2.398-1.247 2.05-1.378-.35-.13-.524-1.57-.524-1.57l1.27.655c1.269.654 2.872 5.842 2.872 5.842v1.482l-.305 1.308Z"/></g></svg>