<svg width="32" height="32" xmlns="http://www.w3.org/2000/svg"><g fill="none" fill-rule="evenodd"><path d="M21.333 7.5a3.167 3.167 0 0 1 3.167 3.167v8a3.167 3.167 0 0 1-3.167 3.166H10.667A3.167 3.167 0 0 1 7.5 18.667v-8A3.167 3.167 0 0 1 10.667 7.5Zm-6.267 4.198a.5.5 0 0 0-.847.078l-1.195 2.39h-2.357l-.09.009a.5.5 0 0 0 .09.992h2.666l.093-.009a.5.5 0 0 0 .355-.268l.885-1.773 2.22 4.44.048.078a.5.5 0 0 0 .847-.078l1.194-2.391h2.358l.09-.007a.5.5 0 0 0-.09-.992h-2.666l-.093.008a.5.5 0 0 0-.355.268l-.886 1.772-2.22-4.439Z" fill="#FFF" fill-rule="nonzero"/><path stroke="#FFF" stroke-linecap="round" stroke-linejoin="round" d="M10.667 24h10.666"/></g></svg>