<svg xmlns="http://www.w3.org/2000/svg" width="240" height="240" fill="none"><path fill="url(#a)" d="M0 0h240v240H0z"/><g fill="#fff"><rect x="15" y="40" width="210" height="160" rx="8" fill-opacity=".5"/><path d="M175.815 101.182a.39.39 0 0 0-.121.018c-.097.025-.224.103-.272.206a29.257 29.257 0 0 0-1.449 4.184c-1.491-.725-3.284-1.087-5.331-1.087-.803 0-1.624.054-2.524.157-1.376.163-2.807.459-4.377.912a31.61 31.61 0 0 0-3.61 1.292c.018-.121.024-.254.03-.381.006-.139-.018-.241-.085-.326a.436.436 0 0 0-.302-.175h-.006c-.259 0-.489.157-.501.387l-.066.935a.46.46 0 0 0-.079.532 11.31 11.31 0 0 1-.308 1.672 10.73 10.73 0 0 1-.984 2.385 9.58 9.58 0 0 1-1.407 1.799 11.313 11.313 0 0 1-2.215 1.624c-1.975 1.087-4.196 1.709-6.116 2.204l.096-.012-3.544.845-4.945 1.232c-1.587.44-2.964.899-4.202 1.406a26.518 26.518 0 0 0-4.051 2.077l-1.201.803-.64.471-.23.181-.398.302a.437.437 0 0 0-.175.278.47.47 0 0 0 .078.35.774.774 0 0 0 .211.248c1.184.923 2.566 1.769 4.233 2.596 1.316.658 2.771 1.274 4.697 2.004l4.909 1.721 5.488 1.497c3.489.809 7.269 1.407 11.223 1.775 1.812.169 3.665.284 5.688.363a99.15 99.15 0 0 0 3.411.066l1.654-.018c3.665-.085 6.829-.471 9.685-1.189a27.142 27.142 0 0 0 4.576-1.582 21.866 21.866 0 0 0 2.119-1.111c.725-.429 1.413-.93 2.083-1.419l.079-.054.193-.139s.03-.024.03-.03l.024-.025.519-.344a.474.474 0 0 0 .218-.271.65.65 0 0 0 .072-.061.434.434 0 0 0 .127-.326.43.43 0 0 0-.127-.308 102.876 102.876 0 0 0-5.88-5.144l-1.486-1.183a26.855 26.855 0 0 1-1.37-1.129 18.213 18.213 0 0 1-2.174-2.312 15.06 15.06 0 0 1-1.811-3.074 14.342 14.342 0 0 1-.948-3.465 16.832 16.832 0 0 1 .024-4.299c.284-2.022.876-4.087 1.812-6.315l-.043.06.073-.133c.042-.108.078-.211.042-.344a.417.417 0 0 0-.205-.265.39.39 0 0 0-.211-.061z"/></g><path d="M175.687 101.188c-.097.03-.229.109-.272.211a28.896 28.896 0 0 0-1.455 4.184c-1.473-.724-3.26-1.092-5.319-1.092-.785 0-1.612.054-2.518.157-1.382.163-2.819.465-4.383.917a30.46 30.46 0 0 0-3.61 1.292c.036-.114.042-.241.048-.374a.51.51 0 0 0-.084-.338.48.48 0 0 0-.314-.181c-.284 0-.508.175-.52.398l-.072.936a.455.455 0 0 0-.073.537 11.37 11.37 0 0 1-.314 1.661 11.195 11.195 0 0 1-.652 1.757l1.673.549a28.243 28.243 0 0 0 7.221 1.057h-.036c1.853.018 3.707-.145 5.5-.604a15.072 15.072 0 0 0 1.739-.555 12.77 12.77 0 0 0 1.587-.749c-.006.006-.012.006-.018.012.012-.006.018-.012.024-.012l.387-.224c-.012-.809.042-1.636.151-2.481.278-2.01.869-4.075 1.805-6.309l-.06.048.084-.121c.048-.108.085-.211.042-.356a.452.452 0 0 0-.211-.272.44.44 0 0 0-.229-.066.527.527 0 0 0-.121.018z" fill="#3381ff"/><path d="M61.258 81.651h-.103c-.338.018-.7.181-1.075.477-.38.302-.712.688-.984 1.153-.223.386-.392.821-.549 1.413a8.298 8.298 0 0 0-.229 1.624c-.06 1.117.024 2.349.266 3.755.199 1.195.495 2.415.906 3.731.296.966.598 1.787.918 2.512-.398-.761-.743-1.57-1.069-2.349l-.96-2.107c-.447-.863-.875-1.516-1.34-2.053-.211-.241-.404-.417-.598-.561s-.41-.242-.658-.308a.696.696 0 0 0-.199-.024c-.133 0-.272.03-.374.06-.199.054-.356.199-.495.338-.133.139-.229.32-.308.483-.109.23-.175.483-.23.7-.145.567-.169 1.159-.175 1.612a13.56 13.56 0 0 0 .115 1.902c.103.761.272 1.497.447 2.18l.7 2.331a31.618 31.618 0 0 0 1.938 4.401c1.147 2.18 2.572 4.377 4.474 6.925a.443.443 0 0 0 .266.369l.652.833a.473.473 0 0 0 .362.181c.097 0 .187-.03.266-.091a.45.45 0 0 0 .151-.513 8.067 8.067 0 0 0 1.576.139c1.075 0 2.167-.151 3.296-.453a14.45 14.45 0 0 0 3.17-1.238c.972-.519 1.769-1.098 2.445-1.775l.127 1.111c.03.224.223.393.447.393.175-.018.284-.085.356-.181s.103-.212.085-.326c-.133-.912-.205-1.721-.205-2.476a9.85 9.85 0 0 1 .32-2.475 8.85 8.85 0 0 1 .869-1.999l-.006.012c.356-.579.797-1.159 1.304-1.708l.743-.749.344-.338 1.177-1.31c.398-.513.652-.984.785-1.431l.091-.386c.018-.127.018-.26.018-.386a1.831 1.831 0 0 0-.193-.737c-.248-.489-.712-.9-1.377-1.22-.398-.193-.863-.29-1.377-.29l-.374.018c-.296.03-.592.103-.863.181s-.549.193-.888.356c-.821.41-1.63 1.008-2.475 1.841a9.92 9.92 0 0 0-.978 1.105l-.03-.942.085-1.974.024-.392.012-.242.139-2.958-.024-3.266c-.048-.791-.139-1.721-.441-2.602-.181-.525-.537-1.195-1.22-1.401a2.383 2.383 0 0 0-.712-.115c-.097 0-.199.006-.302.024a1.985 1.985 0 0 0-.869.38c-.61.453-.954 1.189-1.159 1.703-.356.882-.543 1.817-.664 2.53-.242 1.395-.368 2.916-.417 4.927l-.012 1.769-.694-2.409.006.018-.815-3.429-.67-2.669c-.217-.731-.537-1.678-1.081-2.5a2.802 2.802 0 0 0-.749-.797 1.697 1.697 0 0 0-.447-.223 1.332 1.332 0 0 0-.489-.085z" fill="#fff"/><g fill="#3381ff"><path d="M64.995 98.447c-.248 1.183-.374 2.379-.266 3.587.109 1.201.471 2.415 1.195 3.393.079.102.157.181.284.217.121.03.254.018.362-.048a.45.45 0 0 0 .217-.284c.03-.115.024-.266-.048-.362a7.829 7.829 0 0 1-.821-1.431 7.91 7.91 0 0 1-.495-1.86 9.85 9.85 0 0 1 .03-2.385c0 .03-.006.054-.012.079l.127-.755c.036-.163-.042-.32-.205-.368a.305.305 0 0 0-.079-.012c-.127.012-.26.097-.29.229zm.435 3.218c.006.03.006.061.012.091a.473.473 0 0 1-.012-.091zm7.571 4.504-1.461.061c-1.189.096-2.445.32-3.731.658-1.25.332-2.433.761-3.508 1.274-1.141.537-2.125 1.165-2.916 1.853a.505.505 0 0 0-.163.29.404.404 0 0 0-.163.344c.314 4.232.96 8.755 2.041 14.225a263.65 263.65 0 0 0 1.503 7.052l1.546 6.81c1.256 5.379 2.349 9.497 3.538 13.361a111.96 111.96 0 0 0 2.228 6.527c.894 2.372 1.642 4.147 2.433 5.753 1.558 3.164 3.459 5.935 5.657 8.242 2.143 2.246 4.582 4.015 7.251 5.264a22.486 22.486 0 0 0 4.166 1.474 24.53 24.53 0 0 0 4.48.664 22.07 22.07 0 0 0 1.425.042c2.644 0 5.445-.411 8.325-1.226a42.084 42.084 0 0 0 5.108-1.823 43.513 43.513 0 0 0 4.613-2.27c2.837-1.612 5.403-3.538 7.625-5.724a31.665 31.665 0 0 0 5.452-7.142c1.437-2.548 2.524-5.374 3.242-8.386.701-2.953 1.033-6.141.984-9.467a47.221 47.221 0 0 0-.368-5.078 64.73 64.73 0 0 0-.398-2.632c-.031-.157-.055-.314-.085-.477l-.012-.079-.012-.084-.115-.634-.235-1.431-.042-.26c-.248-1.563-.508-3.187-.924-4.775-.483-1.854-1.129-3.345-1.968-4.553a.615.615 0 0 0-.157-.163.332.332 0 0 0-.061-.211.46.46 0 0 0-.386-.217.49.49 0 0 0-.242.066c-1.268.676-2.517 1.546-3.942 2.747-1.087.912-2.186 1.968-3.574 3.417l-2.156 2.313-.278.302-.289.314-.58.622-.809.869-.326.35-.652.7-1.86 2.059a172.17 172.17 0 0 0-5.723 6.792l-2.717 3.514-2.5 3.418-.145.199-.036.078-1.92 2.572c-.718-1.63-1.721-3.151-2.517-4.298l-.99-1.407-.121-.163-.423-.592-1.521-2.167a168.96 168.96 0 0 1-5.657-8.803 151.654 151.654 0 0 1-9.364-18.457l-.06-.145-.06-.145.012.121a180.833 180.833 0 0 1-4.118-11.012.557.557 0 0 0-.145-.224.5.5 0 0 0-.308-.175 14.76 14.76 0 0 0-1.89-.127z"/><path d="M128.36 123.201c-.024 0-.054 0-.079.006a.415.415 0 0 0-.211.103.303.303 0 0 0-.078.048 7.277 7.277 0 0 0-1.304 1.28c-.326.423-.592.9-.791 1.413-.332.869-.465 1.884-.393 3.115.061 1.021.26 2.065.441 2.989l.06.326.314 1.733.061.344.036.217.223 1.655c-2.282 3.127-4.033 5.814-5.506 8.452-1.841 3.285-3.152 6.364-4.009 9.425-.96 3.417-1.25 6.756-.869 9.932a22.46 22.46 0 0 0 1.237 5.029 26.387 26.387 0 0 0 2.174 4.437c1.841 3.043 4.226 5.682 6.533 8.085-.985 8.301-2.192 15.534-3.695 22.109a142.942 142.942 0 0 1-1.57 6.225.374.374 0 0 0 .042.296.46.46 0 0 0 .29.229c.06.091.157.157.259.169 9.624 1.624 19.242 2.089 26.542 2.319l12.703.259.652.012 1.424.025.659.006 4.54.078 5.355.181.326.012.574.024.616.025 8.41.229h.338c1.238 0 2.512-.024 3.785-.079 1.329-.054 2.754-.138 4.197-.332a.485.485 0 0 0 .314-.144.464.464 0 0 0 .084-.133.344.344 0 0 0 .139-.151c4.311-8.568 6.925-18.385 7.764-29.174.308-4.009.399-8.181.272-12.407a115.856 115.856 0 0 0-1.153-13.083c-.658-4.492-1.606-8.839-2.826-12.927-1.262-4.262-2.862-8.253-4.739-11.876a49.857 49.857 0 0 0-3.798-6.182.484.484 0 0 0-.398-.223.44.44 0 0 0-.206.054.428.428 0 0 0-.259.103c-.139.096-.278.181-.417.271l.091-.018c-1.407.845-2.971 1.54-4.788 2.119-2.174.671-4.571 1.16-7.553 1.522a86.379 86.379 0 0 1-3.641.368 88.606 88.606 0 0 1-3.918.248l-.085.012-3.043.042c-5.796 0-11.495-.61-16.929-1.817l-.102-.024-.586-.133.072.048c-5.675-1.364-10.94-3.339-15.655-5.875l.084.079-.736-.441a52.68 52.68 0 0 1-.984-.573c-.121-.037-.199-.061-.29-.061z"/></g><path d="M190.093 131.141h-.006l-1.304 1.4-2.295 2.747c-1.201 1.564-2.209 3.043-3.079 4.529l-1.34 2.451-1.099 2.373c-.628 1.497-1.147 3-1.546 4.461l-.555 2.319-.374 2.228a34.97 34.97 0 0 0-.29 6.025l.096 1.642.139 1.461.344 2.85.858 5.736.03.181.042.278.815 5.536.55 5.778c.102 2.059.078 3.876-.067 5.561-.193 2.36-.616 4.576-1.243 6.587a28.69 28.69 0 0 1-1.22 3.211 27.655 27.655 0 0 1-1.757 3.285 32.73 32.73 0 0 1-2.24 3.164l-2.258 2.541a42.568 42.568 0 0 1-4.963 4.275l-2.421 1.684 2.083.061 1.051.024 4.612.151.411.018.332.012.326.012.574.024.615.025 8.411.229h.338l3.785-.079 4.202-.332a.555.555 0 0 0 .333-.157.5.5 0 0 0 .084-.138.27.27 0 0 0 .139-.151c4.317-8.574 6.931-18.391 7.77-29.18.308-4.027.399-8.199.272-12.407a115.366 115.366 0 0 0-1.159-13.083c-.658-4.498-1.612-8.845-2.832-12.933-1.262-4.256-2.856-8.253-4.745-11.876a46.549 46.549 0 0 0-1.407-2.529zm-64.396 6.411c-1.914 2.832-3.81 5.682-5.44 8.689-1.648 3.048-3.037 6.266-3.84 9.641a26.375 26.375 0 0 0-.706 5.096 21.02 21.02 0 0 0 .048 2.548c.066.833.199 1.66.362 2.475.332 1.637.87 3.237 1.534 4.77a32.575 32.575 0 0 0 2.427 4.558 35.156 35.156 0 0 0 2.518 3.448c.428.525.875 1.032 1.34 1.533.247.272.501.538.761.797.132.133.265.26.404.393.163.157.332.296.501.441.218.181.532.193.737-.019a.555.555 0 0 0 .145-.38.53.53 0 0 0-.163-.356l-.707-.725a15.89 15.89 0 0 1-.7-.724 24.68 24.68 0 0 1-1.147-1.347c.006.007.006.013.012.019-1.896-2.361-3.532-4.933-4.782-7.686.024.048.042.096.067.145-.864-1.914-1.534-3.913-1.908-5.984-.32-1.926-.35-3.894-.175-5.832.295-2.928 1.08-5.796 2.125-8.537-.012.024-.018.054-.03.079.887-2.313 1.968-4.547 3.151-6.72a76.934 76.934 0 0 1 3.774-6.146c.054-.079.006-.194-.073-.242a.138.138 0 0 0-.084-.024.194.194 0 0 0-.151.09z" fill="#4951ec"/><path d="M118.168 189.723c-1.087 0-2.161.09-3.194.272a15.85 15.85 0 0 0-1.877.452c-.646.194-1.25.411-1.793.652a9.946 9.946 0 0 0-1.975 1.184c-.785.585-1.298 1.189-1.576 1.835a1.823 1.823 0 0 0-.09 1.105c.072.314.26.628.537.906l-.054.06a4.18 4.18 0 0 0-.658 1.443c-.115.447-.218 1.274.356 1.787.374.332.888.489 1.624.489h.127a9.502 9.502 0 0 0 1.696-.211c-.06.06-.114.139-.169.217-.144.23-.271.483-.368.743-.06.157-.127.392-.115.64.012.217.061.392.151.543.103.169.248.302.423.399.374.211.821.241 1.165.253h.127c.586 0 1.189-.09 1.715-.169l.422-.066 1.371-.181h-.006l2.517-.103c1.679 0 3.339.145 4.933.429 2.023.374 3.967.996 5.748 1.841l1.455.737 2.149 1.062c1.425.646 2.723.991 3.967 1.045a.458.458 0 0 0 .465-.429.46.46 0 0 0-.429-.471 7.967 7.967 0 0 1-1.008-.108l-.411-.091a5.26 5.26 0 0 0 .538-.863c.217-.435.398-.918.537-1.449.26-.99.35-2.083.266-3.261a11.86 11.86 0 0 0-.701-3.236 9.757 9.757 0 0 0-.736-1.563.416.416 0 0 0 .211-.248c.036-.115.024-.241-.03-.35s-.145-.163-.26-.218l-.742-.332a.377.377 0 0 0-.248-.108c-4.878-2.168-10.391-4.637-16.06-4.637z" fill="#fff"/><path d="M116.664 198.067c-.905.09-1.805.265-2.692.483-.815.205-1.63.459-2.415.767-.073.03-.103.126-.073.193.037.078.121.096.193.066l.646-.235c1.341-.435 2.754-.677 4.172-.767s2.868-.012 4.275.278l-.084-.018.869.223a.32.32 0 0 0 .235-.012.298.298 0 0 0 .157-.175c.055-.157-.03-.344-.187-.393-1.123-.362-2.294-.501-3.465-.501l-1.631.091zm-4.334 1.28c.006 0 .018-.006.024-.006-.006 0-.012 0-.024.006zm4.595-5.911a19.314 19.314 0 0 0-3.007.326c-.978.175-1.944.405-2.886.719-.863.283-1.703.64-2.482 1.11-.066.043-.102.121-.066.194.03.072.127.114.193.072.628-.38 1.304-.664 1.999-.9.7-.229 1.437-.398 2.179-.531a20.532 20.532 0 0 1 2.282-.259l2.258-.037 1.075.037.55.036.525.03c.163.018.314-.121.326-.284a.3.3 0 0 0-.073-.223.323.323 0 0 0-.217-.109c-.018-.006-.036-.006-.054-.006-.701-.145-1.413-.187-2.125-.187l-.477.012zm-6.255 1.528c.006 0 .018-.007.024-.007-.012 0-.018.007-.024.007zm76.796-67.518a.485.485 0 0 0-.423.259c-2.095.972-4.051 2.524-5.808 4.607-1.66 1.974-3.067 4.359-4.184 7.082a28.984 28.984 0 0 0-2.01 7.873 22.146 22.146 0 0 0-.091 3.725c.103 1.57.429 3.236.966 4.957.465 1.485 1.099 3.055 1.998 4.933l2.259 4.371.042.078.139.26c2.089 3.894 3.707 7.112 5.107 10.137l1.6 3.61a133.763 133.763 0 0 1 1.794 4.516c.639 1.667 1.104 3.031 1.473 4.299-2.5-.724-5.259-1.141-8.429-1.268a45.654 45.654 0 0 0-2.143-.042c-2.5 0-5.144.157-8.314.501a82.424 82.424 0 0 0-5.5.779c-1.944.344-3.9.749-5.561 1.105l-1.237.265c-2.892.616-6.485 1.389-9.884 1.872l-6.846.9-.791.102-4.196.532-.471.06-3.116.392a.455.455 0 0 0-.326.212c-.145.115-.241.344-.126.543.38.676.7 1.431.953 2.234.369 1.238.592 2.626.659 4.124l.012.078a22.843 22.843 0 0 1-.568 5.639c-.084.35-.181.701-.29 1.051a.479.479 0 0 0 .012.356.404.404 0 0 0 .085.121.243.243 0 0 0 .03.054c.067.103.163.151.284.187 2.548.791 5.222 1.19 7.734 1.498l1.026.12.514.061.809.096 1.569.181 4.1.453a261.62 261.62 0 0 0 16.428 1.172c2.771.108 5.549.169 8.247.175h2.337l1.268.006 1.745.018 1.744.018 1.655.006c4.015 0 8.319-.115 12.594-.966 2.488-.495 4.577-1.159 6.4-2.023a19.865 19.865 0 0 0 2.608-1.485 21.332 21.332 0 0 0 2.325-1.823c2.771-2.47 5.017-5.857 6.508-9.781a30.336 30.336 0 0 0 1.552-5.772c.32-1.938.459-4.069.41-6.521-.084-4.63-.905-9.611-2.439-14.804-1.316-4.443-3.164-9.038-5.651-14.037l-1.745-3.387-.652-1.268-.26-.501-.205-.429a.228.228 0 0 0-.054-.078l-.544-1.039a.43.43 0 0 0-.066-.09c-.906-1.667-1.974-3.375-3.278-5.229a99.166 99.166 0 0 0-3.158-4.244l-3.248-4.063c-1.757-2.138-3.901-4.583-6.448-6.448a.49.49 0 0 0-.308-.121.644.644 0 0 0-.139.024c-.085-.06-.181-.115-.278-.175a.443.443 0 0 0-.199-.048z" fill="#3381ff"/><path d="M175.41 186.348c-4.093.229-8.138.966-12.147 1.799l-6.038 1.274-3.013.598-3.073.543-8.809 1.407-4.419.598-2.149.259-1.111.127-1.093.121c-.157.018-.272.187-.284.332-.012.187.145.38.344.38.483 0 .966-.036 1.443-.084l1.636-.157 3.17-.362c2.107-.26 4.214-.556 6.315-.882l6.285-1.014c2.023-.344 4.034-.749 6.038-1.184 5.174-1.123 10.342-2.384 15.631-2.813 2.458-.187 4.927-.175 7.39-.048 2.427.126 4.848.386 7.233.833h-.012c1.606.308 3.2.688 4.764 1.183a33.583 33.583 0 0 1 4.582 1.799c.091.043.206-.03.236-.114.036-.109-.03-.194-.121-.236a45.38 45.38 0 0 0-5.44-2.191 43.839 43.839 0 0 0-5.627-1.443 47.846 47.846 0 0 0-8.809-.797 43.27 43.27 0 0 0-2.922.072zm-1.219.936c-.019 0-.037.006-.055.006.018-.006.036-.006.055-.006zm14.598.797c.018 0 .037.006.049.012a.191.191 0 0 0-.049-.012z" fill="#4951ec"/><path d="M211.547 14c-1.171 0-2.403.127-3.658.38-1.715.344-3.454.954-5.169 1.799a23.076 23.076 0 0 0-4.576 3.007 20.94 20.94 0 0 0-3.617 3.912c-2.101 2.952-3.115 6.255-2.867 9.316.132 1.685.646 3.315 1.515 4.848.562.996 1.298 1.956 2.174 2.862a.356.356 0 0 0-.163.151c-.055.091-.091.236-.049.344l.175.447 1.606 4.293 1.015 2.934.519 1.515c.954 2.759 2.035 5.7 3.447 8.489a37.16 37.16 0 0 0 2.446 4.118l1.527 2.059 1.666 1.938a20.741 20.741 0 0 0 3.514 2.958 17.724 17.724 0 0 0 3.858 1.92 16.84 16.84 0 0 0 4.094.882l1.413.06c.899 0 1.847-.073 2.819-.223a18.94 18.94 0 0 0 4.232-1.183 22.839 22.839 0 0 0 4.052-2.119c3.055-2.029 5.403-5.464 6.611-9.684.561-1.956.863-4.045.893-6.213a23.62 23.62 0 0 0-.736-6.231c-.532-2.047-1.335-3.918-2.397-5.573-1.111-1.727-2.494-3.164-4.112-4.269a13.565 13.565 0 0 0-3.816-1.793l-.187-1.956c-.181-1.944-.362-3.955-.767-5.905-.338-1.636-.845-3.14-1.503-4.474-.555-1.117-1.316-2.21-2.306-3.333-1.328-1.509-2.94-2.771-4.655-3.641a14.97 14.97 0 0 0-2.584-1.026 15.513 15.513 0 0 0-2.681-.519 16.663 16.663 0 0 0-1.733-.091z" fill="#152f8c"/><path d="M192.464 39.092h-.145a.472.472 0 0 0-.326.103.483.483 0 0 0-.163.308.493.493 0 0 0 .127.362.39.39 0 0 0 .284.133h.114l1.92.06.055.743c.024.743-.025 1.443-.085 2.349l-.205 2.095a44.132 44.132 0 0 1-.749 4.238c-1.437 6.255-4.075 12.262-6.623 18.076l-1.202 2.753c-2.33 5.367-4.908 11.628-5.983 18.107-.465 2.801-.573 5.21-.32 7.378l-.211 1.902c-.181 1.847-.254 3.477-.229 4.975-.013.018-.031.036-.043.06a.465.465 0 0 0-.042.344c.024.097.103.223.211.266 3.061 1.286 6.189 1.962 9.286 2.01h.314c1.503 0 2.989-.169 4.426-.507a16.1 16.1 0 0 0 3.851-1.437c1.456-.652 2.693-1.485 3.677-2.487 2.657-2.687 3.424-6.424 4.166-10.041l.036-.187.375-1.757-.036.06a45.36 45.36 0 0 1 1.382-4.631c.489-1.364 1.081-2.807 1.92-4.679l1.383-3.013c.93-2.004 1.889-4.069 2.711-6.152 1.382-3.514 2.143-6.647 2.33-9.575.211-3.357-.332-6.702-1.564-9.666a18.568 18.568 0 0 0-2.131-3.755 18.668 18.668 0 0 0-2.862-3.091c-2.058-1.787-4.552-3.17-7.42-4.099-2.578-.827-5.337-1.244-8.229-1.244z" fill="#2867cc"/><path d="M135.77 57.416c-7.281-1.383-14.502 4.365-16.114 12.836s2.994 16.47 10.275 17.853 14.503-4.365 16.115-12.836-2.995-16.47-10.276-17.853z" fill="#4951ec"/><path d="M139.404 55.961c-6.551-.803-12.806 6.146-13.953 15.51s3.236 17.618 9.793 18.427c6.551.803 12.806-6.146 13.953-15.511s-3.243-17.618-9.793-18.427z" fill="#152f8c"/><path d="M158.266 37.577c-2.342 0-4.588.199-6.659.598-2.632.501-5.029 1.322-7.13 2.451a20.21 20.21 0 0 0-3.122 2.053 19.262 19.262 0 0 0-2.717 2.675 19.813 19.813 0 0 0-1.503 2.083c-.024-.006-.048-.012-.085-.012a.48.48 0 0 0-.392.223c-1.787 2.747-3.23 5.977-4.401 9.871-1.015 3.357-1.745 6.998-2.234 11.121a80.524 80.524 0 0 0-.453 5.446c-.073 1.54-.139 3.357-.03 5.156a33.328 33.328 0 0 0 2.216 10.167c1.292 3.333 3.085 6.339 5.325 8.93a26.203 26.203 0 0 0 3.785 3.568c1.322 1.02 2.808 1.944 4.54 2.814 4.951 2.493 10.729 3.809 16.706 3.809 1.582 0 3.188-.09 4.77-.278a40.02 40.02 0 0 0 10.674-2.741 37.475 37.475 0 0 0 4.879-2.445 37.6 37.6 0 0 0 4.413-3.109c2.572-2.107 4.854-4.637 6.774-7.523 1.763-2.644 3.236-5.639 4.51-9.153.61-1.672 1.111-3.393 1.57-5.011.525-1.835 1.045-3.816 1.25-5.881a.36.36 0 0 0 .072-.193 18.006 18.006 0 0 0-.006-4.377c-.169-1.407-.501-2.85-1.026-4.413-.924-2.777-2.415-5.609-4.426-8.428a40.839 40.839 0 0 0-6.484-7.106c-2.33-2.023-4.751-3.635-7.185-4.788a56.339 56.339 0 0 0-6.689-2.632 62.754 62.754 0 0 0-7.692-1.974 51.124 51.124 0 0 0-8.036-.888c-.399 0-.803-.012-1.214-.012z" fill="#fff"/><path d="M162.27 27.174c-2.18 0-4.378.133-6.539.392-5.573.67-10.584 2.198-14.913 4.54-2.282 1.232-4.353 2.705-6.152 4.377a27.043 27.043 0 0 0-2.578 2.771 21.971 21.971 0 0 0-2.041 2.946 23.067 23.067 0 0 0-1.612 3.466c-.519 1.407-.833 2.747-.936 3.997-.12 1.413.085 2.626.616 3.617a4.2 4.2 0 0 0 1.141 1.34c.501.38 1.105.616 1.576.779.664.229 1.365.368 1.956.471a23.48 23.48 0 0 0 2.041.248c1.268.103 2.572.133 3.701.157.223.006.447.006.67.006.531 0 1.002-.018 1.437-.048.761-.054 1.377-.157 1.938-.32a5.56 5.56 0 0 0 1.709-.803 5.06 5.06 0 0 0 1.31-1.389c.344-.531.58-1.135.785-1.672.223-.598.422-1.207.591-1.739l.127-.41c.284-.9.574-1.823.972-2.699a8.57 8.57 0 0 1 1.081-1.721 8.48 8.48 0 0 1 1.262-1.195 18.31 18.31 0 0 0-.731 2.783c-.211 1.214-.259 2.361-.151 3.411.055.513.145 1.02.278 1.503a8.62 8.62 0 0 0 .507 1.352c.363.785.888 1.54 1.564 2.246.604.634 1.328 1.207 2.222 1.763.779.483 1.648.912 2.747 1.352 2.234.9 4.619 1.437 6.448 1.799 1.238.248 2.457.453 3.49.622l4.16.622c3.495.471 6.599.694 9.485.694l1.11-.012c3.261-.073 6.286-.465 9.002-1.171-.211.586-.392 1.22-.567 1.944a27.42 27.42 0 0 0-.574 3.296c-.289 2.53-.193 4.854.284 6.913.308 1.34.803 2.506 1.455 3.465.731 1.069 1.697 1.896 2.808 2.403a.439.439 0 0 0 .114.042.45.45 0 0 0 .332.151.357.357 0 0 0 .139-.03 9.445 9.445 0 0 0 1.667-.882 8.772 8.772 0 0 0 1.394-1.147c.773-.761 1.455-1.739 2.047-2.904.495-.99.918-2.125 1.274-3.478.284-1.069.519-2.24.725-3.683.181-1.238.307-2.506.41-3.592l.042-.435.139-1.54c.067-.893.109-1.805.109-2.705a32.458 32.458 0 0 0-1.697-10.523 32.68 32.68 0 0 0-.984-2.536 20.975 20.975 0 0 0-1.141-2.252c-.706-1.202-1.612-2.373-2.699-3.496-1.014-1.044-2.155-1.98-3.133-2.747l-1.341-1.038-2.095-1.642a48.241 48.241 0 0 1-1.563-1.334.425.425 0 0 0-.29-.109.557.557 0 0 0-.169.03c-1.328-.718-2.789-1.419-4.601-2.192a51.262 51.262 0 0 0-3.809-1.479c-2.258-.761-4.637-1.352-7.27-1.805a57 57 0 0 0-9.279-.773z" fill="#152f8c"/><path d="M180.031 29.68h-.139l-.458.084a.273.273 0 0 0-.031.109.46.46 0 0 0 .006.091l.393.235.229.115.067.036c1.817.942 3.652 2.234 5.403 3.81a31.55 31.55 0 0 1 3.104 3.236 39 39 0 0 1 2.65 3.635c2.155 3.369 3.9 7.13 5.18 11.188l-.018-.078c1.389 4.468 2.143 8.477 2.306 12.244a39.16 39.16 0 0 1 .007 2.246.406.406 0 0 0-.097.223 2.88 2.88 0 0 0-.018.845c.012.103.024.205.042.302a22.218 22.218 0 0 1-.356 2.753c-.036.199.066.435.181.567a.79.79 0 0 0 .513.266h.067a.77.77 0 0 0 .501-.187.8.8 0 0 0 .265-.513l.091-.682a4.26 4.26 0 0 0 .821.61c.399.235.869.41 1.358.519a6.37 6.37 0 0 0 1.443.163 6.82 6.82 0 0 0 1.516-.169 5.98 5.98 0 0 0 2.21-1.02l-.169 1.829-.073.67-.036.338-.048.471c-.019.211-.037.429-.067.64-.024.175.03.35.145.501a.762.762 0 0 0 .507.284h.061a.7.7 0 0 0 .471-.175l.126-.139a.79.79 0 0 0 .127-.326c.193-.725.344-1.528.471-2.524a43.01 43.01 0 0 0 .242-2.512c.108-1.636.108-3.315.006-5.132-.182-3.139-.84-6.364-1.993-9.853a41.254 41.254 0 0 0-1.865-4.619 42.998 42.998 0 0 0-2.391-4.413 44.341 44.341 0 0 0-2.772-4.015 31.503 31.503 0 0 0-2.789-3.097 38.184 38.184 0 0 0-3.441-3.025 35.857 35.857 0 0 0-3.834-2.578c-2.814-1.63-5.537-2.614-8.096-2.928-.459-.018-.912-.03-1.371-.03l-.447.006z" fill="#84b3ff"/><path d="M200.625 65.519c-6.919 0-13.023 5.717-14.52 13.59-1.679 8.815 3.127 17.165 10.71 18.608.749.139 1.51.211 2.271.211 6.919 0 13.023-5.712 14.52-13.591 1.678-8.815-3.128-17.165-10.711-18.608a12.436 12.436 0 0 0-2.27-.211z" fill="#152f8c"/><path d="M204.84 66.43c-6.805-1.292-13.681 4.776-15.354 13.548-1.666 8.773 2.5 16.947 9.304 18.239s13.681-4.776 15.353-13.548-2.499-16.947-9.303-18.24z" fill="#4951ec"/><defs><linearGradient id="a" x1="120" y1="0" x2="120" y2="240" gradientUnits="userSpaceOnUse"><stop stop-color="#69a0ff"/><stop offset="1" stop-color="#d6e5ff"/></linearGradient></defs></svg>