<?xml version="1.0" encoding="UTF-8"?>
<svg width="132px" height="132px" viewBox="0 0 132 132" version="1.1" xmlns="http://www.w3.org/2000/svg" xmlns:xlink="http://www.w3.org/1999/xlink">
    <title>编组 3</title>
    <defs>
        <linearGradient x1="50%" y1="0%" x2="50%" y2="100%" id="linearGradient-1">
            <stop stop-color="#FFFFFF" stop-opacity="0.400267701" offset="0%"></stop>
            <stop stop-color="#FFFFFF" stop-opacity="0.663898601" offset="100%"></stop>
        </linearGradient>
    </defs>
    <g id="Flat-单窗口" stroke="none" stroke-width="1" fill="none" fill-rule="evenodd">
        <g id="创建房间（单窗口）" transform="translate(-234.000000, -213.000000)">
            <g id="编组-17" transform="translate(202.000000, 15.000000)">
                <g id="编组-3" transform="translate(32.000000, 198.000000)">
                    <polygon id="路径-74" fill="#BFD9FF" points="0 132 0 0 132 0 132 132"></polygon>
                    <rect id="形状结合" fill="url(#linearGradient-1)" x="4" y="27" width="124" height="83" rx="8"></rect>
                    <g id="编组-6" transform="translate(12.000000, 47.000000)">
                        <path d="M9.09494702e-13,62.5491803 L2.91397465,44.0015476 C3.88406946,37.8268329 8.12022286,32.6608157 13.9852941,30.5 C20.2012539,28.2099095 26.9233109,27.6548603 33.4307141,28.8943657 L33.9852941,29 C40.2442929,30.1921902 45.0207831,35.2839117 45.811074,41.6062391 L48.4852941,63 L48.4852941,63" id="路径-75备份" fill="#3381FF" transform="translate(24.242647, 45.000000) scale(-1, 1) translate(-24.242647, -45.000000) "></path>
                        <path d="M21,28 L20.6641006,28.5038491 C19.6244627,30.063306 17.8742339,31 16,31 L16,31 L16,31 L14.1393899,31.372122 C12.1491991,31.7701602 10.0848548,31.2678838 8.5,30 L8.34260643,29.8740851 C6.8619387,28.689551 6,26.8961799 6,25 C6,23.0526681 6.63160085,21.1578655 7.8,19.6 L9,18 L9,18 L11.550107,10.9872058 C12.505093,8.36099415 14.024021,5.97597901 16,4 L16.1495614,3.85043856 C17.9969949,2.0030051 20.4075099,0.824061266 23,0.5 C25.5238246,0.184521927 28.0519368,1.05193683 29.8504386,2.85043856 L30,3 L30,3 L30.8786797,3.58578644 C32.2369383,4.49129217 33.1798554,5.89927688 33.5,7.5 L33.6077677,8.03883865 C33.8686181,9.34309035 34,10.669919 34,12 C34,13.3152576 34.3062261,14.6124523 34.8944272,15.7888544 L35,16 C35.6623345,17.324669 36.533896,18.533896 37.5811388,19.5811388 L38,20 C39.2551103,21.2551103 39.8268167,23.0391001 39.5350094,24.7899433 L39.5,25 C39.1923923,26.8456462 37.8897781,28.370074 36.1146924,28.9617692 L36,29 L36,29 L35.767767,29.232233 C34.6358848,30.3641152 33.1007231,31 31.5,31 C30.0070243,31 28.681551,30.0446529 28.2094306,28.6282918 L28,28 L28,28 L21,28 Z" id="路径-85" fill="#444E60"></path>
                        <path d="M31.1280726,9.36520071 L31.6195374,10.3119165 C33.1701655,13.2989138 33.7808786,16.6851394 33.3714286,20.025641 L33.2241497,21.2272167 C32.9217296,23.6945141 31.4580098,25.8685578 29.2857143,27.0769231 C28.8409589,27.3243236 28.3792877,27.5314981 27.9060066,27.6979623 L27.9423439,29.9176581 C27.9771779,31.9851383 26.7517608,33.8662055 24.8465433,34.6698435 L24.8465433,34.6698435 L24.7125099,34.72638 C22.8093037,35.5291695 20.6407795,35.3997734 18.8465433,34.376357 C17.1732359,33.4219173 16.3633372,31.451829 16.8815405,29.5964644 L16.8815405,29.5964644 L18.0889575,25.2748265 C17.1867172,24.260029 16.5417354,23.016236 16.2443737,21.644546 L15.5918367,18.634479 L13.7589891,18.0777071 C12.7482089,17.7706581 12.1145876,16.7698436 12.2693878,15.7248591 C12.4198442,14.7091967 13.3456695,13.9937251 14.3664477,14.104265 L15.7714286,14.2564103 L15.9520985,11.2119349 C16.1583301,7.73671949 18.8617513,4.92779847 22.3265306,4.58874341 C25.9607077,4.23311148 29.4456562,6.12433781 31.1280726,9.36520071 Z" id="形状结合" fill="#FFFFFF"></path>
                        <path d="M15.77,14.26 C15.8989834,11.8710034 17.8737284,10 20.2662044,10 L23,10 L23,10 L24.4188612,10 C25.466104,10 26.5064982,9.83116726 27.5,9.5 C28.4275622,9.19081259 29.1183369,8.40831529 29.3100868,7.44956582 L30,4 L30,4 L17,4 L14,10 L15.77,14.26 Z" id="路径-86" fill="#444E60"></path>
                    </g>
                    <g id="编组-6备份" transform="translate(71.000000, 46.000000)">
                        <path d="M16.6511628,23 L15.4136162,22.4690861 C13.4959389,21.6463925 11.9836071,20.0956159 11.2093023,18.1578947 L11.016876,17.6763421 C10.3492642,16.0056231 10.1038391,14.1960812 10.3023256,12.4078947 C10.4928417,10.6915145 11.4734791,9.16238616 12.9539052,8.27323144 L13.627907,7.86842105 L13.627907,7.86842105 C13.627907,4.99751407 15.5188541,2.46959194 18.2728812,1.65876413 L18.7674419,1.51315789 C22.0533129,0.545747056 25.5907408,0.948075911 28.5754415,2.62866933 L32.2368254,4.69028234 C33.0903797,5.17089257 33.6917999,5.99994972 33.8837209,6.96052632 C34.072616,7.90595771 33.7768761,8.88326872 33.0954873,9.56534724 L32.9767442,9.68421053 L32.9767442,9.68421053 C34.6831501,11.3923436 34.7881204,14.1258169 33.2177376,15.9597845 L32.372093,16.9473684 L32.372093,16.9473684 L16.6511628,23 Z" id="路径-83" fill="#444E60"></path>
                        <path d="M5.89750471e-13,63.5491803 L2.91397465,45.0015476 C3.88406946,38.8268329 8.12022286,33.6608157 13.9852941,31.5 C20.2012539,29.2099095 26.9233109,28.6548603 33.4307141,29.8943657 L33.9852941,30 C40.2442929,31.1921902 45.0207831,36.2839117 45.811074,42.6062391 L48.4852941,64 L48.4852941,64" id="路径-75备份" fill="#3381FF" transform="translate(24.242647, 46.000000) scale(-1, 1) translate(-24.242647, -46.000000) "></path>
                        <path d="M31.1280726,10.3652007 L31.6195374,11.3119165 C33.1701655,14.2989138 33.7808786,17.6851394 33.3714286,21.025641 L33.2241497,22.2272167 C32.9217296,24.6945141 31.4580098,26.8685578 29.2857143,28.0769231 C28.8409589,28.3243236 28.3792877,28.5314981 27.9060066,28.6979623 L27.9423439,30.9176581 C27.9771779,32.9851383 26.7517608,34.8662055 24.8465433,35.6698435 L24.8465433,35.6698435 L24.7125099,35.72638 C22.8093037,36.5291695 20.6407795,36.3997734 18.8465433,35.376357 C17.1732359,34.4219173 16.3633372,32.451829 16.8815405,30.5964644 L16.8815405,30.5964644 L18.0889575,26.2748265 C17.1867172,25.260029 16.5417354,24.016236 16.2443737,22.644546 L15.5918367,19.634479 L13.7589891,19.0777071 C12.7482089,18.7706581 12.1145876,17.7698436 12.2693878,16.7248591 C12.4198442,15.7091967 13.3456695,14.9937251 14.3664477,15.104265 L15.7714286,15.2564103 L15.9520985,12.2119349 C16.1583301,8.73671949 18.8617513,5.92779847 22.3265306,5.58874341 C25.9607077,5.23311148 29.4456562,7.12433781 31.1280726,10.3652007 Z" id="形状结合" fill="#FFFFFF"></path>
                        <path d="M15.5806452,15 L15.8037761,14.9104851 C17.617629,14.18281 18.8064516,12.4249611 18.8064516,10.4705882 L18.8064516,10.4705882 L18.8064516,10.4705882 L20.0583081,10.6798446 C24.3490814,11.3970768 28.7346578,11.3261657 33,10.4705882 L33,10.4705882 L33,10.4705882 L31.0645161,5.29411765 L20.0967742,4 L13,9.82352941 L15.5806452,15 Z" id="路径-84" fill="#444E60"></path>
                    </g>
                    <circle id="椭圆形" fill="#66A1FF" cx="13" cy="36" r="3"></circle>
                </g>
            </g>
        </g>
    </g>
</svg>