<?xml version="1.0" encoding="UTF-8"?>
<svg width="132px" height="132px" viewBox="0 0 132 132" version="1.1" xmlns="http://www.w3.org/2000/svg" xmlns:xlink="http://www.w3.org/1999/xlink">
    <title>编组 4</title>
    <defs>
        <linearGradient x1="50%" y1="0%" x2="50%" y2="100%" id="linearGradient-1">
            <stop stop-color="#FFFFFF" stop-opacity="0.400267701" offset="0%"></stop>
            <stop stop-color="#FFFFFF" stop-opacity="0.663898601" offset="100%"></stop>
        </linearGradient>
    </defs>
    <g id="Flat-单窗口" stroke="none" stroke-width="1" fill="none" fill-rule="evenodd">
        <g id="创建房间（单窗口）" transform="translate(-594.000000, -213.000000)">
            <g id="编组-17" transform="translate(202.000000, 15.000000)">
                <g id="编组-4" transform="translate(392.000000, 198.000000)">
                    <polygon id="路径-74" fill="#BFD9FF" points="0 132 0 0 132 0 132 132"></polygon>
                    <rect id="矩形" fill="url(#linearGradient-1)" x="6" y="6" width="58" height="58" rx="8"></rect>
                    <rect id="矩形备份-3" fill="url(#linearGradient-1)" x="6" y="68" width="58" height="58" rx="8"></rect>
                    <circle id="椭圆形" fill="#66A1FF" cx="15" cy="77" r="3"></circle>
                    <rect id="矩形备份" fill="url(#linearGradient-1)" x="68" y="6" width="58" height="58" rx="8"></rect>
                    <rect id="矩形备份-4" fill="url(#linearGradient-1)" x="68" y="68" width="58" height="58" rx="8"></rect>
                    <circle id="椭圆形备份" fill="#66A1FF" cx="77" cy="77" r="3"></circle>
                    <circle id="椭圆形" fill="#66A1FF" cx="15" cy="15" r="3"></circle>
                    <circle id="椭圆形备份" fill="#66A1FF" cx="77" cy="15" r="3"></circle>
                    <g id="编组-6" transform="translate(14.000000, 16.000000)">
                        <path d="M-4.54747351e-13,48 L0.278678596,44.0984997 C0.717784458,37.9510176 4.71685581,32.6306321 10.5,30.5 C16.7159598,28.2099095 23.4380167,27.6548603 29.94542,28.8943657 L30.5,29 C36.6736119,30.1759261 41.2586219,35.3965722 41.6276667,41.6703343 L42,48 L42,48 L-4.54747351e-13,48 Z" id="路径-75备份" fill="#3381FF" transform="translate(21.000000, 37.500000) scale(-1, 1) translate(-21.000000, -37.500000) "></path>
                        <path d="M18,28 L17.6641006,28.5038491 C16.6244627,30.063306 14.8742339,31 13,31 L13,31 L13,31 L11.1393899,31.372122 C9.14919907,31.7701602 7.08485479,31.2678838 5.5,30 L5.34260643,29.8740851 C3.8619387,28.689551 3,26.8961799 3,25 C3,23.0526681 3.63160085,21.1578655 4.8,19.6 L6,18 L6,18 L8.55010698,10.9872058 C9.50509304,8.36099415 11.024021,5.97597901 13,4 L13.1495614,3.85043856 C14.9969949,2.0030051 17.4075099,0.824061266 20,0.5 C22.5238246,0.184521927 25.0519368,1.05193683 26.8504386,2.85043856 L27,3 L27,3 L27.8786797,3.58578644 C29.2369383,4.49129217 30.1798554,5.89927688 30.5,7.5 L30.6077677,8.03883865 C30.8686181,9.34309035 31,10.669919 31,12 C31,13.3152576 31.3062261,14.6124523 31.8944272,15.7888544 L32,16 C32.6623345,17.324669 33.533896,18.533896 34.5811388,19.5811388 L35,20 C36.2551103,21.2551103 36.8268167,23.0391001 36.5350094,24.7899433 L36.5,25 C36.1923923,26.8456462 34.8897781,28.370074 33.1146924,28.9617692 L33,29 L33,29 L32.767767,29.232233 C31.6358848,30.3641152 30.1007231,31 28.5,31 C27.0070243,31 25.681551,30.0446529 25.2094306,28.6282918 L25,28 L25,28 L18,28 Z" id="路径-85" fill="#444E60"></path>
                        <path d="M28.1280726,9.36520071 L28.6195374,10.3119165 C30.1701655,13.2989138 30.7808786,16.6851394 30.3714286,20.025641 L30.2241497,21.2272167 C29.9217296,23.6945141 28.4580098,25.8685578 26.2857143,27.0769231 C25.8409589,27.3243236 25.3792877,27.5314981 24.9060066,27.6979623 L24.9423439,29.9176581 C24.9771779,31.9851383 23.7517608,33.8662055 21.8465433,34.6698435 L21.8465433,34.6698435 L21.7125099,34.72638 C19.8093037,35.5291695 17.6407795,35.3997734 15.8465433,34.376357 C14.1732359,33.4219173 13.3633372,31.451829 13.8815405,29.5964644 L13.8815405,29.5964644 L15.0889575,25.2748265 C14.1867172,24.260029 13.5417354,23.016236 13.2443737,21.644546 L12.5918367,18.634479 L10.7589891,18.0777071 C9.74820894,17.7706581 9.11458759,16.7698436 9.26938776,15.7248591 C9.41984424,14.7091967 10.3456695,13.9937251 11.3664477,14.104265 L12.7714286,14.2564103 L12.9520985,11.2119349 C13.1583301,7.73671949 15.8617513,4.92779847 19.3265306,4.58874341 C22.9607077,4.23311148 26.4456562,6.12433781 28.1280726,9.36520071 Z" id="形状结合" fill="#FFFFFF"></path>
                        <path d="M12.77,14.26 C12.8989834,11.8710034 14.8737284,10 17.2662044,10 L20,10 L20,10 L21.4188612,10 C22.466104,10 23.5064982,9.83116726 24.5,9.5 C25.4275622,9.19081259 26.1183369,8.40831529 26.3100868,7.44956582 L27,4 L27,4 L14,4 L11,10 L12.77,14.26 Z" id="路径-86" fill="#444E60"></path>
                    </g>
                    <g id="编组-6备份" transform="translate(76.000000, 15.000000)">
                        <path d="M13.6511628,23 L12.4136162,22.4690861 C10.4959389,21.6463925 8.98360708,20.0956159 8.20930233,18.1578947 L8.01687604,17.6763421 C7.34926416,16.0056231 7.1038391,14.1960812 7.30232558,12.4078947 C7.49284167,10.6915145 8.47347906,9.16238616 9.95390518,8.27323144 L10.627907,7.86842105 L10.627907,7.86842105 C10.627907,4.99751407 12.5188541,2.46959194 15.2728812,1.65876413 L15.7674419,1.51315789 C19.0533129,0.545747056 22.5907408,0.948075911 25.5754415,2.62866933 L29.2368254,4.69028234 C30.0903797,5.17089257 30.6917999,5.99994972 30.8837209,6.96052632 C31.072616,7.90595771 30.7768761,8.88326872 30.0954873,9.56534724 L29.9767442,9.68421053 L29.9767442,9.68421053 C31.6831501,11.3923436 31.7881204,14.1258169 30.2177376,15.9597845 L29.372093,16.9473684 L29.372093,16.9473684 L13.6511628,23 Z" id="路径-83" fill="#444E60"></path>
                        <path d="M-4.54747351e-13,49 L0.278678596,45.0984997 C0.717784458,38.9510176 4.71685581,33.6306321 10.5,31.5 C16.7159598,29.2099095 23.4380167,28.6548603 29.94542,29.8943657 L30.5,30 C36.6736119,31.1759261 41.2586219,36.3965722 41.6276667,42.6703343 L42,49 L42,49 L-4.54747351e-13,49 Z" id="路径-75备份" fill="#3381FF" transform="translate(21.000000, 38.500000) scale(-1, 1) translate(-21.000000, -38.500000) "></path>
                        <path d="M28.1280726,10.3652007 L28.6195374,11.3119165 C30.1701655,14.2989138 30.7808786,17.6851394 30.3714286,21.025641 L30.2241497,22.2272167 C29.9217296,24.6945141 28.4580098,26.8685578 26.2857143,28.0769231 C25.8409589,28.3243236 25.3792877,28.5314981 24.9060066,28.6979623 L24.9423439,30.9176581 C24.9771779,32.9851383 23.7517608,34.8662055 21.8465433,35.6698435 L21.8465433,35.6698435 L21.7125099,35.72638 C19.8093037,36.5291695 17.6407795,36.3997734 15.8465433,35.376357 C14.1732359,34.4219173 13.3633372,32.451829 13.8815405,30.5964644 L13.8815405,30.5964644 L15.0889575,26.2748265 C14.1867172,25.260029 13.5417354,24.016236 13.2443737,22.644546 L12.5918367,19.634479 L10.7589891,19.0777071 C9.74820894,18.7706581 9.11458759,17.7698436 9.26938776,16.7248591 C9.41984424,15.7091967 10.3456695,14.9937251 11.3664477,15.104265 L12.7714286,15.2564103 L12.9520985,12.2119349 C13.1583301,8.73671949 15.8617513,5.92779847 19.3265306,5.58874341 C22.9607077,5.23311148 26.4456562,7.12433781 28.1280726,10.3652007 Z" id="形状结合" fill="#FFFFFF"></path>
                        <path d="M12.5806452,15 L12.8037761,14.9104851 C14.617629,14.18281 15.8064516,12.4249611 15.8064516,10.4705882 L15.8064516,10.4705882 L15.8064516,10.4705882 L17.0583081,10.6798446 C21.3490814,11.3970768 25.7346578,11.3261657 30,10.4705882 L30,10.4705882 L30,10.4705882 L28.0645161,5.29411765 L17.0967742,4 L10,9.82352941 L12.5806452,15 Z" id="路径-84" fill="#444E60"></path>
                    </g>
                    <g id="编组-6" transform="translate(14.000000, 77.000000)">
                        <path d="M-4.54747351e-13,49 L0.278678596,45.0984997 C0.717784458,38.9510176 4.71685581,33.6306321 10.5,31.5 C16.7159598,29.2099095 23.4380167,28.6548603 29.94542,29.8943657 L30.5,30 C36.6736119,31.1759261 41.2586219,36.3965722 41.6276667,42.6703343 L42,49 L42,49 L-4.54747351e-13,49 Z" id="路径-75备份" fill="#3381FF" transform="translate(21.000000, 38.500000) scale(-1, 1) translate(-21.000000, -38.500000) "></path>
                        <path d="M25.5305822,1.68705478 L26,2 L28.226499,1.5547002 C29.9592289,1.20815422 31.7505107,1.75051071 33,3 L33.0960567,3.09605672 C34.2510996,4.25109959 34.6066582,5.98335442 34,7.5 C33.3597108,9.10072312 32.1097613,10.3815309 30.5251263,11.0606602 L29.5,11.5 C29.283095,11.5929593 29.0639289,11.6792 28.8428105,11.7586933 C28.7704672,11.6080489 28.6961495,11.4594954 28.6195374,11.3119165 L28.6195374,11.3119165 L28.1280726,10.3652007 C26.4456562,7.12433781 22.9607077,5.23311148 19.3265306,5.58874341 C15.8617513,5.92779847 13.1583301,8.73671949 12.9520985,12.2119349 L12.9520985,12.2119349 L12.7714286,15.2564103 L11.3664477,15.104265 C10.3456695,14.9937251 9.41984424,15.7091967 9.26938776,16.7248591 C9.11458759,17.7698436 9.74820894,18.7706581 10.7589891,19.0777071 L10.7589891,19.0777071 L12.5918367,19.634479 L13.2443737,22.644546 C13.3961006,23.3444421 13.6383299,24.0110404 13.9590579,24.6309108 L14,25 C12.1935668,24.3978556 10.7591477,23.0157969 10.0869081,21.2439893 L10,21 L7.87408514,18.3426064 C6.66093151,16.8261644 6,14.9419934 6,13 C6,11.0580066 6.66093151,9.17383561 7.87408514,7.65739357 L8.12591486,7.34260643 C9.25404265,5.93244669 10.9344035,5.08349241 12.7298712,5.00583727 L13,5 L14.8494187,3.15058132 C16.2481065,1.75189352 18.0488702,0.825188308 20,0.5 C21.9273853,0.178769121 23.9047799,0.603186602 25.5305822,1.68705478 Z" id="形状结合" fill="#444E60"></path>
                        <path d="M28.1280726,10.3652007 L28.6195374,11.3119165 C30.1701655,14.2989138 30.7808786,17.6851394 30.3714286,21.025641 L30.2241497,22.2272167 C29.9217296,24.6945141 28.4580098,26.8685578 26.2857143,28.0769231 C25.8409589,28.3243236 25.3792877,28.5314981 24.9060066,28.6979623 L24.9423439,30.9176581 C24.9771779,32.9851383 23.7517608,34.8662055 21.8465433,35.6698435 L21.8465433,35.6698435 L21.7125099,35.72638 C19.8093037,36.5291695 17.6407795,36.3997734 15.8465433,35.376357 C14.1732359,34.4219173 13.3633372,32.451829 13.8815405,30.5964644 L13.8815405,30.5964644 L15.0889575,26.2748265 C14.1867172,25.260029 13.5417354,24.016236 13.2443737,22.644546 L12.5918367,19.634479 L10.7589891,19.0777071 C9.74820894,18.7706581 9.11458759,17.7698436 9.26938776,16.7248591 C9.41984424,15.7091967 10.3456695,14.9937251 11.3664477,15.104265 L12.7714286,15.2564103 L12.9520985,12.2119349 C13.1583301,8.73671949 15.8617513,5.92779847 19.3265306,5.58874341 C22.9607077,5.23311148 26.4456562,7.12433781 28.1280726,10.3652007 Z" id="形状结合" fill="#FFFFFF"></path>
                        <path d="M6,13 C6,11.0580066 6.66093151,9.17383561 7.87408514,7.65739357 L8.12591486,7.34260643 C9.25404265,5.93244669 10.9344035,5.08349241 12.7298712,5.00583727 L13,5 L14.8494187,3.15058132 C16.2481065,1.75189352 18.0488702,0.825188308 20,0.5 C21.9273853,0.178769121 23.9047799,0.603186602 25.5305822,1.68705478 L26,2 L28.226499,1.5547002 C29.9592289,1.20815422 31.7505107,1.75051071 33,3 L33.0960567,3.09605672 C34.2510996,4.25109959 34.6066582,5.98335442 34,7.5 C33.3597108,9.10072312 32.1097613,10.3815309 30.5251263,11.0606602 L29.5,11.5 C27.2243022,12.475299 24.6997177,12.7110484 22.2827904,12.1739534 L17,11 C17,13.2477607 15.2510614,15.1074998 13.0075347,15.2453998 L12.77,15.26 C8.25666667,15.0479956 6,14.2946622 6,13 Z" id="形状结合" fill="#444E60"></path>
                    </g>
                    <g id="编组-6备份" transform="translate(76.000000, 78.000000)">
                        <path d="M-4.54747351e-13,48 L0.278678596,44.0984997 C0.717784458,37.9510176 4.71685581,32.6306321 10.5,30.5 C16.7159598,28.2099095 23.4380167,27.6548603 29.94542,28.8943657 L30.5,29 C36.6736119,30.1759261 41.2586219,35.3965722 41.6276667,41.6703343 L42,48 L42,48 L-4.54747351e-13,48 Z" id="路径-75备份" fill="#3381FF" transform="translate(21.000000, 37.500000) scale(-1, 1) translate(-21.000000, -37.500000) "></path>
                        <path d="M16,29 L15.1622777,29 C13.067792,29 10.9870035,28.6623345 9,28 L9,28 L9,28 L7.26607313,21.0642925 C6.43738864,17.7495546 6.51820305,14.2726565 7.5,11 L7.56326057,10.7891314 C8.49647074,7.67843088 10.4018666,4.94860003 13,3 C15.5452542,1.09105932 18.7831195,0.356623896 21.9029034,0.980580676 L23.17071,1.23414201 C25.6486487,1.72972973 27.8822467,3.05869602 29.5,5 C31.1387435,6.96649219 32.2406592,9.32362545 32.69857,11.8421348 L33,13.5 C33.665317,17.1592437 34,20.8709346 34,24.5901699 L34,27 L34,27 L27,28 L24,24 L17,24 L16,29 Z" id="路径-88" fill="#444E60"></path>
                        <path d="M28.1280726,9.36520071 L28.6195374,10.3119165 C30.1701655,13.2989138 30.7808786,16.6851394 30.3714286,20.025641 L30.2241497,21.2272167 C29.9217296,23.6945141 28.4580098,25.8685578 26.2857143,27.0769231 C25.8409589,27.3243236 25.3792877,27.5314981 24.9060066,27.6979623 L24.9423439,29.9176581 C24.9771779,31.9851383 23.7517608,33.8662055 21.8465433,34.6698435 L21.8465433,34.6698435 L21.7125099,34.72638 C19.8093037,35.5291695 17.6407795,35.3997734 15.8465433,34.376357 C14.1732359,33.4219173 13.3633372,31.451829 13.8815405,29.5964644 L13.8815405,29.5964644 L15.0889575,25.2748265 C14.1867172,24.260029 13.5417354,23.016236 13.2443737,21.644546 L12.5918367,18.634479 L10.7589891,18.0777071 C9.74820894,17.7706581 9.11458759,16.7698436 9.26938776,15.7248591 C9.41984424,14.7091967 10.3456695,13.9937251 11.3664477,14.104265 L12.7714286,14.2564103 L12.9520985,11.2119349 C13.1583301,7.73671949 15.8617513,4.92779847 19.3265306,4.58874341 C22.9607077,4.23311148 26.4456562,6.12433781 28.1280726,9.36520071 Z" id="形状结合" fill="#FFFFFF"></path>
                        <path d="M12.77,14.26 L13,12 C16.2627763,12.6525553 19.6449148,12.3420341 22.7343208,11.1062717 L23,11 L23,11 L22,8 L24,11 C25.9728863,11 27.9186784,10.5406608 29.6832816,9.65835921 L31,9 L31,9 L23,3 L16,3 L10,8 L9,12 L12.77,14.26 Z" id="路径-89" fill="#444E60"></path>
                    </g>
                </g>
            </g>
        </g>
    </g>
</svg>