<svg xmlns="http://www.w3.org/2000/svg" xmlns:xlink="http://www.w3.org/1999/xlink" width="240" height="240" fill="none"><style>.B{fill:#fff}.C{fill:#152f8c}.D{fill:#3381ff}.E{fill:#84b3ff}.F{fill:#4951ec}.H{stroke-miterlimit:10}.I{stroke-linecap:round}.J{stroke-linejoin:round}</style><path fill="url(#D)" d="M0 0h240v240H0z"/><g class="B" style="fill-opacity:.5"><rect x="8" y="8" width="110" height="110" rx="8"/><rect x="122" y="8" width="110" height="110" rx="8"/><rect x="122" y="122" width="110" height="110" rx="8"/><rect x="8" y="122" width="110" height="110" rx="8"/></g><mask id="A" maskUnits="userSpaceOnUse" x="122" y="122" width="110" height="110" mask-type="alpha"><rect x="122" y="122" width="110" height="110" rx="8" class="B"/></mask><g mask="url(#A)"><path d="M174.752 148.932c-.505-1.605-1.154-3.182-2.137-4.547-1.113-1.544-2.629-2.772-4.322-3.646a13.84 13.84 0 0 0-2.336-.94c.259-1.135.431-2.289.493-3.452.057-1.068.03-2.14-.083-3.203-.074-.708.007-2.708-1.042-2.252-3.247 1.41-5.705 4.353-6.9 7.686-.244.68-.426 1.378-.575 2.083a15.12 15.12 0 0 0 .154 10.428c.587 1.502 1.434 3.025 1.195 4.615-.205 1.386-1.208 2.519-2.328 3.36s-2.389 1.461-3.489 2.321c-3.284 2.581-4.609 7.387-3.107 11.286l2.533.014a11.33 11.33 0 0 1 .737-5.326 29.777 29.777 0 0 0 1.352 5.333l19.595.082c1.468-7.955 2.656-16.12.26-23.842zm29.562 23.223-2.984.035c-.041-1.967-.464-3.694-1.099-5.599a23.474 23.474 0 0 1-1.208 5.618l-8.733.089-1.29.014-.649.007-.785.007-1.004.013-1.311.014-6.766.068-.301-1.687-.594-3.072-.075-.403-.286-1.837-.198-1.803v-.007c-.28-3.748-.144-7.51-.307-11.265l-.062-1.188a101.686 101.686 0 0 0-.369-4.349l-.218-1.905-.089-.799-.349-2.82-1.201-9.613-.287-2.301-.259-2.104a32.41 32.41 0 0 1 2.28.307 29.83 29.83 0 0 1 2.321.478 29.3 29.3 0 0 1 5.476 1.912 25.76 25.76 0 0 1 5.039 3.065c4.349 3.401 7.606 8.446 8.459 14.045.321 2.089.41 4.451 1.919 5.858.758.71 1.775 1.045 2.608 1.652 1.618 1.168 2.431 3.216 2.888 5.217a23.34 23.34 0 0 1-.566 12.353z" class="C"/><path d="m186.657 174.977-17.522 4.11.857-5.803.698-4.772.015-.079.208-1.418 15.132-8.394.022.591.59 15.765z" class="B"/><path d="M183.937 163.226c-2.876 7.714-9.014 9.706-13.946 10.059l.659-4.8c.835.057 1.709.077 2.538.005.014 0 .036 0 .057-.007.151-.007.302-.028.447-.043l.648-.087a9.25 9.25 0 0 1 .461-.079l.288-.065c2.296-.467 6.948-3.607 8.848-4.983z" class="D"/><path d="M190.996 147.683v.129l-.027.799a9.394 9.394 0 0 1-.075.983 9.316 9.316 0 0 1-.137.99 15.33 15.33 0 0 1-.751 2.752l-.547 1.277c-.239.505-.512.997-.805 1.467-.512.834-1.379 1.564-1.816 2.411l-.246.47-.369.642-.539.874-.007.007c-1.072 1.666-2.253 3.052-3.516 4.206l-.015.014c-7.128 6.439-16.611 4.916-20.619-1.283a.43.43 0 0 1-.061-.103c-.13-.198-.253-.403-.369-.607-1.898-3.401-2.226-7.722-2.144-11.744 0-.109.007-.218.007-.327.021-1.379-.389-2.397-.163-4.281.621-5.134 2.73-7.797 5.912-10.658a15.686 15.686 0 0 1 4.609-2.874c2.834-1.154 5.988-1.495 9.026-.847 7.333 1.563 12.576 8.274 12.652 15.703z" class="B"/><path d="M183.813 151.365c1.109-.985 2.246-1.988 3.614-2.562s3.036-.651 4.269.175c1.703 1.142 2.01 3.618 1.336 5.555-.725 2.081-2.404 3.809-4.464 4.592s-4.462.609-6.388-.464c-.314-3.271-.431-5.464 1.633-7.296z" class="B"/><path d="M188.256 151.462a5.126 5.126 0 0 1 1.129 4.23m-3.06-.674-.053.101c.4-1.186 1.503-2.105 2.741-2.284" stroke="#1e223f" stroke-width=".611" class="H I J"/><path d="m192.147 148.422-1.174.055-.355.027-2.963.212-1.509.075c-1.434.055-2.8.041-3.817-.143l-.151-.028c-2.273-1.174-4.445-2.608-6.192-4.512a14.2 14.2 0 0 1-1.96-2.656c.014.956.109 1.912.287 2.847a17.35 17.35 0 0 0 .471 1.884l-1.516-.765-.765-.437c-2.007-1.195-3.83-2.677-5.222-4.54-.062-.075-.116-.157-.171-.24a11.73 11.73 0 0 1-.935-1.515 12.044 12.044 0 0 1-1.147-3.264l-.021-.102c-.314-1.687-.082-3.23.628-4.493.779-1.393 2.124-2.458 3.933-3.004 2.055-.621 4.172-.724 6.241-.417a16.82 16.82 0 0 1 2.683.649c4.158 1.379 7.852 4.383 9.989 8.138 1.14 2.008 1.714 4.151 2.068 6.418.349 2.207 1.707 3.572 1.598 5.811z" class="C"/><path d="M183.007 151.039c.133.52.391 1.15.927 1.178.497.025.824-.495 1.039-.943l.686-1.434c.378-.791.759-1.59.946-2.445s.163-1.787-.242-2.564c-.497-.955-1.612-1.579-2.675-1.408-1.225.197-2.185 1.5-1.97 2.715.288 1.637.878 3.286 1.289 4.901z" class="C"/><path d="M170.238 172.189s8.288 6.718 16.307-.952l4.031 1.765-1.046 74.958h-28.937l4.183-73.796 5.462-1.975z" fill="#92b5f9"/><path d="M150.911 181.818s-3.495 1.21-7.394 19.492L129 268.387l19.492 1.344 9.813-76.218-7.394-11.695z" class="D"/><path d="m168.614 172.828-9.065 105.291-20.57-5.055s6.977-84.814 11.157-90.473c4.764-6.451 18.478-9.763 18.478-9.763zm19.022-1.176-10.829 108.035s19.65 8.566 39.048 2.441c1.104-.348-5.928-44.278-6.799-51.424s-3.487-49.507-3.487-49.507-9.042-7.976-17.933-9.545z" class="D"/><path d="M205.568 181.196s9.064 8.019 12.725 23.533 10.111 43.232 1.22 47.938-16.909.523-21.964-14.991-3.139-25.626-3.139-25.626l11.158-30.854z" class="D"/><path d="M195.371 211.441s-1.744-2.964-2.353-3.4-9.762-9.5-8.542-11.069c0 0 .523-.523 1.046-.175 0 0-4.445-5.491-3.486-6.624s7.99 6.682 7.99 6.682l.203-.233s-6.711-7.845-5.665-9.414 8.629 7.584 8.629 7.584-6.45-8.804-5.317-10.285c1.386-1.812 11.723 10.808 11.723 10.808s-2.341-6.142-.972-8.338a.664.664 0 0 1 .821-.251c.52.228 1.154.744 2.069 2.618 1.322 2.705 3.705 9.326 4.097 11.636.321 1.893.654 5.056.654 5.056l-10.897 5.405z" class="B"/><path d="m185.521 196.798 3.574 4.315s-3.182-1.962-3.574-4.315z" class="D"/><path d="m189.067 144.41-2.847.355c-.601-4.977-2.082-8.63-3.81-11.299-2.41-3.708-5.284-5.51-6.937-6.295-.123-.068-.239-.116-.348-.171a17 17 0 0 1 2.669.649 29.2 29.2 0 0 1 5.476 1.911c1.27.874 2.39 1.906 3.12 3.059.581.922 1.038 2.015 1.393 3.168.505 1.619.813 3.346 1.004 4.821.266 2.164.28 3.802.28 3.802z" class="E"/><path d="M196.646 152.229c0 4.911-3.555 8.89-7.941 8.89s-7.941-3.98-7.941-8.89 3.555-8.89 7.941-8.89 7.941 3.98 7.941 8.89z" class="E"/><path opacity=".44" d="M196.642 152.231c0 4.531-3.033 8.279-6.955 8.819-.321.047-.65.071-.985.071-4.383 0-7.94-3.983-7.94-8.89 0-4.913 3.557-8.888 7.94-8.888a6.81 6.81 0 0 1 .985.07c3.922.539 6.955 4.28 6.955 8.818z" class="E"/><path d="M196.642 152.234c0 2.069-.635 3.987-1.707 5.497-.348.505-.75.963-1.195 1.372-1.147 1.045-2.533 1.734-4.055 1.946-3.92-.539-6.957-4.281-6.957-8.815 0-4.54 3.038-8.281 6.957-8.821a7.345 7.345 0 0 1 3.004 1.127c.321.212.628.444.921.703 1.852 1.625 3.032 4.151 3.032 6.991z" class="E"/><path opacity=".68" d="M190.797 159.902c-3.304 0-5.987-3.496-5.987-7.791s2.683-7.783 5.987-7.783c1.018 0 1.973.328 2.813.915a8.254 8.254 0 0 0-.922-.703 4.917 4.917 0 0 0-1.891-.382c-3.386 0-6.145 3.564-6.145 7.954s2.759 7.961 6.145 7.961c1.059 0 2.055-.349 2.929-.963a8.005 8.005 0 0 0 1.209-1.38c-1.071 1.346-2.533 2.172-4.138 2.172z" class="E"/></g><mask id="B" maskUnits="userSpaceOnUse" x="8" y="122" width="110" height="110" mask-type="alpha"><rect x="8" y="122" width="110" height="110" rx="8" class="B"/></mask><g mask="url(#B)"><path d="M47.476 136.317c-1.091.599-2.174 1.26-2.972 2.187-.764.888-1.224 1.972-1.617 3.055-.418 1.151-.777 2.385-.501 3.573.273 1.177 1.139 2.168 1.412 3.343.301 1.294-.147 2.624-.382 3.931-.281 1.56-.252 3.192.277 4.69s1.59 2.857 3.048 3.618c.537.28 1.133.486 1.573.891.932.856.871 2.273 1.36 3.414.493 1.148 1.559 2.005 2.736 2.541s2.47.79 3.749 1.038c.189.037.396.071.567-.014.184-.092.268-.294.337-.481 2.059-5.597 2.483-11.681 1.596-17.547-.59-3.895-1.748-7.702-3.324-11.337a55.43 55.43 0 0 0-1.261-2.7c-.24-.478-.866-2.341-1.385-2.541-.961-.37-4.335 1.858-5.214 2.339z" class="C"/><path d="m54.255 180.441 19.246 4.243-1.023-6.34-.835-5.215-.017-.087-.249-1.55-16.691-8.968-.015.647c-.531.007-.256.094-.256.094l-.16 17.176z" class="B"/><path d="M57.231 167.578c3.262 8.404 10.013 10.495 15.417 10.809l-.792-5.246c-.914.075-1.871.11-2.779.043-.015 0-.039.001-.064-.007-.166-.005-.331-.027-.489-.04l-.711-.085a9.8 9.8 0 0 0-.505-.08l-.317-.067c-2.521-.479-7.661-3.849-9.762-5.327z" class="D"/><path d="M60.493 130.39c1.694-.694 3.263-1.661 4.942-2.391s3.536-1.224 5.337-.895c.877.159 1.719.511 2.608.572 1.446.098 2.877-.579 4.313-.384 1.625.22 2.995 1.682 3.107 3.318.088 1.28-.487 2.674.147 3.791.198.347.498.629.689.981.25.462.292 1.01.249 1.533-.12 1.432-.973 2.886-2.343 3.321-.659.209-1.368.17-2.058.129l-14.776-.879c-1.203-.072-2.416-.145-3.581-.453-.951-.251-1.854-.655-2.733-1.095-1.296-.648-6.528-2.794-4.127-4.645 2.179-1.683 5.715-1.873 8.227-2.903z" class="C"/><path d="M84.235 153.744c.152 4.407-.149 9.141-2.17 12.891a13.41 13.41 0 0 1-.398.67.49.49 0 0 1-.063.116c-4.302 6.845-14.66 8.65-22.557 1.71-.007-.022-.015-.022-.015-.022-1.403-1.239-2.716-2.743-3.913-4.549l-.007-.008a17.88 17.88 0 0 1-.606-.949c-.139-.219-.277-.461-.416-.694-.081-.178-.183-.341-.271-.518-.491-.915-1.452-1.703-2.029-2.609a16.633 16.633 0 0 1-.9-1.596 16.81 16.81 0 0 1-.618-1.392 16.88 16.88 0 0 1-.862-2.997 11.41 11.41 0 0 1-.165-1.084 10.778 10.778 0 0 1-.093-1.077 12.35 12.35 0 0 1-.041-.872l-.002-.143c-.03-8.138 5.615-15.559 13.615-17.382 3.319-.751 6.776-.427 9.9.796a17.134 17.134 0 0 1 5.086 3.083c2.906 2.54 5.011 4.941 6.085 8.85.217.798.394 1.66.528 2.601.007.043.008.086.016.129.277 2.061-.158 3.182-.115 4.689.002.121.01.242.012.357z" class="B"/><path d="M72.602 132.444a23.507 23.507 0 0 0-12.724.299c-.411.126-.85.285-1.1.657-.067.1-.111.206-.143.315l-.206.035c-2.688.494-5.476 1.176-7.521 2.989-1.867 1.655-2.899 4.1-3.248 6.571s-.072 4.986.33 7.448c.066.405.141.824.376 1.16.243.349.63.568 1.005.768 1.87.999 4.537 2.787 6.823 2.452l.45.628c.203.276.439.564.772.64.377.087.761-.131 1.039-.401.681-.66.967-1.623 1.167-2.551.285-1.327.452-2.679.496-4.035a7.16 7.16 0 0 0-.018-.902c.262-.127.553-.219.822-.325 1.368-.544 2.466-1.859 2.509-3.33.04-1.387-.786-2.889-.074-4.081.3-.502.826-.831 1.164-1.309.373-.528.479-1.19.48-1.841 2.146-.235 4.306-1.291 6.163-2.514 1.007-.662 2.214-1.159 3.346-.841.923.259 1.762 1.041 2.706.85-1.088-1.509-2.874-2.232-4.615-2.682z" class="C"/><path d="M57.023 154.547c-1.23-1.063-2.489-2.144-3.995-2.752s-3.333-.668-4.671.255c-1.848 1.275-2.148 3.991-1.381 6.101.824 2.269 2.688 4.136 4.955 4.964s4.895.601 6.987-.603c.297-3.586.391-5.989-1.894-7.965z" class="B"/><path d="M52.159 154.719a5.62 5.62 0 0 0-1.175 4.648m3.341-.784.059.11a3.82 3.82 0 0 0-3.034-2.461" stroke="#1e223f" stroke-width=".644" class="H I J"/><path opacity=".09" d="M54.694 162.082a7.86 7.86 0 0 0 .17 1.523 8.2 8.2 0 0 0 .252.954c1.198 1.808 2.511 3.308 3.912 4.553a7.97 7.97 0 0 0 3.818.905 8.04 8.04 0 0 0 7.928-8.151l-.011-.262a8.034 8.034 0 0 0-12.822-6.086 8.03 8.03 0 0 0-3.247 6.564zm23.905-.822a7.687 7.687 0 0 0 3.067 6.047l.392-.674c2.032-3.749 2.329-8.487 2.177-12.885a7.683 7.683 0 0 0-5.636 7.512z" class="B"/><path d="M54.178 174.289s11.52 7.397 17.91.429l.456 1.17s8.953 26.637 9.947 47.023 4.143 39.61 4.143 39.61l-30.661.166-3.646-87.342 1.851-1.056z" class="F"/><path d="M61.691 230.45c-.331 20.882.5 38.947-2.318 43.257s-15.91 16.241-24.362 15.91c-8.458-.331-12.1-1.162-12.1-1.162l2.064-40.473.305-5.173c1.525-24.868 2.998-51.94 5.059-54.647 7.237-9.502 19.251-13.232 23.892-13.725 0 0 7.79 35.131 7.459 56.013z" fill="#5b9aff"/><path d="m73.517 192.482.39 2.182-2.205-.692-16.782-20.426c-.32-.39-.174-1.04.327-1.451s1.167-.429 1.487-.04l16.783 20.427z" class="C"/><path d="M47.22 198.134s5.448-13.831 6.569-15.13c1.246-1.441 4.067-4.383 5.569-4.449s7.068.001 9.2 1.703 6.761 6.211 5.965 8.255-2.892 3.73-6.861 2.799-5.455-.166-5.455-.166.043 3.739-2.374 6.83-5.837 5.014-5.837 5.014l-6.776-4.856z" class="B"/><path d="M61.282 186.256s6.163.998 7.623 1.885l4.155 2.36m-9.963-7.547s4.925 1.103 7.154 2.42 4.107 3.374 4.107 3.374m-9.154-8.393s4.526 1.466 6.487 3.141 2.776 3.219 2.892 3.793" stroke="#4951ec" stroke-width=".439" class="H I J"/><path d="M98.899 205.674c-2.427-11.708-8.049-19.597-9.561-21.559a3.352 3.352 0 0 0-.383-.483c-3.481-3.481-9.944-5.966-16.574-8.121l10.11 86.678c1.491 4.143 5.303 12.927 8.121 13.259s17.237-.497 17.237-.497l-2.566-10.665 2.566 10.665 2.983-.332c0 .001-9.116-55.354-11.933-68.945zm-68.448-17.733s-13.756 16.739-14.584 33.975 13.59 28.009 25.357 22.374 16.739-43.588 16.739-43.588l-27.512-12.761z" fill="#5b9aff"/><path d="m49.796 146.523 2.957.368c.624-5.169 2.163-8.963 3.957-11.736 2.503-3.85 5.489-5.723 7.205-6.539.128-.071.249-.12.362-.177-.943.148-1.865.376-2.773.674a30.349 30.349 0 0 0-5.687 1.985c-1.319.908-2.482 1.978-3.241 3.177-.603.958-1.078 2.092-1.447 3.291-.524 1.681-.844 3.475-1.042 5.007-.276 2.248-.291 3.95-.291 3.95z" class="E"/><use xlink:href="#E" class="E"/><use xlink:href="#E" opacity=".44" class="E"/></g><g class="B"><path d="M86.67 87.248a3.4 3.4 0 0 1 3.368-2.757 3.395 3.395 0 0 1 3.299 2.597c.722 2.916 1.741 8.166 2.894 14.106l3.388 16.831H83.932c-.338-7.925 1.23-22.944 2.737-30.777zm-53.831-.168c-.298-1.612-1.711-2.765-3.353-2.772a3.423 3.423 0 0 0-3.322 2.574c-.701 2.751-1.676 7.971-2.782 13.894L20 118.025h15.441c.164-8.364-1.226-23.558-2.603-30.945z"/><path d="M68.351 64.374 67.159 49.55l-14.175-.038-1.031 14.572a6.28 6.28 0 0 1-3.62 5.255l-18.047 8.386 5.171 38.324 49.948.146 4.269-37.416-17.955-9.348a6.244 6.244 0 0 1-3.368-5.056z"/></g><mask id="C" maskUnits="userSpaceOnUse" x="30" y="49" width="60" height="68" mask-type="alpha"><path d="M68.351 64.374 67.159 49.55l-14.175-.038-1.031 14.572a6.28 6.28 0 0 1-3.62 5.255l-18.047 8.386 5.171 38.324 49.948.146 4.269-37.416-17.955-9.348a6.244 6.244 0 0 1-3.368-5.056z" class="B"/></mask><g mask="url(#C)" class="D"><path d="M50.842 54.097a15.98 15.98 0 0 1 1.236-4.769c1.042-2.4 3.396-4.612 7.019-5.829 4.001-1.349 8.826-1.603 13.18-1.01 3.211.436 6.279 1.527 8.145 3.216 1.992 1.801 2.177 4.515 2.463 6.636.412 3.125-.017 6.311-1.328 9.35a15.643 15.643 0 0 1-5.665 6.844 15.925 15.925 0 0 1-10.162 2.643 16.396 16.396 0 0 1-8.943-3.587c-3.278-2.648-5.161-6.027-5.783-9.36a14.426 14.426 0 0 1-.16-4.135z"/></g><path d="M72.735 68.812s-2.902 12.686-12.701 12.663c-9.898-.031-12.762-13.113-12.762-13.113-5.579 2.922-17.003 5.848-19.788 11.907-2.429 5.285-3.295 11.495-4.651 17.092l8.314.023 1.899 20.642h53.676l1.943-20.473 7.938.022c-1.328-5.611-2.16-11.816-4.552-17.123-2.712-5.966-13.841-8.786-19.318-11.639z" fill="#538aff"/><path d="m101.205 118.657 3.229-6.257c2.093-4 4.558-12.515 6.725-19.996 1.268-4.379 2.433-8.404 3.361-10.962l.004-.01 1.162-3.226c.242-.684.493-1.375.905-1.972.287-.411.647-.766 1.006-1.122.18-.178.36-.356.53-.54.792-.86 1.171-1.855 1.548-2.843.285-.749.569-1.494 1.03-2.173.819-1.21 2.208-2.792 3.457-3.576 2.083-1.509 3.656-2.798 2.806-3.508-.578-.489-2.521.938-4.672 2.517-1.007.739-2.06 1.512-3.04 2.138.559-1.035 3.181-4.641 3.643-5.096l.675-.886c1.537-2.006 2.693-3.514 1.539-3.779-.941-.222-2.664 1.736-4.985 4.374l-3.119 3.457-.184-.137c.236-.61 2.23-4.549 2.897-5.867l.117-.23c.297-.586.604-1.147.887-1.664.559-1.021 1.024-1.87 1.132-2.402.176-.861-.38-2.284-2.02-.214l-.477.82c-1.766 3.036-4.838 8.319-4.831 7.959l-.233-.045c.199-2.531.807-4.622 1.275-6.233.539-1.856.892-3.073.222-3.591-1.087-.84-1.945 2.549-2.562 4.984l-.262 1.018c-.452 1.686-2.16 5.112-3.737 6.097-.397.203-.942.167-1.448-.072a1.884 1.884 0 0 1-.373-.205c-.275-.195-.445-.824-.645-1.565-.229-.844-.496-1.832-1.002-2.49-.938-1.217-2.016.005-2.016.005s1.385 3.724 1.33 6.685c-.032 1.841.747 3.075 1.406 4.119.396.627.749 1.186.858 1.767.152.777-.651 3.227-.651 3.227-1.84 5.306-10.688 26.048-14.52 34.032l.547 5.808 8.486 1.65z" class="B"/><path d="M112.725 70.341c-.824-2.805-4.294-4.281-4.728-4.451.637.124 1.294.026 1.722-.334 3.38 1.785 3.006 4.786 3.006 4.786z" class="D"/><path d="M46.329 46.299a37.289 37.289 0 0 1-.141-7.265c.305-3.722 1.833-7.373 4.757-9.749 3.227-2.632 7.478-3.769 11.529-3.576 2.987.14 6.018 1.273 8.129 3.483 2.253 2.356 3.128 6.35 3.938 9.449 1.186 4.568 1.635 9.359 1.256 14.071-.308 3.839-1.253 7.759-3.28 11.04-1.607 2.587-3.987 4.744-6.975 5.348-.471.099-.95.152-1.427.174-3.389.132-6.514-1.628-8.94-3.906-3.626-3.409-6.193-8.121-7.621-12.964a35.87 35.87 0 0 1-1.224-6.105z" class="B"/><path d="m76.445 38.089-1.103-2.69c.185.611.717 1.076 1.312 1.281.603.212 1.259.189 1.885.048 4.125-.929 2.453-5.838-.015-7.605-.949-.678-2.214-.99-3.327-.615a4.61 4.61 0 0 0 3.09-3.321c.702-3.102-1.71-5.166-4.528-5.537-1.429-.19-3.031-.078-4.091.9-.145-1.572-1.717-2.567-3.172-3.171-6.441-2.664-18.228-3.184-22.147 4.099.535-1.234-1.508-2.262-2.592-1.459-1.085.796-1.24 2.336-1.251 3.679-.038 6.56 1.777 13.599 2.889 20.08.194 1.145.448 2.279.704 3.42-.003-.015.06-.011.157.011.389-.255.819-.416 1.251-.205.642.081.945.919 1.127 1.686.185.479.256 1.103.375 1.555l.54 2.006.034-7.11c.013-4.019-.733-7.634.436-11.601.112-.377.314-.815.709-.862.213-.022.419.089.602.204 1.83 1.097 3.571 2.441 5.552 3.248 1.412.573 3.536 1.098 4.854.129 1.085-.796 1.505-2.375.956-3.596.645 1.197 1.31 2.414 2.27 3.376s2.271 1.663 3.633 1.601 2.707-1.051 2.904-2.397c.094-.652-.067-1.306-.082-1.963.246.383.501.772.88 1.031.372.26.9.353 1.283.107.563 1.871.981 3.759 1.506 5.636.738 2.646 1.746 5.237 2.623 7.836l-.185-3.558c-.034-.591-.058-1.207.197-1.741a1.37 1.37 0 0 1 .98-.778c.951-.191.409-2.034-.253-3.724z" class="C"/><g class="E"><path d="M74.714 37.052a1.18 1.18 0 0 0-.973 1.343l2.523 15.585a1.175 1.175 0 0 0 1.343.973 4.51 4.51 0 0 0 3.727-5.163l-1.457-9.01a4.51 4.51 0 0 0-5.163-3.727zm-5.172-16.358c.698-.526 1.529-.874 2.395-1.066-5.716-5.367-14.239-6.47-21.044-2.222-8.628 5.384-10.998 15.782-8.888 25.197.337 1.515 2.724 1.11 2.378-.412-1.634-7.289-.647-15.458 5.168-20.741 5.696-5.169 14.156-5.567 19.991-.756z"/><path d="M43.981 41.758a1.17 1.17 0 0 1 1.392.902l3.282 15.444a1.17 1.17 0 0 1-.902 1.392 4.51 4.51 0 0 1-5.341-3.463l-1.899-8.925a4.503 4.503 0 0 1 3.469-5.35z"/></g><path d="M193.998 57.95a.203.203 0 0 0-.066.01.24.24 0 0 0-.15.113 16.11 16.11 0 0 0-.796 2.301c-.821-.398-1.807-.598-2.933-.598-.441 0-.893.03-1.388.086a15 15 0 0 0-2.407.501 17.54 17.54 0 0 0-1.986.711c.01-.066.013-.139.017-.209.003-.076-.01-.133-.047-.179a.236.236 0 0 0-.166-.096h-.003c-.143 0-.269.086-.276.212l-.036.515a.25.25 0 0 0-.043.292 6.28 6.28 0 0 1-.17.92 5.939 5.939 0 0 1-.541 1.312 5.284 5.284 0 0 1-.774.99 6.25 6.25 0 0 1-1.218.893c-1.086.598-2.308.94-3.364 1.212l.053-.007-1.949.465-2.72.678c-.873.242-1.63.495-2.311.774a14.51 14.51 0 0 0-2.228 1.142l-.661.442-.352.259-.126.1-.219.166a.244.244 0 0 0-.097.153c-.01.07.004.139.043.193a.41.41 0 0 0 .117.136c.65.508 1.411.973 2.327 1.428.724.362 1.525.701 2.584 1.102l2.7.946 3.018.824a46.52 46.52 0 0 0 6.173.976l3.128.199 1.876.037.91-.01c2.016-.047 3.756-.259 5.327-.654a14.887 14.887 0 0 0 2.517-.87 11.92 11.92 0 0 0 1.165-.611c.399-.236.777-.511 1.146-.78l.043-.03.106-.076s.017-.013.017-.017l.013-.013.286-.189a.26.26 0 0 0 .119-.149.304.304 0 0 0 .04-.033.24.24 0 0 0 .07-.179.24.24 0 0 0-.07-.169l-3.234-2.829-.817-.651-.754-.621c-.438-.392-.84-.82-1.195-1.272a8.29 8.29 0 0 1-.997-1.69 7.9 7.9 0 0 1-.521-1.906 9.272 9.272 0 0 1 .013-2.364c.156-1.112.482-2.248.997-3.473l-.024.033.04-.073c.023-.06.043-.116.023-.189a.227.227 0 0 0-.112-.146.218.218 0 0 0-.117-.033z" class="B"/><path d="M193.928 57.953c-.053.017-.126.06-.149.116a15.737 15.737 0 0 0-.8 2.301c-.811-.399-1.794-.601-2.926-.601a12.27 12.27 0 0 0-1.385.086c-.76.09-1.55.256-2.41.505-.671.193-1.339.432-1.986.711.02-.063.023-.133.026-.206s-.01-.136-.046-.186-.103-.09-.173-.1c-.156 0-.279.096-.285.219l-.04.515a.25.25 0 0 0-.04.296 6.26 6.26 0 0 1-.173.913 6.22 6.22 0 0 1-.358.966l.919.302c1.286.362 2.627.561 3.972.581h-.02c1.019.01 2.039-.08 3.025-.332.322-.083.644-.183.956-.305a6.93 6.93 0 0 0 .874-.412h.003l.213-.123a9.5 9.5 0 0 1 .083-1.365c.152-1.106.478-2.242.993-3.47l-.034.026.047-.066c.026-.06.046-.116.023-.196a.25.25 0 0 0-.116-.149.246.246 0 0 0-.126-.037.278.278 0 0 0-.067.01z" class="D"/><path d="M130.992 47.208h-.057c-.186.01-.385.1-.591.262a2.25 2.25 0 0 0-.541.634 3.08 3.08 0 0 0-.302.777 4.542 4.542 0 0 0-.126.893c-.034.614.013 1.292.146 2.065.109.657.272 1.328.498 2.052.163.531.329.983.505 1.381-.22-.418-.409-.863-.588-1.292l-.528-1.159a5.703 5.703 0 0 0-.737-1.129 2.17 2.17 0 0 0-.329-.309 1.04 1.04 0 0 0-.362-.169.382.382 0 0 0-.11-.013.77.77 0 0 0-.206.033c-.109.03-.195.11-.272.186s-.126.176-.169.266a2.08 2.08 0 0 0-.126.385c-.08.312-.093.637-.097.887-.003.342.017.694.063 1.046a10.65 10.65 0 0 0 .246 1.199l.385 1.282a17.51 17.51 0 0 0 1.066 2.421c.631 1.199 1.415 2.407 2.461 3.809.007.09.066.169.146.203l.359.458a.26.26 0 0 0 .199.1.247.247 0 0 0 .229-.332c.266.053.558.076.867.076.591 0 1.192-.083 1.813-.249s1.208-.392 1.743-.681.973-.604 1.345-.976l.07.611a.25.25 0 0 0 .245.216c.097-.01.157-.047.196-.1s.057-.116.047-.179a9.472 9.472 0 0 1-.113-1.361 5.4 5.4 0 0 1 .176-1.361c.11-.379.272-.747.478-1.099l-.003.007c.196-.319.438-.637.717-.94l.409-.412.189-.186.647-.721c.219-.282.359-.541.432-.787l.05-.213c.01-.07.01-.143.01-.213a1.02 1.02 0 0 0-.106-.405c-.137-.269-.392-.495-.758-.671a1.726 1.726 0 0 0-.757-.159l-.206.01a2.74 2.74 0 0 0-.474.1 3.05 3.05 0 0 0-.489.196c-.451.226-.896.555-1.361 1.013a5.417 5.417 0 0 0-.538.608l-.017-.518.047-1.086.013-.216.007-.133.076-1.627-.013-1.797c-.027-.435-.076-.946-.242-1.431-.1-.289-.296-.657-.671-.77a1.32 1.32 0 0 0-.392-.063.95.95 0 0 0-.166.013c-.166.027-.332.1-.478.209-.336.249-.525.654-.638.936-.196.485-.299.999-.365 1.391-.133.767-.203 1.604-.229 2.71l-.007.973-.382-1.325.004.01-.449-1.886-.368-1.468c-.12-.402-.296-.923-.595-1.375a1.54 1.54 0 0 0-.412-.438.94.94 0 0 0-.245-.123.73.73 0 0 0-.269-.047z" class="B"/><g class="D"><path d="M133.048 56.446c-.137.651-.206 1.308-.147 1.973s.259 1.328.658 1.866c.043.056.086.1.156.12s.139.01.199-.027.103-.09.12-.156.013-.146-.027-.199a4.28 4.28 0 0 1-.451-.787 4.35 4.35 0 0 1-.273-1.023 5.38 5.38 0 0 1 .017-1.312c0 .017-.003.03-.007.043l.07-.415c.02-.09-.023-.176-.113-.203-.013-.003-.026-.007-.043-.007-.07.007-.143.053-.159.126zm.239 1.77.006.05c-.003-.017-.006-.033-.006-.05zm4.163 2.477-.803.033a11.9 11.9 0 0 0-2.052.362 11.11 11.11 0 0 0-1.93.701 6.975 6.975 0 0 0-1.604 1.019.28.28 0 0 0-.089.159.222.222 0 0 0-.09.189c.173 2.328.528 4.815 1.122 7.824l.827 3.879.85 3.746 1.946 7.349 1.226 3.59 1.338 3.165c.857 1.74 1.903 3.264 3.111 4.533a13.325 13.325 0 0 0 3.988 2.895 12.37 12.37 0 0 0 2.292.81c.773.193 1.604.316 2.464.366l.783.023c1.455 0 2.995-.226 4.579-.674a23.21 23.21 0 0 0 2.81-1.003 24.04 24.04 0 0 0 2.537-1.248 20.236 20.236 0 0 0 4.194-3.148 17.43 17.43 0 0 0 2.998-3.928 17.736 17.736 0 0 0 1.783-4.612c.386-1.624.568-3.377.542-5.207a26.165 26.165 0 0 0-.203-2.793l-.219-1.448-.047-.262-.006-.043-.007-.046-.063-.349-.129-.787-.024-.143-.508-2.627c-.265-1.019-.621-1.84-1.082-2.504a.327.327 0 0 0-.087-.09.178.178 0 0 0-.033-.116.253.253 0 0 0-.212-.12.26.26 0 0 0-.133.037c-.697.372-1.385.85-2.169 1.511-.597.502-1.202 1.083-1.965 1.88l-1.186 1.272-.153.166-.159.173-.319.342-.445.478-.179.193-.359.385-1.022 1.132-3.148 3.736-1.495 1.933-1.374 1.88-.08.11-.02.043-1.056 1.415c-.395-.897-.946-1.733-1.385-2.364l-.544-.774-.067-.09-.232-.325-.837-1.192-3.111-4.841a83.48 83.48 0 0 1-5.151-10.151l-.033-.08-.033-.08.006.066-2.264-6.057a.299.299 0 0 0-.08-.123.273.273 0 0 0-.169-.096 8.07 8.07 0 0 0-1.04-.07z"/><path d="M167.898 70.061a.233.233 0 0 0-.159.059.152.152 0 0 0-.043.026 3.98 3.98 0 0 0-.717.704 3.08 3.08 0 0 0-.435.777c-.183.478-.256 1.036-.216 1.713.033.561.142 1.136.242 1.644l.033.179.173.953.033.189.02.12.123.91c-1.255 1.72-2.218 3.198-3.028 4.649-1.013 1.806-1.734 3.5-2.205 5.184-.528 1.879-.688 3.716-.479 5.462a12.32 12.32 0 0 0 .681 2.766 14.46 14.46 0 0 0 1.196 2.441c1.012 1.674 2.324 3.125 3.593 4.446-.542 4.566-1.206 8.544-2.033 12.161a77.447 77.447 0 0 1-.863 3.423.203.203 0 0 0 .023.163.25.25 0 0 0 .16.126c.033.05.086.087.142.093 5.293.893 10.583 1.149 14.598 1.275l6.987.143.358.007.784.013.362.003 2.497.043 2.945.1.18.007.315.013.339.013 4.626.126h.186c.68 0 1.381-.013 2.082-.043a25.21 25.21 0 0 0 2.307-.182.266.266 0 0 0 .173-.08.24.24 0 0 0 .047-.073.191.191 0 0 0 .076-.083c2.371-4.712 3.809-10.111 4.27-16.045.17-2.205.22-4.5.15-6.824a63.95 63.95 0 0 0-.634-7.196 50.58 50.58 0 0 0-1.555-7.109 37.197 37.197 0 0 0-2.606-6.532 27.48 27.48 0 0 0-2.089-3.4.266.266 0 0 0-.219-.123.24.24 0 0 0-.113.03.24.24 0 0 0-.143.056c-.076.053-.153.1-.229.149l.05-.01a12.33 12.33 0 0 1-2.633 1.166c-1.196.369-2.514.638-4.155.837a47.37 47.37 0 0 1-2.002.203 48.63 48.63 0 0 1-2.155.136l-.046.007-1.674.023c-3.188 0-6.323-.335-9.311-.999l-.057-.013-.322-.073.04.027c-3.121-.75-6.017-1.836-8.61-3.231l.046.043-.405-.242a26.87 26.87 0 0 1-.541-.316c-.067-.02-.11-.033-.16-.033z"/></g><path d="M201.851 74.427h-.003l-.717.77-1.262 1.511a23.95 23.95 0 0 0-1.694 2.49l-.737 1.348-.604 1.305a19.99 19.99 0 0 0-.85 2.454l-.306 1.275-.206 1.225a19.34 19.34 0 0 0-.159 3.314l.053.903.077.804.189 1.567.471 3.155.017.1.023.153.449 3.045.302 3.178a22.482 22.482 0 0 1-.037 3.058 16.79 16.79 0 0 1-.684 3.623 15.41 15.41 0 0 1-.671 1.766 15.25 15.25 0 0 1-.966 1.807c-.385.618-.8 1.202-1.232 1.74l-1.242 1.398a23.456 23.456 0 0 1-2.729 2.351l-1.332.926 1.146.034.577.013 2.537.083.226.01.183.007.179.006.316.013.338.014 4.626.126h.186l2.082-.043 2.311-.183a.303.303 0 0 0 .183-.086.28.28 0 0 0 .046-.077.147.147 0 0 0 .077-.083c2.374-4.715 3.812-10.114 4.273-16.048a64.18 64.18 0 0 0 .15-6.824 63.45 63.45 0 0 0-.638-7.196 50.521 50.521 0 0 0-1.557-7.113c-.694-2.341-1.571-4.539-2.61-6.532a26.34 26.34 0 0 0-.774-1.391zm-35.417 3.527-2.992 4.778c-.906 1.677-1.67 3.447-2.112 5.303-.219.916-.352 1.86-.388 2.803a11.69 11.69 0 0 0 .026 1.401c.037.458.11.913.2 1.362.182.9.478 1.78.843 2.623a17.92 17.92 0 0 0 1.335 2.507 19.22 19.22 0 0 0 1.385 1.896l.737.844.418.438.223.216.275.242c.12.1.293.107.405-.01a.3.3 0 0 0 .08-.209.288.288 0 0 0-.09-.196l-.388-.398-.385-.399-.631-.74a19.905 19.905 0 0 1-2.624-4.218l.037.08a14.135 14.135 0 0 1-1.049-3.291 12.67 12.67 0 0 1-.097-3.208c.163-1.611.595-3.188 1.169-4.695-.006.013-.01.03-.016.043a30.919 30.919 0 0 1 1.733-3.696 42.54 42.54 0 0 1 2.075-3.38c.03-.043.004-.106-.039-.133a.078.078 0 0 0-.047-.013c-.03 0-.063.02-.083.05z" class="F"/><path d="M162.293 106.648a10.26 10.26 0 0 0-1.757.149 8.96 8.96 0 0 0-1.033.249 8.243 8.243 0 0 0-.986.359 5.423 5.423 0 0 0-1.086.651c-.432.322-.714.654-.867 1.009a1.002 1.002 0 0 0-.049.608c.039.173.142.345.295.498l-.03.033a2.32 2.32 0 0 0-.362.794c-.063.245-.119.7.196.983.206.182.488.269.893.269h.07a5.28 5.28 0 0 0 .933-.117c-.033.034-.063.077-.093.12a2.28 2.28 0 0 0-.202.408.89.89 0 0 0-.063.352.62.62 0 0 0 .083.299.61.61 0 0 0 .232.219c.206.117.452.133.641.14h.07c.322 0 .654-.05.943-.093l.232-.037.754-.099h-.003l1.384-.057a15.52 15.52 0 0 1 2.713.236c1.113.206 2.182.548 3.162 1.013l.8.405 1.182.584c.784.356 1.498.545 2.182.575.139 0 .249-.106.255-.236s-.102-.252-.235-.259a4.225 4.225 0 0 1-.555-.06l-.226-.049c.113-.147.213-.309.296-.475.119-.239.219-.505.295-.797a5.514 5.514 0 0 0 .147-1.793 6.51 6.51 0 0 0-.386-1.78 5.353 5.353 0 0 0-.405-.86.228.228 0 0 0 .116-.136c.02-.064.014-.133-.016-.193s-.08-.09-.143-.12l-.408-.182a.204.204 0 0 0-.137-.06c-2.683-1.192-5.714-2.55-8.832-2.55z" class="B"/><path d="M161.466 111.237a10.84 10.84 0 0 0-1.481.265 11.07 11.07 0 0 0-1.328.422c-.04.017-.057.07-.04.106.02.044.066.054.106.037l.355-.13a9.407 9.407 0 0 1 2.295-.421 8.98 8.98 0 0 1 2.351.153c-.013-.004-.03-.007-.047-.01l.479.122a.17.17 0 0 0 .129-.006.162.162 0 0 0 .086-.097c.03-.086-.016-.189-.103-.215a6.16 6.16 0 0 0-1.906-.276l-.896.05zm-2.384.704zm2.527-3.251c-.554.013-1.109.08-1.654.179-.537.097-1.069.223-1.587.395a6.684 6.684 0 0 0-1.365.611c-.036.024-.056.067-.036.107s.07.063.106.04c.345-.21.717-.366 1.099-.495s.791-.219 1.199-.292c.415-.073.834-.117 1.255-.143l1.242-.02.591.02.302.02.289.016c.09.01.173-.066.18-.156a.17.17 0 0 0-.04-.123.18.18 0 0 0-.12-.059c-.01-.004-.02-.004-.03-.004a5.803 5.803 0 0 0-1.169-.103l-.262.007zm-3.44.84zm42.238-37.135a.267.267 0 0 0-.233.143c-1.152.535-2.228 1.388-3.194 2.534-.913 1.086-1.687 2.397-2.301 3.895a15.903 15.903 0 0 0-1.106 4.33 12.186 12.186 0 0 0-.05 2.049c.056.863.236 1.78.531 2.726.256.817.605 1.68 1.099 2.713l1.242 2.404.024.043.076.143 2.809 5.575.88 1.986.986 2.484.811 2.364c-1.375-.398-2.893-.627-4.636-.697l-1.179-.023c-1.375 0-2.829.086-4.572.275l-3.025.429-3.059.607-.68.146-5.436 1.03-3.766.495-.435.056-2.308.292-.259.033-1.713.216a.248.248 0 0 0-.18.117c-.079.063-.133.189-.069.298.209.372.385.787.524 1.229a9.41 9.41 0 0 1 .362 2.268l.007.043a12.62 12.62 0 0 1-.312 3.102l-.16.577a.261.261 0 0 0 .007.196.23.23 0 0 0 .046.067c.004.01.01.02.017.03.037.056.09.083.156.103 1.401.435 2.872.654 4.254.823l.564.067.283.033.445.053.863.1 2.255.249 9.035.644 4.536.096h1.285l.698.003.959.01.96.01.91.004c2.208 0 4.576-.063 6.927-.532 1.368-.272 2.517-.637 3.52-1.112a11.04 11.04 0 0 0 1.434-.817c.409-.272.827-.601 1.279-1.003 1.524-1.358 2.759-3.221 3.579-5.379.382-1.006.671-2.076.854-3.175.176-1.066.252-2.238.225-3.586-.046-2.547-.498-5.287-1.341-8.142-.724-2.444-1.74-4.971-3.108-7.721l-.96-1.863-.358-.697-.143-.276-.113-.236a.128.128 0 0 0-.03-.043l-.299-.571a.26.26 0 0 0-.036-.05 29.459 29.459 0 0 0-1.804-2.876l-1.736-2.334-1.787-2.235c-.966-1.176-2.145-2.52-3.546-3.547a.273.273 0 0 0-.17-.066.35.35 0 0 0-.076.013c-.046-.033-.1-.063-.153-.096a.24.24 0 0 0-.109-.027z" class="D"/><path d="M193.776 104.791c-2.252.127-4.476.532-6.681.99l-3.321.701-1.657.328-1.69.299-4.845.774-2.431.329-1.182.142-.611.07-.601.067c-.086.01-.149.103-.156.182-.007.103.08.209.189.209a7.76 7.76 0 0 0 .794-.046l.9-.086 1.743-.2 3.474-.484 3.456-.558 3.321-.651 8.597-1.548a32.054 32.054 0 0 1 4.065-.026c1.335.07 2.666.212 3.978.458h-.007c.883.169 1.76.379 2.62.651s1.707.598 2.521.99c.049.023.112-.017.129-.064.02-.059-.017-.106-.066-.129-.973-.465-1.97-.87-2.992-1.205a24.052 24.052 0 0 0-3.095-.794 26.333 26.333 0 0 0-4.845-.438c-.531-.007-1.073.01-1.607.039zm-.671.515-.03.003c.01-.003.02-.003.03-.003zm8.029.438c.01 0 .02.004.027.007-.01-.003-.02-.007-.027-.007z" class="F"/><path d="M213.654 10a10.21 10.21 0 0 0-2.013.209c-.943.189-1.899.525-2.842.99a12.71 12.71 0 0 0-2.517 1.654 11.5 11.5 0 0 0-1.989 2.152c-1.156 1.624-1.714 3.44-1.578 5.124.073.927.356 1.823.834 2.666a7.812 7.812 0 0 0 1.195 1.574.198.198 0 0 0-.089.083c-.03.05-.05.13-.027.189l.096.246.884 2.361.558 1.614.285.834c.525 1.518 1.119 3.135 1.896 4.669a20.47 20.47 0 0 0 1.345 2.265l.84 1.132.917 1.066a11.422 11.422 0 0 0 1.932 1.627 9.73 9.73 0 0 0 2.122 1.056 9.26 9.26 0 0 0 2.252.485l.777.033c.494 0 1.016-.04 1.55-.123.764-.116 1.548-.335 2.328-.651s1.534-.707 2.228-1.165c1.681-1.116 2.972-3.005 3.637-5.326.308-1.076.474-2.225.491-3.417a12.99 12.99 0 0 0-.405-3.427 10.557 10.557 0 0 0-1.318-3.065 8.167 8.167 0 0 0-2.262-2.348 7.47 7.47 0 0 0-2.098-.986l-.103-1.076-.422-3.248c-.186-.9-.465-1.727-.827-2.461-.305-.614-.724-1.215-1.268-1.833a8.71 8.71 0 0 0-2.561-2.002 8.19 8.19 0 0 0-1.421-.565 8.63 8.63 0 0 0-1.474-.286 9.189 9.189 0 0 0-.953-.05z" class="C"/><path d="M203.159 23.801h-.08a.265.265 0 0 0-.179.056c-.05.043-.083.106-.09.169s.02.143.07.199c.043.047.1.073.156.073h.063l1.056.033.03.408c.013.409-.013.794-.046 1.292l-.113 1.152c-.09.734-.226 1.494-.412 2.331-.79 3.44-2.242 6.744-3.643 9.942l-.661 1.514c-1.281 2.952-2.699 6.396-3.29 9.959-.256 1.541-.316 2.866-.176 4.058l-.117 1.046a24.224 24.224 0 0 0-.126 2.736c-.007.01-.016.02-.023.033a.253.253 0 0 0-.023.189.22.22 0 0 0 .116.146c1.683.707 3.404 1.079 5.107 1.106h.173c.827 0 1.643-.093 2.434-.279a8.824 8.824 0 0 0 2.118-.79c.801-.359 1.481-.817 2.023-1.368 1.461-1.478 1.882-3.533 2.291-5.522l.02-.103.206-.966-.02.033a24.86 24.86 0 0 1 .76-2.547c.269-.75.595-1.544 1.056-2.573l.761-1.657c.511-1.102 1.039-2.238 1.491-3.384.76-1.933 1.178-3.656 1.281-5.267.117-1.846-.182-3.686-.86-5.316a10.165 10.165 0 0 0-2.746-3.765c-1.132-.983-2.504-1.743-4.081-2.255a14.766 14.766 0 0 0-4.526-.684z" fill="#2867cc"/><path d="M171.976 33.879c-4.004-.76-7.976 2.401-8.863 7.06s1.647 9.059 5.652 9.819 7.976-2.401 8.863-7.06-1.647-9.059-5.652-9.819z" class="F"/><path d="M173.976 33.079c-3.603-.442-7.044 3.38-7.675 8.531s1.78 9.69 5.387 10.135 7.043-3.38 7.674-8.531-1.784-9.69-5.386-10.135z" class="C"/><path d="M184.35 22.968c-1.289 0-2.524.11-3.663.329-1.448.276-2.766.727-3.922 1.348a10.586 10.586 0 0 0-3.211 2.6c-.289.349-.568.734-.827 1.146-.013-.003-.026-.007-.046-.007a.263.263 0 0 0-.216.123c-.983 1.511-1.776 3.287-2.421 5.429-.557 1.846-.959 3.849-1.228 6.117l-.249 2.995-.017 2.836c.11 1.913.521 3.795 1.219 5.592a16.69 16.69 0 0 0 2.929 4.911 14.37 14.37 0 0 0 2.082 1.962 15.185 15.185 0 0 0 2.497 1.547c2.723 1.371 5.901 2.095 9.188 2.095a22.4 22.4 0 0 0 2.623-.153 22.027 22.027 0 0 0 5.871-1.508 20.59 20.59 0 0 0 2.683-1.345 20.647 20.647 0 0 0 2.428-1.71 18.805 18.805 0 0 0 3.726-4.137c.969-1.454 1.779-3.102 2.48-5.034l.863-2.756c.289-1.009.575-2.099.688-3.234a.205.205 0 0 0 .04-.106 9.891 9.891 0 0 0-.004-2.407 12.085 12.085 0 0 0-.564-2.427c-.508-1.527-1.328-3.085-2.434-4.636a22.412 22.412 0 0 0-3.567-3.908c-1.281-1.112-2.613-1.999-3.951-2.633a31.113 31.113 0 0 0-3.679-1.448 34.527 34.527 0 0 0-4.231-1.086 28.06 28.06 0 0 0-4.42-.488c-.219 0-.441-.007-.667-.007z" class="B"/><path d="M186.551 17.246a30.28 30.28 0 0 0-3.596.216c-3.065.369-5.821 1.209-8.202 2.497a16.45 16.45 0 0 0-3.384 2.407 15 15 0 0 0-1.418 1.524 12.11 12.11 0 0 0-1.122 1.62 12.653 12.653 0 0 0-.887 1.906c-.285.774-.458 1.511-.514 2.198-.067.777.046 1.445.338 1.989a2.31 2.31 0 0 0 .628.737c.276.209.608.339.867.428.365.126.75.203 1.076.259l1.122.136 2.035.086.369.003.79-.027a5.05 5.05 0 0 0 1.066-.176c.346-.096.661-.246.94-.442a2.79 2.79 0 0 0 .721-.764c.189-.292.318-.624.431-.92l.326-.956.069-.226.535-1.484a4.74 4.74 0 0 1 .594-.946 4.71 4.71 0 0 1 .695-.657 9.99 9.99 0 0 0-.402 1.531 6.82 6.82 0 0 0-.083 1.876 5.21 5.21 0 0 0 .152.827 4.59 4.59 0 0 0 1.139 1.979c.333.349.731.664 1.222.97.429.266.907.501 1.511.744 1.229.495 2.541.79 3.547.99l1.919.342 2.288.342c1.923.259 3.63.382 5.217.382l.611-.007c1.793-.04 3.457-.256 4.951-.644a10.18 10.18 0 0 0-.312 1.069 15.103 15.103 0 0 0-.316 1.813c-.159 1.391-.106 2.67.156 3.802.17.737.442 1.378.801 1.906a3.778 3.778 0 0 0 1.544 1.322.24.24 0 0 0 .063.023.247.247 0 0 0 .182.083.197.197 0 0 0 .077-.017c.332-.136.637-.299.916-.485.259-.169.518-.382.767-.631.425-.418.801-.956 1.126-1.597a9.887 9.887 0 0 0 .701-1.913 17.28 17.28 0 0 0 .398-2.026l.226-1.976.023-.239.077-.847.059-1.488a17.83 17.83 0 0 0-.933-5.788l-.541-1.395a11.61 11.61 0 0 0-.627-1.239 10.292 10.292 0 0 0-1.485-1.923c-.558-.575-1.185-1.089-1.723-1.511l-.737-.571-1.153-.903-.86-.734a.23.23 0 0 0-.159-.06.305.305 0 0 0-.093.017 30.013 30.013 0 0 0-2.53-1.205l-2.096-.814a26.491 26.491 0 0 0-3.998-.993 31.342 31.342 0 0 0-5.104-.425z" class="C"/><path d="M196.321 18.624h-.076l-.253.047a.156.156 0 0 0-.016.06c0 .017 0 .033.003.05l.216.13.126.063.036.02c1 .518 2.009 1.229 2.972 2.095a17.265 17.265 0 0 1 1.707 1.78c.495.598.986 1.272 1.458 1.999a25.81 25.81 0 0 1 2.849 6.153l-.01-.043c.764 2.457 1.179 4.662 1.269 6.734l.003 1.235a.225.225 0 0 0-.053.123c-.027.169-.03.319-.01.465l.023.166c-.04.551-.103 1.046-.196 1.514-.02.11.037.239.1.312.07.083.173.133.282.146h.037a.424.424 0 0 0 .421-.385l.05-.375a2.36 2.36 0 0 0 .452.335 2.58 2.58 0 0 0 .747.285c.256.06.525.09.794.09.275 0 .557-.03.833-.093a3.287 3.287 0 0 0 1.215-.561l-.093 1.006-.039.369-.02.186-.027.259-.036.352a.368.368 0 0 0 .079.276.42.42 0 0 0 .279.156h.033c.097 0 .19-.033.259-.096l.07-.076a.433.433 0 0 0 .07-.179c.106-.398.189-.84.259-1.388l.133-1.381c.059-.9.059-1.823.003-2.823-.1-1.727-.462-3.5-1.096-5.419a22.52 22.52 0 0 0-1.026-2.54 23.6 23.6 0 0 0-1.315-2.427 24.408 24.408 0 0 0-1.524-2.208 17.33 17.33 0 0 0-1.534-1.704 19.545 19.545 0 0 0-4.002-3.082c-1.547-.896-3.045-1.438-4.453-1.61l-.753-.017-.246.003z" class="E"/><path d="M207.648 38.335c-3.806 0-7.163 3.145-7.987 7.475-.923 4.848 1.721 9.441 5.891 10.234a6.86 6.86 0 0 0 1.249.116c3.805 0 7.163-3.141 7.986-7.475.923-4.848-1.72-9.441-5.891-10.234a6.884 6.884 0 0 0-1.248-.116z" class="C"/><path d="M209.965 38.837c-3.743-.711-7.525 2.627-8.445 7.452s1.375 9.321 5.117 10.032 7.525-2.627 8.445-7.452-1.375-9.321-5.117-10.032z" class="F"/><defs><linearGradient id="D" x1="120" y1="0" x2="120" y2="240" gradientUnits="userSpaceOnUse"><stop stop-color="#69a0ff"/><stop offset="1" stop-color="#d6e5ff"/></linearGradient><path id="E" d="M41.926 154.644c0 5.1 3.693 9.234 8.248 9.234s8.248-4.135 8.248-9.234-3.693-9.234-8.248-9.234-8.248 4.134-8.248 9.234z"/></defs></svg>