<svg xmlns="http://www.w3.org/2000/svg" viewBox="0 0 22 22">
  <g fill="none" fill-rule="evenodd">
    <path fill="#FFF" d="M0 0h22v22H0z" opacity=".01"/>
    <path fill="#7A7B7C" fill-rule="nonzero" d="M16 12.5a3.5 3.5 0 110 7 3.5 3.5 0 010-7zm-2.086 2.122a2.5 2.5 0 003.464 3.464zM16 13.5c-.51 0-.983.152-1.378.414l3.464 3.464A2.5 2.5 0 0016 13.5z"/>
    <path fill="#7A7B7C" fill-rule="nonzero" d="M15 2.5A2.5 2.5 0 0117.5 5l.001 6.756a4.474 4.474 0 00-1-.228L16.5 5A1.5 1.5 0 0015 3.5H5A1.5 1.5 0 003.5 5v8A1.5 1.5 0 005 14.5h1a.5.5 0 01.5.5v1.792l2.146-2.146a.5.5 0 01.275-.14L9 14.5h2.756c-.113.318-.19.653-.229 1H9.206l-2.852 2.854a.5.5 0 01-.847-.268L5.5 18v-2.5H5a2.5 2.5 0 01-2.495-2.336L2.5 13V5A2.5 2.5 0 015 2.5z"/>
  </g>
</svg>
