<svg xmlns="http://www.w3.org/2000/svg" fill="none" viewBox="0 0 40 40"><g filter="url(#a)"><rect width="40" height="40" fill="#5DB4F9" rx="8"/></g><path fill="#fff" d="M17.438 7c-.9 0-1.625.726-1.625 1.625s.726 1.625 1.624 1.625h.813v1.747c-5.063.782-8.938 5.16-8.938 10.44C9.313 28.273 14.04 33 19.876 33c5.835 0 10.563-4.728 10.563-10.563 0-2.122-.625-4.098-1.702-5.748l1.224-1.224a1.628 1.628 0 0 0-2.3-2.3l-1.097 1.097a10.52 10.52 0 0 0-5.063-2.265V10.25h.813A1.625 1.625 0 1 0 22.313 7h-4.876Zm3.656 9.75v6.5c0 .675-.544 1.219-1.219 1.219a1.216 1.216 0 0 1-1.219-1.219v-6.5c0-.675.544-1.219 1.219-1.219s1.219.544 1.219 1.219Z"/><defs><filter id="a" width="50.873" height="50.873" x="-5.437" y="-5.437" color-interpolation-filters="sRGB" filterUnits="userSpaceOnUse"><feFlood flood-opacity="0" result="BackgroundImageFix"/><feGaussianBlur in="BackgroundImageFix" stdDeviation="2.718"/><feComposite in2="SourceAlpha" operator="in" result="effect1_backgroundBlur_4583_851"/><feBlend in="SourceGraphic" in2="effect1_backgroundBlur_4583_851" result="shape"/></filter></defs></svg>