<svg xmlns="http://www.w3.org/2000/svg" fill="none" viewBox="0 0 40 40"><g filter="url(#a)"><rect width="40" height="40" fill="#9BC23B" rx="8"/></g><g clip-path="url(#b)"><path fill="#fff" d="M12.2 12.925a.975.975 0 1 1 0 1.95.975.975 0 0 1 0-1.95Zm1.3 3.953A3.25 3.25 0 1 0 8.95 13.9c0 1.333.8 2.478 1.95 2.978V19.1H8.3c-.72 0-1.3.581-1.3 1.3 0 .72.58 1.3 1.3 1.3h10.4v2.223a3.25 3.25 0 1 0 4.55 2.978c0-1.333-.8-2.479-1.95-2.978V21.7h10.4c.72 0 1.3-.58 1.3-1.3 0-.719-.58-1.3-1.3-1.3h-2.6v-2.222a3.25 3.25 0 1 0-4.55-2.978c0 1.333.8 2.478 1.95 2.978V19.1h-13v-2.222ZM26.825 13.9a.975.975 0 1 1 1.95 0 .975.975 0 0 1-1.95 0ZM20 25.925a.975.975 0 1 1 0 1.95.975.975 0 0 1 0-1.95Z"/></g><defs><clipPath id="b"><path fill="#fff" d="M7 10h26v20.8H7z"/></clipPath><filter id="a" width="50.873" height="50.873" x="-5.437" y="-5.437" color-interpolation-filters="sRGB" filterUnits="userSpaceOnUse"><feFlood flood-opacity="0" result="BackgroundImageFix"/><feGaussianBlur in="BackgroundImageFix" stdDeviation="2.718"/><feComposite in2="SourceAlpha" operator="in" result="effect1_backgroundBlur_4583_858"/><feBlend in="SourceGraphic" in2="effect1_backgroundBlur_4583_858" result="shape"/></filter></defs></svg>