<svg xmlns="http://www.w3.org/2000/svg" fill="none" viewBox="0 0 40 40"><g filter="url(#a)"><rect width="40" height="40" fill="#58C0C1" rx="8"/></g><g clip-path="url(#b)"><path fill="#fff" d="M20 32a12 12 0 1 0 0-24 12 12 0 0 0 0 24Zm-4.04-16.252A2.63 2.63 0 0 1 18.433 14h2.733a2.958 2.958 0 0 1 2.958 2.958c0 1.06-.567 2.039-1.486 2.569l-1.514.867c-.01.61-.51 1.106-1.125 1.106a1.122 1.122 0 0 1-1.125-1.125v-.633c0-.403.216-.773.567-.975l2.077-1.19a.709.709 0 0 0-.352-1.322h-2.733a.37.37 0 0 0-.351.248l-.019.056a1.125 1.125 0 0 1-1.434.685 1.129 1.129 0 0 1-.685-1.435l.02-.056-.006-.005ZM18.5 24.5a1.5 1.5 0 1 1 3 0 1.5 1.5 0 0 1-3 0Z"/></g><defs><clipPath id="b"><path fill="#fff" d="M8 8h24v24H8z"/></clipPath><filter id="a" width="50.873" height="50.873" x="-5.437" y="-5.437" color-interpolation-filters="sRGB" filterUnits="userSpaceOnUse"><feFlood flood-opacity="0" result="BackgroundImageFix"/><feGaussianBlur in="BackgroundImageFix" stdDeviation="2.718"/><feComposite in2="SourceAlpha" operator="in" result="effect1_backgroundBlur_4583_811"/><feBlend in="SourceGraphic" in2="effect1_backgroundBlur_4583_811" result="shape"/></filter></defs></svg>