<svg xmlns="http://www.w3.org/2000/svg" fill="none" viewBox="0 0 40 40"><g filter="url(#a)"><rect width="40" height="40" fill="#436CF6" rx="8"/></g><g clip-path="url(#b)"><mask id="c" width="24" height="24" x="8" y="8" maskUnits="userSpaceOnUse" style="mask-type:alpha"><path fill="#fff" fill-rule="evenodd" d="M25.019 31.836c.378.148.809.138 1.19-.045l4.942-2.378A1.5 1.5 0 0 0 32 28.06V11.939a1.5 1.5 0 0 0-.85-1.351L26.21 8.21a1.494 1.494 0 0 0-1.705.29l-9.46 8.63-4.12-3.128a.999.999 0 0 0-1.276.057l-1.322 1.202a1 1 0 0 0 0 1.48L11.898 20l-3.573 3.26a1 1 0 0 0 .001 1.478l1.322 1.202a.999.999 0 0 0 1.276.057l4.12-3.128 9.46 8.63c.15.15.325.263.514.336Zm.985-17.284L18.826 20l7.178 5.448V14.552Z" clip-rule="evenodd"/></mask><g mask="url(#c)"><path fill="#fff" d="m31.152 10.591-4.945-2.38A1.495 1.495 0 0 0 24.5 8.5L8.313 23.26a1 1 0 0 0 0 1.479l1.323 1.202a1 1 0 0 0 1.277.057l19.494-14.79a.993.993 0 0 1 1.594.792v-.057a1.5 1.5 0 0 0-.85-1.352Z"/><g filter="url(#d)"><path fill="#fff" d="m31.152 29.41-4.945 2.38a1.495 1.495 0 0 1-1.706-.29L8.313 16.74a1 1 0 0 1 0-1.478l1.323-1.203a1 1 0 0 1 1.277-.056l19.494 14.789A.993.993 0 0 0 32.002 28v.058a1.5 1.5 0 0 1-.85 1.351Z"/></g><g filter="url(#e)"><path fill="#fff" d="M26.206 31.79a1.496 1.496 0 0 1-1.706-.29c.553.554 1.5.162 1.5-.621V9.12c0-.782-.947-1.174-1.5-.62a1.496 1.496 0 0 1 1.706-.291l4.944 2.377c.52.25.85.776.85 1.352V28.06a1.5 1.5 0 0 1-.85 1.352l-4.944 2.378Z"/></g></g></g><defs><filter id="a" width="50.873" height="50.873" x="-5.437" y="-5.437" color-interpolation-filters="sRGB" filterUnits="userSpaceOnUse"><feFlood flood-opacity="0" result="BackgroundImageFix"/><feGaussianBlur in="BackgroundImageFix" stdDeviation="2.718"/><feComposite in2="SourceAlpha" operator="in" result="effect1_backgroundBlur_4583_804"/><feBlend in="SourceGraphic" in2="effect1_backgroundBlur_4583_804" result="shape"/></filter><filter id="d" width="40.68" height="34.806" x="-.347" y="5.466" color-interpolation-filters="sRGB" filterUnits="userSpaceOnUse"><feFlood flood-opacity="0" result="BackgroundImageFix"/><feColorMatrix in="SourceAlpha" result="hardAlpha" values="0 0 0 0 0 0 0 0 0 0 0 0 0 0 0 0 0 0 127 0"/><feOffset/><feGaussianBlur stdDeviation="4.167"/><feColorMatrix values="0 0 0 0 0 0 0 0 0 0 0 0 0 0 0 0 0 0 0.25 0"/><feBlend in2="BackgroundImageFix" mode="overlay" result="effect1_dropShadow_4583_804"/><feBlend in="SourceGraphic" in2="effect1_dropShadow_4583_804" result="shape"/></filter><filter id="e" width="24.167" height="40.543" x="16.167" y="-.271" color-interpolation-filters="sRGB" filterUnits="userSpaceOnUse"><feFlood flood-opacity="0" result="BackgroundImageFix"/><feColorMatrix in="SourceAlpha" result="hardAlpha" values="0 0 0 0 0 0 0 0 0 0 0 0 0 0 0 0 0 0 127 0"/><feOffset/><feGaussianBlur stdDeviation="4.167"/><feColorMatrix values="0 0 0 0 0 0 0 0 0 0 0 0 0 0 0 0 0 0 0.25 0"/><feBlend in2="BackgroundImageFix" mode="overlay" result="effect1_dropShadow_4583_804"/><feBlend in="SourceGraphic" in2="effect1_dropShadow_4583_804" result="shape"/></filter><clipPath id="b"><path fill="#fff" d="M8 8h24v24H8z"/></clipPath></defs></svg>