<svg xmlns="http://www.w3.org/2000/svg" fill="none" viewBox="0 0 40 40"><g filter="url(#a)"><rect width="40" height="40" fill="#3746F5" rx="8"/></g><path fill="#fff" d="M31.9 17.6c.4-.4.6-.9.6-1.5s-.2-1.1-.6-1.5c-.3-.4-.8-.6-1.3-.6l-.6-.9c-1.8-2.1-4.5-3.4-7.7-3.5H21c-.1-.1-.1-.2-.2-.2l-.3-.3c-.2-.1-.4-.1-.5-.2-.1-.1-.3-.1-.4-.1-.3-.1-.6-.1-.8 0-.1 0-.3.1-.4.1-.2.1-.3.1-.4.2l-.3.3-.3.3c-.1.1-.1.2-.2.4 0 .1-.1.2-.1.3-2.9 1-5.5 2.9-7.2 5.3h-.6c-.1 0-.2.1-.3.1-.2.1-.3.1-.4.2l-.3.3c-.4.4-.6 1-.6 1.5v.4c0 .1.1.3.1.4.1.2.1.3.2.4l.2.2c-.1.4-.2.9-.3 1.3-.4 2.7.3 5.2 2.1 7.1.3.4.7.7 1.1 1v.2c0 .6.2 1.1.6 1.5.4.4 1 .6 1.5.6s1-.2 1.4-.5c1 .3 2.2.5 3.3.5h.5c2.3-.1 4.6-.8 6.6-1.9.3.2.7.3 1.1.3.6 0 1.1-.2 1.5-.6.4-.4.6-1 .6-1.5 0-.2 0-.3-.1-.5 1.9-1.9 3.3-4.2 3.7-6.7.2-.8.2-1.6.1-2.4Zm-2.2 2.1c-.3 2-1.4 4-3 5.5-.7-.2-1.6 0-2.1.5l-.3.3c-.1.1-.1.2-.2.4 0 .1-.1.3-.1.4v.4c-1.7.9-3.6 1.5-5.6 1.6-1.1 0-2.1-.1-3.1-.3-.1-.4-.3-.8-.6-1l-.3-.3c-.1-.2-.3-.2-.4-.3-.1-.1-.3-.1-.4-.1-.4-.1-.9 0-1.3.2-.3-.2-.5-.5-.8-.7C10.2 24.9 9.7 23 10 21c0-.3.1-.7.2-1 .4-.1.8-.3 1.1-.6l.3-.3c.1-.1.1-.2.2-.4.1-.1.1-.3.1-.4v-.4c0-.3-.1-.6-.2-.9 1.4-2 3.6-3.5 6-4.4.5.2 1 .4 1.5.4.6 0 1.1-.2 1.5-.6l.3-.3c0-.1.1-.2.1-.3h1.1c2.5.1 4.7 1.1 6.1 2.7.1.1.2.3.3.4-.2.4-.4.8-.4 1.2 0 .6.2 1.1.6 1.5.2.2.5.4.9.5.1.5.1 1 0 1.6Z"/><defs><filter id="a" width="50.873" height="50.873" x="-5.437" y="-5.437" color-interpolation-filters="sRGB" filterUnits="userSpaceOnUse"><feFlood flood-opacity="0" result="BackgroundImageFix"/><feGaussianBlur in="BackgroundImageFix" stdDeviation="2.718"/><feComposite in2="SourceAlpha" operator="in" result="effect1_backgroundBlur_4583_830"/><feBlend in="SourceGraphic" in2="effect1_backgroundBlur_4583_830" result="shape"/></filter></defs></svg>