<svg width="40" height="40" fill="none" xmlns="http://www.w3.org/2000/svg"><g filter="url(#a)"><rect width="40" height="40" rx="8" fill="#fff"/><rect x=".5" y=".5" width="39" height="39" rx="7.5" stroke="#E5E8F0"/></g><path opacity=".01" fill="#fff" fill-opacity=".01" d="M8 8h24v24H8z"/><path fill-rule="evenodd" clip-rule="evenodd" d="M12.625 20a7.375 7.375 0 1 1 14.75 0 7.375 7.375 0 0 1-14.75 0ZM20 11.375a8.625 8.625 0 1 0 0 17.25 8.625 8.625 0 0 0 0-17.25ZM19.375 14v6c0 .166.066.325.183.442l4 4 .884-.884-3.817-3.817V14h-1.25Z" fill="#5D6066"/><defs><filter id="a" x="-5.437" y="-5.437" width="50.873" height="50.873" filterUnits="userSpaceOnUse" color-interpolation-filters="sRGB"><feFlood flood-opacity="0" result="BackgroundImageFix"/><feGaussianBlur in="BackgroundImageFix" stdDeviation="2.718"/><feComposite in2="SourceAlpha" operator="in" result="effect1_backgroundBlur_3826_188"/><feBlend in="SourceGraphic" in2="effect1_backgroundBlur_3826_188" result="shape"/></filter></defs></svg>