<svg xmlns="http://www.w3.org/2000/svg" fill="none" viewBox="0 0 40 40"><g filter="url(#a)"><rect width="40" height="40" fill="#F2AC3C" rx="8"/></g><g clip-path="url(#b)"><path fill="#fff" d="M21.055 18.106 9.08 30.078a1.125 1.125 0 0 0 1.59 1.59l2.67-2.673h3.188c2.33 0 4.589-.675 6.516-1.922.52-.337.257-1.078-.366-1.078a.43.43 0 0 1-.127-.843l3.797-1.14a.77.77 0 0 0 .314-.187l1.05-1.05a.75.75 0 0 0-.53-1.28h-1.509a.43.43 0 0 1-.126-.843l5.25-1.575a.711.711 0 0 0 .436-.361A7.023 7.023 0 0 0 32 15.5a7.245 7.245 0 0 0-2.123-5.123l-.258-.258a7.241 7.241 0 0 0-10.242.004l-4.861 4.861A12 12 0 0 0 11 23.47v2.592l8.888-8.883a.753.753 0 0 1 1.06 0 .747.747 0 0 1 .102.928h.005Z"/></g><defs><clipPath id="b"><path fill="#fff" d="M8 8h24v24H8z"/></clipPath><filter id="a" width="50.873" height="50.873" x="-5.437" y="-5.437" color-interpolation-filters="sRGB" filterUnits="userSpaceOnUse"><feFlood flood-opacity="0" result="BackgroundImageFix"/><feGaussianBlur in="BackgroundImageFix" stdDeviation="2.718"/><feComposite in2="SourceAlpha" operator="in" result="effect1_backgroundBlur_4583_819"/><feBlend in="SourceGraphic" in2="effect1_backgroundBlur_4583_819" result="shape"/></filter></defs></svg>