<svg xmlns="http://www.w3.org/2000/svg" fill="none" viewBox="0 0 40 40"><rect width="40" height="40" fill="#00C35A" rx="12"/><path fill="#fff" d="M15 16.375h-1v1.25h1v-1.25ZM12.375 18v8h1.25v-8h-1.25ZM14 27.625h12v-1.25H14v1.25ZM27.625 26v-8h-1.25v8h1.25ZM26 16.375h-1v1.25h1v-1.25ZM27.625 18c0-.897-.727-1.625-1.625-1.625v1.25c.207 0 .375.168.375.375h1.25ZM26 27.625c.898 0 1.625-.727 1.625-1.625h-1.25a.375.375 0 0 1-.375.375v1.25ZM12.375 26c0 .898.728 1.625 1.625 1.625v-1.25a.375.375 0 0 1-.375-.375h-1.25ZM14 16.375c-.897 0-1.625.728-1.625 1.625h1.25c0-.207.168-.375.375-.375v-1.25Z"/><path stroke="#fff" stroke-linejoin="round" stroke-width="1.25" d="M20 13v9m-3-3 3 3 3-3"/></svg>