<svg width="40" height="40" fill="none" xmlns="http://www.w3.org/2000/svg"><g filter="url(#a)"><rect width="40" height="40" rx="8" fill="#fff"/><rect x=".5" y=".5" width="39" height="39" rx="7.5" stroke="#E5E8F0"/></g><path fill="#fff" fill-opacity=".01" d="M8 8h24v24H8z"/><path fill-rule="evenodd" clip-rule="evenodd" d="M27 12.375a2.625 2.625 0 1 0 0 5.25 2.625 2.625 0 0 0 0-5.25ZM25.625 15a1.375 1.375 0 1 1 2.75 0 1.375 1.375 0 0 1-2.75 0ZM13 18.375a2.625 2.625 0 1 0 0 5.25 2.625 2.625 0 0 0 0-5.25ZM11.625 21a1.375 1.375 0 1 1 2.75 0 1.375 1.375 0 0 1-2.75 0Zm12.75 4a2.625 2.625 0 1 1 5.25 0 2.625 2.625 0 0 1-5.25 0ZM27 23.625a1.375 1.375 0 1 0 0 2.75 1.375 1.375 0 0 0 0-2.75ZM20.625 17c0-.76.616-1.375 1.375-1.375h2v-1.25h-2A2.625 2.625 0 0 0 19.375 17v4.491l-.933-.933a.624.624 0 0 0-.442-.183h-2v1.25h1.741l1.817 1.817 2 2a.624.624 0 0 0 .442.183h2v-1.25h-1.741l-1.634-1.634V17Z" fill="#5D6066"/><defs><filter id="a" x="-5.437" y="-5.437" width="50.873" height="50.873" filterUnits="userSpaceOnUse" color-interpolation-filters="sRGB"><feFlood flood-opacity="0" result="BackgroundImageFix"/><feGaussianBlur in="BackgroundImageFix" stdDeviation="2.718"/><feComposite in2="SourceAlpha" operator="in" result="effect1_backgroundBlur_3826_211"/><feBlend in="SourceGraphic" in2="effect1_backgroundBlur_3826_211" result="shape"/></filter></defs></svg>