<svg width="40" height="40" fill="none" xmlns="http://www.w3.org/2000/svg"><g filter="url(#a)"><rect width="40" height="40" rx="8" fill="#fff"/><rect x=".5" y=".5" width="39" height="39" rx="7.5" stroke="#E5E8F0"/></g><path fill="#fff" fill-opacity=".01" d="M32 8H8v24h24z"/><path fill-rule="evenodd" clip-rule="evenodd" d="m15.442 22.558 3 3-.884.884-3-3-3-3a.625.625 0 0 1 0-.884l3-3 3-3 .884.884-3 3L12.884 20l2.558 2.558Zm9.116 0-3 3 .884.884 3-3 3-3a.625.625 0 0 0 0-.884l-3-3-3-3-.884.884 3 3L27.116 20l-2.558 2.558Z" fill="#5D6066"/><defs><filter id="a" x="-5.437" y="-5.437" width="50.873" height="50.873" filterUnits="userSpaceOnUse" color-interpolation-filters="sRGB"><feFlood flood-opacity="0" result="BackgroundImageFix"/><feGaussianBlur in="BackgroundImageFix" stdDeviation="2.718"/><feComposite in2="SourceAlpha" operator="in" result="effect1_backgroundBlur_3826_187"/><feBlend in="SourceGraphic" in2="effect1_backgroundBlur_3826_187" result="shape"/></filter></defs></svg>