<svg xmlns="http://www.w3.org/2000/svg" fill="none" viewBox="0 0 40 40"><rect width="40" height="40" fill="#336CFF" rx="12"/><path stroke="#fff" stroke-linejoin="round" stroke-width="1.25" d="M16 22h3m-3 2h7"/><path fill="#fff" d="M26.375 20v5h1.25v-5h-1.25ZM25 26.375H15v1.25h10v-1.25ZM13.625 25V15h-1.25v10h1.25ZM15 13.625h5v-1.25h-5v1.25ZM13.625 15c0-.76.616-1.375 1.375-1.375v-1.25A2.625 2.625 0 0 0 12.375 15h1.25ZM15 26.375c-.76 0-1.375-.616-1.375-1.375h-1.25A2.625 2.625 0 0 0 15 27.625v-1.25ZM26.375 25c0 .76-.616 1.375-1.375 1.375v1.25A2.625 2.625 0 0 0 27.625 25h-1.25Z"/><path stroke="#fff" stroke-linejoin="round" stroke-width="1.25" d="m27 13-7 7"/></svg>