<svg xmlns="http://www.w3.org/2000/svg" fill="none" viewBox="0 0 40 40"><g filter="url(#a)"><rect width="40" height="40" fill="#F2883C" rx="8"/></g><g clip-path="url(#b)"><path fill="#fff" d="M14 8c-1.655 0-3 1.345-3 3v18c0 1.655 1.345 3 3 3h12c1.655 0 3-1.345 3-3V15.5h-6c-.83 0-1.5-.67-1.5-1.5V8H14Zm9 0v6h6l-6-6Zm-1.875 10.875v4.786l1.453-1.453a1.125 1.125 0 0 1 1.59 1.59l-3.376 3.374a1.12 1.12 0 0 1-1.589 0l-3.375-3.375a1.125 1.125 0 0 1 1.59-1.59l1.452 1.454v-4.786c0-.623.502-1.125 1.125-1.125.624 0 1.125.502 1.125 1.125h.005Z"/></g><defs><clipPath id="b"><path fill="#fff" d="M11 8h18v24H11z"/></clipPath><filter id="a" width="50.873" height="50.873" x="-5.437" y="-5.437" color-interpolation-filters="sRGB" filterUnits="userSpaceOnUse"><feFlood flood-opacity="0" result="BackgroundImageFix"/><feGaussianBlur in="BackgroundImageFix" stdDeviation="2.718"/><feComposite in2="SourceAlpha" operator="in" result="effect1_backgroundBlur_4583_843"/><feBlend in="SourceGraphic" in2="effect1_backgroundBlur_4583_843" result="shape"/></filter></defs></svg>