<svg xmlns="http://www.w3.org/2000/svg" fill="none" viewBox="0 0 40 40"><g filter="url(#a)"><rect width="40" height="40" fill="#F23C93" rx="8"/></g><path fill="#fff" d="M8 12.5c0-1.655 1.345-3 3-3h18c1.655 0 3 1.345 3 3v15c0 1.655-1.345 3-3 3H11c-1.655 0-3-1.345-3-3v-15Zm15.178 4.992a1.122 1.122 0 0 0-1.856 0l-4.078 5.981-1.242-1.551a1.123 1.123 0 0 0-1.753 0l-3 3.75a1.125 1.125 0 0 0 .877 1.828h15.748c.417 0 .802-.23.994-.6.192-.37.169-.816-.066-1.158l-5.625-8.25ZM13.25 17a2.25 2.25 0 1 0 0-4.5 2.25 2.25 0 0 0 0 4.5Z"/><defs><filter id="a" width="50.873" height="50.873" x="-5.437" y="-5.437" color-interpolation-filters="sRGB" filterUnits="userSpaceOnUse"><feFlood flood-opacity="0" result="BackgroundImageFix"/><feGaussianBlur in="BackgroundImageFix" stdDeviation="2.718"/><feComposite in2="SourceAlpha" operator="in" result="effect1_backgroundBlur_4583_867"/><feBlend in="SourceGraphic" in2="effect1_backgroundBlur_4583_867" result="shape"/></filter></defs></svg>