<svg width="40" height="40" fill="none" xmlns="http://www.w3.org/2000/svg"><g filter="url(#a)"><rect width="40" height="40" rx="8" fill="#fff"/><rect x=".5" y=".5" width="39" height="39" rx="7.5" stroke="#E5E8F0"/></g><path fill-rule="evenodd" clip-rule="evenodd" d="M21.312 11.036a2.625 2.625 0 0 0-2.625 0l-5.794 3.346a2.625 2.625 0 0 0-1.313 2.273v6.69c0 .938.5 1.805 1.313 2.274l5.794 3.345a2.625 2.625 0 0 0 2.625 0l5.794-3.345a2.625 2.625 0 0 0 1.313-2.273v-6.691c0-.938-.5-1.805-1.313-2.273l-5.794-3.346Zm-2 1.083c.425-.246.95-.246 1.375 0l5.794 3.345c.425.246.688.7.688 1.19v6.692c0 .49-.262.945-.688 1.19l-5.794 3.346c-.426.245-.95.245-1.375 0l-5.794-3.346a1.375 1.375 0 0 1-.688-1.19v-6.691c0-.491.262-.945.688-1.19l5.794-3.346Zm-3.644 5.911 3.706 2.317V24.5h1.25v-4.153l3.707-2.317-.663-1.06L20 19.263l-3.668-2.293-.663 1.06Z" fill="#5D6066"/><defs><filter id="a" x="-5.437" y="-5.437" width="50.873" height="50.873" filterUnits="userSpaceOnUse" color-interpolation-filters="sRGB"><feFlood flood-opacity="0" result="BackgroundImageFix"/><feGaussianBlur in="BackgroundImageFix" stdDeviation="2.718"/><feComposite in2="SourceAlpha" operator="in" result="effect1_backgroundBlur_3826_193"/><feBlend in="SourceGraphic" in2="effect1_backgroundBlur_3826_193" result="shape"/></filter></defs></svg>