<svg width="40" height="40" fill="none" xmlns="http://www.w3.org/2000/svg"><g filter="url(#a)"><rect width="40" height="40" rx="8" fill="#fff"/><rect x=".5" y=".5" width="39" height="39" rx="7.5" stroke="#E5E8F0"/></g><path fill-rule="evenodd" clip-rule="evenodd" d="M25 11.625A3.375 3.375 0 0 1 28.375 15v6.297A3.375 3.375 0 0 1 25 24.672h-1.945a2.62 2.62 0 0 0-1.818.732l-2.22 2.13v-2.237a.625.625 0 0 0-.624-.625H15a3.375 3.375 0 0 1-3.375-3.375V15A3.375 3.375 0 0 1 15 11.625h10ZM29.625 15A4.625 4.625 0 0 0 25 10.375H15A4.625 4.625 0 0 0 10.375 15v6.297A4.625 4.625 0 0 0 15 25.922h2.768V29a.625.625 0 0 0 1.058.45l3.276-3.145c.256-.246.598-.383.953-.383H25a4.625 4.625 0 0 0 4.625-4.625V15Zm-10.125.625a.875.875 0 0 0-.875.875v.5h-1.25v-.5c0-1.174.951-2.125 2.125-2.125h1a2.125 2.125 0 0 1 .125 4.246V19h-1.25v-1c0-.345.28-.625.625-.625h.5a.875.875 0 0 0 0-1.75h-1ZM20 22a1 1 0 1 0 0-2 1 1 0 0 0 0 2Z" fill="#5D6066"/><defs><filter id="a" x="-5.437" y="-5.437" width="50.873" height="50.873" filterUnits="userSpaceOnUse" color-interpolation-filters="sRGB"><feFlood flood-opacity="0" result="BackgroundImageFix"/><feGaussianBlur in="BackgroundImageFix" stdDeviation="2.718"/><feComposite in2="SourceAlpha" operator="in" result="effect1_backgroundBlur_3826_245"/><feBlend in="SourceGraphic" in2="effect1_backgroundBlur_3826_245" result="shape"/></filter></defs></svg>