<svg width="40" height="40" fill="none" xmlns="http://www.w3.org/2000/svg"><g filter="url(#a)"><rect width="40" height="40" rx="8" fill="#fff"/><rect x=".5" y=".5" width="39" height="39" rx="7.5" stroke="#E5E8F0"/></g><path opacity=".01" fill="#fff" fill-opacity=".01" d="M8 8h24v24H8z"/><path fill-rule="evenodd" clip-rule="evenodd" d="M13.625 15c0-.76.616-1.375 1.375-1.375h5v-1.25h-5A2.625 2.625 0 0 0 12.375 15v10A2.625 2.625 0 0 0 15 27.625h10A2.625 2.625 0 0 0 27.625 25v-5h-1.25v5c0 .76-.616 1.375-1.375 1.375H15c-.76 0-1.375-.616-1.375-1.375V15Zm12.933-2.442-7 7 .884.884 7-7-.884-.884Z" fill="#5D6066"/><defs><filter id="a" x="-5.437" y="-5.437" width="50.873" height="50.873" filterUnits="userSpaceOnUse" color-interpolation-filters="sRGB"><feFlood flood-opacity="0" result="BackgroundImageFix"/><feGaussianBlur in="BackgroundImageFix" stdDeviation="2.718"/><feComposite in2="SourceAlpha" operator="in" result="effect1_backgroundBlur_3826_217"/><feBlend in="SourceGraphic" in2="effect1_backgroundBlur_3826_217" result="shape"/></filter></defs></svg>