<svg width="40" height="40" fill="none" xmlns="http://www.w3.org/2000/svg"><g filter="url(#a)"><rect width="40" height="40" rx="8" fill="#fff"/><rect x=".5" y=".5" width="39" height="39" rx="7.5" stroke="#E5E8F0"/></g><path opacity=".01" fill="#fff" fill-opacity=".01" d="M8 8h24v24H8z"/><path fill-rule="evenodd" clip-rule="evenodd" d="m23.558 18.558-2.933 2.933V13h-1.25v8.491l-2.933-2.933-.884.884 4 4c.244.244.64.244.884 0l4-4-.884-.884ZM11.375 25v2c0 .345.28.625.625.625h16c.345 0 .625-.28.625-.625v-2h-1.25v1.375h-14.75V25h-1.25Z" fill="#5D6066"/><defs><filter id="a" x="-5.437" y="-5.437" width="50.873" height="50.873" filterUnits="userSpaceOnUse" color-interpolation-filters="sRGB"><feFlood flood-opacity="0" result="BackgroundImageFix"/><feGaussianBlur in="BackgroundImageFix" stdDeviation="2.718"/><feComposite in2="SourceAlpha" operator="in" result="effect1_backgroundBlur_3826_263"/><feBlend in="SourceGraphic" in2="effect1_backgroundBlur_3826_263" result="shape"/></filter></defs></svg>