<svg width="40" height="40" fill="none" xmlns="http://www.w3.org/2000/svg"><g filter="url(#a)"><rect width="40" height="40" rx="8" fill="#fff"/><rect x=".5" y=".5" width="39" height="39" rx="7.5" stroke="#E5E8F0"/></g><path opacity=".01" fill="#5D6066" d="M8 8h24v24H8z"/><path fill-rule="evenodd" clip-rule="evenodd" d="M13 13.625c-.76 0-1.375.616-1.375 1.375v10c0 .76.616 1.375 1.375 1.375h14c.76 0 1.375-.616 1.375-1.375V15c0-.76-.616-1.375-1.375-1.375H13ZM10.375 15A2.625 2.625 0 0 1 13 12.375h14A2.625 2.625 0 0 1 29.625 15v10A2.625 2.625 0 0 1 27 27.625H13A2.625 2.625 0 0 1 10.375 25V15Zm7.597 3.856a1.375 1.375 0 0 0-1.944 0l-3.086 3.086-.884-.884 3.086-3.086a2.625 2.625 0 0 1 3.712 0L22 21.116l1.144-1.144a2.625 2.625 0 0 1 3.712 0l1.086 1.086-.884.884-1.086-1.086a1.375 1.375 0 0 0-1.944 0l-1.586 1.586a.625.625 0 0 1-.884 0l-3.586-3.586ZM24.334 18a1 1 0 1 0 0-2 1 1 0 0 0 0 2Z" fill="#5D6066"/><defs><filter id="a" x="-5.437" y="-5.437" width="50.873" height="50.873" filterUnits="userSpaceOnUse" color-interpolation-filters="sRGB"><feFlood flood-opacity="0" result="BackgroundImageFix"/><feGaussianBlur in="BackgroundImageFix" stdDeviation="2.718"/><feComposite in2="SourceAlpha" operator="in" result="effect1_backgroundBlur_3826_230"/><feBlend in="SourceGraphic" in2="effect1_backgroundBlur_3826_230" result="shape"/></filter></defs></svg>