<svg xmlns="http://www.w3.org/2000/svg" fill="none" viewBox="0 0 40 40"><g filter="url(#a)"><rect width="40" height="40" fill="#59C168" rx="8"/></g><g clip-path="url(#b)"><path fill="#fff" d="M18.026 10.5a3.15 3.15 0 0 0-4.453 0L7.5 16.573a3.15 3.15 0 0 0 0 4.453l6.073 6.073a3.15 3.15 0 0 0 4.453 0l6.073-6.073a3.15 3.15 0 0 0 0-4.453L18.026 10.5Zm-3.277 8.3a1.05 1.05 0 1 1 2.1 0 1.05 1.05 0 0 1-2.1 0Zm-4.55-1.05a1.05 1.05 0 1 1 0 2.1 1.05 1.05 0 0 1 0-2.1Zm5.6 7.7a1.05 1.05 0 1 1 0-2.1 1.05 1.05 0 0 1 0 2.1Zm5.6-7.7a1.05 1.05 0 1 1 0 2.1 1.05 1.05 0 0 1 0-2.1Zm-5.6-3.5a1.05 1.05 0 1 1 0-2.1 1.05 1.05 0 0 1 0 2.1ZM20 28.6c0 1.544 1.256 2.8 2.8 2.8h8.4c1.545 0 2.8-1.256 2.8-2.8v-8.4c0-1.545-1.255-2.8-2.8-2.8h-5a4.549 4.549 0 0 1-1.111 4.615L20 27.103V28.6Zm7-5.25a1.05 1.05 0 1 1 0 2.1 1.05 1.05 0 0 1 0-2.1Z"/></g><defs><clipPath id="b"><path fill="#fff" d="M6 9h28v22.4H6z"/></clipPath><filter id="a" width="50.873" height="50.873" x="-5.437" y="-5.437" color-interpolation-filters="sRGB" filterUnits="userSpaceOnUse"><feFlood flood-opacity="0" result="BackgroundImageFix"/><feGaussianBlur in="BackgroundImageFix" stdDeviation="2.718"/><feComposite in2="SourceAlpha" operator="in" result="effect1_backgroundBlur_4583_837"/><feBlend in="SourceGraphic" in2="effect1_backgroundBlur_4583_837" result="shape"/></filter></defs></svg>