<svg xmlns="http://www.w3.org/2000/svg" xmlns:xlink="http://www.w3.org/1999/xlink" width="200" height="200"><defs><linearGradient x1=".338" y1=".21" x2=".071" y2="1" id="a"><stop stop-color="#3381FF" offset="0%"/><stop stop-color="#A9CAFF" offset="100%"/></linearGradient><linearGradient xlink:href="#a" id="c" x1="177.631" y1="85.458" x2="160.557" y2="136" gradientUnits="userSpaceOnUse"/><linearGradient xlink:href="#a" id="b" x1="177.631" y1="85.458" x2="160.557" y2="136" gradientUnits="userSpaceOnUse"/></defs><g style="fill:url(#b)" fill="none" fill-rule="evenodd"><path d="M173.455 118.545v8.728a8.727 8.727 0 1 1-8.728-8.728zm23.272-23.272V104a8.727 8.727 0 0 1-8.727 8.727h-17.455a8.727 8.727 0 1 1 0-17.454zM220 72v8.727a8.727 8.727 0 0 1-8.727 8.728h-34.91a8.727 8.727 0 1 1 0-17.455z" style="fill:url(#c)" transform="translate(-270.125 -104.75) scale(1.96875)" fill="url(#a)"/></g></svg>