<svg width="24" height="24" fill="none" xmlns="http://www.w3.org/2000/svg"><path opacity=".01" fill="#fff" d="M0 0h24v24H0z"/><path d="M2 3a3 3 0 0 1 3-3h9l8 8v13a3 3 0 0 1-3 3H5a3 3 0 0 1-3-3V3Z" fill="url(#a)"/><path d="m14 0 8 8h-5a3 3 0 0 1-3-3V0Z" fill="url(#b)"/><path opacity=".01" d="M2 4h20v20H2V4Z" fill="#5D6066"/><path fill-rule="evenodd" clip-rule="evenodd" d="m12 10 4-1v2l-3 .75V17h-.05a2.5 2.5 0 1 1-.95-2.5V10Z" fill="#fff"/><defs><linearGradient id="a" x1="14" y1="-4" x2="14" y2="24" gradientUnits="userSpaceOnUse"><stop stop-color="#8CF79C"/><stop offset="1" stop-color="#03CF22"/></linearGradient><linearGradient id="b" x1="18.8" y1="-1.333" x2="18.8" y2="8" gradientUnits="userSpaceOnUse"><stop stop-color="#78FF8D"/><stop offset="1" stop-color="#03CA22"/></linearGradient></defs></svg>