<svg width="24" height="24" fill="none" xmlns="http://www.w3.org/2000/svg"><path opacity=".01" fill="#fff" d="M0 0h24v24H0z"/><path d="M2 3a3 3 0 0 1 3-3h9l8 8v13a3 3 0 0 1-3 3H5a3 3 0 0 1-3-3V3Z" fill="url(#a)"/><path d="M16.359 17.96a4.264 4.264 0 0 1-2.473-1.003c-1.37.3-2.673.735-3.976 1.27C8.874 20.064 7.905 21 7.07 21c-.168 0-.368-.033-.502-.134A.985.985 0 0 1 6 19.964c0-.3.067-1.136 3.241-2.506a23.785 23.785 0 0 0 1.771-4.144c-.4-.802-1.27-2.773-.668-3.776.2-.367.602-.568 1.036-.534.334 0 .668.167.869.434.434.601.4 1.871-.167 3.743a10.08 10.08 0 0 0 2.071 2.673c.702-.134 1.404-.234 2.106-.234 1.57.033 1.804.769 1.77 1.203 0 1.136-1.102 1.136-1.67 1.136Zm-9.357 2.07.1-.033c.469-.167.836-.5 1.103-.935a2.64 2.64 0 0 0-1.203.969Zm4.445-10.024h-.1c-.034 0-.1 0-.134.034-.134.568-.033 1.17.2 1.704.2-.568.2-1.17.034-1.738Zm.234 4.845-.034.067-.033-.033c-.3.768-.635 1.537-1.003 2.272l.067-.033v.067a19.445 19.445 0 0 1 2.273-.669l-.034-.033h.1c-.5-.501-.969-1.07-1.336-1.638Zm4.544 1.771c-.3 0-.568 0-.869.067a2.8 2.8 0 0 0 1.003.268c.234.033.468 0 .668-.067 0-.1-.133-.268-.802-.268Z" fill="#fff"/><path d="m14 0 8 8h-5a3 3 0 0 1-3-3V0Z" fill="url(#b)"/><defs><linearGradient id="a" x1="14" y1="-4" x2="14" y2="24" gradientUnits="userSpaceOnUse"><stop stop-color="#FF8989"/><stop offset="1" stop-color="#CE0000"/></linearGradient><linearGradient id="b" x1="18.8" y1="-1.333" x2="18.8" y2="8" gradientUnits="userSpaceOnUse"><stop stop-color="#FF8989"/><stop offset="1" stop-color="#CE0000"/></linearGradient></defs></svg>