<svg width="22" height="22" xmlns="http://www.w3.org/2000/svg"><g fill="none" fill-rule="evenodd"><path d="M7 4h5.2L17 8.667V16a2 2 0 0 1-2 2H7a2 2 0 0 1-2-2V6a2 2 0 0 1 2-2Z" stroke="#DB5B5B" stroke-linecap="round" stroke-linejoin="round"/><path d="M13.165 14.48a2.12 2.12 0 0 1-1.233-.502 11.91 11.91 0 0 0-1.982.635c-.517.92-1 1.387-1.417 1.387a.433.433 0 0 1-.25-.067.493.493 0 0 1-.283-.451c0-.15.033-.568 1.616-1.253.367-.668.65-1.353.883-2.072-.2-.4-.633-1.387-.333-1.888a.53.53 0 0 1 .517-.267c.166 0 .333.083.433.217.217.3.2.936-.083 1.871.266.502.616.953 1.033 1.337a5.6 5.6 0 0 1 1.05-.117c.783.017.9.384.883.601 0 .569-.55.569-.834.569ZM8.5 15.515l.05-.016c.233-.084.416-.25.55-.468-.25.1-.45.267-.6.484Zm2.216-5.012h-.05c-.017 0-.05 0-.067.017-.066.284-.016.585.1.852.1-.284.1-.585.017-.869Zm.117 2.423-.017.033-.017-.017a13.8 13.8 0 0 1-.5 1.137l.034-.017v.033c.366-.133.766-.25 1.133-.334l-.017-.017h.05a5.117 5.117 0 0 1-.666-.818Zm2.266.885c-.15 0-.283 0-.433.034.166.083.333.117.5.133.116.017.233 0 .333-.033 0-.05-.067-.134-.4-.134Z" fill="#DB5B5B" fill-rule="nonzero"/><path d="m12 4 5 5h-2.818A2.182 2.182 0 0 1 12 6.818V4Z" fill="#DB5B5B"/></g></svg>