<svg width="24" height="24" fill="none" xmlns="http://www.w3.org/2000/svg"><path opacity=".01" fill="#fff" d="M0 0h24v24H0z"/><path d="M2 3a3 3 0 0 1 3-3h9l8 8v13a3 3 0 0 1-3 3H5a3 3 0 0 1-3-3V3Z" fill="url(#a)"/><path d="m14 0 8 8h-5a3 3 0 0 1-3-3V0Z" fill="url(#b)"/><path fill-rule="evenodd" clip-rule="evenodd" d="M8 13a1 1 0 0 0-1 1v4a1 1 0 0 0 1 1h6a1 1 0 0 0 1-1v-1l2 1v-4l-2 1v-1a1 1 0 0 0-1-1H8Z" fill="#fff"/><defs><linearGradient id="a" x1="14" y1="-4" x2="14" y2="24" gradientUnits="userSpaceOnUse"><stop stop-color="#91CBFF"/><stop offset="1" stop-color="#0285F9"/></linearGradient><linearGradient id="b" x1="18.8" y1="-1.333" x2="18.8" y2="8" gradientUnits="userSpaceOnUse"><stop stop-color="#66B7FF"/><stop offset="1" stop-color="#0285F9"/></linearGradient></defs></svg>