<svg width="25" height="20" viewBox="0 0 25 20" fill="none" xmlns="http://www.w3.org/2000/svg">
<path d="M11.5 13C11.4996 12.2776 11.6416 11.5622 11.9178 10.8947C12.1941 10.2272 12.5992 9.62074 13.11 9.10993C13.6208 8.59913 14.2273 8.19402 14.8948 7.91777C15.5622 7.64152 16.2776 7.49955 17 7.49999H20C20.7354 7.4988 21.4635 7.64601 22.1406 7.9328C22.2593 7.9829 22.3755 8.03696 22.4894 8.09498C22.387 6.04554 21.5004 4.11394 20.0132 2.70013C18.526 1.28631 16.552 0.49857 14.5 0.500002H8.50004C6.96045 0.499992 5.45356 0.944235 4.1602 1.77942C2.86683 2.61461 1.84194 3.80526 1.20849 5.2085C0.575053 6.61174 0.359974 8.16796 0.589069 9.6904C0.818164 11.2128 1.4817 12.6369 2.50005 13.7915V19C2.50004 19.0989 2.52935 19.1955 2.58429 19.2778C2.63923 19.36 2.71733 19.4241 2.8087 19.462C2.90007 19.4998 3.00062 19.5097 3.09762 19.4904C3.19462 19.4711 3.28372 19.4235 3.35364 19.3535L6.46786 16.2393C7.13132 16.4127 7.81429 16.5003 8.50004 16.5H12.7569C11.9433 15.5152 11.4988 14.2774 11.5 13ZM6.50004 9.49998C6.30226 9.49998 6.10892 9.44133 5.94447 9.33145C5.78003 9.22157 5.65185 9.06539 5.57617 8.88267C5.50048 8.69994 5.48068 8.49887 5.51926 8.30489C5.55785 8.11091 5.65309 7.93273 5.79294 7.79288C5.93279 7.65303 6.11097 7.55779 6.30495 7.5192C6.49893 7.48061 6.7 7.50042 6.88273 7.57611C7.06545 7.65179 7.22163 7.77997 7.33151 7.94441C7.44139 8.10886 7.50004 8.3022 7.50004 8.49998C7.50004 8.7652 7.39468 9.01955 7.20715 9.20709C7.01961 9.39462 6.76526 9.49998 6.50004 9.49998ZM10.5 8.49998C10.5 8.3022 10.5587 8.10886 10.6686 7.94441C10.7784 7.77997 10.9346 7.65179 11.1173 7.57611C11.3001 7.50042 11.5011 7.48061 11.6951 7.5192C11.8891 7.55779 12.0673 7.65303 12.2071 7.79288C12.347 7.93273 12.4422 8.11091 12.4808 8.30489C12.5194 8.49887 12.4996 8.69994 12.4239 8.88267C12.3482 9.06539 12.22 9.22157 12.0556 9.33145C11.8912 9.44133 11.6978 9.49998 11.5 9.49998C11.2348 9.49998 10.9805 9.39462 10.7929 9.20709C10.6054 9.01955 10.5 8.7652 10.5 8.49998ZM24.5 13C24.5003 13.7401 24.318 14.4689 23.9691 15.1217C23.6202 15.7745 23.1156 16.331 22.5 16.742V19C22.5 19.0989 22.4707 19.1955 22.4158 19.2778C22.3608 19.36 22.2827 19.4241 22.1914 19.462C22.1 19.4998 21.9994 19.5097 21.9024 19.4904C21.8054 19.4711 21.7163 19.4235 21.6464 19.3535L19.793 17.5H17C16.4091 17.5 15.8239 17.3836 15.2779 17.1574C14.732 16.9313 14.2359 16.5998 13.818 16.1819C13.4002 15.7641 13.0687 15.268 12.8426 14.722C12.6164 14.1761 12.5 13.5909 12.5 13C12.5 12.409 12.6164 11.8239 12.8426 11.2779C13.0687 10.7319 13.4002 10.2359 13.818 9.818C14.2359 9.40014 14.732 9.06867 15.2779 8.84252C15.8239 8.61638 16.4091 8.49998 17 8.49998H20C21.1935 8.49998 22.3381 8.97409 23.182 9.818C24.0259 10.6619 24.5 11.8065 24.5 13Z" fill="white"/>
</svg>
