<svg width="22" height="20" viewBox="0 0 22 20" fill="none" xmlns="http://www.w3.org/2000/svg">
<path d="M13.2418 0L22 3.04127V19.3419H13.2418V1.54601L10.0318 3.34931V6.11715H8.75912V2.55954L9.07931 2.35887L13.2417 0H13.2418ZM4.85935 6.65892V19.3419H11.2812V7.39022L4.85935 5.16044L1.72362 6.73139L1.40262 6.93137V11.1448L0.16339 12.6488L0 12.848V19.5586H1.27272V13.3654L2.51214 11.8619L2.67625 11.6622V7.72174L4.85944 6.65892H4.85935ZM5.91326 7.07396C6.27596 7.17713 6.62937 7.27815 6.97303 7.37594V9.04233C6.62937 8.9685 6.27596 8.89232 5.91326 8.81409V7.07396ZM9.62969 12.6843C9.6306 13.1772 9.6306 13.6701 9.6306 14.1627H10.4028V12.7382L9.62978 12.6844L9.62969 12.6843ZM7.91636 12.5644V14.1627H8.81518V12.6272C8.52406 12.607 8.22454 12.5862 7.91627 12.5644H7.91636ZM5.91326 12.4242L6.97303 12.4985V14.1627H5.91326V12.4242ZM9.62969 10.4104V11.8895C9.89373 11.918 10.151 11.9457 10.4028 11.9725V10.5477L9.62978 10.4104H9.62969ZM7.91636 10.1059V11.7055C8.22454 11.7387 8.52406 11.7709 8.81518 11.8023V10.266C8.52406 10.2138 8.22454 10.1608 7.91627 10.1059H7.91636ZM5.91326 9.75055C6.27596 9.81509 6.62937 9.87768 6.97303 9.93861V11.604C6.62937 11.5672 6.27596 11.5289 5.91326 11.4903V9.75055ZM9.62969 8.13403V9.61403L10.4028 9.77999V8.35436C10.151 8.28287 9.89373 8.20904 9.62978 8.13403H9.62969ZM7.91636 7.64526V9.24516C8.22454 9.31156 8.52406 9.3762 8.81518 9.43879V7.90168C8.52406 7.81865 8.22454 7.73337 7.91627 7.64536L7.91636 7.64526ZM14.6785 2.6097V4.98334C15.173 5.08934 15.6549 5.19359 16.1239 5.29412V3.0218L14.6784 2.60961L14.6785 2.6097ZM19.7476 10.262C19.7485 10.9341 19.7485 11.607 19.7485 12.2775H20.8015V10.3351C20.4585 10.3112 20.1076 10.2867 19.7476 10.2619V10.262ZM17.4099 10.0983V12.2777H18.6366V10.184C18.2382 10.1558 17.8305 10.1276 17.4098 10.0983H17.4099ZM14.6784 9.90682V12.2777H16.1239V10.0083C15.6549 9.97557 15.173 9.94183 14.6784 9.90682ZM19.7476 7.16011V9.17778C20.1076 9.2165 20.4584 9.25445 20.8015 9.29083V7.3469C20.4585 7.28646 20.1068 7.22417 19.7476 7.16011ZM17.4099 6.74518V8.92655L18.6366 9.05837V6.96286C18.2382 6.89284 17.8305 6.81989 17.4098 6.74527L17.4099 6.74518ZM14.6784 6.26012V8.63287C15.173 8.68588 15.6549 8.7379 16.1239 8.78817V6.51693C15.6549 6.43341 15.173 6.34823 14.6784 6.26012ZM19.7476 4.05567V6.07432C20.1068 6.15167 20.4574 6.22687 20.8015 6.30071V4.35639C20.4575 4.25859 20.1068 4.15796 19.7476 4.05567ZM17.4099 3.38892V5.57127C17.8305 5.66153 18.2382 5.74974 18.6366 5.83492V3.73892C18.2382 3.62548 17.8305 3.50881 17.4098 3.38892H17.4099Z" fill="white"/>
</svg>
