<svg width="23" height="22" viewBox="0 0 23 22" fill="none" xmlns="http://www.w3.org/2000/svg">
<path fill-rule="evenodd" clip-rule="evenodd" d="M18.6098 17.2477C18.8381 17.42 19.0105 17.6576 19.1036 17.9232C19.1595 18.1328 19.2015 18.3471 19.2201 18.5707C19.2527 18.8223 19.2667 19.0692 19.2667 19.3301C19.2714 19.5723 19.2481 19.8145 19.2108 20.0521C19.1735 20.2804 19.1176 20.4481 19.0431 20.5599C18.9918 20.6345 18.8474 20.709 18.6052 20.7835C18.3629 20.8581 18.0601 20.928 17.7014 20.9885C16.8722 21.1329 16.0383 21.2401 15.1997 21.31C14.7572 21.3472 14.3332 21.3798 13.9233 21.4031C13.5133 21.4264 13.15 21.4404 12.8425 21.4404C12.535 21.4404 12.1763 21.4264 11.7757 21.4031C10.9278 21.3472 10.0799 21.2773 9.23674 21.1888C8.81746 21.1469 8.4308 21.0957 8.07675 21.0398C7.72269 20.9839 7.42454 20.928 7.1823 20.872C6.94471 20.8161 6.79097 20.7602 6.73041 20.709C6.63258 20.6205 6.54873 20.3596 6.48816 19.9217C6.4276 19.4838 6.44158 18.9154 6.54407 18.2306C6.60463 17.83 6.75836 17.5318 7.01459 17.3315C7.28479 17.1219 7.59225 16.9542 7.91835 16.8424C8.26775 16.7166 8.6218 16.6094 8.98517 16.5163C9.54421 16.3812 10.0613 16.0923 10.4713 15.6824C10.5784 15.5706 10.6669 15.4448 10.7321 15.305C10.7881 15.1839 10.816 15.0488 10.816 14.9137C10.816 14.7917 10.8089 14.659 10.8009 14.5095C10.7997 14.4878 10.7986 14.4657 10.7974 14.4432C10.7881 14.2196 10.6949 14.0099 10.5365 13.8515C10.3874 13.7071 10.229 13.5674 10.052 13.4276C9.95416 13.3344 9.87497 13.2273 9.81906 13.1062C9.74918 12.9711 9.69328 12.836 9.64204 12.6962C9.59079 12.5471 9.53955 12.3748 9.49296 12.1884C9.41376 12.1605 9.33923 12.1232 9.26935 12.0766C9.20879 12.03 9.14357 11.9508 9.07369 11.853C9.00381 11.7552 8.93859 11.6201 8.87803 11.443C8.81746 11.2707 8.78951 11.103 8.80349 10.9492C8.80815 10.8141 8.84076 10.6837 8.89666 10.5626C8.94325 10.4368 9.01313 10.325 9.10164 10.2225C9.09232 9.81254 9.11096 9.40724 9.1622 9.00194C9.2181 8.62925 9.29264 8.26123 9.39513 7.90251C9.50228 7.52051 9.66533 7.1618 9.88894 6.84035C10.0706 6.56084 10.2989 6.31393 10.5598 6.10895C11.0117 5.75956 11.5474 5.53595 12.1064 5.45209C12.3673 5.41482 12.6142 5.39619 12.8518 5.39619C13.4388 5.38221 14.0211 5.51731 14.5429 5.78751C15.0414 6.05305 15.4047 6.33722 15.6423 6.63537C15.9172 6.97079 16.1221 7.35746 16.2479 7.77207C16.3691 8.15408 16.4669 8.5454 16.5368 8.94138C16.5973 9.36531 16.6253 9.78924 16.6113 10.2178C16.6812 10.2737 16.7371 10.3436 16.779 10.4228C16.8209 10.516 16.8535 10.6138 16.8815 10.7116C16.9141 10.8607 16.9188 11.0098 16.8908 11.1542C16.8675 11.3778 16.8163 11.5595 16.7417 11.6993C16.6672 11.8344 16.5927 11.9415 16.5181 12.0161C16.4343 12.0999 16.3318 12.1558 16.22 12.1838C16.1687 12.3701 16.1175 12.5425 16.0709 12.6916C16.0243 12.8267 15.9591 12.9618 15.8846 13.1015C15.824 13.218 15.7448 13.3205 15.6423 13.3997L15.6423 13.3997C15.5538 13.4742 15.4653 13.5487 15.3721 13.6233C15.2929 13.6885 15.2184 13.7537 15.1578 13.8236C15.0181 13.982 14.9295 14.173 14.8969 14.378C14.8736 14.541 14.8643 14.7087 14.869 14.8718C14.8736 15.0441 14.9156 15.2119 14.9901 15.3702C15.0786 15.5519 15.1997 15.7103 15.3535 15.8408C15.5585 16.0131 15.796 16.1482 16.0476 16.2367C16.3271 16.3532 16.616 16.451 16.9141 16.5256C17.2262 16.6001 17.529 16.6979 17.8272 16.8144C18.1067 16.9216 18.3722 17.066 18.6098 17.2477ZM16.0476 0.5H21.8988C22.2342 0.504659 22.5044 0.779517 22.4998 1.11494V4.94896C22.5044 5.11201 22.4392 5.26575 22.3274 5.38221C22.2156 5.49868 22.0619 5.5639 21.8988 5.5639H18.6005L17.4638 6.72855C17.4079 6.78445 17.3287 6.81706 17.2495 6.81706C17.0865 6.81706 16.9514 6.6773 16.9514 6.50959V5.5639H16.0476C15.7168 5.5639 15.4466 5.28904 15.4466 4.94896V1.11494C15.442 0.951885 15.5072 0.798151 15.619 0.681686C15.7355 0.565221 15.8892 0.5 16.0476 0.5ZM16.6998 3.00167C16.6952 3.31379 16.9467 3.56536 17.2542 3.57002C17.5617 3.56536 17.8086 3.31379 17.8039 3.00167C17.8039 2.68954 17.557 2.43332 17.2542 2.43332C16.9467 2.43332 16.6998 2.68954 16.6998 3.00167ZM19.1595 3.57002C19.3086 3.57002 19.453 3.50945 19.5555 3.40231C19.658 3.29982 19.7186 3.1554 19.7139 3.00633C19.7139 2.6942 19.4624 2.44264 19.1549 2.44264C18.8661 2.45661 18.6285 2.68954 18.6192 2.98303C18.6145 3.13211 18.6657 3.27653 18.7682 3.38833C18.8707 3.50014 19.0105 3.56536 19.1595 3.57002ZM20.4407 3.00167C20.436 3.31379 20.6876 3.56536 20.995 3.57002C21.3025 3.56536 21.5448 3.30914 21.5448 3.00167C21.5448 2.68954 21.2978 2.43332 20.995 2.43332C20.6876 2.43332 20.4407 2.68954 20.4407 3.00167ZM8.84074 15.0395C8.50998 15.2398 8.16059 15.4029 7.79722 15.524C7.42453 15.6498 7.07048 15.7849 6.7304 15.9479C6.39964 16.0923 6.09683 16.2926 5.83595 16.5396C5.58438 16.7818 5.42599 17.1265 5.36543 17.5784C5.34214 17.7135 5.3235 17.8486 5.31884 17.9837C5.31557 18.0787 5.30769 18.1645 5.30006 18.2475C5.29684 18.2826 5.29366 18.3172 5.29089 18.3517C5.28418 18.3685 5.27506 18.3829 5.26526 18.3983C5.26145 18.4043 5.25753 18.4104 5.25362 18.417L5.21635 18.4822C4.73197 18.4449 4.23827 18.3984 3.74457 18.3518L3.74424 18.3517C3.24577 18.3052 2.78922 18.2446 2.37461 18.184C1.95534 18.1235 1.60594 18.0583 1.32177 17.9977C1.03759 17.9325 0.855906 17.8673 0.781368 17.8067C0.669562 17.7182 0.585707 17.4573 0.529804 17.0194C0.473901 16.5861 0.497194 16.0131 0.595024 15.3143C0.650927 14.9277 0.80932 14.6249 1.06554 14.4199C1.33574 14.2056 1.64321 14.0425 1.96931 13.9354C2.31871 13.8143 2.67742 13.7025 3.04079 13.6046C3.40882 13.5021 3.73492 13.367 4.01909 13.19C4.20544 13.0689 4.37781 12.9291 4.53154 12.7754C4.63869 12.6636 4.7272 12.5332 4.7831 12.3887C4.83435 12.2583 4.85764 12.1279 4.85764 11.9881C4.85764 11.8601 4.84982 11.7242 4.84135 11.577C4.84057 11.5635 4.83979 11.5499 4.83901 11.5362C4.82503 11.3173 4.73652 11.1076 4.58744 10.9446C4.44768 10.8002 4.28929 10.6511 4.11692 10.502C4.00512 10.4275 3.92126 10.325 3.86536 10.2039C3.79548 10.0641 3.73492 9.929 3.68833 9.78925C3.63709 9.64017 3.58584 9.4678 3.53926 9.28146C3.46472 9.25351 3.39018 9.21624 3.31565 9.16499C3.25508 9.11841 3.18986 9.03921 3.11998 8.94138C3.05476 8.83889 2.98489 8.70379 2.92432 8.52677C2.81252 8.23327 2.82183 7.91183 2.94296 7.62766C2.98489 7.50187 3.05476 7.38541 3.14794 7.28758C3.13862 6.87762 3.15725 6.47232 3.20384 6.06703C3.25974 5.70366 3.3436 5.34028 3.44609 4.98157C3.55323 4.60888 3.72094 4.25017 3.94922 3.93339C4.1309 3.65387 4.35917 3.40697 4.62005 3.20199C4.84832 3.0203 5.09989 2.87123 5.37009 2.75942C5.62631 2.65227 5.88253 2.58239 6.14341 2.54513C6.39498 2.5032 6.6512 2.48456 6.90742 2.48456C7.48509 2.47525 8.06276 2.61035 8.57986 2.87589C9.07367 3.14143 9.44636 3.42094 9.69327 3.71909C9.83302 3.89612 9.94017 4.09644 10.0007 4.31073C10.052 4.52037 10.1125 4.73001 10.1778 4.93965C9.94483 5.07474 9.69327 5.27972 9.42773 5.54992C9.1715 5.80149 8.93857 6.07634 8.72894 6.36518C8.47737 6.71457 8.29569 7.10589 8.1699 7.52983C8.05344 7.92115 7.96027 8.31247 7.89039 8.71311C7.82983 9.15102 7.79722 9.58893 7.79722 10.0268C7.69939 10.134 7.62485 10.2598 7.5736 10.3995C7.45248 10.7163 7.44782 11.0704 7.55497 11.3918C7.60156 11.5642 7.67143 11.7272 7.75995 11.881C7.82051 11.9741 7.89039 12.0626 7.96493 12.1418C8.02549 12.2071 8.10468 12.2583 8.18854 12.2909C8.19544 12.3179 8.20225 12.3446 8.209 12.371C8.25241 12.5412 8.29327 12.7014 8.33761 12.8546C8.38886 13.013 8.44942 13.1667 8.51464 13.3158C8.56589 13.4556 8.6544 13.572 8.76621 13.6652C8.82792 13.7172 8.87831 13.7646 8.92054 13.8044C8.93887 13.8216 8.95567 13.8374 8.97118 13.8515C9.01777 13.8981 9.05504 13.9447 9.09231 13.996C9.12408 14.05 9.1432 14.1105 9.14821 14.173C9.15753 14.2708 9.17616 14.3733 9.1948 14.4711C9.18082 14.5829 9.14821 14.6901 9.10163 14.7926C9.06436 14.8718 8.9805 14.951 8.84074 15.0395Z" fill="white"/>
</svg>
