<svg width="22" height="19" viewBox="0 0 22 19" fill="none" xmlns="http://www.w3.org/2000/svg">
<path fill-rule="evenodd" clip-rule="evenodd" d="M7.33337 0V1.83333C10.3584 1.83333 12.8334 4.30832 12.8334 7.33332C12.8334 7.97498 12.7417 8.61665 12.4667 9.16665H17.4167V11L20.1667 9.16665H22V0H7.33337ZM19.25 7.33332H15.5833V5.49999H19.25V7.33332ZM19.25 3.66666H13.75V1.83333H19.25V3.66666ZM3.66673 7.33331C3.66669 7.81485 3.76151 8.29168 3.94576 8.73657C4.13001 9.18146 4.40008 9.58571 4.74057 9.92622C5.08105 10.2667 5.48528 10.5368 5.93015 10.7211C6.37503 10.9054 6.85185 11.0003 7.33339 11.0003C7.81493 11.0003 8.29175 10.9054 8.73663 10.7211C9.18151 10.5368 9.58573 10.2667 9.92621 9.92622C10.2667 9.58571 10.5368 9.18146 10.721 8.73657C10.9053 8.29168 11.0001 7.81485 11 7.33331C11.0001 6.85178 10.9053 6.37495 10.721 5.93005C10.5368 5.48516 10.2667 5.08092 9.92621 4.74041C9.58573 4.39989 9.18151 4.12978 8.73663 3.9455C8.29175 3.76121 7.81493 3.66636 7.33339 3.66636C6.85185 3.66636 6.37503 3.76121 5.93015 3.9455C5.48528 4.12978 5.08105 4.39989 4.74057 4.74041C4.40008 5.08092 4.13001 5.48516 3.94576 5.93005C3.76151 6.37495 3.66669 6.85178 3.66673 7.33331ZM7.14123 12.8333C7.20507 12.8333 7.2691 12.8333 7.33332 12.8333C7.39753 12.8333 7.46157 12.8333 7.5254 12.8333C11.4709 12.8318 14.6666 12.8307 14.6666 18.3333H0C0 12.8307 3.19575 12.8318 7.14123 12.8333Z" fill="white"/>
</svg>
