<svg width="17" height="25" viewBox="0 0 17 25" fill="none" xmlns="http://www.w3.org/2000/svg">
<path d="M16.9243 6.68238L16.7889 5.98861C16.6669 5.36569 16.3911 4.77713 15.7626 4.55213C15.5606 4.48025 15.3319 4.45004 15.1781 4.30108C15.0223 4.15212 14.9772 3.91983 14.9413 3.70524C14.8746 3.31148 14.8131 2.91772 14.7444 2.52501C14.686 2.18646 14.6398 1.80624 14.4881 1.49686C14.2882 1.08019 13.876 0.836433 13.4669 0.676014C13.2569 0.596251 13.0426 0.528778 12.825 0.473927C11.7997 0.199963 10.7231 0.0989195 9.67004 0.040585C8.40556 -0.0300477 7.13773 -0.00846419 5.8763 0.10517C4.93811 0.19163 3.94866 0.29684 3.05662 0.626013C2.73056 0.746848 2.39425 0.892685 2.14612 1.1479C1.8416 1.46249 1.74317 1.95 1.96464 2.34167C2.12254 2.6198 2.39015 2.81668 2.67417 2.94585C3.04329 3.1146 3.42984 3.24169 3.82562 3.32711C4.92786 3.57503 6.07008 3.6719 7.1959 3.71253C8.44476 3.76461 9.69465 3.72295 10.9384 3.58961C11.245 3.55524 11.5515 3.51357 11.8571 3.46565C12.218 3.4094 12.4497 2.93126 12.3431 2.59688C12.216 2.19792 11.8745 2.04375 11.488 2.10417C11.0102 2.18125 10.5036 2.21667 10.0709 2.25625C8.86413 2.33959 7.6532 2.34167 6.44536 2.2625C6.04903 2.23586 5.65346 2.19869 5.25904 2.15104C5.17086 2.14062 5.07448 2.125 4.99451 2.11354C4.74535 2.07604 4.49824 2.03021 4.25216 1.97812C4.13835 1.95 4.13835 1.78541 4.25216 1.75728H4.25729C4.54131 1.69478 4.8284 1.64478 5.11652 1.60416H5.11857C5.25289 1.59478 5.38824 1.57082 5.52255 1.55416C6.68931 1.43113 7.86299 1.38936 9.03536 1.42915C9.72643 1.44895 10.4165 1.49895 11.1035 1.57916L11.3372 1.61145C11.611 1.65312 11.8837 1.70312 12.1555 1.76249C12.5574 1.85104 13.0731 1.8802 13.2526 2.32709C13.309 2.4698 13.3346 2.62709 13.3664 2.77605L13.6935 4.32192C13.7004 4.35506 13.7005 4.3893 13.6939 4.42251C13.6872 4.45572 13.6739 4.48717 13.6548 4.51493C13.6356 4.54268 13.6111 4.56613 13.5826 4.58382C13.5542 4.60151 13.5225 4.61306 13.4894 4.61776H13.4863C13.4484 4.62401 13.4094 4.62817 13.3715 4.63338C11.7587 4.84243 10.1342 4.94508 8.50833 4.94068C6.89733 4.93899 5.28807 4.83322 3.69028 4.62401C3.54673 4.6063 3.38986 4.58025 3.26271 4.5615C2.92845 4.5115 2.59727 4.449 2.26506 4.39379C1.8621 4.32608 1.4776 4.36046 1.11361 4.5615C0.816262 4.72817 0.573257 4.98235 0.421507 5.29173C0.263605 5.6209 0.217465 5.97924 0.147742 6.33341C0.0769941 6.68759 -0.0327168 7.06989 0.00932195 7.43343C0.0985262 8.21782 0.637853 8.85534 1.41403 8.99805C5.25234 9.69396 9.16917 9.82586 13.0444 9.38972C13.118 9.38121 13.1926 9.38959 13.2626 9.41425C13.3326 9.43891 13.3963 9.47921 13.4489 9.53219C13.5016 9.58517 13.5419 9.64948 13.5668 9.72038C13.5917 9.79127 13.6007 9.86694 13.593 9.94181L13.5202 10.6679L12.4764 20.9879C12.4343 21.4149 12.4282 21.8545 12.3482 22.2764C12.2231 22.94 11.7812 23.3473 11.1363 23.4962C10.5447 23.6327 9.94175 23.7046 9.33578 23.7098C8.66316 23.7139 7.99259 23.6837 7.31997 23.6869C6.60326 23.691 5.72455 23.6244 5.17189 23.0827C4.68485 22.6056 4.61821 21.8597 4.55156 21.2149L3.80204 13.9096L3.47188 10.6866C3.43395 10.321 3.17864 9.96265 2.7767 9.98036C2.43219 9.99598 2.04051 10.2929 2.08153 10.6877L2.3153 12.9637L3.28835 22.4556C3.43907 23.8556 4.49209 24.6098 5.79632 24.8223C6.55712 24.9473 7.3374 24.9723 8.1105 24.9848C9.10098 25.0015 10.1017 25.04 11.0758 24.8577C12.5195 24.589 13.6032 23.6098 13.7581 22.09C14.1067 18.6191 14.4584 15.1492 14.808 11.6783L15.0284 9.50431C15.0393 9.3965 15.0841 9.29512 15.1561 9.21519C15.2281 9.13526 15.3236 9.08103 15.4283 9.06055C15.8405 8.9793 16.2353 8.83971 16.5295 8.52095C16.9961 8.01261 17.0894 7.35114 16.9243 6.68238ZM15.4088 7.48656C15.2602 7.62927 15.0366 7.69594 14.8162 7.72927C12.339 8.10324 9.82692 8.29178 7.32305 8.20845C5.53076 8.14595 3.75795 7.94386 1.98412 7.68969C1.80981 7.66469 1.62218 7.6324 1.50221 7.50218C1.27664 7.25635 1.3884 6.76259 1.44684 6.46571C1.50016 6.19487 1.60269 5.83132 1.92157 5.79278C2.41784 5.7334 2.99408 5.94695 3.48624 6.02195C4.07786 6.11362 4.67153 6.18758 5.26725 6.24279C7.81008 6.47821 10.396 6.44071 12.9286 6.09695C13.39 6.03445 13.8503 5.96153 14.3076 5.8782C14.7167 5.80319 15.1689 5.66361 15.415 6.09278C15.5852 6.3855 15.6078 6.77717 15.5811 7.10739C15.573 7.25159 15.511 7.38722 15.4078 7.48656H15.4088ZM9.0938 11.5491C8.20996 11.9346 7.20718 12.37 5.90603 12.37C5.3622 12.3686 4.82105 12.2926 4.29728 12.1439L5.1965 21.5233C5.26314 22.3358 5.93166 22.9608 6.7345 22.9608C6.7345 22.9608 8.009 23.0285 8.43451 23.0285C8.89283 23.0285 10.2658 22.9608 10.2658 22.9608C11.0686 22.9608 11.7361 22.3358 11.8027 21.5233L12.7666 11.1585C12.3317 10.9988 11.8734 10.9149 11.4111 10.9106C10.5641 10.9106 9.88229 11.2064 9.0938 11.5491Z" fill="white"/>
</svg>
