<svg width="20" height="22" viewBox="0 0 20 22" fill="none" xmlns="http://www.w3.org/2000/svg">
<path d="M12.7316 21.9808L19.3462 20.5498C19.3462 20.5498 16.9592 4.40458 16.94 4.29733C16.9235 4.191 16.8355 4.12133 16.7466 4.12133C16.6577 4.12133 14.9783 3.99667 14.9783 3.99667C14.9783 3.99667 13.8096 2.82883 13.6593 2.70325C13.618 2.66933 13.5905 2.651 13.5483 2.63542L12.7105 21.9808H12.7316ZM9.40683 10.3629C9.40683 10.3629 8.66433 9.97425 7.78067 9.97425C6.45425 9.97425 6.402 10.8048 6.402 11.0202C6.402 12.1495 9.372 12.5922 9.372 15.2634C9.372 17.3672 8.052 18.7101 6.24983 18.7101C4.092 18.7101 3.00483 17.3672 3.00483 17.3672L3.597 15.455C3.597 15.455 4.73825 16.4322 5.687 16.4322C6.30575 16.4322 6.58075 15.9326 6.58075 15.5778C6.58075 14.0938 4.14792 14.025 4.14792 11.5821C4.11675 9.5315 5.588 7.53408 8.57267 7.53408C9.72492 7.53408 10.2914 7.865 10.2914 7.865L9.42517 10.3538L9.40683 10.3629ZM8.91183 0.760833C9.0365 0.760833 9.16025 0.795667 9.28308 0.884583C8.38108 1.31083 7.39108 2.387 6.98408 4.54392C6.38275 4.73917 5.79883 4.91517 5.2525 5.07375C5.72825 3.4375 6.87775 0.77 8.91183 0.77V0.760833ZM10.0439 3.46408V3.58783C9.35275 3.8005 8.59283 4.0315 7.84942 4.2625C8.27658 2.63358 9.07133 1.83792 9.76067 1.53908C9.93758 1.99833 10.0439 2.61708 10.0439 3.46408ZM10.538 1.41625C11.1742 1.48408 11.5839 2.211 11.8479 3.025C11.528 3.1295 11.1742 3.23675 10.7864 3.3605V3.1295C10.7864 2.44017 10.6984 1.87275 10.538 1.41442V1.41625ZM13.2807 2.59783C13.2623 2.59783 13.2257 2.61708 13.2092 2.61708C13.1927 2.61708 12.9442 2.68583 12.5547 2.80958C12.1669 1.67933 11.4767 0.637083 10.2557 0.637083H10.1502C9.79642 0.191583 9.36925 0 8.99892 0C6.15175 0 4.79142 3.55392 4.36517 5.35883C3.27067 5.69342 2.47408 5.94183 2.38517 5.97667C1.76642 6.17192 1.749 6.18933 1.6775 6.77417C1.60875 7.19767 0 19.6652 0 19.6652L12.4309 22L13.2807 2.59783Z" fill="white"/>
</svg>
