<svg width="23" height="16" viewBox="0 0 23 16" fill="none" xmlns="http://www.w3.org/2000/svg">
<path fill-rule="evenodd" clip-rule="evenodd" d="M5.42428 16C2.61265 16 0.333374 13.7207 0.333374 10.9091V5.09091C0.333374 2.27928 2.61265 0 5.42428 0H17.0606C19.8723 0 22.1516 2.27928 22.1516 5.09091V10.9091C22.1516 13.7207 19.8723 16 17.0606 16H5.42428ZM11.0308 8C11.0308 5.18837 13.016 2.90909 15.4649 2.90909H16.5207C17.2203 2.90909 17.7875 3.56031 17.7875 4.36364C17.7875 5.16696 17.2203 5.81818 16.5207 5.81818H15.4649C14.4154 5.81818 13.5646 6.79501 13.5646 8C13.5646 9.20498 14.4154 10.1818 15.4649 10.1818H16.5207C17.2203 10.1818 17.7875 10.833 17.7875 11.6364C17.7875 12.4397 17.2203 13.0909 16.5207 13.0909H15.4649C13.016 13.0909 11.0308 10.8116 11.0308 8ZM4.69701 8.00005C4.69701 5.18842 6.68223 2.90914 9.13111 2.90914H10.1869C10.8865 2.90914 11.4537 3.56036 11.4537 4.36369C11.4537 5.16701 10.8865 5.81823 10.1869 5.81823H9.13111C8.08159 5.81823 7.23078 6.79507 7.23078 8.00005C7.23078 9.20504 8.08159 10.1819 9.13111 10.1819H10.1869C10.8865 10.1819 11.4537 10.8331 11.4537 11.6364C11.4537 12.4397 10.8865 13.091 10.1869 13.091H9.13111C6.68223 13.091 4.69701 10.8117 4.69701 8.00005Z" fill="#5D6066"/>
</svg>
