<svg width="120" height="80" fill="none" xmlns="http://www.w3.org/2000/svg"><mask id="a" style="mask-type:alpha" maskUnits="userSpaceOnUse" x="0" y="0" width="60" height="80"><path d="M0 4a4 4 0 0 1 4-4h56v80H4a4 4 0 0 1-4-4V4Z" fill="#ECF0F7"/></mask><g mask="url(#a)"><path d="M0 4a4 4 0 0 1 4-4h56v80H4a4 4 0 0 1-4-4V4Z" fill="#ECF0F7"/><rect x="10.5" y="10.5" width="119" height="79" rx="3.5" fill="#ECF0F7" stroke="#D5D9E0"/><path d="M11 14a3 3 0 0 1 3-3h12v78H14a3 3 0 0 1-3-3V14Z" fill="#0A1933"/><rect x="34" y="34" width="88" height="48" rx="2" fill="#fff"/><rect x="34" y="18" width="24" height="12" rx="2" fill="#fff"/></g><mask id="b" style="mask-type:alpha" maskUnits="userSpaceOnUse" x="60" y="0" width="60" height="80"><path d="M120 4a4 4 0 0 0-4-4H60v80h56a4 4 0 0 0 4-4V4Z" fill="#ECF0F7"/></mask><g mask="url(#b)"><path d="M120 76a4 4 0 0 1-4 4H60V0h56a4 4 0 0 1 4 4v72Z" fill="#14181E"/><rect x="70.5" y="10.5" width="119" height="79" rx="3.5" fill="#03060D" stroke="#383B42"/><path d="M71 14a3 3 0 0 1 3-3h12v78H74a3 3 0 0 1-3-3V14Z" fill="#14181E"/><rect x="94" y="34" width="88" height="48" rx="2" fill="#272A30"/><rect x="94" y="18" width="24" height="12" rx="2" fill="#272A30"/></g><path d="M119.5 76a3.5 3.5 0 0 1-3.5 3.5H4A3.5 3.5 0 0 1 .5 76V4A3.5 3.5 0 0 1 4 .5h112a3.5 3.5 0 0 1 3.5 3.5v72Z" stroke="#5D6066"/></svg>