<svg width="120" height="80" fill="none" xmlns="http://www.w3.org/2000/svg"><rect width="120" height="80" rx="4" fill="#03060D"/><path d="M1 4a3 3 0 0 1 3-3h12v78H4a3 3 0 0 1-3-3V4Z" fill="#14181E"/><rect x="24" y="24" width="88" height="48" rx="2" fill="#272A30"/><rect x="24" y="8" width="24" height="12" rx="2" fill="#272A30"/><rect x="52" y="8" width="24" height="12" rx="2" fill="#272A30"/><rect x="80" y="8" width="24" height="12" rx="2" fill="#272A30"/><path d="M119.5 76a3.5 3.5 0 0 1-3.5 3.5H4A3.5 3.5 0 0 1 .5 76V4A3.5 3.5 0 0 1 4 .5h112a3.5 3.5 0 0 1 3.5 3.5v72Z" stroke="#5D6066"/></svg>