<svg width="72" height="72" xmlns="http://www.w3.org/2000/svg"><g fill="none" fill-rule="evenodd"><path fill="#FFF" d="M12 12h48v48H12z"/><rect stroke="#3381FF" stroke-width="3" stroke-linejoin="round" x="18" y="18" width="36" height="36" rx="4"/><path stroke="#3381FF" stroke-width="3" stroke-linecap="round" stroke-linejoin="round" d="M30 41h12m-6-6v12"/><path d="M50 18a4 4 0 0 1 4 4v8H18v-8a4 4 0 0 1 4-4Zm-25 4a2 2 0 1 0 0 4 2 2 0 0 0 0-4Zm7 0a2 2 0 1 0 0 4 2 2 0 0 0 0-4Z" fill="#3381FF"/></g></svg>