<?xml version="1.0" encoding="UTF-8"?>
<svg width="46px" height="44px" viewBox="0 0 23 22" version="1.1" xmlns="http://www.w3.org/2000/svg" xmlns:xlink="http://www.w3.org/1999/xlink">
    <title>编组 44</title>
    <g id="Flat-Web" stroke="none" stroke-width="1" fill="none" fill-rule="evenodd">
        <g id="中转" transform="translate(-240.000000, -24.000000)">
            <g id="编组-44" transform="translate(240.000000, 24.000000)">
                <g id="编组-4备份-4" transform="translate(0.000000, 1.000000)">
                    <path d="M2.72727273,14.5454545 L5.45454545,14.5454545 L5.45454545,14.5454545 L5.45454545,17.2727273 C5.45454545,18.7789584 4.23350386,20 2.72727273,20 C1.22104159,20 4.68162102e-14,18.7789584 4.70758393e-14,17.2727273 C4.68913792e-14,15.7664961 1.22104159,14.5454545 2.72727273,14.5454545 Z" id="矩形备份-2" fill="#D1E1FA"></path>
                    <path d="M4.54005401,7.27272727 L12.7272727,7.27272727 L12.7272727,7.27272727 L12.7272727,10.0054005 C12.7272727,11.508649 11.508649,12.7272727 10.0054005,12.7272727 L4.54005401,12.7272727 C3.03680551,12.7272727 1.81818182,11.508649 1.81818182,10.0054005 L1.81818182,9.99459946 C1.81818182,8.49135096 3.03680551,7.27272727 4.54005401,7.27272727 Z" id="矩形备份" fill="#83B1FD"></path>
                    <path d="M6.35823582,4.70758393e-14 L20,4.70758393e-14 L20,4.70758393e-14 L20,2.73267327 C20,4.23592177 18.7813763,5.45454545 17.2781278,5.45454545 L6.35823582,5.45454545 C4.85498732,5.45454545 3.63636364,4.23592177 3.63636364,2.73267327 L3.63636364,2.72187219 C3.63636364,1.21862369 4.85498732,4.69078924e-14 6.35823582,4.70758393e-14 Z" id="矩形" fill="#3381FF"></path>
                </g>
            </g>
        </g>
    </g>
</svg>
