<?xml version="1.0" encoding="UTF-8"?>
<svg width="24px" height="24px" viewBox="0 0 24 24" version="1.1" xmlns="http://www.w3.org/2000/svg" xmlns:xlink="http://www.w3.org/1999/xlink">
    <title>编组 7</title>
    <g id="Flat-Web" stroke="none" stroke-width="1" fill="none" fill-rule="evenodd">
        <g id="320*1080（手机布局）" transform="translate(-230.000000, -82.000000)">
            <rect fill="#F3F6F9" x="0" y="0" width="320" height="1024"></rect>
            <g id="编组-2" transform="translate(214.000000, 72.000000)">
                <rect id="矩形备份-4" fill="#FFFFFF" x="0" y="0" width="90" height="44" rx="22"></rect>
                <g id="编组-12" transform="translate(16.000000, 10.000000)" fill="#3381FF">
                    <path d="M12.1045423,3.87613088 C17.3854529,3.87613088 21.6664769,8.1571548 21.6664769,13.4380654 C21.6664769,18.7189761 17.3854529,23 12.1045423,23 L11.8954577,23 C6.61454706,23 2.33352313,18.7189761 2.33352313,13.4380654 C2.33352313,8.1571548 6.61454706,3.87613088 11.8954577,3.87613088 L12.1045423,3.87613088 Z M13.074053,7.0634424 L10.925947,7.0634424 L10.925947,13.8781413 L15.5367418,18.4390707 L17.0556821,16.9365576 L13.074053,12.997154 L13.074053,7.0634424 Z M4.79621194,1 L6.31515224,2.50251306 L2.0189403,6.75226175 L0.5,5.24974869 L4.79621194,1 Z M19.2037881,1 L23.5,5.24974869 L21.9810597,6.75226175 L17.6848478,2.50251306 L19.2037881,1 Z" id="形状结合"></path>
                </g>
            </g>
        </g>
    </g>
</svg>