<svg xmlns="http://www.w3.org/2000/svg" viewBox="0 0 546 346"><defs><linearGradient id="a" x1="50%" x2="50%" y1="0%" y2="100%"><stop offset="0%" stop-color="#F1F9FB"/><stop offset="100%" stop-color="#F1F9FB" stop-opacity="0"/></linearGradient><linearGradient id="b" x1="100%" x2="0%" y1="0%" y2="100%"><stop offset="0%" stop-color="#AAE3FE"/><stop offset="100%" stop-color="#71C3FC"/></linearGradient><linearGradient id="c" x1="16.951%" x2="87.66%" y1="100%" y2="0%"><stop offset="0%" stop-color="#C7DEEE" stop-opacity="0"/><stop offset="100%" stop-color="#C7DEEE"/></linearGradient><linearGradient id="d" x1="50%" x2="50%" y1="0%" y2="100%"><stop offset="0%" stop-color="#C7DEEE" stop-opacity="0"/><stop offset="100%" stop-color="#C7DEEE"/></linearGradient></defs><g fill="none" fill-rule="evenodd"><path fill="#FFF" fill-opacity=".01" d="M0 0h546v346H0z"/><path fill="url(#a)" d="M0 346c90.267-68 180.933-102 272-102s182.4 34 274 102"/><circle cx="156" cy="191" r="8" fill="url(#b)" opacity=".54"/><circle cx="249.5" cy="65.5" r="3.5" fill="url(#b)" opacity=".21"/><circle cx="390" cy="159" r="5" fill="url(#b)" opacity=".32"/><circle cx="273" cy="173" r="95" fill="#E3F3FE"/><circle cx="335" cy="141" r="13" fill="#C7DEEE" opacity=".42"/><circle cx="295.5" cy="243.5" r="11.5" fill="#C7DEEE" opacity=".36"/><circle cx="233" cy="145" r="9" fill="#C7DEEE" opacity=".56"/><path fill="url(#c)" d="M198.5 199c14.083 0 25.5 11.417 25.5 25.5 0 9.037-4.7 16.976-11.79 21.505-13.148-10.958-23.289-25.402-29.005-41.91A25.387 25.387 0 0 1 198.5 199z" opacity=".766"/><path fill="url(#d)" d="M273 78c10.854 0 21.284 1.82 31 5.173-.096 19.252-15.73 34.827-35 34.827-18.223 0-33.193-13.927-34.848-31.717C246.011 80.96 259.16 78 273 78z" opacity=".92"/><path fill="#BDD5EE" fill-rule="nonzero" d="m181.944 200.178-.313.276-1.47 1.312-1.438 1.305c-.475.433-.944.865-1.408 1.296l-.564.526-1.109 1.043-1.084 1.035-1.058 1.025-1.034 1.016-.508.504-.995 1.001-.97.992a158.782 158.782 0 0 0-2.314 2.432l-.881.955-.855.944a131.929 131.929 0 0 0-.418.468l-.816.927-.399.46-.777.91-.378.45-.738.893a91.302 91.302 0 0 0-2.376 3.03l-.62.838c-5.958 8.176-8.056 14.506-5.932 18.184 2.123 3.677 8.654 5.026 18.714 3.954l1.035-.117a91.537 91.537 0 0 0 3.812-.543l1.142-.193.58-.102 1.177-.218c.396-.076.796-.154 1.2-.235l1.222-.252 1.245-.268.63-.14 1.279-.295a162.782 162.782 0 0 0 3.291-.808l1.354-.354 1.376-.37 1.396-.387 1.418-.404 1.438-.422 1.458-.438 1.647-.508.917-.289 1.849-.594 1.87-.616.424-.142a95.094 95.094 0 0 0 3.147 3.177c-29.948 10.235-51.637 12-57.086 2.564-5.446-9.434 6.919-27.327 30.743-48.138a96.733 96.733 0 0 0 1.177 4.316zM340.11 104.15c29.317-9.867 50.493-11.458 55.867-2.15 5.446 9.434-6.919 27.328-30.743 48.138a96.733 96.733 0 0 0-1.177-4.315l.313-.277 1.47-1.312 1.438-1.305c.475-.433.944-.865 1.408-1.296l.564-.526 1.109-1.043 1.084-1.035 1.058-1.025 1.034-1.016c.17-.168.34-.336.507-.504l.996-1.001.97-.991a158.782 158.782 0 0 0 2.314-2.433l.881-.955.855-.944.418-.468.816-.927.399-.46.777-.91.379-.45.738-.893a91.302 91.302 0 0 0 2.375-3.03l.62-.838c5.958-8.176 8.056-14.506 5.932-18.184-2.123-3.677-8.654-5.026-18.714-3.954l-1.035.117a91.537 91.537 0 0 0-3.812.543l-1.142.193-.58.102-1.177.218c-.396.076-.796.154-1.2.235l-1.222.252-1.245.268-.63.14-1.279.295a162.27 162.27 0 0 0-3.291.808l-1.354.354-1.376.37-1.396.387-1.418.404-1.438.422-1.458.438-1.647.509c-.305.095-.61.19-.916.288l-1.85.594-1.87.616-.422.141a96.415 96.415 0 0 0-3.149-3.176z"/><g opacity=".45" transform="rotate(-30 217.962 -324.973)"><path stroke="#BDD5EE" stroke-linecap="round" stroke-linejoin="round" stroke-width="4" d="M0 7V4a4 4 0 0 1 4-4h6a4 4 0 0 1 4 4v5.5a3.5 3.5 0 0 1-3.5 3.5H9a2 2 0 0 0-2 2v4h0"/><circle cx="7" cy="27" r="2" fill="#BDD5EE"/></g><g opacity=".78" transform="rotate(-30 232.347 -541.102)"><circle cx="3" cy="37" r="3" fill="#BDD5EE"/><path stroke="#BDD5EE" stroke-linecap="round" stroke-linejoin="round" stroke-width="4" d="M0 20c11.046 0 20 8.954 20 20h0"/><path stroke="#BDD5EE" stroke-linecap="round" stroke-linejoin="round" stroke-width="4" d="M0 10c16.569 0 30 13.431 30 30h0"/><path stroke="#BDD5EE" stroke-linecap="round" stroke-linejoin="round" stroke-width="4" d="M0 0c22.091 0 40 17.909 40 40h0"/></g><path stroke="#BDD5EE" stroke-width="4" d="M394.244 103c8.836 15.305-38.283 59.053-105.244 97.713S160.593 258.305 151.756 243"/></g></svg>