<svg width="214" height="140" fill="none" xmlns="http://www.w3.org/2000/svg"><path opacity=".25" d="M18.053 80.55c6.866-4.373 19.22-13.215 15.238-23.982C21.497 24.691 33.578 2.673 54.778.27c44.165-5 36.059 61.558 100.803 41.98 45.266-13.691 76.839 24.972 45.436 51.184-22.6 18.863-45.754 46.567-45.754 46.567l-87.46-.316c-17.813-25.386-48.663-22.213-61.81-29.709-16.431-9.365 5.43-25.205 12.058-29.425" fill="url(#a)"/><path d="m52.416 34.008-5.027 6.64 6.658-3.528-1.63-3.112Z" fill="#152F8C"/><path d="M69.95 20.5 51.992 33.847l4.279 8.89 13.68-22.235Z" fill="#3381FF"/><path d="M69.951 20.5 43.71 27.76l3.68 12.89 5.027-6.641 17.535-13.507Z" fill="#BED1F9"/><path d="m69.951 20.5-34.784 5.253 8.82 2.782L69.952 20.5Z" fill="#3381FF"/><path d="M176 125.643c34-34-30.802-62.387-72.952-20.256C50.36 158.052-27.456 111.059 40.633 43" stroke="url(#b)" stroke-width=".75" stroke-dasharray="3 3"/><path d="M111.137 102.732c15.913 0 28.813-11.257 28.813-25.144 0-13.887-12.9-25.144-28.813-25.144-15.913 0-28.814 11.257-28.814 25.144 0 13.887 12.9 25.144 28.814 25.144Z" fill="#92B5F9"/><path d="M64.236 46C50.85 46 40 54.108 40 64.102c0 6.483 4.596 12.127 11.428 15.325-2.22 2.533-5.382 4.263-8.737 4.543 3.337 1.17 6.5 1.188 9.767-.158 1.503-.629 2.884-1.537 4.09-2.603 2.428.611 4.98 1.013 7.688 1.013 13.384 0 24.235-8.107 24.235-18.12C88.471 54.108 77.621 46 64.235 46Zm108.879 43.907c0-10.117-12.144-18.313-27.118-18.313-14.975 0-27.119 8.196-27.119 18.313 0 10.117 12.144 18.312 27.119 18.312 2.254 0 4.42-.245 6.517-.594.594 2.481 1.73 4.84 3.425 6.744 2.988 3.338 7.496 5.277 11.987 5.155-2.814-.664-4.683-1.957-6.832-3.914-1.957-1.782-2.988-4.421-3.338-7.059-.087-.699-.122-1.433-.192-2.15 9.173-2.935 15.551-9.19 15.551-16.494Z" fill="#fff"/><path d="M72.36 89C63.866 89 57 93.63 57 99.327c0 4.089 3.565 7.583 8.684 9.261-2.01 2.393-4.508 4.385-7.356 5.644 4.071-.28 7.985-2.027 10.92-4.788.997.14 2.045.21 3.111.21 8.492 0 15.36-4.631 15.36-10.327C87.718 93.63 80.833 89 72.358 89Z" fill="#3381FF"/><circle cx="94.5" cy="75.5" r="2.5" fill="#fff"/><circle cx="103.5" cy="75.5" r="2.5" fill="#fff"/><circle cx="112.5" cy="75.5" r="2.5" fill="#fff" fill-opacity=".5"/><defs><linearGradient id="a" x1="106.833" y1="0" x2="106.833" y2="140" gradientUnits="userSpaceOnUse"><stop stop-color="#69A0FF"/><stop offset="1" stop-color="#D6E5FF"/></linearGradient><linearGradient id="b" x1="39.5" y1="43" x2="68.5" y2="140.5" gradientUnits="userSpaceOnUse"><stop stop-color="#5B9AFF"/><stop offset="1" stop-color="#5B9AFF" stop-opacity="0"/></linearGradient></defs></svg>