<svg xmlns="http://www.w3.org/2000/svg" fill="none" viewBox="0 0 200 200">
    <path fill="#272A30" d="M20 100c0-44.183 35.817-80 80-80h80v80c0 44.183-35.817 80-80 80s-80-35.817-80-80Z" />
    <g filter="url(#a)">
        <path fill="#ECF0F7"
            d="M65 60c0-5.523-4.477-10-10-10h82c5.523 0 10 4.477 10 10v86a4 4 0 0 1-4 4H75c-5.523 0-10-4.477-10-10V60Z" />
    </g>
    <path fill="#7B7E84" fill-rule="evenodd" d="M75 150c5.523 0 10-4.477 10-10h80c0 5.523-4.477 10-10 10H75Z"
        clip-rule="evenodd" />
    <path fill="#4B4D54" fill-rule="evenodd" d="M45 60h20c0-5.523-4.477-10-10-10s-10 4.477-10 10Z"
        clip-rule="evenodd" />
    <path fill="#EBF2FF" fill-rule="evenodd"
        d="M167.284 43.645a5 5 0 1 1 7.071 7.07l-61.518 61.519-9.192 2.121 2.121-9.192 61.518-61.518Z"
        clip-rule="evenodd" />
    <mask id="b" width="73" height="73" x="103" y="42" maskUnits="userSpaceOnUse" style="mask-type:alpha">
        <path fill="#fff" fill-rule="evenodd"
            d="M167.284 43.645a5 5 0 1 1 7.071 7.07l-61.518 61.519-9.192 2.121 2.121-9.192 61.518-61.518Z"
            clip-rule="evenodd" />
    </mask>
    <g mask="url(#b)">
        <path fill="#070A11" fill-rule="evenodd" d="m104.352 109.406 4.242 4.242-2.828 2.829-4.243-4.243 2.829-2.828Z"
            clip-rule="evenodd" />
    </g>
    <path fill="#7B7E84" d="m166.577 44.352 7.07 7.071-60.81 60.811-7.071-7.07z" />
    <path fill="#5D6066" d="m164.456 52.13 1.414 1.414-50.912 50.912-1.414-1.414z" />
    <path fill="url(#c)" d="M25 110c0-13.255 10.745-24 24-24s24 10.745 24 24v24H49c-13.255 0-24-10.745-24-24Z"
        style="mix-blend-mode:multiply" />
    <circle cx="39" cy="110" r="3" fill="#ECF0F7" />
    <circle cx="49" cy="110" r="3" fill="#ECF0F7" />
    <circle cx="59" cy="110" r="3" fill="#ECF0F7" />
    <defs>
        <linearGradient id="c" x1="1" x2="49" y1="110" y2="158" gradientUnits="userSpaceOnUse">
            <stop stop-color="#5D6066" />
            <stop offset="1" stop-color="#5D6066" stop-opacity=".01" />
        </linearGradient>
        <filter id="a" width="152" height="160" x="25" y="40" color-interpolation-filters="sRGB"
            filterUnits="userSpaceOnUse">
            <feFlood flood-opacity="0" result="BackgroundImageFix" />
            <feColorMatrix in="SourceAlpha" result="hardAlpha" values="0 0 0 0 0 0 0 0 0 0 0 0 0 0 0 0 0 0 127 0" />
            <feOffset dy="20" />
            <feGaussianBlur stdDeviation="15" />
            <feColorMatrix values="0 0 0 0 0.101961 0 0 0 0 0.101961 0 0 0 0 0.101961 0 0 0 0.247897 0" />
            <feBlend in2="BackgroundImageFix" result="effect1_dropShadow_132_198" />
            <feBlend in="SourceGraphic" in2="effect1_dropShadow_132_198" result="shape" />
        </filter>
    </defs>
</svg>
