<svg width="24" height="24" xmlns="http://www.w3.org/2000/svg"><path d="m17.135 5.584-.063.088-.067.093-.092-.07-.086-.065A7.923 7.923 0 0 0 12 4.005c-4.411 0-8 3.587-8 7.995 0 4.408 3.589 7.995 8 7.995a7.922 7.922 0 0 0 4.826-1.625l.087-.065.091-.07.068.093.064.088a3.833 3.833 0 0 0 2.567 1.543L20 20V4l-.297.04a3.833 3.833 0 0 0-2.568 1.544M12 16.408A4.415 4.415 0 0 1 7.589 12a4.415 4.415 0 0 1 4.41-4.408A4.415 4.415 0 0 1 16.412 12 4.415 4.415 0 0 1 12 16.408" fill="#FFF" fill-rule="evenodd"/></svg>