<svg xmlns="http://www.w3.org/2000/svg" viewBox="0 0 22 22"><g fill="#3381FF"><path d="M16 12.5a3.5 3.5 0 1 1 0 7 3.5 3.5 0 0 1 0-7zm-2.086 2.122a2.5 2.5 0 0 0 3.464 3.464zM16 13.5c-.51 0-.983.152-1.378.414l3.464 3.464A2.5 2.5 0 0 0 16 13.5z"/><path d="M15 2.5A2.5 2.5 0 0 1 17.5 5l.001 6.756a4.474 4.474 0 0 0-1-.228L16.5 5A1.5 1.5 0 0 0 15 3.5H5A1.5 1.5 0 0 0 3.5 5v8A1.5 1.5 0 0 0 5 14.5h1a.5.5 0 0 1 .5.5v1.792l2.146-2.146a.5.5 0 0 1 .275-.14L9 14.5h2.756c-.113.318-.19.653-.229 1H9.206l-2.852 2.854a.5.5 0 0 1-.847-.268L5.5 18v-2.5H5a2.5 2.5 0 0 1-2.495-2.336L2.5 13V5A2.5 2.5 0 0 1 5 2.5z"/></g></svg>