<svg width="132" height="132" xmlns="http://www.w3.org/2000/svg"><defs><linearGradient x1="50%" y1="0%" x2="50%" y2="100%" id="a"><stop stop-color="#FFF" stop-opacity=".4" offset="0%"/><stop stop-color="#FFF" stop-opacity=".664" offset="100%"/></linearGradient></defs><g fill="none" fill-rule="evenodd"><path fill="#BFD9FF" d="M0 132V0h132v132z"/><rect fill="url(#a)" x="4" y="27" width="124" height="83" rx="8"/><circle fill="#66A1FF" cx="13" cy="36" r="3"/><path d="m116 109.84-3.968-26.373A34.808 34.808 0 0 0 87.36 55.232a71.234 71.234 0 0 0-42.47.802l-1.934.645a36.065 36.065 0 0 0-24.59 31.919L17 110" fill="#3381FF"/><path d="m63.47 56-.575.856a9.938 9.938 0 0 1-8.248 4.394l-3.3.654a12.175 12.175 0 0 1-9.935-2.404l-.3-.237A10.866 10.866 0 0 1 37 50.75c0-3.407 1.112-6.72 3.167-9.437l2.127-2.813 4.492-12.25A33.49 33.49 0 0 1 54.647 14l.244-.242A20.838 20.838 0 0 1 67 7.875a14.64 14.64 0 0 1 12.11 4.133l.243.242 1.571 1.039a10.74 10.74 0 0 1 4.605 6.836l.19.944c.461 2.282.693 4.603.693 6.931 0 2.301.54 4.57 1.576 6.625l.188.375a24.091 24.091 0 0 0 4.548 6.26l.747.74a9.593 9.593 0 0 1 2.705 8.402l-.058.348a8.83 8.83 0 0 1-5.937 6.92l-.24.08-.397.393A10.714 10.714 0 0 1 82 61.25a6.137 6.137 0 0 1-5.817-4.182L75.823 56H63.472Z" fill="#444E60"/><path d="m98.793 97-8.723 2.451a100 100 0 0 1-18.456 3.359l-9.223.796A15.825 15.825 0 0 0 51 110h59M79.499 23.498l.729 1.377A25.553 25.553 0 0 1 83 40l-.223 1.783a12.226 12.226 0 0 1-6.808 9.493l.078 5.055a8.825 8.825 0 0 1-5.166 8.169l-.185.084a10.452 10.452 0 0 1-9.815-.613 7.549 7.549 0 0 1-3.349-8.317l1.772-6.85a12.704 12.704 0 0 1-3.577-6.396l-1.013-4.578-2.964-.883a3.3 3.3 0 0 1-2.321-3.656 2.999 2.999 0 0 1 3.281-2.534L55 31l.276-4.565A11.247 11.247 0 0 1 65.43 15.918a14.368 14.368 0 0 1 14.07 7.58Z" fill="#FFF"/><path d="M55 31a8.008 8.008 0 0 1 7.99-7.474h7.242c1.833 0 3.654-.296 5.393-.877a4.77 4.77 0 0 0 3.166-3.591L80 13H57.25L52 23.526 55 31Z" fill="#444E60"/></g></svg>