<svg width="200" height="200" fill="none" xmlns="http://www.w3.org/2000/svg"><path d="M20 100c0-44.183 35.817-80 80-80h80v80c0 44.183-35.817 80-80 80s-80-35.817-80-80Z" fill="#2B2F38"/><path d="M156 136h-.625v-.625H156V136Zm0 12h.625v1.509l-1.067-1.067L156 148Zm-12-12v-.625h.259l.183.183L144 136Zm27.375-40A7.375 7.375 0 0 0 164 88.625v-1.25A8.625 8.625 0 0 1 172.625 96h-1.25Zm0 32V96h1.25v32h-1.25ZM164 135.375a7.375 7.375 0 0 0 7.375-7.375h1.25a8.626 8.626 0 0 1-8.625 8.625v-1.25Zm-8 0h8v1.25h-8v-1.25Zm.625.625v12h-1.25v-12h1.25Zm-1.067 12.442-12-12 .884-.884 12 12-.884.884ZM100 135.375h44v1.25h-44v-1.25ZM92.625 128a7.375 7.375 0 0 0 7.375 7.375v1.25A8.625 8.625 0 0 1 91.375 128h1.25Zm0-32v32h-1.25V96h1.25ZM100 88.625A7.375 7.375 0 0 0 92.625 96h-1.25A8.625 8.625 0 0 1 100 87.375v1.25Zm64 0h-64v-1.25h64v1.25Z" fill="#2867CC"/><path fill-rule="evenodd" clip-rule="evenodd" d="M152 107h-40v2h40v-2Zm-8 8h-32v2h32v-2ZM28 60a8 8 0 0 1 8-8h64a8 8 0 0 1 8 8v32a8 8 0 0 1-8 8H56l-12 12v-12h-8a8 8 0 0 1-8-8V60Zm26 19a3 3 0 1 0 0-6 3 3 0 0 0 0 6Zm14 0a3 3 0 1 0 0-6 3 3 0 0 0 0 6Zm17-3a3 3 0 1 1-6 0 3 3 0 0 1 6 0Z" fill="#2867CC"/></svg>