<svg width="480" height="640" xmlns="http://www.w3.org/2000/svg" xmlns:xlink="http://www.w3.org/1999/xlink"><defs><filter x="-49.3%" y="-49.3%" width="198.7%" height="198.7%" filterUnits="objectBoundingBox" id="e"><feGaussianBlur stdDeviation="50" in="SourceGraphic"/></filter><filter x="-7.9%" y="-10.6%" width="115.8%" height="121.1%" filterUnits="objectBoundingBox" id="i"><feGaussianBlur stdDeviation="9.5" in="SourceAlpha" result="shadowBlurInner1"/><feOffset in="shadowBlurInner1" result="shadowOffsetInner1"/><feComposite in="shadowOffsetInner1" in2="SourceAlpha" operator="arithmetic" k2="-1" k3="1" result="shadowInnerInner1"/><feColorMatrix values="0 0 0 0 0.8 0 0 0 0 0.878431373 0 0 0 0 1 0 0 0 1 0" in="shadowInnerInner1"/></filter><path id="a" d="M0 0h480v640H0z"/><path d="m0 162 13.073-66.375a100 100 0 0 1 63.383-74.45l30.378-11.252a100 100 0 0 1 54.783-4.194l63.904 13.08a100 100 0 0 1 37.564 16.235L307 66l-23 69-41-10-8 84H66l4-47H0Z" id="d"/><radialGradient cx="26.016%" cy="0%" fx="26.016%" fy="0%" r="134.165%" gradientTransform="scale(1 .75) rotate(83.617 .26 0)" id="b"><stop stop-color="#BFD9FF" offset="0%"/><stop stop-color="#85B6FC" offset="100%"/></radialGradient><linearGradient x1="50%" y1="40.323%" x2="50%" y2="100%" id="g"><stop stop-color="#2D3441" offset="0%"/><stop stop-color="#324059" offset="100%"/></linearGradient><rect id="h" x="0" y="0" width="120" height="90" rx="8"/></defs><g fill="none" fill-rule="evenodd"><mask id="c" fill="#fff"><use xlink:href="#a"/></mask><use fill="url(#b)" xlink:href="#a"/><g opacity=".4" mask="url(#c)" stroke="#B9D5FD" stroke-width="2"><path d="M130.182 600H152v21.818c0 12.052-9.769 21.818-21.818 21.818-12.049 0-21.818-9.766-21.818-21.818 0-12.05 9.77-21.818 21.818-21.818Z"/><path d="M130.182 591.517h30.303v30.3c0 16.737-13.568 30.306-30.303 30.306-16.737 0-30.303-13.569-30.303-30.306 0-16.732 13.566-30.3 30.303-30.3Z"/><path d="M130.182 583.031h38.788v38.788c0 21.423-17.368 38.787-38.788 38.787-21.423 0-38.787-17.364-38.787-38.787s17.364-38.788 38.787-38.788Z"/><path d="M130.182 574.546h47.272v47.272c0 26.108-21.164 47.275-47.272 47.275-26.108 0-47.272-21.167-47.272-47.275 0-26.106 21.164-47.272 47.272-47.272Z"/><path d="M130.182 566.06h55.757v55.757c0 30.797-24.963 55.762-55.757 55.762-30.796 0-55.76-24.965-55.76-55.762 0-30.794 24.964-55.756 55.76-55.756Z"/><path d="M130.182 557.578h64.241v64.24c0 35.48-28.762 64.242-64.24 64.242-35.483 0-64.245-28.762-64.245-64.241 0-35.48 28.762-64.241 64.244-64.241Z"/><path d="M130.182 549.092h72.729v72.726c0 40.167-32.561 72.728-72.729 72.728-40.167 0-72.728-32.56-72.728-72.728 0-40.167 32.56-72.726 72.728-72.726Z"/><path d="M130.182 540.607h81.213v81.21c0 44.856-36.36 81.216-81.213 81.216-44.853 0-81.213-36.36-81.213-81.216 0-44.85 36.36-81.21 81.213-81.21Z"/><path d="M130.182 532.121h89.698v89.698c0 49.538-40.16 89.697-89.698 89.697s-89.697-40.159-89.697-89.697c0-49.538 40.159-89.698 89.697-89.698Z"/><path d="M130.182 523.636h98.182v98.182c0 54.226-43.958 98.182-98.182 98.182C75.958 720 32 676.044 32 621.818c0-54.224 43.958-98.182 98.182-98.182ZM272 338.182h65.456v21.819c0 12.049-9.77 21.818-21.819 21.818h-43.636c-12.05 0-21.818-9.77-21.818-21.818 0-12.05 9.769-21.819 21.818-21.819Z"/><path d="M263.515 329.697h90.909V360c0 16.737-13.566 30.303-30.303 30.303h-60.606c-16.734 0-30.303-13.566-30.303-30.303 0-16.735 13.569-30.303 30.303-30.303Z"/><path d="M255.031 321.213h116.365V360c0 21.423-17.367 38.787-38.79 38.787h-77.575c-21.423 0-38.79-17.364-38.79-38.787s17.367-38.787 38.79-38.787Z"/><path d="M246.546 312.727h141.819V360c0 26.109-21.164 47.275-47.272 47.275h-94.547c-26.108 0-47.272-21.166-47.272-47.275 0-26.108 21.164-47.272 47.272-47.272Z"/><path d="M238.06 304.243h167.275V360c0 30.796-24.965 55.76-55.759 55.76H238.06c-30.794 0-55.756-24.964-55.756-55.76 0-30.794 24.962-55.757 55.756-55.757Z"/><path d="M229.576 295.758h192.729v64.244c0 35.479-28.762 64.24-64.244 64.24H229.576c-35.48 0-64.244-28.761-64.244-64.24 0-35.482 28.765-64.244 64.244-64.244Z"/><path d="M221.09 287.272h218.183v72.729c0 40.164-32.56 72.725-72.728 72.725H221.09c-40.168 0-72.729-32.56-72.729-72.725 0-40.168 32.561-72.729 72.729-72.729Z"/><path d="M212.606 278.788h243.637v81.213c0 44.853-36.36 81.213-81.21 81.213H212.605c-44.852 0-81.213-36.36-81.213-81.213 0-44.853 36.36-81.213 81.213-81.213Z"/><path d="M204.121 270.303h269.093V360c0 49.538-40.16 89.698-89.698 89.698H204.121c-49.538 0-89.698-40.16-89.698-89.698s40.16-89.697 89.698-89.697Z"/><path d="M195.637 261.819h294.547V360c0 54.223-43.959 98.182-98.183 98.182H195.637c-54.224 0-98.182-43.959-98.182-98.182 0-54.224 43.958-98.182 98.182-98.182ZM413.818 76.364H522.91v21.818c0 12.05-9.767 21.818-21.819 21.818h-87.273C401.77 120 392 110.231 392 98.182c0-12.05 9.77-21.818 21.818-21.818Z"/><path d="M396.85 67.878h151.517v30.303c0 16.737-13.568 30.303-30.306 30.303H396.85c-16.737 0-30.303-13.566-30.303-30.303 0-16.734 13.566-30.303 30.303-30.303Z"/><path d="M379.879 59.394h193.94v38.787c0 21.423-17.365 38.788-38.788 38.788H379.88c-21.42 0-38.788-17.365-38.788-38.788 0-21.422 17.368-38.787 38.788-38.787Z"/><path d="M362.91 50.909h236.365V98.18c0 26.108-21.164 47.274-47.275 47.274H362.91c-26.109 0-47.273-21.166-47.273-47.274 0-26.109 21.164-47.272 47.272-47.272Z"/><path d="M345.94 42.425h278.79V98.18c0 30.794-24.965 55.76-55.759 55.76H345.94c-30.794 0-55.757-24.966-55.757-55.76 0-30.794 24.963-55.756 55.757-55.756Z"/><path d="M328.97 33.94h321.214v64.243c0 35.479-28.762 64.24-64.244 64.24H328.97c-35.48 0-64.244-28.761-64.244-64.24 0-35.482 28.765-64.244 64.244-64.244Z"/><path d="M312 25.454h363.637v72.728c0 40.167-32.558 72.726-72.725 72.726H312c-40.168 0-72.729-32.559-72.729-72.726S271.832 25.454 312 25.454Z"/><path d="M295.03 16.97h406.063v81.213c0 44.852-36.36 81.212-81.213 81.212H295.03c-44.852 0-81.212-36.36-81.212-81.212 0-44.853 36.36-81.213 81.213-81.213Z"/><path d="M278.061 8.484h448.486v89.697c0 49.539-40.157 89.698-89.695 89.698h-358.79c-49.54 0-89.698-40.16-89.698-89.698S228.523 8.484 278.06 8.484Z"/><path d="M261.092 0H752v98.182c0 54.224-43.956 98.182-98.18 98.182H261.093c-54.224 0-98.182-43.958-98.182-98.182C162.91 43.958 206.868 0 261.092 0Z"/></g><g mask="url(#c)"><path fill-opacity=".645" fill="#FFF" d="M42 160h540v320H42z"/><g transform="translate(71.277 287)"><path d="m350.034 393.429 84.055-40.494a61.188 61.188 0 0 0 20.504-16.02 26.445 26.445 0 0 0 5.35-23.174L443.24 245.34l-46.9 10.113 6.158 58.403-78.696 68.357-23.022-7.496a42.3 42.3 0 0 0-25.13-.33l-2.326.69a15.24 15.24 0 0 0-10.88 13.773l-.318 5.765a3.172 3.172 0 0 0 4.338 3.123 8.202 8.202 0 0 0 5.13-6.766l.307-2.923 2.43-2.264a9.804 9.804 0 0 1 9.044-2.343 5.072 5.072 0 0 1 3.64 6.372l-.345 1.155a10.655 10.655 0 0 1-8.273 7.434l-13.596 2.515a3.463 3.463 0 0 0-2.557 4.759 6.22 6.22 0 0 0 6.002 3.781l18.986-.844a100 100 0 0 1 9.657.038l11.575.605a43.97 43.97 0 0 0 25.315-6.449l7.302-4.487a100 100 0 0 1 8.954-4.892Zm-289.4-191.891 67.927 63.96a61.188 61.188 0 0 0 22.303 13.402 26.445 26.445 0 0 0 23.553-3.31l57.872-40.108-26.248-40.16L153.723 222l-92.018-48.972-1.253-24.18a42.3 42.3 0 0 0-8.698-23.579l-1.478-1.924a15.24 15.24 0 0 0-16.757-5.222l-5.496 1.77a3.172 3.172 0 0 0-1.36 5.17 8.202 8.202 0 0 0 8.154 2.364l2.84-.761 2.984 1.457a9.804 9.804 0 0 1 5.428 7.604 5.072 5.072 0 0 1-4.644 5.68l-1.202.093a10.655 10.655 0 0 1-9.905-5.06l-7.22-11.791a3.463 3.463 0 0 0-5.36-.682 6.22 6.22 0 0 0-1.38 6.958l7.593 17.423a100 100 0 0 1 3.426 9.03L30.96 168.4a43.97 43.97 0 0 0 15.092 21.322l6.806 5.21a100 100 0 0 1 7.776 6.606Z" fill="#FFF"/><g transform="translate(158.723 144)"><mask id="f" fill="#fff"><use xlink:href="#d"/></mask><use fill="#3381FF" transform="matrix(-1 0 0 1 307 0)" xlink:href="#d"/><circle fill="#165DCF" filter="url(#e)" mask="url(#f)" cx="190.277" cy="-53" r="152"/></g><path d="m309.193 161.875-1.955 2.942a32.263 32.263 0 0 1-26.868 14.402l-10.708 2.147a39.55 39.55 0 0 1-32.528-7.929l-.883-.709a36.15 36.15 0 0 1-13.528-28.197 52.15 52.15 0 0 1 10.387-31.233l6.907-9.236L255.522 61.3a100 100 0 0 1 23.2-36.522l2.533-2.54A67.613 67.613 0 0 1 320.723 2.89a47.409 47.409 0 0 1 39.468 13.565l.885.888 5.042 3.371a35.619 35.619 0 0 1 15.134 22.644l.951 4.77a100 100 0 0 1 1.931 19.558v1.688a49.105 49.105 0 0 0 5.16 21.91l.605 1.215a79.688 79.688 0 0 0 14.887 20.711l2.407 2.414a31.803 31.803 0 0 1 8.853 27.67l-.206 1.236a29.215 29.215 0 0 1-19.557 22.918l-.62.207-1.353 1.358a34.723 34.723 0 0 1-24.587 10.205 19.977 19.977 0 0 1-18.958-13.676l-1.219-3.668h-40.353Z" fill="url(#g)" transform="matrix(-1 0 0 1 641.445 0)"/><path d="m275.445 45.901-2.86 5.519a96.84 96.84 0 0 0-10.145 56.325l.856 6.994a45.058 45.058 0 0 0 22.794 33.887l.26.143-4.198 14.676a29.345 29.345 0 0 0 9.843 30.954l.343.271.662.516a38.36 38.36 0 0 0 33.326 6.83 24.358 24.358 0 0 0 18.159-23.804l-.344-33.846a45.527 45.527 0 0 0 16.987-27.292L363.723 104l5.778-1.926a18.865 18.865 0 0 0 12.875-16.94c.313-6.174-4.437-11.432-10.61-11.745a11.192 11.192 0 0 0-1.568.03l-6.475.581-.839-17.388c-.968-20.075-16.509-36.404-36.511-38.365-21.033-2.061-41.202 8.89-50.928 27.654Z" fill="#FFF"/><path d="M363.723 74c-1.412-8.751-9.311-14.95-18.147-14.24l-11.61.934a87.574 87.574 0 0 1-31.868-3.318 27.009 27.009 0 0 1-18.82-20.602L280.722 24l37-10 37.75 10 17.25 34.503-9 15.497Z" fill="#2D3441"/><path d="m7.658 129.733 1.828-6.975 12.649-.125 42.559 9.756a6.99 6.99 0 0 1 5.2 8.586 7.348 7.348 0 0 1-8.837 5.278L18.723 136l-11.065-6.267Z" fill="#3381FF"/><path d="m7.658 129.733-3.285-1.173a3.336 3.336 0 0 1-2.14-3.833 3.148 3.148 0 0 1 3.494-2.469l3.76.5-1.83 6.975Zm52.976 71.805 1.07-28.51C44.26 153.022 34.932 142.013 33.724 140l-10.657-15.332a3.432 3.432 0 0 0-5.327-.7 6.22 6.22 0 0 0-1.38 6.957l7.592 17.423a100 100 0 0 1 3.426 9.03L30.96 168.4a43.97 43.97 0 0 0 15.092 21.322l6.806 5.21a100 100 0 0 1 7.776 6.606Z" fill="#FFF"/><path d="M286.723 149a53.396 53.396 0 0 0 49.195-1.55l.805-.45-.98.98c-13.425 13.424-35.048 13.875-49.02 1.02Z" fill="#444E60" opacity=".1"/><path d="M292.723 84c.858 5.15.524 10.816-1 17-2.287 9.276-7 10-5 15 1.333 3.333 6.333 4.667 15 4" stroke="#2D3441" stroke-width="2" stroke-linecap="square"/><circle fill="#2D3441" cx="316.723" cy="84" r="3"/><circle fill="#2D3441" cx="274.723" cy="84" r="3"/><path d="m153.723 222-92.018-48.972m-1.253-24.18a42.3 42.3 0 0 0-8.698-23.579l-1.478-1.924a15.24 15.24 0 0 0-16.757-5.222m-9.568 30.225a100 100 0 0 1 3.426 9.03L30.96 168.4a43.97 43.97 0 0 0 15.092 21.322l6.806 5.21a100 100 0 0 1 7.776 6.606m67.927 63.96a61.188 61.188 0 0 0 22.303 13.402 26.445 26.445 0 0 0 23.553-3.31m7.306 3.41 41-10 3.796 39.862m-23.881-129.818L158.723 210m64 59 2-15m-2 15-6-10" stroke="#2D3441" stroke-width="2"/><circle fill-opacity=".069" fill="#3381FF" cx="325.723" cy="108" r="9"/><circle fill-opacity=".069" fill="#3381FF" cx="266.723" cy="108" r="9"/><path stroke="#2D3441" stroke-width="2" d="m391.723 259 8 94"/><path d="m350.034 393.429 84.055-40.494a61.188 61.188 0 0 0 20.504-16.02 8.035 8.035 0 0 0-4.517-12.995l-47.58-10.064-78.695 68.357-.852 14.103a7.116 7.116 0 0 0 10.829 6.492l7.302-4.487a100 100 0 0 1 8.954-4.892Z" fill="#FFF"/></g><g transform="translate(52 170)"><rect fill="#CCE0FF" width="120" height="90" rx="8"/><path d="m92 90-.418-5.852A23.524 23.524 0 0 0 76.25 63.75a54.743 54.743 0 0 0-29.168-2.408l-.832.158a20.577 20.577 0 0 0-16.692 19.006L29 90h63Z" fill="#3381FF"/><path d="M53 61.5h-1.257A29.23 29.23 0 0 1 42.5 60l-2.6-10.404a28.49 28.49 0 0 1 .35-15.096l.095-.316A22.79 22.79 0 0 1 48.5 22.5a16.774 16.774 0 0 1 13.354-3.03l1.902.381A16.595 16.595 0 0 1 73.25 25.5a22.248 22.248 0 0 1 4.798 10.263l.452 2.487A92.994 92.994 0 0 1 80 54.885V58.5L69.5 60 65 54H54.5L53 61.5Z" fill="#444E60"/><path d="m71.192 32.048.737 1.42a25.018 25.018 0 0 1 2.628 14.57l-.22 1.803a11.665 11.665 0 0 1-5.908 8.774 13.41 13.41 0 0 1-2.071.932l.056 3.33a7.598 7.598 0 0 1-4.644 7.128l-.201.085a9.952 9.952 0 0 1-8.8-.525 6.302 6.302 0 0 1-2.947-7.17l1.811-6.483a12.025 12.025 0 0 1-2.766-5.445l-.98-4.515-2.749-.835a3.199 3.199 0 0 1-2.234-3.53 2.868 2.868 0 0 1 3.146-2.43l2.107.228.271-4.567a10.614 10.614 0 0 1 9.562-9.935 13.404 13.404 0 0 1 13.202 7.165Z" fill="#FFF"/><path d="M48.155 39.39 48.5 36a25.73 25.73 0 0 0 14.601-1.34l.399-.16L62 30l3 4.5c2.96 0 5.878-.689 8.525-2.012L75.5 31.5l-12-9H53L44 30l-1.5 6 5.655 3.39Z" fill="#444E60"/></g><rect fill="#CCE0FF" width="120" height="90" rx="8" transform="translate(451 170)"/><g transform="translate(185 170)"><use fill="#CCE0FF" xlink:href="#h"/><use fill="#000" filter="url(#i)" xlink:href="#h"/><circle fill="#F45454" cx="10" cy="10" r="3"/><path d="m49.477 50.735-1.835-.793a11.874 11.874 0 0 1-6.328-6.52l-.287-.724a16.635 16.635 0 0 1-1.074-7.96 8.383 8.383 0 0 1 3.995-6.254l.994-.601a9.795 9.795 0 0 1 7.01-9.39l.7-.208a18.916 18.916 0 0 1 14.703 1.68l5.49 3.113a5.085 5.085 0 0 1 2.48 3.434 4.381 4.381 0 0 1-1.187 3.939l-.173.174a7.007 7.007 0 0 1 .364 9.475l-1.27 1.494-23.582 9.14Z" fill="#444E60"/><path d="m92 90-.424-5.982A23.588 23.588 0 0 0 76.25 63.57a54.423 54.423 0 0 0-29.177-2.423l-.823.158a20.6 20.6 0 0 0-16.685 19.03L29 90h63Z" fill="#3381FF"/><path d="m71.17 31.61.755 1.464a25.346 25.346 0 0 1 2.632 14.679l-.224 1.845a11.713 11.713 0 0 1-5.904 8.804c-.668.374-1.361.687-2.073.938l.058 3.382a7.626 7.626 0 0 1-4.644 7.147l-.198.084a9.902 9.902 0 0 1-8.802-.527 6.343 6.343 0 0 1-2.954-7.197l1.815-6.543a12.042 12.042 0 0 1-2.756-5.45l-.987-4.584-2.733-.836a3.23 3.23 0 0 1-2.25-3.558 2.882 2.882 0 0 1 3.163-2.446l2.09.228.274-4.658a10.617 10.617 0 0 1 9.558-9.942 13.356 13.356 0 0 1 13.18 7.17Z" fill="#FFF"/><path d="m47.871 38.653.308-.124a7.243 7.243 0 0 0 4.53-6.716l1.878.316A53.345 53.345 0 0 0 74 31.813l-2.903-7.818-16.452-1.954L44 30.836l3.871 7.817Z" fill="#444E60"/></g><g transform="translate(318 170)"><rect fill="#CCE0FF" width="120" height="90" rx="8"/><path d="m92 90-.42-5.877a23.536 23.536 0 0 0-15.33-20.406 54.683 54.683 0 0 0-29.17-2.412l-.83.159a20.582 20.582 0 0 0-16.69 19.01L29 90h63Z" fill="#3381FF"/><path d="m67.295 18.94.705.47 3.337-.668a7.925 7.925 0 0 1 7.163 2.17l.143.143A6.139 6.139 0 0 1 80 27.67a9.762 9.762 0 0 1-5.216 5.349l-1.534.658c-.326.14-.655.27-.987.39-.108-.228-.22-.452-.335-.674l-.74-1.428A13.395 13.395 0 0 0 57.99 24.8a10.615 10.615 0 0 0-9.561 9.936l-.272 4.584-2.104-.228a2.87 2.87 0 0 0-3.149 2.434 3.204 3.204 0 0 0 2.237 3.534l2.747.836.98 4.528c.227 1.049.59 2.048 1.07 2.977l.062.553a9.488 9.488 0 0 1-5.998-6.003L44 47.946l-3.187-3.989a12.858 12.858 0 0 1 0-16.052l.378-.474a9.355 9.355 0 0 1 7.005-3.51l.304-.005 2.776-2.78A14.226 14.226 0 0 1 59 17.157c2.89-.482 5.857.155 8.295 1.782Z" fill="#444E60"/><path d="m71.188 31.966.74 1.428a25.08 25.08 0 0 1 2.63 14.59l-.222 1.811a11.674 11.674 0 0 1-5.907 8.78c-.668.372-1.36.683-2.07.933l.055 3.34a7.603 7.603 0 0 1-4.644 7.131l-.2.085a9.943 9.943 0 0 1-8.8-.526 6.31 6.31 0 0 1-2.949-7.174l1.811-6.495a12.028 12.028 0 0 1-2.764-5.445l-.98-4.528-2.747-.836a3.204 3.204 0 0 1-2.237-3.534 2.87 2.87 0 0 1 3.15-2.434l2.103.228.272-4.584a10.615 10.615 0 0 1 9.56-9.936 13.395 13.395 0 0 1 13.199 7.166Z" fill="#FFF"/><path d="M38 35.931c0-2.917.991-5.746 2.811-8.024l.378-.473a9.359 9.359 0 0 1 6.906-3.51l.405-.008 2.774-2.778A14.23 14.23 0 0 1 59 17.158a11.525 11.525 0 0 1 8.296 1.782l.704.47 3.34-.669a7.92 7.92 0 0 1 7.16 2.171l.144.144A6.139 6.139 0 0 1 80 27.671a9.757 9.757 0 0 1-5.212 5.347l-1.538.66a17.702 17.702 0 0 1-10.826 1.012L54.5 32.927a6.385 6.385 0 0 1-5.989 6.377l-.356.021C41.385 39.007 38 37.875 38 35.931Z" fill="#444E60"/></g></g><path d="m77 398 7.676-18.377c10.871-26.024 40.78-38.308 66.805-27.437A51.067 51.067 0 0 1 162.5 358.5c27.31 20.548 66.108 15.066 86.656-12.245a61.884 61.884 0 0 0 2.135-3.022L270 315" stroke="#0016FF" stroke-width="2"/><path d="M293.077 167a4.923 4.923 0 0 1 4.923 4.923v15.297a4.923 4.923 0 0 1-4.923 4.923l-8.219-.001L278 199v-6.858h-7.077A4.923 4.923 0 0 1 266 187.22v-15.297a4.923 4.923 0 0 1 4.923-4.923h22.154Z" fill="#72CAFF"/><path d="M274 177a2 2 0 1 1 0 4 2 2 0 0 1 0-4Zm8 0a2 2 0 1 1 0 4 2 2 0 0 1 0-4Zm8 0a2 2 0 1 1 0 4 2 2 0 0 1 0-4Z" fill="#FFF"/><path d="m42.974 517.821 15.068-4.037h0l17.533 9.796 5.694 21.25a6 6 0 0 1-4.243 7.349l-23.182 6.211a6 6 0 0 1-7.348-4.242L38.73 525.17a6 6 0 0 1 4.243-7.349Z" stroke="#66A1FF" stroke-width="3" stroke-linecap="round" stroke-linejoin="round"/><path d="m57.463 513.94 18.37 10.606-8.166 2.188a6.545 6.545 0 0 1-8.016-4.628l-2.188-8.167Z" fill="#66A1FF"/><g transform="rotate(-15 382.011 -112.202)"><rect stroke="#66A1FF" stroke-width="3" stroke-linecap="round" stroke-linejoin="round" width="42" height="36" rx="6"/><path d="M17 30a6 6 0 0 1 6-6h4.77a6 6 0 0 1 6-6H37" stroke="#66A1FF" stroke-width="3" stroke-linecap="round" stroke-linejoin="round"/><circle fill="#66A1FF" cx="11" cy="12" r="3"/></g><g transform="rotate(15 -105.873 818.171)" stroke="#66A1FF" stroke-linecap="round" stroke-linejoin="round" stroke-width="3"><circle cx="21" cy="21" r="21"/><path d="m18.272 13.363 10.584 6.35a1.5 1.5 0 0 1 0 2.573l-10.584 6.351A1.5 1.5 0 0 1 16 27.351V14.649a1.5 1.5 0 0 1 2.272-1.286Z"/></g></g></svg>