<svg width="24" height="24" fill="none" xmlns="http://www.w3.org/2000/svg"><path opacity=".01" fill="#fff" d="M0 0h24v24H0z"/><path fill-rule="evenodd" clip-rule="evenodd" d="M23 19a3 3 0 0 1-3 3H4a3 3 0 0 1-3-3V5a3 3 0 0 1 3-3h2.757a3 3 0 0 1 2.122.879L10 4h10a3 3 0 0 1 3 3v12Z" fill="url(#a)"/><path d="M3 7a1 1 0 0 1 1-1h16a1 1 0 0 1 1 1v1H3V7Z" fill="#fff"/><path fill-rule="evenodd" clip-rule="evenodd" d="M23 19a3 3 0 0 1-3 3H4a3 3 0 0 1-3-3V9a1 1 0 0 1 1-1h20a1 1 0 0 1 1 1v10Z" fill="url(#b)"/><defs><linearGradient id="a" x1="11.8" y1="1.333" x2="11.8" y2="22" gradientUnits="userSpaceOnUse"><stop stop-color="#FFB81D"/><stop offset="1" stop-color="#EFA400"/></linearGradient><linearGradient id="b" x1="11.8" y1="6.25" x2="11.8" y2="20.25" gradientUnits="userSpaceOnUse"><stop stop-color="#FFDA89"/><stop offset="1" stop-color="#F9AA00"/></linearGradient></defs></svg>