<svg xmlns="http://www.w3.org/2000/svg" fill="none" viewBox="0 0 200 200">
    <path fill="#272A30" d="M20 100c0-44.183 35.817-80 80-80h80v80c0 44.183-35.817 80-80 80s-80-35.817-80-80Z" />
    <path fill="#5D6066" fill-rule="evenodd" d="M85 133h30v14H85v-14Z" clip-rule="evenodd" />
    <path fill="#5D6066" d="M72 143h56v4H72z" />
    <path fill="#4B4D54" fill-rule="evenodd" d="M85 133v10H72v4h25l14-14" clip-rule="evenodd" />
    <g filter="url(#a)">
        <rect width="120" height="80" x="40" y="53" fill="#ECF0F7" rx="4" />
    </g>
    <path fill="#E5E8F0" fill-rule="evenodd" d="m47 133 80-80h29a4 4 0 0 1 4 4v72a4 4 0 0 1-4 4H47Z"
        clip-rule="evenodd" />
    <path fill="#7B7E84" d="m52 73 8 2.667-3.556 1.777L54.667 81 52 73Z" />
    <path stroke="url(#b)" stroke-dasharray="1"
        d="M60 81s4.383 18.6 19 21c14.617 2.4 34.416-10.431 48-10 13.584.431 15 12 15 12" />
    <path fill="#7B7E84" d="M40 119h120v10a4 4 0 0 1-4 4H44a4 4 0 0 1-4-4v-10Z" />
    <circle cx="100" cy="126" r="4" fill="#4B4D54" />
    <path fill="url(#c)" fill-rule="evenodd"
        d="M116 36a8 8 0 0 0-8 8v28a8 8 0 0 0 8 8h8v12l12-12h20a8 8 0 0 0 8-8V44a8 8 0 0 0-8-8h-40Z" clip-rule="evenodd"
        style="mix-blend-mode:multiply" />
    <path fill="#ECF0F7" d="M124 58h24v5h-24zm0-8h16v5h-16z" />
    <defs>
        <linearGradient id="b" x1="184.778" x2="181.375" y1="122.247" y2="72.669" gradientUnits="userSpaceOnUse">
            <stop stop-color="#D5D9E0" stop-opacity=".01" />
            <stop offset="1" stop-color="#D5D9E0" />
        </linearGradient>
        <linearGradient id="c" x1="108" x2="108" y1="36" y2="92" gradientUnits="userSpaceOnUse">
            <stop stop-color="#5D6066" />
            <stop offset="1" stop-color="#5D6066" stop-opacity=".01" />
        </linearGradient>
        <filter id="a" width="180" height="140" x="10" y="43" color-interpolation-filters="sRGB"
            filterUnits="userSpaceOnUse">
            <feFlood flood-opacity="0" result="BackgroundImageFix" />
            <feColorMatrix in="SourceAlpha" result="hardAlpha" values="0 0 0 0 0 0 0 0 0 0 0 0 0 0 0 0 0 0 127 0" />
            <feOffset dy="20" />
            <feGaussianBlur stdDeviation="15" />
            <feColorMatrix values="0 0 0 0 0.101961 0 0 0 0 0.101961 0 0 0 0 0.101961 0 0 0 0.247897 0" />
            <feBlend in2="BackgroundImageFix" result="effect1_dropShadow_132_179" />
            <feBlend in="SourceGraphic" in2="effect1_dropShadow_132_179" result="shape" />
        </filter>
    </defs>
</svg>
