<svg width="187" height="150" fill="none" xmlns="http://www.w3.org/2000/svg"><path opacity=".25" d="M19 150s57.422-30.374 32.73-55.013C36.31 79.6 23.438 56.782 22.142 35.575 20.922 15.748 38.812-.076 59.806 0c16.09.054 28.65 7.878 38.899 18.805 8.549 9.121 23.442 38.755 40.348 34.408 3.638-.938 6.238-3.813 9.121-6.078 13.23-10.401 19.179 7.169 19.331 16.533.175 10.73-2.204 21.558-4.781 31.968-1.533 6.176-13.445 54.364-17.746 54.364H19Z" fill="url(#a)"/><path d="M84.98 48.176 3.322 49.442c-1.945.03-3.5-1.635-3.307-3.57.342-3.426 2.073-8.115 8.91-8.587 10.891-.751 76.053 10.892 76.053 10.892Z" fill="#3381FF"/><path d="m93.805 37-84.88.375s11.644-1.69 18.592 18.779c6.948 20.468 13.332 76.053 47.134 79.997 33.801 3.944 42.064-7.136 42.064-7.136h27.041s-16.15-8.262-22.723-38.871C114.461 59.534 109.578 38.502 93.805 37Z" fill="#92B5F9"/><path d="M25.831 40.99c-.538-.644-.068-1.624.771-1.614l65.7.726s10.328 0 20.094 36.054c9.765 36.055 12.581 46.947 26.29 54.834l-49.064 5.059s-22.482 3.768-37.317-21.583c-14.278-24.398-14.12-58.71-26.474-73.475Z" fill="#fff"/><path d="m105.431 117.048 78.639-1.408a2.856 2.856 0 0 1 2.906 2.885c-.042 5.217-2.187 15.814-18.432 18.475H86.043s14.679-1.87 16.588-17.42a2.875 2.875 0 0 1 2.8-2.532Z" fill="#3381FF"/><path d="m152.194 78.845-22.412-22.146-4.438 4.49 22.412 22.147 4.438-4.491Z" fill="#4951EC"/><path d="m160.756 84.796-17.437-17.23a.247.247 0 0 0-.349.002l-6.6 6.68a.247.247 0 0 0 .002.349l17.437 17.23a.247.247 0 0 0 .349-.003l6.6-6.679a.247.247 0 0 0-.002-.35Z" fill="#7C9AF2"/><path d="M109.919 63.282c12.903 0 23.363-10.46 23.363-23.363 0-12.903-10.46-23.363-23.363-23.363-12.903 0-23.363 10.46-23.363 23.363 0 12.903 10.46 23.363 23.363 23.363Z" fill="#fff" fill-opacity=".9"/><path fill-rule="evenodd" clip-rule="evenodd" d="M137.837 39.918c0 15.42-12.5 27.919-27.919 27.919S82 55.337 82 39.918C82 24.5 94.5 12 109.918 12c15.419 0 27.919 12.5 27.919 27.918Zm-4.555 0c0 12.904-10.46 23.364-23.363 23.364-12.903 0-23.363-10.46-23.363-23.363 0-12.903 10.46-23.363 23.363-23.363 12.903 0 23.363 10.46 23.363 23.363Z" fill="#3381FF"/><defs><linearGradient id="a" x1="93.257" y1="0" x2="93.257" y2="150" gradientUnits="userSpaceOnUse"><stop stop-color="#69A0FF"/><stop offset="1" stop-color="#D6E5FF"/></linearGradient></defs></svg>