<svg xmlns="http://www.w3.org/2000/svg" viewBox="0 0 546 346">
    <defs />
    <defs>
        <linearGradient id="a" x1="50%" x2="50%" y1="0%" y2="100%">
            <stop offset="0%" stop-color="#F1F9FB" />
            <stop offset="100%" stop-color="#F1F9FB" stop-opacity="0" />
        </linearGradient>
        <linearGradient id="b" x1="100%" x2="0%" y1="0%" y2="100%">
            <stop offset="0%" stop-color="#AAE3FE" />
            <stop offset="100%" stop-color="#71C3FC" />
        </linearGradient>
        <linearGradient id="c" x1="16.9511%" x2="87.6599%" y1="100%" y2="0%">
            <stop offset="0%" stop-color="#C7DEEE" stop-opacity="0" />
            <stop offset="100%" stop-color="#C7DEEE" />
        </linearGradient>
        <linearGradient id="d" x1="50%" x2="50%" y1="0%" y2="100%">
            <stop offset="0%" stop-color="#C7DEEE" stop-opacity="0" />
            <stop offset="100%" stop-color="#C7DEEE" />
        </linearGradient>
    </defs>
    <g fill="none" fill-rule="evenodd">
        <path fill="#FFF" fill-opacity=".01" d="M0 0h546v346H0z" />
        <path fill="url(#a)" d="M0 346c90.2667-68 180.9333-102 272-102s182.4 34 274 102" />
        <circle cx="156" cy="191" r="8" fill="url(#b)" opacity=".54" />
        <circle cx="249.5" cy="65.5" r="3.5" fill="url(#b)" opacity=".21" />
        <circle cx="390" cy="159" r="5" fill="url(#b)" opacity=".32" />
        <circle cx="273" cy="173" r="95" fill="#E3F3FE" />
        <circle cx="335" cy="141" r="13" fill="#C7DEEE" opacity=".42" />
        <circle cx="295.5" cy="243.5" r="11.5" fill="#C7DEEE" opacity=".36" />
        <circle cx="233" cy="145" r="9" fill="#C7DEEE" opacity=".56" />
        <path fill="url(#c)"
            d="M198.5 199c14.0833 0 25.5 11.4167 25.5 25.5 0 9.037-4.7009 16.976-11.7908 21.5051-13.1473-10.9583-23.2879-25.4017-29.0038-41.911C187.467 200.895 192.7622 199 198.5 199z"
            opacity=".7656" />
        <path fill="url(#d)"
            d="M273 78c10.8545 0 21.2838 1.8204 30.9992 5.1726C303.9051 102.4247 288.2714 118 269 118c-18.223 0-33.1933-13.9267-34.848-31.7174C246.011 80.9596 259.16 78 273 78z"
            opacity=".9196" />
        <path fill="#BDD5EE" fill-rule="nonzero"
            d="M181.9444 200.1775l-.3135.2766-1.4693 1.312-1.4388 1.3045c-.4745.4335-.9438.8658-1.4078 1.2966l-.5639.5253-1.1089 1.0437-1.0839 1.0347-1.0588 1.0253-1.0336 1.0157c-.1702.1685-.3393.3366-.5074.5043l-.9957 1.0011-.9703.9912a158.7825 158.7825 0 00-2.314 2.4329l-.8808.9547-.855.9438a131.929 131.929 0 00-.4178.4678l-.8161.9273c-.134.1536-.2667.3067-.3984.4594l-.7771.9102c-.1274.1507-.2537.301-.3788.4508l-.738.8927c-.8457 1.0346-1.6378 2.045-2.3757 3.0298l-.6192.8379c-5.9584 8.1762-8.0563 14.5067-5.9331 18.1842 2.1232 3.6775 8.6545 5.026 18.7146 3.954l1.0351-.1174c1.2219-.1467 2.493-.3275 3.8118-.5425l1.1421-.1927c.1923-.0336.3856-.0678.5798-.1027l1.1768-.218c.3961-.0754.796-.1536 1.1998-.2347l1.2224-.2516 1.2449-.2686c.2093-.0461.4196-.093.6308-.1405l1.2782-.294a162.7816 162.7816 0 003.2912-.8087l1.3542-.3532 1.3755-.3703 1.3965-.3872 1.4173-.4043 1.438-.4214 1.4584-.4385 1.6473-.5082c.3045-.0952.61-.1913.9163-.2883l1.849-.5938 1.871-.6165c.1408-.047.2818-.0941.423-.1415a95.0939 95.0939 0 003.1473 3.1767c-29.9478 10.235-51.6372 12.0005-57.0854 2.5639-5.4467-9.434 6.9185-27.3275 30.7427-48.1378a96.7326 96.7326 0 001.1773 4.3153zm158.165-96.0272c29.3162-9.8674 50.4922-11.4584 55.8662-2.1503 5.4467 9.434-6.9185 27.3275-30.7427 48.1378a96.7326 96.7326 0 00-1.1773-4.3153l.3135-.2766 1.4693-1.312 1.4388-1.3045c.4745-.4335.9438-.8658 1.4078-1.2966l.5639-.5253 1.1089-1.0437 1.0839-1.0347 1.0588-1.0253 1.0336-1.0157c.1702-.1685.3393-.3366.5074-.5043l.9957-1.0011.9703-.9912a158.7825 158.7825 0 002.314-2.4329l.8808-.9547.855-.9438c.1403-.1564.2796-.3124.4178-.4678l.8161-.9273c.134-.1536.2667-.3067.3984-.4594l.7772-.9102c.1273-.1507.2536-.301.3787-.4508l.738-.8927c.8457-1.0346 1.6378-2.045 2.3757-3.0298l.6192-.8379c5.9584-8.1762 8.0563-14.5067 5.9331-18.1842-2.1232-3.6775-8.6545-5.026-18.7146-3.954l-1.0351.1174c-1.2219.1467-2.493.3275-3.8118.5425l-1.1421.1927c-.1923.0336-.3856.0678-.5798.1027l-1.1768.218c-.3961.0754-.796.1536-1.1998.2347l-1.2224.2516-1.2449.2686c-.2093.0461-.4196.093-.6308.1405l-1.2782.294c-1.0744.2519-2.1716.5214-3.2912.8087l-1.3542.3532-1.3755.3703-1.3965.3872-1.4173.4043-1.438.4214-1.4584.4385-1.6473.5082c-.3045.0952-.61.1913-.9163.2883l-1.849.5938-1.871.6165-.422.1411a96.4146 96.4146 0 00-3.1483-3.1763z" />
        <g opacity=".45" transform="rotate(-30 217.9615 -324.973)">
            <path stroke="#BDD5EE" stroke-linecap="round" stroke-linejoin="round" stroke-width="4"
                d="M0 7V4c0-2.2091 1.7909-4 4-4h6c2.2091 0 4 1.7909 4 4v5.5c0 1.933-1.567 3.5-3.5 3.5H9c-1.1046 0-2 .8954-2 2v4h0" />
            <circle cx="7" cy="27" r="2" fill="#BDD5EE" />
        </g>
        <g opacity=".78" transform="rotate(-30 232.3468 -541.1018)">
            <circle cx="3" cy="37" r="3" fill="#BDD5EE" />
            <path stroke="#BDD5EE" stroke-linecap="round" stroke-linejoin="round" stroke-width="4"
                d="M0 20c11.0457 0 20 8.9543 20 20h0" />
            <path stroke="#BDD5EE" stroke-linecap="round" stroke-linejoin="round" stroke-width="4"
                d="M0 10c16.5685 0 30 13.4315 30 30h0" />
            <path stroke="#BDD5EE" stroke-linecap="round" stroke-linejoin="round" stroke-width="4"
                d="M0 0c22.0914 0 40 17.9086 40 40h0" />
        </g>
        <path stroke="#BDD5EE" stroke-width="4"
            d="M394.2436 103C403.08 118.3054 355.961 162.0529 289 200.7128c-66.961 38.66-128.407 57.5926-137.2436 42.2872" />
    </g>
</svg>