<svg width="24" height="24" xmlns="http://www.w3.org/2000/svg"><path d="M3 12.235c0-1.251.237-2.448.712-3.59.474-1.142 1.113-2.125 1.916-2.95A9.005 9.005 0 0 1 8.502 3.73 8.636 8.636 0 0 1 12 3c1.219 0 2.385.243 3.498.73a8.986 8.986 0 0 1 2.874 1.967c.803.823 1.442 1.806 1.916 2.95A9.265 9.265 0 0 1 21 12.233c0 2.008-.571 3.815-1.714 5.42-1.142 1.606-2.61 2.721-4.403 3.346-.094 0-.164-.018-.21-.054-.048-.035-.075-.072-.08-.108a1.1 1.1 0 0 1-.01-.162.14.14 0 0 1-.017-.054v-2.327a2.59 2.59 0 0 0-.756-1.876c1.348-.24 2.356-.754 3.024-1.542.668-.787 1.002-1.74 1.002-2.86 0-1.045-.328-1.953-.985-2.723.235-.77.194-1.581-.122-2.435-.329-.024-.686.034-1.073.172-.386.138-.673.267-.861.387a13.1 13.1 0 0 0-.51.343c-.68-.192-1.438-.289-2.276-.289-.838 0-1.59.097-2.259.29a11.396 11.396 0 0 0-.448-.317c-.17-.114-.466-.252-.888-.414-.422-.163-.803-.232-1.143-.208-.328.866-.363 1.69-.105 2.471-.644.77-.967 1.678-.967 2.724 0 1.118.328 2.069.985 2.85.656.781 1.664 1.299 3.023 1.551a2.584 2.584 0 0 0-.703 1.263c-.996.252-1.693.072-2.092-.542-.738-1.106-1.4-1.502-1.986-1.19-.083.084-.07.171.035.262.105.09.263.21.475.36.21.151.368.316.474.497.012.024.044.111.097.261.05.145.103.29.158.433.052.138.152.292.3.46.145.168.316.31.509.424.193.114.46.199.8.253.34.053.726.056 1.16.009v1.812a.78.78 0 0 1-.01.09.157.157 0 0 1-.034.09.357.357 0 0 1-.07.055.216.216 0 0 1-.115.027c-.047 0-.105-.006-.176-.018-1.781-.638-3.23-1.753-4.35-3.346C3.559 16.025 3 14.23 3 12.235Z" fill="#FFF"/></svg>