<?xml version="1.0" encoding="UTF-8"?>
<svg width="22px" height="22px" viewBox="0 0 22 22" version="1.1" xmlns="http://www.w3.org/2000/svg" xmlns:xlink="http://www.w3.org/1999/xlink">
    <title>矩形备份 21</title>
    <g id="多窗口" stroke="none" stroke-width="1" fill="none" fill-rule="evenodd" stroke-linejoin="round">
        <g id="文件格式（图标）" transform="translate(-128.000000, -218.000000)" fill-rule="nonzero" stroke="#55C2E1">
            <g id="编组-15备份-11" transform="translate(128.000000, 218.000000)">
                <g id="cocos-场景资源备份" transform="translate(4.500000, 2.250000)">
                    <path d="M3.97192299,-0.901653089 L6.22883237,0.546864807 C6.41556851,0.674368594 7.21109573,1.21314205 8.17961627,2.13500216 C8.58755613,2.52421793 9.11435139,3.0665343 9.64907122,3.73290107 L9.84974596,3.98854673 L10.5310498,2.87341254 L11.650004,5.87405768 C12.1169889,7.12327118 12.3765681,8.36486389 12.4376046,9.56880464 L12.4506089,9.96868251 L13.7798462,10.5508443 L12.6758719,12.7121281 C11.9623505,14.1021983 11.1025219,15.2185326 10.1272034,16.0159687 C9.2946298,16.7116819 8.54842427,17.0293747 8.06517036,17.1806875 C7.60358529,17.3467488 7.12170541,17.4504534 6.63646724,17.4864345 C5.07326952,17.5009712 3.98864895,17.1575083 3.03964688,16.5265006 C2.51588011,16.2318706 1.30478505,15.388101 0.441203752,13.5086385 C-0.0375994781,12.466591 -0.411810424,11.0980882 -0.486476807,9.30736877 L-0.497820834,8.91714577 L-0.486442262,4.54420007 L0.831905513,6.53163914 C1.43748304,5.09991178 2.35609314,3.77654065 3.58408757,2.58975084 L3.89752958,2.29591516 L3.97192299,-0.901653089 Z M8.6386123,10.0679968 L8.51505631,10.0764352 C8.27043504,10.1105428 8.04184987,10.2456094 7.84895479,10.4379613 C7.53671685,10.7493201 7.31258528,11.2131479 7.23461157,11.748138 C7.15683209,12.2780391 7.2430141,12.785004 7.45421642,13.1740244 C7.6307177,13.4991279 7.89696979,13.7464645 8.23514106,13.7977744 C8.57196629,13.8484065 8.89260878,13.6937779 9.14980222,13.4373086 C9.46204016,13.1259499 9.68617173,12.6621221 9.76414544,12.127132 C9.84199734,11.5929776 9.75805924,11.0848435 9.54705045,10.6961795 C9.37133334,10.3725205 9.10471889,10.1287715 8.76429503,10.0775981 L8.76429503,10.0775981 L8.6386123,10.0679968 Z M4.01839998,10.0679752 L3.8921538,10.0775981 C3.55172994,10.1287715 3.28511549,10.3725205 3.10939838,10.6961795 C2.89838959,11.0848435 2.81445149,11.5929776 2.89230339,12.127132 C2.97001048,12.6565364 3.19577365,13.1170417 3.50773755,13.4281272 C3.7669657,13.6866254 4.08931801,13.8449765 4.42589961,13.7970995 C4.76241071,13.7464984 5.02902516,13.5027495 5.20474227,13.1790904 C5.41575107,12.7904264 5.49968917,12.2822924 5.42183727,11.748138 C5.34745119,11.2123286 5.12451115,10.7507049 4.81318001,10.4402504 C4.55445743,10.1822563 4.23098808,10.0266636 3.8921538,10.0775981 Z" id="形状结合"></path>
                </g>
            </g>
        </g>
    </g>
</svg>