<svg width="24" height="24" fill="none" xmlns="http://www.w3.org/2000/svg"><path opacity=".01" fill="#fff" d="M0 0h24v24H0z"/><path d="m11 7-.442.442a.625.625 0 0 0 .442.183V7ZM4.625 17V7h-1.25v10h1.25ZM6 5.625h2.172v-1.25H6v1.25Zm3.144.403 1.414 1.414.884-.884-1.414-1.414-.884.884ZM11 7.625h7v-1.25h-7v1.25ZM19.375 9v4h1.25V9h-1.25ZM14 18.375H6v1.25h8v-1.25Zm4-10.75c.76 0 1.375.616 1.375 1.375h1.25A2.625 2.625 0 0 0 18 6.375v1.25Zm-9.828-2c.364 0 .714.145.972.403l.884-.884a2.625 2.625 0 0 0-1.856-.769v1.25ZM4.625 7c0-.76.616-1.375 1.375-1.375v-1.25A2.625 2.625 0 0 0 3.375 7h1.25Zm-1.25 10A2.625 2.625 0 0 0 6 19.625v-1.25c-.76 0-1.375-.616-1.375-1.375h-1.25Z" fill="#5D6066"/><path d="M4 10h16" stroke="#5D6066" stroke-width="1.25"/><path d="M17 13v6" stroke="#5D6066" stroke-width="1.25" stroke-linejoin="round"/><path d="M20 16h-6" stroke="#5D6066" stroke-width="1.25"/></svg>