<svg width="132" height="132" xmlns="http://www.w3.org/2000/svg"><defs><linearGradient x1="50%" y1="0%" x2="50%" y2="100%" id="a"><stop stop-color="#FFF" stop-opacity=".4" offset="0%"/><stop stop-color="#FFF" stop-opacity=".664" offset="100%"/></linearGradient></defs><g fill="none" fill-rule="evenodd"><path fill="#BFD9FF" d="M0 132V0h132v132z"/><rect fill="url(#a)" x="4" y="27" width="124" height="83" rx="8"/><path d="m60.485 109.55-2.914-18.548A17.24 17.24 0 0 0 46.5 77.5a36.495 36.495 0 0 0-19.445-1.606L26.5 76a14.687 14.687 0 0 0-11.826 12.606L12 110" fill="#3381FF"/><path d="m33 75-.336.504A5.606 5.606 0 0 1 28 78l-1.86.372A6.87 6.87 0 0 1 20.5 77l-.157-.126A6.242 6.242 0 0 1 18 72a9 9 0 0 1 1.8-5.4L21 65l2.55-7.013A19.124 19.124 0 0 1 28 51l.15-.15A11.749 11.749 0 0 1 35 47.5a8.242 8.242 0 0 1 6.85 2.35L42 50l.879.586A6.155 6.155 0 0 1 45.5 54.5l.108.539c.26 1.304.392 2.63.392 3.961 0 1.315.306 2.612.894 3.789L47 63a13.78 13.78 0 0 0 2.581 3.581L50 67a5.496 5.496 0 0 1 1.535 4.79L51.5 72a5.051 5.051 0 0 1-3.385 3.962L48 76l-.232.232A6.036 6.036 0 0 1 43.5 78a3.469 3.469 0 0 1-3.29-2.372L40 75h-7Z" fill="#444E60"/><path d="m43.128 56.365.492.947a16.679 16.679 0 0 1 1.751 9.714l-.147 1.201a7.776 7.776 0 0 1-3.938 5.85 8.94 8.94 0 0 1-1.38.621l.036 2.22a5.065 5.065 0 0 1-3.095 4.752l-.134.056a6.635 6.635 0 0 1-5.866-.35 4.202 4.202 0 0 1-1.965-4.78l1.207-4.321a8.016 8.016 0 0 1-1.845-3.63l-.652-3.01-1.833-.557a2.132 2.132 0 0 1-1.49-2.353 1.912 1.912 0 0 1 2.097-1.62l1.405.151.181-3.044a7.076 7.076 0 0 1 6.375-6.623 8.936 8.936 0 0 1 8.801 4.776Z" fill="#FFF"/><path d="M27.77 61.26A4.503 4.503 0 0 1 32.266 57h4.154a9.743 9.743 0 0 0 3.081-.5 2.725 2.725 0 0 0 1.81-2.05L42 51H29l-3 6 1.77 4.26ZM87.651 69l-1.237-.53a7.868 7.868 0 0 1-4.205-4.312l-.192-.482a10.944 10.944 0 0 1-.715-5.268 5.535 5.535 0 0 1 2.652-4.135l.674-.405c0-2.87 1.89-5.398 4.645-6.21l.494-.145a12.687 12.687 0 0 1 9.808 1.116l3.662 2.061a3.361 3.361 0 0 1 1.647 2.27 2.886 2.886 0 0 1-.789 2.605l-.118.12a4.624 4.624 0 0 1 .24 6.275l-.845.987L87.652 69Z" fill="#444E60"/><path d="m119.485 109.55-2.914-18.548A17.24 17.24 0 0 0 105.5 77.5a36.495 36.495 0 0 0-19.445-1.606L85.5 76a14.687 14.687 0 0 0-11.826 12.606L71 110" fill="#3381FF"/><path d="m102.128 56.365.492.947a16.679 16.679 0 0 1 1.751 9.714l-.147 1.201a7.776 7.776 0 0 1-3.938 5.85 8.94 8.94 0 0 1-1.38.621l.036 2.22a5.065 5.065 0 0 1-3.095 4.752l-.134.056a6.635 6.635 0 0 1-5.866-.35 4.202 4.202 0 0 1-1.965-4.78l1.207-4.321a8.016 8.016 0 0 1-1.845-3.63l-.652-3.01-1.833-.557a2.132 2.132 0 0 1-1.49-2.353 1.912 1.912 0 0 1 2.097-1.62l1.405.151.181-3.044a7.076 7.076 0 0 1 6.375-6.623 8.936 8.936 0 0 1 8.801 4.776Z" fill="#FFF"/><path d="m86.58 61 .224-.09a4.784 4.784 0 0 0 3.002-4.44l1.252.21c4.291.717 8.677.646 12.942-.21l-1.935-5.176L91.097 50 84 55.824 86.58 61Z" fill="#444E60"/><circle fill="#66A1FF" cx="13" cy="36" r="3"/></g></svg>