<svg xmlns="http://www.w3.org/2000/svg" width="240" height="240" fill="none"><style>.B{fill:#fff}.C{fill:#3381ff}.D{fill:#152f8c}.E{fill:#4951ec}</style><path fill="url(#B)" d="M0 0h240v240H0z"/><g class="B"><rect x="15" y="18" width="210" height="100" rx="8" fill-opacity=".5"/><path d="M170.089 52.309a.248.248 0 0 0-.073.011.266.266 0 0 0-.163.123c-.376.88-.659 1.703-.869 2.51-.895-.435-1.971-.652-3.199-.652a13.4 13.4 0 0 0-1.514.094 16.36 16.36 0 0 0-2.626.547 19.04 19.04 0 0 0-2.166.775c.01-.072.014-.152.018-.228.003-.083-.011-.145-.051-.196a.262.262 0 0 0-.181-.105h-.004c-.156 0-.293.094-.301.232l-.039.561a.273.273 0 0 0-.047.319 6.95 6.95 0 0 1-.185 1.003 6.43 6.43 0 0 1-.591 1.431 5.74 5.74 0 0 1-.844 1.079 6.82 6.82 0 0 1-1.329.975c-1.185.652-2.518 1.025-3.67 1.322l.058-.007-2.126.507-2.967.739c-.953.264-1.779.54-2.521.844a15.85 15.85 0 0 0-2.431 1.246l-.721.482-.384.283-.138.109-.239.181a.266.266 0 0 0-.105.167.283.283 0 0 0 .047.21c.044.08.087.116.127.148.71.554 1.54 1.061 2.539 1.558.79.395 1.663.764 2.819 1.203l2.945 1.032 3.293.898a50.85 50.85 0 0 0 6.734 1.065l3.413.217 2.046.04.993-.011c2.199-.051 4.097-.283 5.81-.714a16.24 16.24 0 0 0 2.746-.949 13.04 13.04 0 0 0 1.272-.666c.434-.257.847-.558 1.25-.851l.047-.033.116-.083s.018-.014.018-.018l.014-.014.312-.207a.285.285 0 0 0 .13-.163.39.39 0 0 0 .044-.036.268.268 0 0 0 .076-.196.26.26 0 0 0-.076-.185l-3.529-3.086-.891-.71-.822-.678a10.921 10.921 0 0 1-1.304-1.387 9.02 9.02 0 0 1-1.087-1.844 8.63 8.63 0 0 1-.569-2.079 10.09 10.09 0 0 1 .015-2.579c.17-1.214.525-2.453 1.086-3.789l-.025.036.044-.08c.025-.065.047-.127.025-.206a.25.25 0 0 0-.123-.159.237.237 0 0 0-.127-.036z"/></g><path d="M170.013 52.313c-.058.018-.138.065-.163.127a17.31 17.31 0 0 0-.873 2.51c-.884-.435-1.957-.656-3.192-.656a13.41 13.41 0 0 0-1.511.094 16.26 16.26 0 0 0-2.629.551 18.2 18.2 0 0 0-2.167.775c.022-.069.026-.145.029-.225s-.011-.149-.051-.203-.112-.098-.188-.109c-.17 0-.304.105-.311.239l-.044.562a.273.273 0 0 0-.043.322 6.9 6.9 0 0 1-.189.996 6.721 6.721 0 0 1-.391 1.054l1.003.33a16.96 16.96 0 0 0 4.333.634h-.022c1.112.011 2.225-.087 3.3-.362a9.042 9.042 0 0 0 1.044-.333 7.59 7.59 0 0 0 .952-.449h.004l.232-.134c-.007-.485.025-.982.09-1.489.167-1.206.522-2.445 1.084-3.786l-.037.029.051-.072c.029-.065.051-.127.025-.214a.271.271 0 0 0-.126-.163.27.27 0 0 0-.138-.04.332.332 0 0 0-.072.011z" class="C"/><path d="M101.355 40.591h-.062c-.203.011-.42.109-.645.286a2.46 2.46 0 0 0-.59.692 3.363 3.363 0 0 0-.33.848c-.073.283-.116.59-.138.974-.036.67.014 1.409.159 2.253a16.71 16.71 0 0 0 .543 2.239c.178.58.359 1.072.551 1.507a17.914 17.914 0 0 1-.641-1.409l-.576-1.264c-.268-.518-.525-.909-.804-1.232a2.32 2.32 0 0 0-.359-.337 1.13 1.13 0 0 0-.395-.185.412.412 0 0 0-.12-.014.841.841 0 0 0-.225.036c-.12.033-.214.12-.297.203s-.138.192-.185.29c-.065.138-.105.29-.138.42a4.206 4.206 0 0 0-.105.967 8.04 8.04 0 0 0 .069 1.141c.062.456.163.898.268 1.308l.42 1.398a19 19 0 0 0 1.163 2.641c.688 1.308 1.544 2.626 2.685 4.155a.263.263 0 0 0 .159.221l.391.5a.285.285 0 0 0 .218.109.257.257 0 0 0 .159-.054.272.272 0 0 0 .091-.308c.289.058.608.083.945.083.645 0 1.301-.09 1.978-.272s1.319-.427 1.902-.743 1.061-.659 1.467-1.065c.014.221.043.446.076.666a.273.273 0 0 0 .268.236c.105-.011.17-.051.214-.109s.061-.127.05-.196a10.42 10.42 0 0 1-.123-1.485 5.935 5.935 0 0 1 .192-1.485c.12-.413.297-.815.522-1.199l-.004.007a6.74 6.74 0 0 1 .783-1.025l.445-.449.207-.203.706-.786c.239-.308.391-.59.471-.858l.055-.232c.01-.076.01-.156.01-.232a1.079 1.079 0 0 0-.116-.442c-.148-.293-.427-.54-.825-.732a1.884 1.884 0 0 0-.826-.174l-.225.011c-.178.018-.355.062-.518.109s-.33.116-.533.214c-.492.246-.978.605-1.485 1.105a6.013 6.013 0 0 0-.587.663l-.018-.565.051-1.184.014-.236.008-.145.083-1.775-.014-1.96c-.029-.475-.084-1.032-.265-1.561-.109-.315-.322-.717-.732-.84a1.438 1.438 0 0 0-.427-.069c-.058 0-.12.004-.181.015a1.201 1.201 0 0 0-.522.228c-.366.272-.572.714-.695 1.022-.214.529-.326 1.09-.399 1.518-.145.837-.221 1.75-.25 2.956l-.007 1.061-.417-1.445.004.011-.489-2.058-.402-1.601c-.131-.438-.323-1.007-.649-1.5a1.674 1.674 0 0 0-.449-.478 1.003 1.003 0 0 0-.268-.134.79.79 0 0 0-.293-.051z" class="B"/><g class="C"><path d="M103.598 50.668c-.149.71-.225 1.427-.159 2.152s.282 1.449.717 2.036a.32.32 0 0 0 .17.13.284.284 0 0 0 .348-.199c.018-.072.014-.159-.029-.217a4.74 4.74 0 0 1-.493-.859 4.72 4.72 0 0 1-.297-1.116 5.96 5.96 0 0 1 .018-1.431.166.166 0 0 1-.007.047l.076-.453c.022-.098-.025-.192-.123-.221a.172.172 0 0 0-.047-.007c-.076.007-.156.058-.174.138zm.261 1.931.007.054a.25.25 0 0 1-.007-.054zm4.542 2.703-.877.036c-.713.058-1.467.192-2.238.395a12.19 12.19 0 0 0-2.105.764 7.584 7.584 0 0 0-1.75 1.112.31.31 0 0 0-.098.174.241.241 0 0 0-.097.206c.188 2.539.576 5.253 1.224 8.535l.902 4.231.927 4.086 2.123 8.017 1.337 3.916 1.46 3.452c.934 1.898 2.076 3.561 3.394 4.945 1.286 1.347 2.75 2.409 4.351 3.159a13.47 13.47 0 0 0 2.499.884 14.67 14.67 0 0 0 2.688.398l.855.025c1.587 0 3.268-.246 4.996-.735a25.13 25.13 0 0 0 3.064-1.094 26.15 26.15 0 0 0 2.768-1.362 22.053 22.053 0 0 0 4.575-3.434 18.99 18.99 0 0 0 3.271-4.285 19.394 19.394 0 0 0 1.946-5.032c.42-1.772.619-3.684.59-5.68a28.167 28.167 0 0 0-.221-3.046l-.239-1.579-.051-.286-.007-.047-.007-.051-.069-.38-.141-.859-.026-.156-.554-2.865c-.29-1.112-.677-2.007-1.181-2.731a.34.34 0 0 0-.094-.098.2.2 0 0 0-.036-.127.277.277 0 0 0-.232-.13.29.29 0 0 0-.145.04c-.761.406-1.511.927-2.366 1.648-.652.547-1.311 1.181-2.144 2.05l-1.293 1.387-.167.181-.174.188-.348.373-.485.522-.196.21-.391.42-1.116 1.235-3.434 4.075-1.63 2.108-1.5 2.05-.087.12-.021.047-1.152 1.543c-.431-.978-1.033-1.891-1.511-2.579l-.594-.844-.072-.098-.254-.355-.913-1.3-3.394-5.282a91.14 91.14 0 0 1-5.619-11.074l-.036-.087-.036-.087.007.072-2.47-6.608a.35.35 0 0 0-.087-.134.304.304 0 0 0-.185-.105 8.824 8.824 0 0 0-1.134-.076z"/><path d="M141.616 65.521c-.014 0-.032 0-.047.004a.25.25 0 0 0-.127.062.175.175 0 0 0-.047.029 4.357 4.357 0 0 0-.782.768c-.196.254-.355.54-.475.848-.199.522-.279 1.13-.235 1.869.036.612.155 1.239.264 1.793l.036.196.189 1.04.036.207.022.13.134.993c-1.37 1.876-2.42 3.488-3.304 5.072-1.105 1.971-1.891 3.818-2.405 5.655-.576 2.05-.75 4.054-.522 5.959.123 1.004.373 2.018.743 3.018a15.79 15.79 0 0 0 1.304 2.663c1.105 1.826 2.536 3.409 3.919 4.851-.59 4.981-1.315 9.321-2.217 13.266a84.51 84.51 0 0 1-.942 3.734.223.223 0 0 0 .026.178c.036.069.101.12.174.138a.225.225 0 0 0 .155.101c5.775.975 11.545 1.253 15.925 1.391l7.622.156.391.007.855.015.395.003 2.724.047 3.213.109.196.007.344.015.37.014 5.046.138h.203c.742 0 1.507-.015 2.271-.047a27.87 27.87 0 0 0 2.518-.199.292.292 0 0 0 .188-.087.277.277 0 0 0 .051-.08.204.204 0 0 0 .083-.091c2.586-5.14 4.155-11.03 4.659-17.504a69.852 69.852 0 0 0-.529-15.294 55.216 55.216 0 0 0-1.696-7.756 40.526 40.526 0 0 0-2.843-7.126 29.953 29.953 0 0 0-2.279-3.71.29.29 0 0 0-.167-.123.3.3 0 0 0-.072-.011.26.26 0 0 0-.123.033.259.259 0 0 0-.156.062c-.083.058-.167.109-.25.163l.054-.011c-.844.507-1.782.924-2.872 1.272-1.304.402-2.743.696-4.532.913-.638.08-1.311.148-2.184.221a52.96 52.96 0 0 1-2.351.148l-.051.007-1.826.025c-3.478 0-6.897-.366-10.158-1.09l-.061-.014-.351-.08.043.029c-3.405-.819-6.564-2.003-9.393-3.525l.05.047-.441-.264c-.2-.112-.395-.228-.591-.344a.58.58 0 0 0-.174-.036z"/></g><path d="M178.655 70.284h-.003l-.783.84-1.376 1.648a26.054 26.054 0 0 0-1.848 2.717l-.804 1.471-.659 1.424a21.85 21.85 0 0 0-.928 2.677l-.333 1.391-.224 1.337a21.045 21.045 0 0 0-.174 3.615l.058.985.083.877.206 1.71.515 3.441.018.109.025.167.489 3.322.33 3.467a24.429 24.429 0 0 1-.04 3.336 18.29 18.29 0 0 1-.746 3.952 16.932 16.932 0 0 1-1.786 3.898 19.63 19.63 0 0 1-1.344 1.898l-1.355 1.525a25.53 25.53 0 0 1-2.977 2.565l-1.453 1.011 1.25.036.63.014 2.768.091.246.011.199.007.196.007.344.015.369.014 5.047.138h.202l2.272-.047 2.521-.199a.336.336 0 0 0 .199-.094.286.286 0 0 0 .051-.084.158.158 0 0 0 .083-.09c2.59-5.144 4.159-11.035 4.663-17.508a70.5 70.5 0 0 0 .163-7.444 69.33 69.33 0 0 0-.696-7.85 55.15 55.15 0 0 0-1.699-7.76c-.757-2.554-1.713-4.952-2.847-7.126a28.743 28.743 0 0 0-.844-1.518zm-38.637 3.848-3.264 5.213c-.989 1.829-1.822 3.76-2.304 5.785a15.75 15.75 0 0 0-.423 3.057 12.57 12.57 0 0 0 .029 1.529 12.54 12.54 0 0 0 .217 1.485c.199.982.522 1.942.92 2.862.409.949.902 1.862 1.456 2.735a21.18 21.18 0 0 0 1.511 2.068l.804.92.457.478.242.236.301.264c.13.109.319.116.442-.011a.33.33 0 0 0 .087-.228.317.317 0 0 0-.098-.213l-.424-.435-.42-.435-.688-.808a21.643 21.643 0 0 1-2.862-4.601l.04.087c-.518-1.148-.92-2.347-1.145-3.59a13.807 13.807 0 0 1-.105-3.499c.177-1.757.648-3.478 1.275-5.122-.007.014-.011.033-.018.047a33.853 33.853 0 0 1 1.891-4.032 46.46 46.46 0 0 1 2.264-3.688c.033-.047.004-.116-.043-.145a.084.084 0 0 0-.051-.014c-.033 0-.069.022-.091.054z" class="E"/><path d="M135.501 105.434c-.652 0-1.297.054-1.916.163a9.416 9.416 0 0 0-1.127.272 8.85 8.85 0 0 0-1.076.391c-.387.17-.775.402-1.184.71-.471.351-.779.713-.946 1.101a1.09 1.09 0 0 0-.054.663c.043.188.156.377.322.543l-.032.037a2.494 2.494 0 0 0-.395.865c-.069.268-.131.765.213 1.073.225.199.533.293.975.293h.076a5.673 5.673 0 0 0 1.018-.127c-.036.036-.069.084-.102.131a2.46 2.46 0 0 0-.221.445.964.964 0 0 0-.068.384.686.686 0 0 0 .09.326.67.67 0 0 0 .254.239c.224.127.492.145.699.153h.076c.351 0 .714-.055 1.029-.102l.253-.04.823-.108h-.004l1.511-.062c1.007 0 2.003.087 2.959.257 1.214.225 2.38.598 3.449 1.105l.873.442 1.29.638c.854.387 1.633.594 2.38.626.152 0 .271-.116.279-.257s-.113-.275-.258-.283a4.495 4.495 0 0 1-.605-.065l-.246-.054c.123-.159.232-.337.322-.518.131-.261.24-.551.323-.869.156-.595.21-1.25.159-1.957a7.093 7.093 0 0 0-.42-1.941 5.87 5.87 0 0 0-.442-.939c.058-.025.105-.083.127-.148s.014-.145-.018-.21-.087-.098-.156-.131l-.446-.199a.222.222 0 0 0-.148-.065c-2.927-1.301-6.235-2.782-9.636-2.782z" class="B"/><path d="M134.599 110.44c-.544.054-1.084.159-1.616.29a11.95 11.95 0 0 0-1.449.46c-.044.018-.062.076-.044.116.022.047.073.058.116.04l.388-.142c.804-.26 1.652-.405 2.503-.46s1.721-.007 2.565.167l-.051-.011.522.134c.047.015.094.015.141-.007s.08-.058.094-.105c.033-.094-.018-.207-.112-.236a6.764 6.764 0 0 0-2.079-.3l-.978.054zm-2.601.768zm2.758-3.546a11.64 11.64 0 0 0-1.805.195c-.586.105-1.166.243-1.731.431a7.234 7.234 0 0 0-1.489.667c-.04.025-.062.072-.04.116s.076.069.116.043a6.06 6.06 0 0 1 1.199-.539c.42-.138.862-.239 1.308-.319.453-.08.909-.127 1.369-.156l1.355-.022.645.022.33.022.315.018c.098.011.188-.072.195-.17a.182.182 0 0 0-.043-.134.2.2 0 0 0-.131-.066c-.01-.003-.021-.003-.032-.003a6.273 6.273 0 0 0-1.275-.112l-.286.007zm-3.753.916zm46.077-40.511a.291.291 0 0 0-.254.156c-1.257.583-2.43 1.514-3.485 2.764-.996 1.185-1.84 2.615-2.51 4.249a17.37 17.37 0 0 0-1.206 4.724c-.08.761-.102 1.514-.055 2.235.062.942.258 1.942.58 2.974.279.891.659 1.833 1.199 2.96l1.355 2.623.025.047.084.156 3.064 6.082.96 2.166 1.076 2.71.884 2.579c-1.5-.435-3.155-.685-5.057-.761l-1.286-.025c-1.5 0-3.086.094-4.988.301l-3.3.467-3.337.663-.742.159-5.93 1.123-4.108.54-.475.061-2.518.319-.282.036-1.869.236a.269.269 0 0 0-.196.127c-.087.069-.145.206-.076.326.228.405.42.858.572 1.34.221.743.355 1.576.395 2.474l.007.047a13.74 13.74 0 0 1-.34 3.384l-.174.63a.289.289 0 0 0 .007.214.232.232 0 0 0 .051.072.18.18 0 0 0 .018.033c.04.062.098.09.17.112 1.529.475 3.134.714 4.641.899l.616.072.308.036.485.058.942.109 2.459.272 9.857.702 4.949.105h1.402l.76.004 1.047.011 1.047.011.993.003c2.409 0 4.992-.068 7.556-.579 1.493-.297 2.746-.696 3.84-1.214a11.92 11.92 0 0 0 1.565-.891c.446-.297.902-.656 1.395-1.094 1.663-1.481 3.01-3.514 3.905-5.868a18.14 18.14 0 0 0 .931-3.464c.192-1.162.275-2.441.246-3.912-.05-2.778-.543-5.767-1.463-8.882-.79-2.666-1.898-5.423-3.391-8.422l-1.047-2.032-.391-.761-.156-.301-.123-.257a.126.126 0 0 0-.033-.047l-.326-.623a.23.23 0 0 0-.039-.054 32.15 32.15 0 0 0-1.967-3.137l-1.895-2.547-1.949-2.438c-1.054-1.282-2.34-2.75-3.869-3.869a.297.297 0 0 0-.185-.073.365.365 0 0 0-.083.015c-.051-.036-.109-.069-.167-.105a.265.265 0 0 0-.119-.029z" class="C"/><path d="M169.847 103.409c-2.457.137-4.884.579-7.289 1.079l-3.623.765-1.807.358-1.844.326-5.285.844-2.652.359-1.29.156-.666.076-.656.072c-.094.011-.163.113-.17.2-.007.112.087.228.206.228a8.6 8.6 0 0 0 .866-.051l.982-.094 1.902-.217 3.789-.529 3.771-.609 3.622-.71 9.379-1.688a34.893 34.893 0 0 1 4.434-.029c1.456.076 2.909.232 4.34.5h-.007a25.22 25.22 0 0 1 2.858.71 20.1 20.1 0 0 1 2.749 1.079c.055.026.124-.018.142-.068.021-.066-.018-.116-.073-.142a27.303 27.303 0 0 0-3.264-1.315 26.273 26.273 0 0 0-3.376-.865 28.742 28.742 0 0 0-5.285-.479 25.69 25.69 0 0 0-1.753.044zm-.732.561c-.011 0-.022.004-.033.004.011-.004.022-.004.033-.004zm8.759.478c.011 0 .022.004.029.008-.011-.004-.022-.008-.029-.008z" class="E"/><path d="M191.53 0a11.13 11.13 0 0 0-2.195.228 12.635 12.635 0 0 0-3.101 1.08 13.83 13.83 0 0 0-2.746 1.804 12.589 12.589 0 0 0-2.17 2.347c-1.261 1.771-1.869 3.753-1.721 5.59a6.993 6.993 0 0 0 .909 2.909 8.467 8.467 0 0 0 1.305 1.717.21.21 0 0 0-.098.091c-.033.054-.055.141-.029.206l.105.268.963 2.576.609 1.761.311.909c.573 1.656 1.221 3.42 2.069 5.093.435.851.927 1.685 1.467 2.471l.917 1.235.999 1.163a12.46 12.46 0 0 0 2.109 1.775 10.6 10.6 0 0 0 2.315 1.152c.764.272 1.59.449 2.456.529l.847.036a11.06 11.06 0 0 0 1.692-.134c.833-.127 1.688-.366 2.539-.71s1.674-.772 2.431-1.272c1.833-1.217 3.242-3.278 3.967-5.811.337-1.174.518-2.427.536-3.728a14.145 14.145 0 0 0-.442-3.738 11.541 11.541 0 0 0-1.438-3.344 8.911 8.911 0 0 0-2.467-2.561 8.15 8.15 0 0 0-2.29-1.076l-.112-1.174-.46-3.543a11.172 11.172 0 0 0-.902-2.684c-.333-.67-.79-1.326-1.384-2a9.473 9.473 0 0 0-2.793-2.184 8.97 8.97 0 0 0-1.55-.616 9.37 9.37 0 0 0-1.609-.312A10.268 10.268 0 0 0 191.53 0z" class="D"/><path d="M180.081 15.055h-.087a.282.282 0 0 0-.196.062.292.292 0 0 0-.098.185.3.3 0 0 0 .076.217c.047.051.109.08.17.08h.069l1.152.036.033.446c.014.446-.015.866-.051 1.409l-.123 1.257a26.48 26.48 0 0 1-.449 2.543c-.862 3.753-2.445 7.357-3.974 10.846l-.721 1.652c-1.398 3.221-2.945 6.977-3.59 10.864-.279 1.681-.344 3.126-.192 4.427l-.127 1.141a26.227 26.227 0 0 0-.137 2.985c-.008.011-.018.022-.026.036a.28.28 0 0 0-.025.207c.014.058.062.134.127.159 1.836.772 3.713 1.177 5.571 1.206h.189c.902 0 1.793-.101 2.655-.304a9.686 9.686 0 0 0 2.311-.862c.873-.391 1.616-.891 2.206-1.492 1.594-1.612 2.054-3.854 2.5-6.024l.021-.112.225-1.054-.022.036a27.42 27.42 0 0 1 .83-2.779c.293-.819.648-1.684 1.152-2.807l.829-1.808c.558-1.203 1.134-2.442 1.627-3.691.829-2.108 1.286-3.988 1.398-5.745.127-2.014-.199-4.021-.938-5.8a11.167 11.167 0 0 0-1.279-2.253 11.266 11.266 0 0 0-1.717-1.855c-1.235-1.072-2.731-1.902-4.452-2.46-1.547-.496-3.202-.746-4.937-.746z" fill="#2867cc"/><path d="M146.064 26.05c-4.369-.83-8.702 2.619-9.669 7.701s1.797 9.882 6.166 10.712 8.701-2.619 9.668-7.702-1.797-9.882-6.165-10.712z" class="E"/><path d="M148.245 25.177c-3.931-.482-7.684 3.688-8.372 9.306s1.942 10.571 5.876 11.056 7.683-3.688 8.372-9.306-1.946-10.571-5.876-11.056z" class="D"/><path d="M159.561 14.146c-1.405 0-2.753.12-3.995.359-1.58.301-3.018.793-4.278 1.471a12.06 12.06 0 0 0-1.873 1.232 11.43 11.43 0 0 0-1.63 1.605 11.67 11.67 0 0 0-.902 1.25.18.18 0 0 0-.051-.007.29.29 0 0 0-.236.134c-1.072 1.648-1.938 3.586-2.64 5.923-.609 2.014-1.047 4.198-1.341 6.673l-.271 3.267-.019 3.094c.12 2.087.569 4.141 1.33 6.1.775 2 1.851 3.804 3.195 5.358a15.68 15.68 0 0 0 2.271 2.141 16.668 16.668 0 0 0 2.724 1.688c2.971 1.496 6.438 2.286 10.024 2.286.949 0 1.913-.054 2.862-.167a23.989 23.989 0 0 0 6.404-1.645 22.467 22.467 0 0 0 2.927-1.467 22.477 22.477 0 0 0 2.648-1.866 20.46 20.46 0 0 0 4.065-4.514c1.058-1.587 1.942-3.383 2.706-5.492.366-1.003.667-2.036.942-3.007.315-1.101.627-2.289.75-3.528a.213.213 0 0 0 .043-.116c.105-.837.105-1.721-.003-2.626a13.25 13.25 0 0 0-.616-2.648c-.555-1.666-1.449-3.365-2.656-5.057a24.496 24.496 0 0 0-3.89-4.264c-1.398-1.214-2.851-2.181-4.311-2.873a33.827 33.827 0 0 0-4.014-1.579 37.614 37.614 0 0 0-4.615-1.185 30.61 30.61 0 0 0-4.821-.533c-.24 0-.482-.007-.729-.007z" class="B"/><path d="M161.964 7.904c-1.307 0-2.626.08-3.923.235-3.343.402-6.35 1.319-8.948 2.724a17.93 17.93 0 0 0-3.691 2.626 16.31 16.31 0 0 0-1.547 1.663 13.21 13.21 0 0 0-1.224 1.768 13.72 13.72 0 0 0-.967 2.079c-.312.844-.5 1.648-.562 2.398-.072.848.051 1.576.37 2.17.166.312.402.587.684.804.301.228.663.37.946.467a7.61 7.61 0 0 0 1.173.283l1.225.149 2.221.094.402.004.862-.029a5.536 5.536 0 0 0 1.163-.192 3.34 3.34 0 0 0 1.025-.482c.3-.214.565-.493.786-.833.206-.319.348-.681.471-1.003l.355-1.043.076-.246.583-1.619c.185-.384.402-.732.649-1.032.217-.254.47-.496.757-.717a10.99 10.99 0 0 0-.439 1.67 7.527 7.527 0 0 0-.09 2.047c.032.308.087.612.166.902.073.261.171.525.305.811.217.471.532.924.938 1.348.362.38.797.724 1.333 1.058.467.29.989.547 1.648.811 1.341.54 2.772.862 3.869 1.08l2.094.373 2.496.373c2.097.283 3.959.417 5.691.417l.666-.007c1.957-.043 3.772-.279 5.402-.703a11.05 11.05 0 0 0-.341 1.166 16.654 16.654 0 0 0-.344 1.978c-.174 1.518-.116 2.913.17 4.148.185.804.482 1.503.873 2.079a4.13 4.13 0 0 0 1.685 1.442.23.23 0 0 0 .069.025c.05.058.126.091.199.091a.21.21 0 0 0 .083-.018 5.645 5.645 0 0 0 1-.529c.283-.185.565-.416.837-.688.463-.456.873-1.043 1.228-1.742.297-.594.55-1.275.764-2.087.17-.641.312-1.344.435-2.21l.246-2.155.026-.261.083-.924.065-1.623a19.47 19.47 0 0 0-1.018-6.314l-.59-1.521a12.58 12.58 0 0 0-.685-1.351 11.181 11.181 0 0 0-1.619-2.097c-.609-.627-1.294-1.188-1.88-1.648l-.805-.623-1.257-.985-.938-.801a.254.254 0 0 0-.174-.065.326.326 0 0 0-.101.018 32.832 32.832 0 0 0-2.76-1.315l-2.286-.887a28.943 28.943 0 0 0-4.362-1.083 34.228 34.228 0 0 0-5.568-.464z" class="D"/><path d="M172.621 9.408h-.083l-.276.051c-.011.018-.014.04-.018.065 0 .018 0 .036.004.054l.235.141.138.069.04.022c1.09.565 2.191 1.34 3.242 2.286a19 19 0 0 1 1.862 1.942 23.29 23.29 0 0 1 1.59 2.181c1.293 2.021 2.34 4.278 3.108 6.713l-.011-.047c.834 2.681 1.286 5.086 1.384 7.346l.004 1.348a.247.247 0 0 0-.058.134 1.707 1.707 0 0 0-.011.507l.025.181a13.392 13.392 0 0 1-.213 1.652c-.022.12.04.261.108.34a.47.47 0 0 0 .308.159h.04c.109 0 .217-.04.301-.112a.48.48 0 0 0 .159-.308l.055-.409c.134.13.3.254.492.366.239.141.522.246.815.312.279.065.573.098.866.098.301 0 .609-.033.909-.101.46-.102.92-.315 1.326-.612l-.101 1.098-.044.402-.022.203-.028.283-.04.384a.4.4 0 0 0 .087.301.457.457 0 0 0 .304.17h.036a.42.42 0 0 0 .283-.105l.076-.083a.48.48 0 0 0 .076-.196c.116-.435.206-.916.282-1.514l.145-1.507a25.06 25.06 0 0 0 .004-3.079c-.109-1.884-.504-3.818-1.196-5.912a24.5 24.5 0 0 0-1.119-2.771 25.75 25.75 0 0 0-1.434-2.648 26.797 26.797 0 0 0-1.663-2.409 18.89 18.89 0 0 0-1.674-1.858 22.957 22.957 0 0 0-2.065-1.815 21.471 21.471 0 0 0-2.3-1.547c-1.688-.978-3.322-1.569-4.858-1.757l-.822-.018-.268.004z" fill="#84b3ff"/><path d="M184.977 30.911c-4.151 0-7.814 3.431-8.712 8.154-1.007 5.289 1.877 10.299 6.426 11.165a7.49 7.49 0 0 0 1.363.127c4.151 0 7.813-3.427 8.712-8.154 1.007-5.289-1.877-10.299-6.427-11.165a7.47 7.47 0 0 0-1.362-.127z" class="D"/><path d="M187.506 31.458c-4.083-.775-8.209 2.866-9.213 8.129s1.5 10.168 5.583 10.944 8.208-2.865 9.212-8.129-1.5-10.168-5.582-10.944z" class="E"/><g class="B"><rect x="15" y="122" width="210" height="100" rx="8" fill-opacity=".5"/><path d="M110.73 188.634a3.71 3.71 0 0 1 3.675-3.007 3.705 3.705 0 0 1 3.599 2.832c.788 3.182 1.899 8.909 3.157 15.389l3.695 18.361h-17.112c-.368-8.646 1.342-25.03 2.986-33.575zm-58.724-.183c-.325-1.758-1.866-3.016-3.657-3.024a3.734 3.734 0 0 0-3.624 2.807c-.765 3.001-1.828 8.696-3.035 15.157L38 222.209h16.845c.179-9.124-1.337-25.7-2.84-33.758z"/><path d="m90.746 163.681-1.3-16.172-15.464-.041-1.125 15.896a6.85 6.85 0 0 1-3.949 5.732l-19.688 9.148 5.641 41.808 54.489.159 4.657-40.817-19.587-10.198a6.81 6.81 0 0 1-3.674-5.515z"/></g><mask id="A" maskUnits="userSpaceOnUse" x="49" y="147" width="66" height="74" mask-type="alpha"><path d="m90.746 163.681-1.3-16.172-15.464-.041-1.125 15.896a6.85 6.85 0 0 1-3.949 5.732l-19.688 9.148 5.641 41.808 54.489.159 4.657-40.817-19.587-10.198a6.81 6.81 0 0 1-3.674-5.515z" class="B"/></mask><g mask="url(#A)" class="C"><path d="M71.647 152.469a17.437 17.437 0 0 1 1.348-5.203c1.137-2.617 3.704-5.03 7.657-6.359 4.365-1.472 9.628-1.749 14.378-1.101 3.503.476 6.85 1.666 8.886 3.509 2.173 1.965 2.375 4.925 2.686 7.239.45 3.409-.018 6.885-1.448 10.2a17.066 17.066 0 0 1-6.181 7.466 17.377 17.377 0 0 1-11.086 2.883 17.895 17.895 0 0 1-9.757-3.913c-3.576-2.889-5.63-6.575-6.309-10.211a15.73 15.73 0 0 1-.174-4.51z"/></g><path d="M95.528 168.522s-3.166 13.839-13.855 13.814c-10.798-.034-13.922-14.306-13.922-14.306-6.086 3.187-18.549 6.38-21.586 12.989-2.65 5.765-3.595 12.54-5.074 18.646l9.07.026 2.072 22.518h58.555l2.12-22.335 8.66.025c-1.448-6.121-2.357-12.891-4.965-18.68-2.959-6.508-15.1-9.585-21.074-12.697z" fill="#538aff"/><path d="m126.586 222.898 3.522-6.825c2.283-4.364 4.973-13.653 7.336-21.814 1.384-4.777 2.655-9.168 3.668-11.958l.004-.011 1.268-3.519c.264-.746.537-1.5.986-2.151.314-.448.706-.836 1.098-1.223.196-.194.393-.388.579-.59.863-.937 1.277-2.023 1.688-3.101.311-.817.621-1.629 1.124-2.37.893-1.32 2.408-3.045 3.771-3.901 2.272-1.646 3.989-3.052 3.061-3.827-.63-.533-2.75 1.023-5.097 2.746-1.099.806-2.247 1.65-3.317 2.332.61-1.129 3.471-5.063 3.975-5.559l.737-.967c1.676-2.188 2.937-3.833 1.679-4.123-1.027-.241-2.906 1.894-5.439 4.772l-3.403 3.771-.2-.149c.257-.665 2.433-4.963 3.161-6.401l.127-.251c.324-.639.659-1.251.968-1.815.609-1.113 1.117-2.04 1.235-2.62.191-.939-.415-2.491-2.204-.233l-.52.895c-1.927 3.312-5.278 9.075-5.271 8.682l-.254-.049c.218-2.762.88-5.043 1.391-6.799.588-2.025.973-3.353.242-3.918-1.186-.916-2.122 2.781-2.794 5.438l-.286 1.11c-.493 1.839-2.357 5.577-4.077 6.651-.433.222-1.028.182-1.58-.078a2.094 2.094 0 0 1-.407-.223c-.3-.213-.485-.899-.704-1.707-.249-.92-.541-1.999-1.093-2.716-1.023-1.328-2.199.005-2.199.005s1.511 4.062 1.451 7.293c-.035 2.008.815 3.354 1.534 4.493.432.684.817 1.294.936 1.928.166.847-.71 3.52-.71 3.52-2.008 5.789-11.66 28.416-15.84 37.127l.597 6.336 9.257 1.799z" class="B"/><path d="M139.154 170.19c-.899-3.06-4.686-4.67-5.159-4.856.695.135 1.412.029 1.879-.364 3.687 1.947 3.28 5.22 3.28 5.22z" class="C"/><path d="M66.724 143.963a40.776 40.776 0 0 1-.154-7.926c.333-4.06 2-8.042 5.189-10.635 3.521-2.871 8.158-4.112 12.578-3.902 3.259.153 6.565 1.389 8.868 3.801 2.458 2.569 3.413 6.927 4.296 10.308 1.293 4.983 1.783 10.21 1.37 15.35-.336 4.188-1.367 8.465-3.579 12.044-1.753 2.822-4.35 5.175-7.609 5.834a9.766 9.766 0 0 1-1.557.19c-3.697.144-7.107-1.776-9.753-4.262-3.955-3.718-6.757-8.859-8.314-14.143a39.046 39.046 0 0 1-1.335-6.659z" class="B"/><path d="m99.577 135.006-1.203-2.935c.202.666.782 1.173 1.431 1.397.658.231 1.373.207 2.056.052 4.5-1.013 2.676-6.368-.016-8.296-1.035-.74-2.415-1.08-3.629-.672a5.03 5.03 0 0 0 3.371-3.623c.766-3.384-1.865-5.635-4.94-6.041-1.559-.207-3.306-.085-4.463.982-.159-1.715-1.873-2.8-3.461-3.459-7.027-2.907-19.885-3.474-24.16 4.471.583-1.346-1.645-2.468-2.827-1.591-1.184.869-1.353 2.548-1.365 4.014-.041 7.156 1.939 14.836 3.152 21.906.212 1.249.489 2.486.768 3.731-.003-.017.066-.012.171.012.425-.278.893-.454 1.365-.224.701.088 1.031 1.003 1.23 1.839.202.523.28 1.203.409 1.696l.589 2.189.037-7.756c.014-4.385-.8-8.327.476-12.656.122-.41.342-.889.773-.94.233-.024.457.097.657.223 1.996 1.196 3.896 2.663 6.056 3.543 1.54.625 3.858 1.198 5.295.141 1.184-.869 1.641-2.591 1.043-3.924.704 1.306 1.429 2.633 2.477 3.684s2.477 1.813 3.963 1.746 2.953-1.147 3.168-2.614c.103-.712-.074-1.426-.09-2.142.268.418.546.843.96 1.125.405.284.982.385 1.4.117.614 2.041 1.07 4.101 1.643 6.149.805 2.886 1.904 5.713 2.861 8.548l-.202-3.882c-.037-.645-.063-1.317.215-1.899.203-.433.601-.766 1.069-.848 1.038-.209.447-2.219-.276-4.063z" class="D"/><g fill="#84b3ff"><path d="M97.688 133.876a1.287 1.287 0 0 0-1.062 1.464l2.753 17.002a1.283 1.283 0 0 0 1.465 1.062 4.92 4.92 0 0 0 4.066-5.633l-1.59-9.829a4.92 4.92 0 0 0-5.632-4.066zm-5.641-17.846c.762-.574 1.668-.954 2.612-1.163-6.235-5.855-15.534-7.058-22.957-2.424-9.413 5.873-11.998 17.217-9.696 27.488.367 1.652 2.971 1.21 2.594-.449-1.783-7.951-.706-16.864 5.638-22.627 6.214-5.639 15.443-6.073 21.808-.825z"/><path d="M64.161 139.009a1.28 1.28 0 0 1 1.519.984l3.58 16.848a1.28 1.28 0 0 1-.984 1.519 4.92 4.92 0 0 1-5.827-3.778l-2.072-9.736a4.913 4.913 0 0 1 3.785-5.837z"/></g><path d="M199.453 212.747c.139-.195-.072-.421-.396-.421h-50.841c-3.985 0-7.216 2.166-7.216 4.837s3.23 4.837 7.216 4.837h50.855c.325 0 .537-.227.396-.424-2.012-2.795-2.008-6.046-.014-8.829z" class="C"/><path d="M199.047 213.366h-34.111c-2.52 0-4.563 1.66-4.563 3.706v.278c0 2.047 2.042 3.707 4.563 3.707h34.184c-1.528-2.465-1.545-5.227-.073-7.691zm-49.847-1.47h26.654c2.364 0 4.28-2.066 4.28-4.615s-1.916-4.616-4.28-4.616H149.2a7.51 7.51 0 0 1 .19 8.968l-.19.263z" class="B"/><path d="M179.782 207.281c0-2.549-1.938-4.616-4.329-4.616h-26.739c-.126 0-.226-.108-.225-.241s.102-.237.225-.237h42.417c2.639 0 4.778 2.28 4.778 5.094s-2.139 5.093-4.778 5.093h-42.417c-.124 0-.223-.105-.225-.236s.099-.242.225-.242h26.739c2.391 0 4.329-2.066 4.329-4.615z" fill="#92b5f9"/><path d="M156.211 201.709h26.654c2.364 0 4.28-2.066 4.28-4.615s-1.916-4.616-4.28-4.616h-26.654c2.037 2.558 2.117 6.312.19 8.968l-.19.263z" class="B"/><path d="M186.794 197.094c0-2.55-1.938-4.616-4.329-4.616h-26.74c-.125 0-.226-.108-.224-.241s.101-.237.224-.237h42.418c2.639 0 4.778 2.28 4.778 5.094s-2.139 5.093-4.778 5.093h-42.418c-.123 0-.222-.105-.224-.236s.099-.242.224-.242h26.74c2.391 0 4.329-2.066 4.329-4.615z" fill="#5b9aff"/><defs><linearGradient id="B" x1="120" y1="0" x2="120" y2="240" gradientUnits="userSpaceOnUse"><stop stop-color="#69a0ff"/><stop offset="1" stop-color="#d6e5ff"/></linearGradient></defs></svg>