<svg xmlns="http://www.w3.org/2000/svg" viewBox="0 0 108 95"><defs><linearGradient id="a" x1="50%" x2="50%" y1="99.443%" y2="0%"><stop offset="0%" stop-color="#444E60" stop-opacity="0"/><stop offset="100%" stop-color="#444E60"/></linearGradient></defs><path fill="url(#a)" fill-rule="evenodd" d="M18 154.798c0-14.195 8.629-27.005 21.9-32.58l.404-.167 17.59-7.144c2.816-1.144 4.761-3.705 5.083-6.666L63 108l-3.886-3.768a17.685 17.685 0 0 1-5.368-11.653l-.018-.357-.219-.239a12.068 12.068 0 0 1-2.987-6.598l-.034-.32-.047-.505a3.442 3.442 0 0 1-.014-.317c0-1.882 1.51-3.417 3.405-3.503l.168-.004v-3.072c0-9.658 7.899-17.506 17.702-17.662L72 60c9.941 0 18 7.908 18 17.664v3.072c1.974 0 3.573 1.57 3.573 3.507 0 .106-.004.212-.014.317l-.047.506a12.062 12.062 0 0 1-3.021 6.917l-.22.24c-.174 4.529-2.1 8.823-5.385 12.009L81 108c.233 2.966 1.99 5.602 4.644 7.003l17.66 7.048c13.585 5.422 22.516 18.304 22.693 32.667l.003.436V156H18v-1.202z" opacity=".16" transform="translate(-18 -60)"/></svg>