<svg xmlns="http://www.w3.org/2000/svg" viewBox="0 0 108 95">
    <defs />
    <defs>
        <linearGradient id="a" x1="50%" x2="50%" y1="99.4427%" y2="0%">
            <stop offset="0%" stop-color="#444E60" stop-opacity="0" />
            <stop offset="100%" stop-color="#444E60" />
        </linearGradient>
    </defs>
    <path fill="url(#a)" fill-rule="evenodd"
        d="M18 154.7984c0-14.195 8.6286-27.0056 21.9007-32.5808l.4036-.1667 17.5902-7.1442c2.8157-1.1436 4.761-3.705 5.083-6.6658L63 108l-3.8859-3.7681c-3.199-3.1021-5.109-7.2549-5.3686-11.6525l-.0175-.357-.219-.2391c-1.6525-1.8522-2.694-4.1529-2.987-6.5978l-.034-.3197-.0468-.5056a3.4418 3.4418 0 01-.0146-.3175c0-1.8813 1.5097-3.4167 3.4052-3.5029L54 80.736v-3.072c0-9.658 7.8985-17.5056 17.7023-17.6616L72 60c9.9411 0 18 7.9084 18 17.664v3.072c1.9736 0 3.5734 1.57 3.5734 3.5067 0 .106-.0048.212-.0146.3175l-.0469.5056c-.2375 2.5637-1.2966 4.9847-3.021 6.9175l-.219.239c-.1747 4.5295-2.1005 8.8236-5.386 12.0096L81 108c.2325 2.9662 1.9897 5.6017 4.644 7.0032l17.6603 7.0477c13.5849 5.4224 22.5158 18.3046 22.693 32.667l.0027.4357V156H18v-1.2016z"
        opacity=".16" transform="translate(-18 -60)" />
</svg>
