<svg width="24" height="24" fill="none" xmlns="http://www.w3.org/2000/svg"><path opacity=".01" fill="#fff" d="M0 0h24v24H0z"/><path d="M2 3a3 3 0 0 1 3-3h9l8 8v13a3 3 0 0 1-3 3H5a3 3 0 0 1-3-3V3Z" fill="url(#a)"/><path d="m14 0 8 8h-5a3 3 0 0 1-3-3V0Z" fill="url(#b)"/><path d="M9 11h4a2 2 0 1 1 0 4h-2m0-4v8m-2 0h4" stroke="#fff" stroke-width="1.5" stroke-linejoin="round"/><defs><linearGradient id="a" x1="14" y1="-4" x2="14" y2="24" gradientUnits="userSpaceOnUse"><stop stop-color="#FFDA89"/><stop offset="1" stop-color="#F9AA00"/></linearGradient><linearGradient id="b" x1="22" y1="0" x2="14" y2="8" gradientUnits="userSpaceOnUse"><stop stop-color="#FFCD5F"/><stop offset="1" stop-color="#F90"/></linearGradient></defs></svg>