<svg xmlns="http://www.w3.org/2000/svg" fill="none" viewBox="0 0 24 24"><path fill="#44AD00" fill-rule="evenodd" d="M5.99 5.99a.5.5 0 0 1 .707.707 7.5 7.5 0 0 0 0 10.606.5.5 0 1 1-.707.707 8.5 8.5 0 0 1 0-12.02Zm11.313 0a.5.5 0 0 1 .707 0 8.5 8.5 0 0 1 0 12.02.5.5 0 1 1-.707-.707 7.5 7.5 0 0 0 0-10.606.5.5 0 0 1 0-.707ZM12 14a2 2 0 1 0 0-4 2 2 0 0 0 0 4ZM8.11 7.404a.5.5 0 0 0-.706 0 6.5 6.5 0 0 0 0 9.192.5.5 0 1 0 .707-.707 5.5 5.5 0 0 1 0-7.778.5.5 0 0 0 0-.707Zm8.486 0a.5.5 0 1 0-.707.707 5.5 5.5 0 0 1 0 7.778.5.5 0 1 0 .707.707 6.5 6.5 0 0 0 0-9.192ZM8.818 8.818a.5.5 0 1 1 .707.707 3.5 3.5 0 0 0 0 4.95.5.5 0 1 1-.707.707 4.5 4.5 0 0 1 0-6.364Zm5.657 0a.5.5 0 0 1 .707 0 4.5 4.5 0 0 1 0 6.364.5.5 0 1 1-.707-.707 3.5 3.5 0 0 0 0-4.95.5.5 0 0 1 0-.707Z" clip-rule="evenodd"/></svg>