<svg width="132" height="132" xmlns="http://www.w3.org/2000/svg"><defs><linearGradient x1="50%" y1="0%" x2="50%" y2="100%" id="a"><stop stop-color="#FFF" stop-opacity=".4" offset="0%"/><stop stop-color="#FFF" stop-opacity=".664" offset="100%"/></linearGradient></defs><g fill="none" fill-rule="evenodd"><path fill="#BFD9FF" d="M0 132V0h132v132z"/><rect fill="url(#a)" x="6" y="6" width="58" height="58" rx="8"/><rect fill="url(#a)" x="6" y="68" width="58" height="58" rx="8"/><circle fill="#66A1FF" cx="15" cy="77" r="3"/><rect fill="url(#a)" x="68" y="6" width="58" height="58" rx="8"/><rect fill="url(#a)" x="68" y="68" width="58" height="58" rx="8"/><circle fill="#66A1FF" cx="77" cy="77" r="3"/><circle fill="#66A1FF" cx="15" cy="15" r="3"/><circle fill="#66A1FF" cx="77" cy="15" r="3"/><path d="m56 64-.279-3.902A15.683 15.683 0 0 0 45.5 46.5a36.495 36.495 0 0 0-19.445-1.606L25.5 45a13.718 13.718 0 0 0-11.128 12.67L14 64h42Z" fill="#3381FF"/><path d="m32 44-.336.504A5.606 5.606 0 0 1 27 47l-1.86.372A6.87 6.87 0 0 1 19.5 46l-.157-.126A6.242 6.242 0 0 1 17 41a9 9 0 0 1 1.8-5.4L20 34l2.55-7.013A19.124 19.124 0 0 1 27 20l.15-.15A11.749 11.749 0 0 1 34 16.5a8.242 8.242 0 0 1 6.85 2.35L41 19l.879.586A6.155 6.155 0 0 1 44.5 23.5l.108.539c.26 1.304.392 2.63.392 3.961 0 1.315.306 2.612.894 3.789L46 32a13.78 13.78 0 0 0 2.581 3.581L49 36a5.496 5.496 0 0 1 1.535 4.79L50.5 41a5.051 5.051 0 0 1-3.385 3.962L47 45l-.232.232A6.036 6.036 0 0 1 42.5 47a3.469 3.469 0 0 1-3.29-2.372L39 44h-7Z" fill="#444E60"/><path d="m42.128 25.365.492.947a16.679 16.679 0 0 1 1.751 9.714l-.147 1.201a7.776 7.776 0 0 1-3.938 5.85 8.94 8.94 0 0 1-1.38.621l.036 2.22a5.065 5.065 0 0 1-3.095 4.752l-.134.056a6.635 6.635 0 0 1-5.866-.35 4.202 4.202 0 0 1-1.965-4.78l1.207-4.321a8.016 8.016 0 0 1-1.845-3.63l-.652-3.01-1.833-.557a2.132 2.132 0 0 1-1.49-2.353 1.912 1.912 0 0 1 2.097-1.62l1.405.151.181-3.044a7.076 7.076 0 0 1 6.375-6.623 8.936 8.936 0 0 1 8.801 4.776Z" fill="#FFF"/><path d="M26.77 30.26A4.503 4.503 0 0 1 31.266 26h4.154a9.743 9.743 0 0 0 3.081-.5 2.725 2.725 0 0 0 1.81-2.05L41 20H28l-3 6 1.77 4.26ZM89.651 38l-1.237-.53a7.868 7.868 0 0 1-4.205-4.312l-.192-.482a10.944 10.944 0 0 1-.715-5.268 5.535 5.535 0 0 1 2.652-4.135l.674-.405c0-2.87 1.89-5.398 4.645-6.21l.494-.145a12.687 12.687 0 0 1 9.808 1.116l3.662 2.061a3.361 3.361 0 0 1 1.647 2.27 2.886 2.886 0 0 1-.789 2.605l-.118.12a4.624 4.624 0 0 1 .24 6.275l-.845.987L89.652 38Z" fill="#444E60"/><path d="m118 64-.279-3.902A15.683 15.683 0 0 0 107.5 46.5a36.495 36.495 0 0 0-19.445-1.606L87.5 45a13.718 13.718 0 0 0-11.128 12.67L76 64h42Z" fill="#3381FF"/><path d="m104.128 25.365.492.947a16.679 16.679 0 0 1 1.751 9.714l-.147 1.201a7.776 7.776 0 0 1-3.938 5.85 8.94 8.94 0 0 1-1.38.621l.036 2.22a5.065 5.065 0 0 1-3.095 4.752l-.134.056a6.635 6.635 0 0 1-5.866-.35 4.202 4.202 0 0 1-1.965-4.78l1.207-4.321a8.016 8.016 0 0 1-1.845-3.63l-.652-3.01-1.833-.557a2.132 2.132 0 0 1-1.49-2.353 1.912 1.912 0 0 1 2.097-1.62l1.405.151.181-3.044a7.076 7.076 0 0 1 6.375-6.623 8.936 8.936 0 0 1 8.801 4.776Z" fill="#FFF"/><path d="m88.58 30 .224-.09a4.784 4.784 0 0 0 3.002-4.44l1.252.21c4.291.717 8.677.646 12.942-.21l-1.935-5.176L93.097 19 86 24.824 88.58 30Z" fill="#444E60"/><path d="m56 126-.279-3.902A15.683 15.683 0 0 0 45.5 108.5a36.495 36.495 0 0 0-19.445-1.606L25.5 107a13.718 13.718 0 0 0-11.128 12.67L14 126h42Z" fill="#3381FF"/><path d="M39.53 78.687 40 79l2.226-.445A5.285 5.285 0 0 1 47 80l.096.096A4.083 4.083 0 0 1 48 84.5a6.5 6.5 0 0 1-3.475 3.56l-1.025.44c-.217.093-.436.18-.657.259-.073-.151-.147-.3-.223-.447l-.492-.947a8.936 8.936 0 0 0-8.801-4.776 7.076 7.076 0 0 0-6.375 6.623l-.18 3.044-1.406-.152a1.912 1.912 0 0 0-2.097 1.62 2.132 2.132 0 0 0 1.49 2.354l1.833.556.652 3.01c.152.7.394 1.367.715 1.987L28 102a6.325 6.325 0 0 1-3.913-3.756L24 98l-2.126-2.657a8.552 8.552 0 0 1 0-10.686l.252-.314a6.242 6.242 0 0 1 4.604-2.337L27 82l1.85-1.85A9.49 9.49 0 0 1 34 77.5a7.691 7.691 0 0 1 5.53 1.187Z" fill="#444E60"/><path d="m42.128 87.365.492.947a16.679 16.679 0 0 1 1.751 9.714l-.147 1.201a7.776 7.776 0 0 1-3.938 5.85 8.94 8.94 0 0 1-1.38.621l.036 2.22a5.065 5.065 0 0 1-3.095 4.752l-.134.056a6.635 6.635 0 0 1-5.866-.35 4.202 4.202 0 0 1-1.965-4.78l1.207-4.321a8.016 8.016 0 0 1-1.845-3.63l-.652-3.01-1.833-.557a2.132 2.132 0 0 1-1.49-2.353 1.912 1.912 0 0 1 2.097-1.62l1.405.151.181-3.044a7.076 7.076 0 0 1 6.375-6.623 8.936 8.936 0 0 1 8.801 4.776Z" fill="#FFF"/><path d="M20 90a8.55 8.55 0 0 1 1.874-5.343l.252-.314a6.242 6.242 0 0 1 4.604-2.337L27 82l1.85-1.85A9.49 9.49 0 0 1 34 77.5a7.691 7.691 0 0 1 5.53 1.187L40 79l2.226-.445A5.285 5.285 0 0 1 47 80l.096.096A4.083 4.083 0 0 1 48 84.5a6.5 6.5 0 0 1-3.475 3.56l-1.025.44a11.815 11.815 0 0 1-7.217.674L31 88a4.253 4.253 0 0 1-3.992 4.245l-.238.015C22.257 92.048 20 91.295 20 90Z" fill="#444E60"/><path d="m118 126-.279-3.902A15.683 15.683 0 0 0 107.5 108.5a36.495 36.495 0 0 0-19.445-1.606L87.5 107a13.718 13.718 0 0 0-11.128 12.67L76 126h42Z" fill="#3381FF"/><path d="M92 107h-.838c-2.094 0-4.175-.338-6.162-1l-1.734-6.936A18.993 18.993 0 0 1 83.5 89l.063-.21A15.194 15.194 0 0 1 89 81a11.183 11.183 0 0 1 8.903-2.02l1.268.254A11.063 11.063 0 0 1 105.5 83a14.832 14.832 0 0 1 3.199 6.842L109 91.5c.665 3.66 1 7.37 1 11.09V105l-7 1-3-4h-7l-1 5Z" fill="#444E60"/><path d="m104.128 87.365.492.947a16.679 16.679 0 0 1 1.751 9.714l-.147 1.201a7.776 7.776 0 0 1-3.938 5.85 8.94 8.94 0 0 1-1.38.621l.036 2.22a5.065 5.065 0 0 1-3.095 4.752l-.134.056a6.635 6.635 0 0 1-5.866-.35 4.202 4.202 0 0 1-1.965-4.78l1.207-4.321a8.016 8.016 0 0 1-1.845-3.63l-.652-3.01-1.833-.557a2.132 2.132 0 0 1-1.49-2.353 1.912 1.912 0 0 1 2.097-1.62l1.405.151.181-3.044a7.076 7.076 0 0 1 6.375-6.623 8.936 8.936 0 0 1 8.801 4.776Z" fill="#FFF"/><path d="M88.77 92.26 89 90c3.263.653 6.645.342 9.734-.894L99 89l-1-3 2 3c1.973 0 3.919-.46 5.683-1.342L107 87l-8-6h-7l-6 5-1 4 3.77 2.26Z" fill="#444E60"/></g></svg>