<svg width="24" height="24" xmlns="http://www.w3.org/2000/svg"><path d="M15.537 8.84c.23 0 .457.017.684.042C15.61 6.08 12.56 4 9.08 4 5.187 4 2 6.603 2 9.911c0 1.91 1.06 3.477 2.832 4.694l-.707 2.09L6.6 15.479c.885.17 1.595.347 2.479.347.222 0 .442-.01.66-.025a5.124 5.124 0 0 1-.219-1.459c.001-3.036 2.656-5.501 6.018-5.501Zm-3.805-1.884c.536 0 .887.345.887.868 0 .52-.351.869-.886.869-.53 0-1.062-.349-1.062-.87 0-.524.532-.867 1.062-.867ZM6.78 8.693c-.532 0-1.066-.349-1.066-.87 0-.522.534-.867 1.066-.867.531 0 .883.343.883.868 0 .52-.352.869-.883.869ZM22 14.258c0-2.78-2.832-5.044-6.014-5.044-3.369 0-6.02 2.266-6.02 5.044 0 2.786 2.653 5.044 6.02 5.044.705 0 1.416-.173 2.124-.348L20.051 20l-.532-1.738C20.94 17.214 22 15.825 22 14.258Zm-7.966-.87c-.352 0-.708-.344-.708-.695 0-.346.356-.695.708-.695.537 0 .886.349.886.695 0 .351-.349.695-.886.695Zm3.893 0c-.348 0-.703-.344-.703-.695 0-.346.354-.695.703-.695.533 0 .887.349.887.695 0 .351-.354.695-.887.695Z" fill="#FFF"/></svg>