<?xml version="1.0" encoding="UTF-8"?>
<svg width="22px" height="22px" viewBox="0 0 22 22" version="1.1" xmlns="http://www.w3.org/2000/svg" xmlns:xlink="http://www.w3.org/1999/xlink">
    <title>invite备份</title>
    <g id="Flat-单窗口" stroke="none" stroke-width="1" fill="none" fill-rule="evenodd" stroke-linecap="round" stroke-linejoin="round">
        <g id="设置_常规设置（单窗口）" transform="translate(-88.000000, -73.000000)" stroke="#7A7B7C">
            <g id="编组-3" transform="translate(72.000000, 0.000000)">
                <g id="编组-11" transform="translate(0.000000, 64.000000)">
                    <g id="invite备份" transform="translate(16.000000, 9.000000)">
                        <path d="M7,16 L15,16 C16.1045695,16 17,15.1045695 17,14 L17,8 C17,6.8954305 16.1045695,6 15,6 L7,6 C5.8954305,6 5,6.8954305 5,8 L5,14 C5,15.1045695 5.8954305,16 7,16 Z" id="路径-12"></path>
                        <line x1="7.5" y1="13.5" x2="14.5" y2="13.5" id="路径-13"></line>
                        <line x1="7.5" y1="9" x2="8.5" y2="9" id="路径-15"></line>
                        <line x1="7.5" y1="11" x2="8.5" y2="11" id="路径-15备份-3"></line>
                        <line x1="10.5" y1="9" x2="11.5" y2="9" id="路径-15备份"></line>
                        <line x1="10.5" y1="11" x2="11.5" y2="11" id="路径-15备份-4"></line>
                        <line x1="13.5" y1="9" x2="14.5" y2="9" id="路径-15备份-6"></line>
                        <line x1="13.5" y1="11" x2="14.5" y2="11" id="路径-15备份-7"></line>
                    </g>
                </g>
            </g>
        </g>
    </g>
</svg>