<svg width="80" height="80" xmlns="http://www.w3.org/2000/svg"><g fill="none" fill-rule="evenodd"><path d="M57.566.5c2.377.044 2.705.052 2.891.06l.039.001c3.552.163 5.654.516 7.35 1.069.697.236 1.17.427 1.626.636 3.9 2.048 6.115 4.248 7.621 7.057 1.245 2.92 1.337 3.198 1.408 3.457.335 1.478.445 2.07.518 2.578l.027.189.295 45.324c-.366 4.014-.454 4.563-.553 5.056-.34 1.398-.423 1.686-.5 1.922-2.679 5.5-4.875 7.734-7.69 9.243-2.921 1.246-3.2 1.338-3.459 1.409-1.662.376-2.203.469-2.767.545l-45.323.295c-3.698-.337-4.455-.438-4.937-.53l-.08-.016-.04-.007c-1.398-.34-1.686-.423-1.921-.5-5.505-2.68-7.737-4.878-9.247-7.696C1.23 67.027.716 64.623.554 60.337a87.43 87.43 0 0 1-.053-2.702l-.001-.29V22.352c.044-2.377.052-2.705.06-2.891l.001-.038c.163-3.553.516-5.655 1.069-7.35.236-.698.427-1.17.636-1.627 2.05-3.901 4.25-6.117 7.062-7.623C12.893 1.23 15.296.716 19.583.554a87.43 87.43 0 0 1 2.702-.053l.29-.001Z" stroke="#DBE1EA" fill="#FFF"/><path d="M21.671 51.327h6.844v6.843a6.844 6.844 0 1 1-6.844-6.843Z" fill="#D1E1FA"/><path d="M26.234 33.077h20.53v6.844a6.844 6.844 0 0 1-6.843 6.843H26.234a6.844 6.844 0 0 1 0-13.687Z" fill="#83B1FD"/><path d="M30.796 14.828h34.218v6.843a6.844 6.844 0 0 1-6.844 6.844H30.796a6.844 6.844 0 0 1 0-13.687Z" fill="#3381FF"/></g></svg>