<?xml version="1.0" encoding="UTF-8"?>
<svg width="22px" height="22px" viewBox="0 0 22 22" version="1.1" xmlns="http://www.w3.org/2000/svg" xmlns:xlink="http://www.w3.org/1999/xlink">
    <title>invite备份</title>
    <g id="Flat-单窗口" stroke="none" stroke-width="1" fill="none" fill-rule="evenodd" stroke-linecap="round" stroke-linejoin="round">
        <g id="设置_关于我们（单窗口）" transform="translate(-609.000000, -364.000000)" stroke="#FFFFFF">
            <g id="编组-5" transform="translate(593.000000, 195.000000)">
                <g id="编组-2" transform="translate(0.000000, 164.000000)">
                    <g id="invite备份" transform="translate(16.000000, 5.000000)">
                        <path d="M17,11 C17,7.6862915 14.3137085,5 11,5 C9.43446666,5 8.00897339,5.59958281 6.94062725,6.58164139" id="椭圆形"></path>
                        <line x1="17" y1="11" x2="17" y2="6" id="路径"></line>
                        <path d="M16.1210636,13.8718991 C15.8132078,13.3689789 15.4333478,12.9149166 14.995825,12.5240538 C13.9348128,11.576194 12.5346951,11 11,11 C7.6862915,11 5,13.6862915 5,17" id="椭圆形" transform="translate(10.560532, 14.000000) scale(1, -1) translate(-10.560532, -14.000000) "></path>
                        <line x1="5" y1="16" x2="5" y2="11" id="路径" transform="translate(5.000000, 13.500000) scale(1, -1) translate(-5.000000, -13.500000) "></line>
                    </g>
                </g>
            </g>
        </g>
    </g>
</svg>