<svg width="22" height="22" xmlns="http://www.w3.org/2000/svg"><path d="M13.004 12.935c.902-.175 1.72-.478 2.355-.922C16.445 11.253 17 10.08 17 8.92c0-.813-.33-1.572-.903-2.215-.318-.358.614-3.032-.215-2.672-.828.36-2.043 1.157-2.68.981A8.288 8.288 0 0 0 11 4.723c-.675 0-1.325.078-1.93.222-.88.209-1.723-.572-2.57-.912-.847-.34-.385 2.426-.637 2.717C5.315 7.383 5 8.126 5 8.92c0 1.16.672 2.333 1.757 3.093.724.506 1.63.828 2.646.987m.097 0c-.667.516-1 1.007-1 1.47V18m4.5-5c.667.575 1 1.09 1 1.548V18m-9-4c.3.035.522.166.667.393C5.884 14.735 6.69 16 7.607 16H8" stroke="#7A7B7C" fill="none" stroke-linecap="round"/></svg>