<svg width="24" height="24" xmlns="http://www.w3.org/2000/svg"><g fill="#7A7B7C"><path d="M17.667 4.5h-3.334c-1.012 0-1.833.82-1.833 1.833V11.5h5.167c1.012 0 1.833-.82 1.833-1.833V6.333c0-1.012-.82-1.833-1.833-1.833Zm-3.334 1h3.334c.46 0 .833.373.833.833v3.334l-.006.104a.833.833 0 0 1-.827.729H13.5V6.333c0-.46.373-.833.833-.833Z"/><path d="M6.333 19.5A1.833 1.833 0 0 1 4.5 17.667v-3.334c0-.525.221-1 .576-1.334a1.822 1.822 0 0 1-.576-1.332V8.333c0-1.012.82-1.833 1.833-1.833H10A1.5 1.5 0 0 1 11.5 8v4.5h4.167c.962 0 1.75.74 1.827 1.683l.006.15v3.334c0 1.012-.82 1.833-1.833 1.833Zm4.167-6H6.333a.833.833 0 0 0-.827.729l-.006.104v3.334c0 .46.373.833.833.833H10.5v-5Zm5.167 0H11.5v5h4.167c.46 0 .833-.373.833-.833v-3.334a.833.833 0 0 0-.833-.833ZM10 7.5H6.333a.833.833 0 0 0-.833.833v3.334c0 .46.373.833.833.833H10.5V8a.5.5 0 0 0-.41-.492L10 7.5Z"/></g></svg>