<?xml version="1.0" encoding="UTF-8"?>
<svg width="24px" height="24px" viewBox="0 0 24 24" version="1.1" xmlns="http://www.w3.org/2000/svg" xmlns:xlink="http://www.w3.org/1999/xlink">
    <title>copy@2x</title>
    <g id="Flat" stroke="none" stroke-width="1" fill="none" fill-rule="evenodd" stroke-linecap="round" stroke-linejoin="round">
        <g id="白板-云盘" transform="translate(-1096.000000, -45.000000)" stroke="#7A7B7C">
            <g id="编组-4" transform="translate(0.000000, 32.000000)">
                <g id="copy" transform="translate(1096.000000, 13.000000)">
                    <path d="M7.91666667,17 C6.30583615,17 5,15.6831904 5,14.0588235 C5,12.4344566 6.30583615,11.1176471 7.91666667,11.1176471 C7.93305593,11.1176471 7.94941362,11.1177834 7.96573869,11.1180549 C7.93331137,10.9272809 7.91666667,10.7303064 7.91666667,10.5294118 C7.91666667,8.58017147 9.48367004,7 11.4166667,7 C12.952263,7 14.2568843,7.99723192 14.7284085,9.38451376 C14.8849107,9.36330169 15.0454222,9.35294118 15.2083333,9.35294118 C17.302413,9.35294118 19,11.0647936 19,13.1764706 C19,15.1893337 17.4575697,16.8389155 15.4995668,16.9888892 L15.5,17 L7.91666667,17 Z" id="形状结合"></path>
                </g>
            </g>
        </g>
    </g>
</svg>